<svg width="744" height="1117" viewBox="0 0 744 1117" fill="none" xmlns="http://www.w3.org/2000/svg">
<g clip-path="url(#clip0_625_3070)">
<path d="M501.01 713.312C455.718 754.001 405.521 788.872 351.588 817.116C405.601 789.004 455.814 754.122 501.01 713.312Z" fill="#F2F2F2"/>
<path d="M332.985 856.365C342.552 844.311 383.942 797.196 476.324 742.868C383.911 797.365 343.26 844.266 332.985 856.365Z" fill="#F2F2F2"/>
<path d="M351.67 815.732C340.119 821.473 328.061 827.12 315.927 832.229C328.782 827.953 339.963 822.319 351.67 815.732Z" fill="#F2F2F2"/>
<path d="M501.011 713.312C455.759 753.877 405.535 788.52 351.546 816.408C339.964 822.318 328.104 827.828 315.939 833.105C323.357 839.422 329.196 847.387 332.985 856.365C342.753 844.173 383.91 797.365 477.338 743.055C486.935 737.479 496.903 731.795 507.577 726.067C504.234 722.517 501.958 718.097 501.011 713.312Z" fill="#F2F2F2"/>
<path d="M233.313 831.685C173.195 788.758 120.91 735.805 78.7448 675.143C74.7498 685.14 67.4782 693.481 58.1203 698.8C58.1203 698.8 127.89 729.159 222.087 843.259C225.363 838.974 229.13 835.089 233.313 831.685Z" fill="#F2F2F2"/>
<path d="M628.385 418.984C628.385 418.984 628.385 418.984 628.604 417.8C606.236 427.522 582.277 433.063 557.914 434.149C582.127 433.389 606.002 428.252 628.385 418.984Z" fill="#F2F2F2"/>
<path d="M558.778 439.905L558.591 440.92C581.908 433.305 606.237 429.242 630.761 428.867L630.949 427.853C606.428 428.276 582.107 432.338 558.778 439.905Z" fill="#F2F2F2"/>
<path d="M628.421 423.538C628.433 422.036 628.707 420.548 629.232 419.14C606.909 428.707 583.037 434.142 558.774 435.182C559.172 436.432 559.462 437.715 559.64 439.015C559.658 439.363 559.594 439.711 559.453 440.03C582.781 432.463 607.103 428.401 631.624 427.977C630.419 426.601 629.347 425.114 628.421 423.538Z" fill="#F2F2F2"/>
<path d="M280.707 1016.56C273.277 995.51 269.5 973.339 269.54 951.011C268.715 973.379 272.197 995.696 279.798 1016.75L280.707 1016.56Z" fill="#F2F2F2"/>
<path d="M265.445 945.709L264.432 945.522C269.479 969.503 270.837 994.112 268.459 1018.5L268.085 1020.53L269.887 1019.29C272.491 1018.03 275.3 1017.24 278.183 1016.97C275.151 1016.69 272.098 1017.21 269.335 1018.49C271.721 994.173 270.41 969.634 265.445 945.709Z" fill="#F2F2F2"/>
<path d="M269.539 951.011C269.82 949.489 270.1 947.967 269.566 946.119L269.539 951.011Z" fill="#F2F2F2"/>
<path d="M265.445 945.709C270.47 969.635 271.838 994.185 269.504 1018.52C272.267 1017.24 275.32 1016.72 278.352 1017.01L280.043 1017.32C272.442 996.266 268.96 973.949 269.784 951.581L269.642 946.657L265.445 945.709Z" fill="#F2F2F2"/>
<path d="M261.751 748.598L260.737 748.411C267.463 770.715 270.264 794.018 269.02 817.282C270.586 794.139 268.126 770.9 261.751 748.598Z" fill="#F2F2F2"/>
<path d="M274.25 817.371L275.264 817.558C270.685 794.31 269.478 770.523 271.677 746.931L270.831 746.774C268.493 770.347 269.646 794.135 274.25 817.371Z" fill="#F2F2F2"/>
<path d="M510.111 332.103L512.22 331.093C515.594 329.618 518.406 327.1 520.242 323.907C522.078 320.715 522.839 317.019 522.417 313.36C521.996 309.702 520.413 306.276 517.899 303.586C515.386 300.896 512.074 299.083 508.453 298.415C504.833 297.747 501.094 298.26 497.786 299.877C494.478 301.493 491.777 304.129 490.078 307.396C488.379 310.664 487.772 314.389 488.349 318.026C488.925 321.663 490.654 325.018 493.279 327.599C495.949 330.056 499.396 331.497 503.02 331.67C504.661 331.8 506.312 331.753 507.943 331.528L510.111 332.103Z" fill="#F2F2F2"/>
<path d="M513.066 331.249L510.109 332.103L508.757 331.854C507.133 332.152 505.473 332.2 503.834 331.995L501.636 331.59L499.268 331.153L500.001 332.863C506.794 356.87 508.527 382.027 505.088 406.74L506.102 406.927C509.521 382.214 507.79 357.061 501.016 333.05C504.552 334.044 508.325 333.747 511.662 332.214C507.51 356.6 507.108 381.478 510.472 405.984L511.488 406.172C508.125 381.843 508.552 357.14 512.753 332.941L513.066 331.249Z" fill="#F2F2F2"/>
<path d="M503.741 332.503C505.379 332.708 507.04 332.66 508.664 332.362C507.033 332.586 505.382 332.633 503.741 332.503Z" fill="#F2F2F2"/>
<path d="M511.078 331.582L514.035 330.728L511.078 331.582Z" fill="#F2F2F2"/>
<path d="M511.6 332.553C508.262 334.086 504.489 334.381 500.954 333.388C507.728 357.398 509.458 382.552 506.039 407.266L510.41 406.322C507.046 381.815 507.447 356.939 511.6 332.553Z" fill="#F2F2F2"/>
<path d="M533.876 684.915C532.988 677.405 526.918 627.835 526.519 567.416L519.79 564.076C519.952 605.382 517.654 646.661 512.905 687.694C518.279 684.224 524.768 682.921 531.065 684.047L533.876 684.915Z" fill="#F2F2F2"/>
<path d="M520.811 483.628C519.668 483.515 518.537 483.306 517.429 483.004C517.815 488.498 519.445 511.888 519.775 545.182L526.353 547.445C526.407 526.29 526.819 504.152 528.382 482.401C526.849 482.863 525.27 483.157 523.673 483.281L520.967 482.782L520.811 483.628Z" fill="#F2F2F2"/>
<path d="M646.144 631.806L638.111 627.001C609.81 652.579 578.873 675.076 545.82 694.115C548.098 696.739 549.737 699.855 550.611 703.219C579.647 675.869 611.696 651.912 646.144 631.806Z" fill="#F2F2F2"/>
<path d="M303.21 692.575C303.736 694.091 304.815 695.353 306.231 696.107C297.135 700.741 288.863 706.838 281.744 714.154L282.603 715.187C289.612 707.874 297.769 701.756 306.752 697.077L308.291 696.312C306.436 695.446 304.871 694.064 303.78 692.331C303.448 691.689 303.22 690.998 303.108 690.284L302.765 692.144C296.724 700.143 289.126 706.834 280.427 711.813L280.271 712.658C289.232 707.634 297.045 700.794 303.21 692.575Z" fill="#F2F2F2"/>
<path d="M308.291 696.312L305.756 695.844C304.695 695.175 303.894 694.163 303.486 692.976L302.446 691.036C302.558 691.75 302.784 692.441 303.116 693.083C304.49 694.641 306.288 695.763 308.291 696.312Z" fill="#F2F2F2"/>
<path d="M363.511 912.719C363.571 914.61 364.127 916.453 365.121 918.063C366.115 919.673 367.511 920.995 369.174 921.897C370.837 922.799 372.709 923.25 374.6 923.204C376.492 923.158 378.337 922.618 379.955 921.637C381.573 920.656 382.907 919.267 383.822 917.611C384.738 915.955 385.202 914.087 385.171 912.195C385.141 910.303 384.617 908.452 383.649 906.826C382.681 905.2 381.303 903.856 379.655 902.928C378.187 901.97 376.5 901.403 374.753 901.278C373.005 901.154 371.254 901.477 369.665 902.217C368.077 902.956 366.704 904.088 365.673 905.506C364.643 906.923 363.991 908.58 363.778 910.32L363.511 912.719Z" fill="#F2F2F2"/>
<path d="M336.509 897.944C345.128 901.98 354.227 904.893 363.587 906.611C362.88 907.962 362.597 909.495 362.776 911.01C354.479 906.162 345.591 902.406 336.333 899.835C336.333 899.835 336.333 899.836 336.145 900.851C345.323 903.439 354.157 907.123 362.453 911.824L363.805 912.074C363.859 911.27 364.006 910.475 364.242 909.705C364.189 908.313 364.445 906.927 364.99 905.646C364.99 905.646 364.99 905.646 362.622 905.209C353.962 903.489 345.547 900.703 337.571 896.915L336.509 897.944Z" fill="#F2F2F2"/>
<path d="M363.035 912.456L363.378 910.596C363.208 911.204 363.093 911.827 363.035 912.456Z" fill="#F2F2F2"/>
<path d="M363.587 906.611C354.226 904.893 345.127 901.98 336.508 897.944C336.315 898.547 336.2 899.172 336.165 899.805C345.424 902.375 354.312 906.131 362.608 910.979C362.487 909.458 362.827 907.935 363.587 906.611Z" fill="#F2F2F2"/>
<path d="M188.522 1048.02L183.395 1043.57C182.979 1049.62 188.522 1048.02 188.522 1048.02Z" fill="#F2F2F2"/>
<path d="M232.781 931.289C231.283 939.408 222.821 964.435 161.331 1034.25C169.694 1035.19 177.591 1038.59 184.009 1044.03C183.508 1035.37 193.63 1010.83 246.433 939.754C242.698 938.085 239.152 936.024 235.852 933.605L232.781 931.289Z" fill="#F2F2F2"/>
<path d="M390.132 1064.21C370.326 1017.23 341.702 974.485 305.81 938.285C341.768 974.43 370.401 1017.19 390.132 1064.21C392.328 1062.22 394.93 1060.73 397.758 1059.84C394.848 1060.53 392.199 1062.05 390.132 1064.21Z" fill="#F2F2F2"/>
<path d="M399.849 1059.88C372.861 1027.34 350.09 991.52 332.074 953.274C349.971 991.586 372.752 1027.42 399.849 1059.88Z" fill="#F2F2F2"/>
<path d="M399.987 1060.08L397.958 1059.7C398.647 1059.75 399.328 1059.87 399.987 1060.08Z" fill="#F2F2F2"/>
<path d="M332.275 953.136C328.298 944.356 324.552 935.27 321.039 925.876C324.352 935.408 328.298 944.356 332.275 953.136Z" fill="#F2F2F2"/>
<path d="M305.471 938.222C341.363 974.422 369.987 1017.17 389.793 1064.14C391.986 1062.08 394.732 1060.7 397.695 1060.18L399.724 1060.55C372.626 1028.04 349.855 992.15 331.981 953.781C328.004 945.001 324.057 936.053 320.544 926.659C316.133 931.254 311.051 935.153 305.471 938.222Z" fill="#F2F2F2"/>
<path d="M595.006 257.68C589.093 256.357 583.596 253.601 578.999 249.654C581.209 257.583 584.428 292.286 527.672 405.658C533.202 406.87 538.425 409.202 543.02 412.511C544.891 402.361 551.536 348.314 606.449 258.215C602.975 258.63 599.459 258.513 596.021 257.867L595.006 257.68Z" fill="#F2F2F2"/>
<path d="M608.65 179.91L609.663 180.097C608.632 161.603 610.459 143.06 615.08 125.123L614.066 124.936C609.493 142.881 607.667 161.417 608.65 179.91Z" fill="#F2F2F2"/>
<path d="M607.19 125.242L606.174 125.055C608.401 143.22 607.548 161.63 603.652 179.512L604.665 179.699C608.492 161.808 609.345 143.41 607.19 125.242Z" fill="#F2F2F2"/>
<path d="M614.004 125.275C611.741 125.548 609.451 125.537 607.19 125.242C609.346 143.41 608.492 161.808 604.665 179.699L608.557 180.417C607.567 161.866 609.404 143.273 614.004 125.275Z" fill="#F2F2F2"/>
<path d="M277.649 820.752L277.365 820.7L277.077 820.689C264.019 820.186 251.141 823.873 240.326 831.211C229.51 838.548 221.323 849.152 216.961 861.474C212.599 873.796 212.291 887.189 216.08 899.698C219.869 912.206 227.557 923.175 238.021 931.002C245.289 936.469 253.74 940.149 262.692 941.747L263.687 941.93C263.688 941.931 263.689 941.931 263.691 941.931C277.231 944.454 291.225 942.327 303.405 935.894C315.586 929.461 325.238 919.099 330.792 906.491C336.346 893.883 337.476 879.767 334.002 866.436C330.529 853.111 322.657 841.35 311.664 833.061C302.079 825.69 290.465 821.443 278.391 820.889L277.649 820.752Z" fill="#F2F2F2" stroke="white" stroke-width="8"/>
<path d="M542.995 721.754C544.851 719.597 546.244 717.082 547.09 714.364C547.936 711.646 548.217 708.784 547.913 705.954C547.609 703.123 546.728 700.386 545.324 697.91C543.92 695.434 542.024 693.273 539.752 691.559C537.48 689.846 534.88 688.616 532.114 687.947C529.348 687.279 526.473 687.185 523.669 687.671C520.865 688.157 518.191 689.214 515.811 690.775C513.432 692.336 511.397 694.37 509.834 696.749C507.978 698.906 506.585 701.421 505.739 704.139C504.893 706.857 504.614 709.72 504.918 712.55C505.222 715.38 506.101 718.117 507.505 720.593C508.909 723.069 510.807 725.231 513.079 726.944C515.352 728.657 517.951 729.886 520.717 730.555C523.483 731.224 526.356 731.317 529.16 730.831C531.964 730.345 534.638 729.288 537.018 727.727C539.398 726.166 541.432 724.133 542.995 721.754Z" fill="#F2F2F2"/>
<path d="M512.929 414.482L510.504 412.461C509.878 412.142 509.173 412.012 508.474 412.087C502.048 414.405 496.428 418.531 492.292 423.97C486.359 430.994 483.46 440.088 484.23 449.251C484.999 458.413 489.375 466.894 496.397 472.828C503.419 478.762 512.511 481.663 521.672 480.892C530.832 480.121 539.311 475.742 545.244 468.718L535.641 464.848C537.11 463.767 538.343 462.397 539.265 460.822C540.187 459.248 540.777 457.502 541.001 455.692L550.232 461.592C553.177 455.738 554.389 449.165 553.726 442.646C553.477 437.64 552.136 432.75 549.8 428.316C547.464 423.883 544.188 420.013 540.2 416.978C536.213 413.944 531.611 411.818 526.716 410.748C521.821 409.679 516.75 409.691 511.86 410.787L512.929 414.482Z" fill="#F2F2F2"/>
<path d="M535.641 464.849L545.368 468.042L547.959 465.372L550.232 461.592L541.001 455.692C540.777 457.503 540.187 459.249 539.265 460.823C538.343 462.397 537.11 463.767 535.641 464.849Z" fill="#F2F2F2"/>
<path d="M664.818 428.151C667.292 424.293 668.132 419.611 667.154 415.133C666.177 410.656 663.459 406.749 659.602 404.275C655.745 401.801 651.063 400.961 646.587 401.94C642.11 402.919 638.207 405.636 635.733 409.494C633.498 413.135 632.698 417.476 633.487 421.673L634.095 424.06L635.213 426.54L636.654 428.205C637.891 430.049 639.513 431.601 641.41 432.755C645.149 435.164 649.676 436.031 654.041 435.173C658.405 434.314 662.269 431.797 664.818 428.151Z" fill="#F2F2F2"/>
<path d="M635.288 427.078C635.609 427.878 635.992 428.65 636.435 429.389L635.288 427.078Z" fill="#F2F2F2"/>
<path d="M633.758 423.998L633.147 421.611L633.758 423.998Z" fill="#F2F2F2"/>
<path d="M261.751 748.598C268.43 770.899 271.176 794.194 269.866 817.438L274.25 817.371C269.683 794.475 268.467 771.036 270.644 747.789C267.754 748.599 264.74 748.874 261.751 748.598Z" fill="#F2F2F2"/>
<path d="M304.352 692.086C304.759 693.273 305.559 694.284 306.62 694.953L309.157 695.421C310.756 696.327 312.562 696.804 314.4 696.806C316.238 696.808 318.045 696.335 319.646 695.432C320.927 694.715 322.054 693.752 322.963 692.6C323.872 691.447 324.545 690.126 324.943 688.714C325.342 687.301 325.458 685.824 325.286 684.367C325.114 682.909 324.657 681.499 323.94 680.219C323.223 678.938 322.261 677.811 321.108 676.903C319.956 675.994 318.636 675.321 317.224 674.922C315.811 674.524 314.334 674.407 312.877 674.579C311.419 674.752 310.011 675.21 308.73 675.927C306.547 677.188 304.881 679.18 304.028 681.552C303.174 683.924 303.188 686.523 304.067 688.885L304.352 692.086Z" fill="#F2F2F2"/>
<path d="M306.231 696.107C304.815 695.353 303.737 694.091 303.211 692.575C297.097 700.787 289.344 707.637 280.441 712.689L281.744 714.154C288.864 706.838 297.136 700.741 306.231 696.107Z" fill="#F2F2F2"/>
<path d="M272.199 741.255C274.211 740.214 275.973 738.749 277.363 736.96C279.48 734.38 280.801 731.238 281.165 727.919C281.528 724.601 280.92 721.249 279.411 718.272L278.084 719.776L275.798 717.956C275.798 717.956 276.141 716.095 276.172 715.926L274.48 715.614L276.422 714.572L275.424 713.339C273.068 711.425 270.249 710.17 267.252 709.7C264.254 709.229 261.183 709.56 258.355 710.659C255.526 711.759 253.04 713.588 251.146 715.96C249.252 718.332 248.019 721.162 247.573 724.165C247.127 727.167 247.484 730.235 248.606 733.055C249.728 735.875 251.577 738.348 253.963 740.222C256.35 742.097 259.19 743.306 262.195 743.727C265.2 744.149 268.264 743.767 271.074 742.621L272.199 741.255Z" fill="#F2F2F2"/>
<path d="M272.074 741.932L270.272 743.174L272.074 741.932Z" fill="#F2F2F2"/>
<path d="M275.37 716.477C275.37 716.477 275.027 718.338 274.996 718.507L277.283 720.329L278.609 718.823C277.688 717.136 276.491 715.615 275.067 714.323L273.127 715.365L275.37 716.477Z" fill="#F2F2F2"/>
<path d="M611.497 185.332L610.145 185.082L609.958 186.098L608.96 184.864C606.968 184.307 604.931 183.932 602.872 183.741C595.201 183.92 587.81 186.66 581.875 191.524C575.94 196.388 571.802 203.097 570.118 210.585C569.359 214.237 569.198 217.988 569.643 221.692C590.562 214.501 611.108 206.264 631.202 197.012C626.161 190.981 619.207 186.859 611.497 185.332Z" fill="#F2F2F2"/>
<path d="M596.048 252.974C602.335 254.515 608.928 254.251 615.072 252.212C621.215 250.172 626.659 246.44 630.777 241.444C634.895 236.448 637.519 230.392 638.35 223.971C639.18 217.55 638.183 211.024 635.471 205.146C611.382 211.548 589.367 219.033 570.014 226.308C571.333 232.785 574.49 238.745 579.107 243.474C583.724 248.203 589.606 251.501 596.048 252.974Z" fill="#F2F2F2"/>
<path d="M610.145 185.082L609.129 184.895L610.124 186.129L610.145 185.082Z" fill="#F2F2F2"/>
<path d="M631.67 104.394C632.895 99.0069 631.932 93.3539 628.99 88.6782C626.048 84.0025 621.37 80.6872 615.984 79.462C610.598 78.2368 604.947 79.2016 600.272 82.1446C595.597 85.0876 592.282 89.7682 591.056 95.1554C590.45 97.8229 590.375 100.583 590.835 103.279C591.295 105.976 592.279 108.556 593.736 110.871C595.192 113.186 597.091 115.192 599.322 116.773C601.554 118.354 604.077 119.48 606.744 120.087C609.411 120.693 612.17 120.769 614.866 120.309C617.562 119.849 620.142 118.861 622.456 117.404C624.771 115.947 626.775 114.048 628.356 111.816C629.937 109.583 631.063 107.062 631.67 104.394Z" fill="#F2F2F2"/>
<path d="M287.087 1043.46C288.89 1040.64 289.503 1037.23 288.79 1033.97C288.078 1030.7 286.097 1027.85 283.285 1026.05C280.474 1024.25 277.061 1023.64 273.797 1024.35C270.534 1025.06 267.689 1027.04 265.885 1029.86C264.257 1032.51 263.673 1035.67 264.248 1038.73L264.691 1040.47L265.506 1042.28L266.557 1043.49C267.458 1044.84 268.641 1045.97 270.024 1046.81C272.749 1048.57 276.049 1049.2 279.231 1048.57C282.413 1047.95 285.229 1046.11 287.087 1043.46Z" fill="#F2F2F2"/>
<path d="M413.087 1082.46C414.89 1079.64 415.503 1076.23 414.79 1072.97C414.078 1069.7 412.097 1066.85 409.285 1065.05C406.474 1063.25 403.061 1062.64 399.797 1063.35C396.534 1064.06 393.689 1066.04 391.885 1068.86C390.257 1071.51 389.673 1074.67 390.248 1077.73L390.691 1079.47L391.506 1081.28L392.557 1082.49C393.458 1083.84 394.641 1084.97 396.024 1085.81C398.749 1087.57 402.049 1088.2 405.231 1087.57C408.413 1086.95 411.229 1085.11 413.087 1082.46Z" fill="#F2F2F2"/>
</g>
<defs>
<clipPath id="clip0_625_3070">
<rect width="566.122" height="1030.7" fill="white" transform="translate(186.932 0.335571) rotate(10.4492)"/>
</clipPath>
</defs>
</svg>
