<svg width="744" height="1144" viewBox="0 0 744 1144" fill="none" xmlns="http://www.w3.org/2000/svg">
<path d="M67.415 684.097C69.8888 680.239 70.7296 675.557 69.7516 671.08C68.7737 666.602 66.0564 662.696 62.1995 660.222C58.3426 657.747 53.6606 656.908 49.184 657.886C44.7075 658.865 40.804 661.583 38.3301 665.441C36.0955 669.081 35.2949 673.422 36.084 677.62L36.6921 680.006L37.8101 682.486L39.2512 684.151C40.488 685.995 42.1103 687.547 44.007 688.701C47.7462 691.11 52.2733 691.977 56.6379 691.119C61.0025 690.261 64.8658 687.743 67.415 684.097Z" fill="#F2F2F2"/>
<path d="M178.415 1066.1C180.889 1062.24 181.73 1057.56 180.752 1053.08C179.774 1048.6 177.056 1044.7 173.199 1042.22C169.343 1039.75 164.661 1038.91 160.184 1039.89C155.707 1040.86 151.804 1043.58 149.33 1047.44C147.096 1051.08 146.295 1055.42 147.084 1059.62L147.692 1062.01L148.81 1064.49L150.251 1066.15C151.488 1068 153.11 1069.55 155.007 1070.7C158.746 1073.11 163.273 1073.98 167.638 1073.12C172.003 1072.26 175.866 1069.74 178.415 1066.1Z" fill="#F2F2F2"/>
<path d="M410.664 1090.07C431.408 1100.63 450.156 1114.73 466.066 1131.72L469.045 1128.5C449.328 1116 431.532 1100.7 416.219 1083.07C414.809 1085.72 412.927 1088.09 410.664 1090.07Z" fill="#F2F2F2"/>
<g clip-path="url(#clip0_747_2591)">
<path d="M501.01 712.977C455.718 753.666 405.521 788.537 351.588 816.781C405.601 788.669 455.814 753.787 501.01 712.977Z" fill="#F2F2F2"/>
<path d="M332.985 856.029C342.552 843.975 383.942 796.86 476.324 742.533C383.911 797.029 343.26 843.931 332.985 856.029Z" fill="#F2F2F2"/>
<path d="M351.67 815.397C340.119 821.137 328.061 826.785 315.927 831.893C328.782 827.617 339.963 821.983 351.67 815.397Z" fill="#F2F2F2"/>
<path d="M501.011 712.977C455.759 753.541 405.535 788.184 351.546 816.073C339.964 821.983 328.104 827.492 315.939 832.77C323.357 839.086 329.196 847.052 332.985 856.029C342.753 843.837 383.91 797.029 477.338 742.72C486.935 737.143 496.903 731.459 507.577 725.732C504.234 722.181 501.958 717.761 501.011 712.977Z" fill="#F2F2F2"/>
<path d="M233.313 831.35C173.195 788.422 120.91 735.47 78.7448 674.808C74.7498 684.804 67.4782 693.146 58.1203 698.465C58.1203 698.465 127.89 728.824 222.087 842.923C225.363 838.639 229.13 834.754 233.313 831.35Z" fill="#F2F2F2"/>
<path d="M628.385 418.649C628.385 418.649 628.385 418.649 628.604 417.464C606.236 427.186 582.277 432.727 557.914 433.813C582.127 433.054 606.002 427.916 628.385 418.649Z" fill="#F2F2F2"/>
<path d="M558.778 439.57L558.591 440.585C581.908 432.97 606.237 428.906 630.761 428.532L630.949 427.517C606.428 427.94 582.107 432.002 558.778 439.57Z" fill="#F2F2F2"/>
<path d="M628.421 423.202C628.433 421.7 628.707 420.212 629.232 418.805C606.909 428.372 583.037 433.807 558.774 434.846C559.172 436.097 559.462 437.379 559.64 438.68C559.658 439.028 559.594 439.375 559.453 439.694C582.781 432.127 607.103 428.065 631.624 427.641C630.419 426.265 629.347 424.779 628.421 423.202Z" fill="#F2F2F2"/>
<path d="M280.707 1016.23C273.277 995.174 269.5 973.004 269.54 950.676C268.715 973.043 272.197 995.36 279.798 1016.41L280.707 1016.23Z" fill="#F2F2F2"/>
<path d="M265.445 945.373L264.432 945.187C269.479 969.167 270.837 993.777 268.459 1018.17L268.085 1020.2L269.887 1018.96C272.491 1017.69 275.3 1016.91 278.183 1016.64C275.151 1016.35 272.098 1016.88 269.335 1018.16C271.721 993.837 270.41 969.298 265.445 945.373Z" fill="#F2F2F2"/>
<path d="M269.539 950.676C269.82 949.153 270.1 947.631 269.566 945.783L269.539 950.676Z" fill="#F2F2F2"/>
<path d="M265.445 945.374C270.47 969.3 271.838 993.85 269.504 1018.19C272.267 1016.91 275.32 1016.38 278.352 1016.67L280.043 1016.98C272.442 995.931 268.96 973.613 269.784 951.246L269.642 946.322L265.445 945.374Z" fill="#F2F2F2"/>
<path d="M261.751 748.263L260.737 748.076C267.463 770.38 270.264 793.683 269.02 816.946C270.586 793.803 268.126 770.564 261.751 748.263Z" fill="#F2F2F2"/>
<path d="M274.25 817.035L275.264 817.222C270.685 793.974 269.478 770.188 271.677 746.595L270.831 746.439C268.493 770.011 269.646 793.8 274.25 817.035Z" fill="#F2F2F2"/>
<path d="M510.111 331.768L512.22 330.757C515.594 329.282 518.406 326.764 520.242 323.572C522.078 320.38 522.839 316.683 522.417 313.025C521.996 309.367 520.413 305.941 517.899 303.251C515.386 300.56 512.074 298.747 508.453 298.079C504.833 297.412 501.094 297.925 497.786 299.541C494.478 301.158 491.777 303.794 490.078 307.061C488.379 310.328 487.772 314.053 488.349 317.69C488.925 321.327 490.654 324.683 493.279 327.264C495.949 329.721 499.396 331.162 503.02 331.334C504.661 331.464 506.312 331.417 507.943 331.193L510.111 331.768Z" fill="#F2F2F2"/>
<path d="M513.066 330.913L510.109 331.767L508.757 331.518C507.133 331.816 505.473 331.864 503.834 331.66L501.636 331.254L499.268 330.817L500.001 332.527C506.794 356.534 508.527 381.692 505.088 406.404L506.102 406.591C509.521 381.878 507.79 356.725 501.016 332.715C504.552 333.708 508.325 333.412 511.662 331.879C507.51 356.265 507.108 381.142 510.472 405.649L511.488 405.836C508.125 381.507 508.552 356.804 512.753 332.605L513.066 330.913Z" fill="#F2F2F2"/>
<path d="M503.741 332.168C505.379 332.372 507.04 332.324 508.664 332.026C507.033 332.25 505.382 332.298 503.741 332.168Z" fill="#F2F2F2"/>
<path d="M511.078 331.247L514.035 330.392L511.078 331.247Z" fill="#F2F2F2"/>
<path d="M511.6 332.217C508.262 333.75 504.489 334.046 500.954 333.052C507.728 357.063 509.458 382.217 506.039 406.93L510.41 405.986C507.046 381.48 507.447 356.603 511.6 332.217Z" fill="#F2F2F2"/>
<path d="M533.876 684.579C532.988 677.069 526.918 627.499 526.519 567.08L519.79 563.74C519.952 605.047 517.654 646.325 512.905 687.358C518.279 683.889 524.768 682.586 531.065 683.712L533.876 684.579Z" fill="#F2F2F2"/>
<path d="M520.811 483.292C519.668 483.179 518.537 482.97 517.429 482.669C517.815 488.162 519.445 511.552 519.775 544.847L526.353 547.109C526.407 525.955 526.819 503.816 528.382 482.066C526.849 482.527 525.27 482.822 523.673 482.946L520.967 482.447L520.811 483.292Z" fill="#F2F2F2"/>
<path d="M646.144 631.471L638.111 626.666C609.81 652.243 578.873 674.74 545.82 693.779C548.098 696.403 549.737 699.519 550.611 702.883C579.647 675.534 611.696 651.576 646.144 631.471Z" fill="#F2F2F2"/>
<path d="M303.21 692.24C303.736 693.755 304.815 695.017 306.231 695.771C297.135 700.405 288.863 706.502 281.744 713.819L282.603 714.852C289.612 707.538 297.769 701.421 306.752 696.742L308.291 695.976C306.436 695.11 304.871 693.728 303.78 691.996C303.448 691.354 303.22 690.662 303.108 689.948L302.765 691.808C296.724 699.808 289.126 706.499 280.427 711.477L280.271 712.323C289.232 707.299 297.045 700.458 303.21 692.24Z" fill="#F2F2F2"/>
<path d="M308.291 695.976L305.756 695.508C304.695 694.839 303.894 693.827 303.486 692.641L302.446 690.7C302.558 691.415 302.784 692.106 303.116 692.748C304.49 694.305 306.288 695.427 308.291 695.976Z" fill="#F2F2F2"/>
<path d="M363.511 912.383C363.571 914.274 364.127 916.117 365.121 917.727C366.115 919.338 367.511 920.659 369.174 921.561C370.837 922.463 372.709 922.914 374.6 922.868C376.492 922.823 378.337 922.282 379.955 921.301C381.573 920.32 382.907 918.932 383.822 917.275C384.738 915.619 385.202 913.752 385.171 911.86C385.141 909.967 384.617 908.117 383.649 906.491C382.681 904.865 381.303 903.52 379.655 902.592C378.187 901.635 376.5 901.067 374.753 900.943C373.005 900.818 371.254 901.142 369.665 901.881C368.077 902.621 366.704 903.752 365.673 905.17C364.643 906.588 363.991 908.245 363.778 909.984L363.511 912.383Z" fill="#F2F2F2"/>
<path d="M336.509 897.608C345.128 901.644 354.227 904.557 363.587 906.276C362.88 907.627 362.597 909.16 362.776 910.674C354.479 905.826 345.591 902.07 336.333 899.5C336.333 899.5 336.333 899.501 336.145 900.516C345.323 903.103 354.157 906.787 362.453 911.489L363.805 911.738C363.859 910.935 364.006 910.14 364.242 909.37C364.189 907.978 364.445 906.592 364.99 905.31C364.99 905.31 364.99 905.31 362.622 904.873C353.962 903.154 345.547 900.368 337.571 896.58L336.509 897.608Z" fill="#F2F2F2"/>
<path d="M363.035 912.121L363.378 910.26C363.208 910.869 363.093 911.491 363.035 912.121Z" fill="#F2F2F2"/>
<path d="M363.587 906.276C354.226 904.557 345.127 901.644 336.508 897.608C336.315 898.211 336.2 898.837 336.165 899.469C345.424 902.039 354.312 905.796 362.608 910.643C362.487 909.122 362.827 907.599 363.587 906.276Z" fill="#F2F2F2"/>
<path d="M188.522 1047.68L183.395 1043.24C182.979 1049.28 188.522 1047.68 188.522 1047.68Z" fill="#F2F2F2"/>
<path d="M232.781 930.953C231.283 939.073 222.821 964.099 161.331 1033.92C169.694 1034.85 177.591 1038.26 184.009 1043.7C183.508 1035.04 193.63 1010.49 246.433 939.418C242.698 937.749 239.152 935.688 235.852 933.269L232.781 930.953Z" fill="#F2F2F2"/>
<path d="M390.132 1063.87C370.326 1016.89 341.702 974.149 305.81 937.949C341.768 974.095 370.401 1016.85 390.132 1063.87C392.328 1061.88 394.93 1060.39 397.758 1059.5C394.848 1060.19 392.199 1061.71 390.132 1063.87Z" fill="#F2F2F2"/>
<path d="M399.849 1059.54C372.861 1027 350.09 991.185 332.074 952.938C349.971 991.25 372.752 1027.08 399.849 1059.54Z" fill="#F2F2F2"/>
<path d="M399.987 1059.74L397.958 1059.37C398.647 1059.41 399.328 1059.54 399.987 1059.74Z" fill="#F2F2F2"/>
<path d="M332.275 952.8C328.298 944.021 324.552 934.934 321.039 925.54C324.352 935.072 328.298 944.021 332.275 952.8Z" fill="#F2F2F2"/>
<path d="M305.471 937.887C341.363 974.087 369.987 1016.83 389.793 1063.81C391.986 1061.75 394.732 1060.37 397.695 1059.84L399.724 1060.22C372.626 1027.7 349.855 991.814 331.981 953.445C328.004 944.666 324.057 935.717 320.544 926.323C316.133 930.918 311.051 934.817 305.471 937.887Z" fill="#F2F2F2"/>
<path d="M595.006 257.344C589.093 256.021 583.596 253.265 578.999 249.319C581.209 257.248 584.428 291.95 527.672 405.322C533.202 406.534 538.425 408.866 543.02 412.175C544.891 402.026 551.536 347.978 606.449 257.88C602.975 258.294 599.459 258.177 596.021 257.531L595.006 257.344Z" fill="#F2F2F2"/>
<path d="M608.65 179.574L609.663 179.761C608.632 161.267 610.459 142.724 615.08 124.787L614.066 124.6C609.493 142.546 607.667 161.081 608.65 179.574Z" fill="#F2F2F2"/>
<path d="M607.19 124.907L606.174 124.719C608.401 142.885 607.548 161.295 603.652 179.176L604.665 179.363C608.492 161.473 609.345 143.074 607.19 124.907Z" fill="#F2F2F2"/>
<path d="M614.004 124.939C611.741 125.213 609.451 125.202 607.19 124.907C609.346 143.075 608.492 161.473 604.665 179.364L608.557 180.081C607.567 161.531 609.404 142.938 614.004 124.939Z" fill="#F2F2F2"/>
<path d="M277.649 820.417L277.365 820.365L277.077 820.354C264.019 819.85 251.141 823.537 240.326 830.875C229.51 838.213 221.323 848.817 216.961 861.139C212.599 873.46 212.291 886.854 216.08 899.363C219.869 911.871 227.557 922.839 238.021 930.666C245.289 936.133 253.74 939.814 262.692 941.411L263.687 941.595C263.688 941.595 263.689 941.595 263.691 941.596C277.231 944.118 291.225 941.991 303.405 935.558C315.586 929.125 325.238 918.764 330.792 906.155C336.346 893.547 337.476 879.431 334.002 866.1C330.529 852.775 322.657 841.015 311.664 832.726C302.079 825.355 290.465 821.107 278.391 820.554L277.649 820.417Z" fill="#F2F2F2" stroke="white" stroke-width="8"/>
<path d="M542.995 721.419C544.851 719.261 546.244 716.746 547.09 714.028C547.936 711.31 548.217 708.448 547.913 705.618C547.609 702.788 546.728 700.05 545.324 697.574C543.92 695.099 542.024 692.937 539.752 691.224C537.48 689.51 534.88 688.28 532.114 687.612C529.348 686.943 526.473 686.849 523.669 687.335C520.865 687.822 518.191 688.878 515.811 690.44C513.432 692.001 511.397 694.034 509.834 696.413C507.978 698.571 506.585 701.086 505.739 703.804C504.893 706.521 504.614 709.384 504.918 712.214C505.222 715.044 506.101 717.782 507.505 720.257C508.909 722.733 510.807 724.895 513.079 726.608C515.352 728.322 517.951 729.551 520.717 730.219C523.483 730.888 526.356 730.982 529.16 730.495C531.964 730.009 534.638 728.953 537.018 727.391C539.398 725.83 541.432 723.797 542.995 721.419Z" fill="#F2F2F2"/>
<path d="M512.929 414.147L510.504 412.126C509.878 411.806 509.173 411.676 508.474 411.751C502.048 414.069 496.428 418.196 492.292 423.634C486.359 430.658 483.46 439.752 484.23 448.915C484.999 458.078 489.375 466.559 496.397 472.493C503.419 478.427 512.511 481.327 521.672 480.556C530.832 479.786 539.311 475.407 545.244 468.383L535.641 464.513C537.11 463.431 538.343 462.061 539.265 460.487C540.187 458.913 540.777 457.166 541.001 455.356L550.232 461.256C553.177 455.402 554.389 448.829 553.726 442.31C553.477 437.305 552.136 432.414 549.8 427.981C547.464 423.547 544.188 419.677 540.2 416.643C536.213 413.608 531.611 411.482 526.716 410.413C521.821 409.343 516.75 409.356 511.86 410.451L512.929 414.147Z" fill="#F2F2F2"/>
<path d="M535.641 464.513L545.368 467.707L547.959 465.036L550.232 461.257L541.001 455.357C540.777 457.167 540.187 458.913 539.265 460.487C538.343 462.062 537.11 463.432 535.641 464.513Z" fill="#F2F2F2"/>
<path d="M664.818 427.815C667.292 423.957 668.132 419.275 667.154 414.798C666.177 410.32 663.459 406.414 659.602 403.94C655.745 401.465 651.063 400.626 646.587 401.604C642.11 402.583 638.207 405.301 635.733 409.159C633.498 412.799 632.698 417.14 633.487 421.338L634.095 423.724L635.213 426.204L636.654 427.869C637.891 429.713 639.513 431.265 641.41 432.419C645.149 434.828 649.676 435.695 654.041 434.837C658.405 433.979 662.269 431.461 664.818 427.815Z" fill="#F2F2F2"/>
<path d="M635.288 426.742C635.609 427.542 635.992 428.314 636.435 429.053L635.288 426.742Z" fill="#F2F2F2"/>
<path d="M633.758 423.662L633.147 421.276L633.758 423.662Z" fill="#F2F2F2"/>
<path d="M261.751 748.263C268.43 770.564 271.176 793.858 269.866 817.102L274.25 817.035C269.683 794.139 268.467 770.7 270.644 747.454C267.754 748.264 264.74 748.538 261.751 748.263Z" fill="#F2F2F2"/>
<path d="M304.352 691.751C304.759 692.937 305.559 693.949 306.62 694.618L309.157 695.086C310.756 695.992 312.562 696.468 314.4 696.47C316.238 696.472 318.045 695.999 319.646 695.096C320.927 694.379 322.054 693.417 322.963 692.264C323.872 691.111 324.545 689.791 324.943 688.378C325.342 686.965 325.458 685.489 325.286 684.031C325.114 682.574 324.657 681.164 323.94 679.883C323.223 678.602 322.261 677.476 321.108 676.567C319.956 675.658 318.636 674.985 317.224 674.586C315.811 674.188 314.334 674.071 312.877 674.244C311.419 674.416 310.011 674.875 308.73 675.592C306.547 676.852 304.881 678.844 304.028 681.217C303.174 683.589 303.188 686.187 304.067 688.55L304.352 691.751Z" fill="#F2F2F2"/>
<path d="M306.231 695.771C304.815 695.017 303.737 693.756 303.211 692.24C297.097 700.452 289.344 707.302 280.441 712.354L281.744 713.819C288.864 706.502 297.136 700.405 306.231 695.771Z" fill="#F2F2F2"/>
<path d="M272.199 740.919C274.211 739.878 275.973 738.413 277.363 736.624C279.48 734.044 280.801 730.902 281.165 727.584C281.528 724.266 280.92 720.914 279.411 717.936L278.084 719.44L275.798 717.62C275.798 717.62 276.141 715.759 276.172 715.59L274.48 715.278L276.422 714.237L275.424 713.003C273.068 711.09 270.249 709.834 267.252 709.364C264.254 708.893 261.183 709.224 258.355 710.324C255.526 711.423 253.04 713.252 251.146 715.624C249.252 717.996 248.019 720.827 247.573 723.829C247.127 726.832 247.484 729.9 248.606 732.72C249.728 735.54 251.577 738.012 253.963 739.887C256.35 741.761 259.19 742.97 262.195 743.392C265.2 743.813 268.264 743.431 271.074 742.285L272.199 740.919Z" fill="#F2F2F2"/>
<path d="M272.074 741.596L270.272 742.838L272.074 741.596Z" fill="#F2F2F2"/>
<path d="M275.37 716.142C275.37 716.142 275.027 718.003 274.996 718.172L277.283 719.993L278.609 718.488C277.688 716.8 276.491 715.279 275.067 713.987L273.127 715.029L275.37 716.142Z" fill="#F2F2F2"/>
<path d="M611.497 184.996L610.145 184.747L609.958 185.763L608.96 184.528C606.968 183.972 604.931 183.596 602.872 183.406C595.201 183.585 587.81 186.324 581.875 191.188C575.94 196.052 571.802 202.762 570.118 210.249C569.359 213.901 569.198 217.653 569.643 221.356C590.562 214.166 611.108 205.929 631.202 196.677C626.161 190.646 619.207 186.523 611.497 184.996Z" fill="#F2F2F2"/>
<path d="M596.048 252.638C602.335 254.18 608.928 253.916 615.072 251.876C621.215 249.836 626.659 246.104 630.777 241.108C634.895 236.113 637.519 230.056 638.35 223.635C639.18 217.214 638.183 210.689 635.471 204.81C611.382 211.212 589.367 218.697 570.014 225.973C571.333 232.449 574.49 238.409 579.107 243.138C583.724 247.867 589.606 251.165 596.048 252.638Z" fill="#F2F2F2"/>
<path d="M610.145 184.747L609.129 184.56L610.124 185.794L610.145 184.747Z" fill="#F2F2F2"/>
<path d="M631.67 104.059C632.895 98.6714 631.932 93.0184 628.99 88.3428C626.048 83.6671 621.37 80.3518 615.984 79.1266C610.598 77.9014 604.947 78.8662 600.272 81.8091C595.597 84.7521 592.282 89.4328 591.056 94.82C590.45 97.4874 590.375 100.247 590.835 102.944C591.295 105.641 592.279 108.221 593.736 110.536C595.192 112.851 597.091 114.856 599.322 116.438C601.554 118.019 604.077 119.145 606.744 119.751C609.411 120.358 612.17 120.434 614.866 119.973C617.562 119.513 620.142 118.526 622.456 117.069C624.771 115.612 626.775 113.712 628.356 111.48C629.937 109.248 631.063 106.726 631.67 104.059Z" fill="#F2F2F2"/>
<path d="M287.087 1043.12C288.89 1040.31 289.503 1036.89 288.79 1033.63C288.078 1030.37 286.097 1027.52 283.285 1025.72C280.474 1023.91 277.061 1023.3 273.797 1024.01C270.534 1024.73 267.689 1026.71 265.885 1029.52C264.257 1032.17 263.673 1035.34 264.248 1038.4L264.691 1040.14L265.506 1041.94L266.557 1043.16C267.458 1044.5 268.641 1045.63 270.024 1046.48C272.749 1048.23 276.049 1048.86 279.231 1048.24C282.413 1047.61 285.229 1045.78 287.087 1043.12Z" fill="#F2F2F2"/>
<path d="M413.087 1082.12C414.89 1079.31 415.503 1075.89 414.79 1072.63C414.078 1069.37 412.097 1066.52 409.285 1064.72C406.474 1062.91 403.061 1062.3 399.797 1063.01C396.534 1063.73 393.689 1065.71 391.885 1068.52C390.257 1071.17 389.673 1074.34 390.248 1077.4L390.691 1079.14L391.506 1080.94L392.557 1082.16C393.458 1083.5 394.641 1084.63 396.024 1085.48C398.749 1087.23 402.049 1087.86 405.231 1087.24C408.413 1086.61 411.229 1084.78 413.087 1082.12Z" fill="#F2F2F2"/>
</g>
<defs>
<clipPath id="clip0_747_2591">
<rect width="566.122" height="1030.7" fill="white" transform="translate(186.932) rotate(10.4492)"/>
</clipPath>
</defs>
</svg>
