<svg width="320" height="174" viewBox="0 0 320 174" fill="none" xmlns="http://www.w3.org/2000/svg">
<g clip-path="url(#clip0_614_4100)">
<rect width="183" height="333" transform="translate(323 -9) rotate(90)" fill="white"/>
<path d="M114.875 132.642C99.2934 120.629 85.2728 106.716 73.1388 91.2272C85.2355 106.749 99.2606 120.667 114.875 132.642Z" fill="#F2F2F2"/>
<path d="M59.5788 87.6144C63.9692 89.9491 81.3639 100.344 104.038 126.527C81.3083 100.344 64.0248 90.1715 59.5788 87.6144Z" fill="#F2F2F2"/>
<path d="M73.5835 91.1722C71.0827 87.8368 68.5818 84.3347 66.2477 80.777C68.3595 84.6126 70.8048 87.8368 73.5835 91.1722Z" fill="#F2F2F2"/>
<path d="M114.875 132.642C99.3354 120.635 85.3856 106.7 73.3613 91.1724C70.8049 87.837 68.3595 84.3899 65.9699 80.8322C64.3978 83.5607 62.2089 85.8837 59.5787 87.6146C64.0246 90.0049 81.3082 100.344 104.038 126.86C106.372 129.584 108.762 132.42 111.207 135.477C112.14 134.206 113.411 133.224 114.875 132.642Z" fill="#F2F2F2"/>
<path d="M61.5793 54.4828C71.6958 32.8553 85.4563 13.13 102.259 -3.83033C98.849 -4.51424 95.7727 -6.33681 93.5344 -8.99976C93.5344 -8.99976 87.9769 14.9594 57.2444 51.5927C58.7976 52.383 60.2527 53.3526 61.5793 54.4828Z" fill="#F2F2F2"/>
<path d="M215.853 155.878C215.853 155.878 215.853 155.878 216.242 155.878C211.843 149.337 208.678 142.046 206.906 134.365C208.566 142.017 211.597 149.305 215.853 155.878Z" fill="#F2F2F2"/>
<path d="M205.127 134.977L204.794 134.977C208.579 141.942 211.296 149.438 212.852 157.212L213.186 157.212C211.614 149.442 208.898 141.949 205.127 134.977Z" fill="#F2F2F2"/>
<path d="M214.408 156.156C214.886 156.072 215.375 156.072 215.853 156.156C211.505 149.621 208.38 142.35 206.628 134.698C206.254 134.898 205.863 135.066 205.461 135.199C205.351 135.225 205.237 135.225 205.127 135.199C208.898 142.171 211.614 149.664 213.186 157.434C213.552 156.971 213.962 156.543 214.408 156.156Z" fill="#F2F2F2"/>
<path d="M5.61611 80.3876C11.8703 76.7913 18.693 74.2911 25.7896 72.9945C18.6346 74.0438 11.7479 76.4589 5.50485 80.1094L5.61611 80.3876Z" fill="#F2F2F2"/>
<path d="M27.2344 71.382L27.2344 71.0488C19.911 74.0592 12.1715 75.9337 4.28256 76.6078L3.61536 76.6078L4.11567 77.1079C4.67024 77.8614 5.08425 78.7085 5.33814 79.6091C5.25168 78.6286 4.90651 77.6887 4.33785 76.8853C12.2041 76.2184 19.9239 74.3629 27.2344 71.382Z" fill="#F2F2F2"/>
<path d="M25.7899 72.9943C26.29 72.9943 26.79 72.994 27.3457 72.7161L25.7899 72.9943Z" fill="#F2F2F2"/>
<path d="M27.2344 71.3821C19.927 74.382 12.2071 76.2563 4.33789 76.941C4.90655 77.7444 5.25172 78.6843 5.33818 79.6648L5.33818 80.2206C11.5812 76.5701 18.4679 74.155 25.6228 73.1057L27.1791 72.7718L27.2344 71.3821Z" fill="#F2F2F2"/>
<path d="M89.6445 58.6519L89.6445 58.3187C82.9523 61.7642 75.7125 64.0211 68.2483 64.9892C75.693 64.1302 82.9325 61.986 89.6445 58.6519Z" fill="#F2F2F2"/>
<path d="M68.5262 66.6571L68.5262 66.9903C75.6443 64.1719 83.131 62.3936 90.7559 61.7096L90.7559 61.4314C83.1294 62.0701 75.6388 63.8312 68.5262 66.6571Z" fill="#F2F2F2"/>
<path d="M236.527 113.186L236.972 113.797C237.638 114.783 238.603 115.529 239.725 115.926C240.846 116.322 242.065 116.348 243.203 115.999C244.341 115.651 245.336 114.947 246.044 113.99C246.751 113.033 247.133 111.874 247.133 110.684C247.133 109.494 246.751 108.335 246.044 107.378C245.336 106.422 244.341 105.718 243.203 105.369C242.065 105.021 240.846 105.046 239.725 105.442C238.603 105.839 237.638 106.585 236.972 107.571C236.347 108.564 236.092 109.744 236.249 110.906C236.304 111.436 236.416 111.958 236.583 112.463L236.527 113.186Z" fill="#F2F2F2"/>
<path d="M236.971 114.075L236.527 113.185L236.527 112.741C236.337 112.242 236.224 111.717 236.193 111.184L236.193 110.462L236.193 109.683L235.693 110.016C228.463 113.583 220.572 115.609 212.518 115.965L212.518 116.298C220.571 115.936 228.461 113.911 235.693 110.35C235.584 111.532 235.9 112.714 236.582 113.685C228.591 113.795 220.663 115.126 213.074 117.632L213.074 117.966C220.607 115.471 228.481 114.158 236.415 114.075L236.971 114.075Z" fill="#F2F2F2"/>
<path d="M236.026 111.184C236.057 111.717 236.17 112.242 236.36 112.741C236.193 112.236 236.081 111.714 236.026 111.184Z" fill="#F2F2F2"/>
<path d="M236.749 113.463L237.193 114.353L236.749 113.463Z" fill="#F2F2F2"/>
<path d="M236.471 113.686C235.789 112.715 235.474 111.532 235.582 110.35C228.35 113.911 220.46 115.936 212.408 116.298L212.963 117.632C220.553 115.126 228.48 113.795 236.471 113.686Z" fill="#F2F2F2"/>
<path d="M125.823 141.425C128.157 140.702 143.551 135.866 162.724 132.197L163.391 129.862C150.277 132.336 137.027 134.025 123.711 134.921C125.129 136.426 125.923 138.412 125.934 140.48L125.823 141.425Z" fill="#F2F2F2"/>
<path d="M189.011 125.471C188.98 125.101 188.98 124.729 189.011 124.359C187.288 124.804 179.952 126.693 169.393 128.75L169.06 130.974C175.784 129.751 182.842 128.584 189.844 127.806C189.608 127.345 189.422 126.86 189.289 126.36L189.289 125.471L189.011 125.471Z" fill="#F2F2F2"/>
<path d="M149.275 174L150.331 171.165C140.546 163.667 131.586 155.152 123.6 145.761C122.9 146.639 122.006 147.342 120.988 147.817C131.379 155.444 140.869 164.228 149.275 174Z" fill="#F2F2F2"/>
<path d="M109.874 68.547C109.423 68.803 109.085 69.2198 108.929 69.7141C106.923 67.0945 104.501 64.8223 101.76 62.988L101.482 63.3219C104.216 65.1211 106.638 67.3554 108.651 69.9367L108.984 70.3812C109.151 69.7407 109.498 69.1622 109.984 68.7139C110.169 68.5705 110.375 68.4575 110.596 68.38L109.984 68.38C107.089 66.9288 104.518 64.9057 102.426 62.4323L102.149 62.4323C104.27 64.9862 106.901 67.0688 109.874 68.547Z" fill="#F2F2F2"/>
<path d="M108.984 70.3812L108.984 69.5479C109.135 69.1714 109.409 68.8574 109.762 68.6583L110.318 68.2139C110.097 68.2914 109.891 68.4036 109.707 68.547C109.292 69.0751 109.041 69.7124 108.984 70.3812Z" fill="#F2F2F2"/>
<path d="M43.4622 100.622C42.8648 100.752 42.3119 101.037 41.8585 101.447C41.4051 101.858 41.067 102.379 40.8778 102.96C40.6887 103.542 40.6552 104.163 40.7805 104.762C40.9058 105.361 41.1857 105.916 41.5922 106.372C41.9987 106.829 42.518 107.172 43.0979 107.366C43.6778 107.56 44.2983 107.598 44.8977 107.477C45.4971 107.357 46.0544 107.081 46.5143 106.678C46.9742 106.275 47.3206 105.759 47.519 105.18C47.7371 104.657 47.8186 104.088 47.7558 103.525C47.6929 102.962 47.4875 102.425 47.1594 101.963C46.8314 101.501 46.3914 101.131 45.8807 100.887C45.3699 100.642 44.8051 100.532 44.24 100.566L43.4622 100.622Z" fill="#F2F2F2"/>
<path d="M46.5743 91.1724C45.7971 94.1488 45.4048 97.2121 45.4072 100.288C44.9365 100.143 44.4328 100.143 43.9622 100.288C45.0162 97.3668 45.6889 94.3212 45.9631 91.2273C45.9631 91.2273 45.9628 91.2273 45.6293 91.2273C45.345 94.2964 44.6921 97.3207 43.6844 100.233L43.6844 100.678C43.9429 100.648 44.204 100.648 44.4625 100.678C44.9017 100.58 45.357 100.58 45.7962 100.678C45.7962 100.678 45.7962 100.678 45.7962 99.8996C45.8351 97.0457 46.2272 94.2075 46.9634 91.4499L46.5743 91.1724Z" fill="#F2F2F2"/>
<path d="M43.5182 100.455L44.1294 100.455C43.926 100.437 43.7215 100.437 43.5182 100.455Z" fill="#F2F2F2"/>
<path d="M45.4075 100.288C45.4052 97.212 45.7975 94.1487 46.5747 91.1722C46.3718 91.146 46.1664 91.146 45.9635 91.1722C45.6893 94.2661 45.0166 97.3117 43.9625 100.233C44.4388 100.106 44.9425 100.124 45.4075 100.288Z" fill="#F2F2F2"/>
<path d="M29.9023 60.1529C27.2348 60.1529 18.7874 58.9299 -6.99896 43.4761C-6.8047 46.1894 -7.42392 48.8992 -8.77737 51.2587C-6.05424 50.5916 2.33742 52.3703 28.0127 64.9891C28.3242 63.7039 28.7712 62.4558 29.3464 61.2651L29.9023 60.1529Z" fill="#F2F2F2"/>
<path d="M-3.10874 117.966C10.6563 108.916 22.5601 97.3103 31.9585 83.7784C22.5813 97.3283 10.6738 108.937 -3.10874 117.966C-2.34772 118.547 -1.72189 119.287 -1.27469 120.134C-1.66382 119.249 -2.3009 118.496 -3.10874 117.966Z" fill="#F2F2F2"/>
<path d="M-1.16403 120.801C7.59301 110.314 17.6388 100.976 28.7349 93.0065C17.611 100.942 7.56115 110.284 -1.16403 120.801Z" fill="#F2F2F2"/>
<path d="M28.7908 93.0622C31.3472 91.2833 34.0148 89.5598 36.7935 87.8921C33.9592 89.5042 31.3472 91.2833 28.7908 93.0622Z" fill="#F2F2F2"/>
<path d="M31.9585 83.6671C22.5601 97.199 10.6563 108.804 -3.10877 117.855C-2.32521 118.431 -1.72654 119.223 -1.38598 120.134L-1.38598 120.801C7.35636 110.281 17.4251 100.938 28.5686 93.0064C31.125 91.2276 33.7369 89.4484 36.5156 87.7807C34.7973 86.648 33.2607 85.261 31.9585 83.6671Z" fill="#F2F2F2"/>
<path d="M265.147 135.81C265.221 133.853 265.775 131.944 266.759 130.251C264.37 131.418 253.533 134.476 214.186 123.081C214.125 124.91 213.69 126.707 212.908 128.361C216.242 128.361 233.804 127.305 265.648 139.479C265.312 138.399 265.144 137.275 265.147 136.144L265.147 135.81Z" fill="#F2F2F2"/>
<path d="M290.656 135.588L290.656 135.921C296.471 134.509 302.47 134.003 308.439 134.42L308.439 134.087C302.47 133.685 296.474 134.191 290.656 135.588Z" fill="#F2F2F2"/>
<path d="M307.939 131.919L307.939 131.585C302.298 133.358 296.399 134.166 290.489 133.976L290.489 134.309C296.398 134.476 302.293 133.669 307.939 131.919Z" fill="#F2F2F2"/>
<path d="M308.328 134.087C308.109 133.384 307.978 132.655 307.939 131.919C302.293 133.669 296.398 134.477 290.489 134.309L290.489 135.588C296.325 134.186 302.34 133.68 308.328 134.087Z" fill="#F2F2F2"/>
<path d="M66.3586 67.9359C65.7928 64.0282 63.9926 60.4039 61.2211 57.5923C58.4496 54.7807 54.8519 52.9291 50.9536 52.3082C47.0553 51.6873 43.0607 52.3296 39.5532 54.141C36.0457 55.9525 33.2091 58.8383 31.4579 62.377C30.236 64.8279 29.608 67.5322 29.6242 70.2709L29.6242 70.6041C29.6164 74.7651 31.0142 78.8065 33.5915 82.0728C36.1687 85.339 39.7738 87.6389 43.8216 88.598C47.8695 89.5571 52.1228 89.1196 55.891 87.3569C59.6591 85.5942 62.7211 82.6092 64.5802 78.8868C66.2551 75.6163 66.8764 71.9077 66.3586 68.2698L66.3586 67.9359Z" fill="#F2F2F2"/>
<path d="M114.653 146.483C115.447 146.947 116.328 147.242 117.241 147.352C118.154 147.461 119.08 147.383 119.961 147.12C120.843 146.858 121.661 146.417 122.365 145.825C123.07 145.234 123.645 144.505 124.056 143.682C124.468 142.859 124.706 141.961 124.757 141.042C124.807 140.124 124.668 139.204 124.349 138.341C124.031 137.479 123.538 136.69 122.903 136.025C122.267 135.36 121.502 134.833 120.655 134.476C119.86 134.012 118.98 133.717 118.067 133.607C117.153 133.497 116.228 133.576 115.346 133.839C114.465 134.102 113.647 134.542 112.942 135.133C112.238 135.724 111.662 136.455 111.251 137.277C110.84 138.1 110.602 138.999 110.551 139.917C110.501 140.836 110.639 141.754 110.958 142.617C111.277 143.48 111.77 144.268 112.405 144.933C113.04 145.598 113.805 146.126 114.653 146.483Z" fill="#F2F2F2"/>
<path d="M210.518 118.911L211.018 118.022C211.083 117.804 211.083 117.572 211.018 117.355C209.905 115.448 208.265 113.903 206.295 112.907C203.715 111.433 200.656 111.044 197.79 111.826C194.924 112.608 192.486 114.496 191.012 117.076C189.538 119.656 189.149 122.717 189.931 125.584C190.713 128.451 192.601 130.889 195.18 132.363L195.847 129.084C196.277 129.487 196.784 129.799 197.338 130C197.892 130.201 198.482 130.286 199.07 130.251L197.736 133.531C199.769 134.124 201.928 134.124 203.961 133.531C205.537 133.159 207.012 132.446 208.283 131.443C209.555 130.441 210.593 129.172 211.323 127.727C212.054 126.281 212.46 124.694 212.513 123.075C212.566 121.456 212.264 119.845 211.63 118.355L210.518 118.911Z" fill="#F2F2F2"/>
<path d="M195.846 129.084L195.402 132.363L196.402 133.031L197.736 133.531L199.07 130.251C198.481 130.286 197.892 130.201 197.338 130C196.784 129.799 196.276 129.487 195.846 129.084Z" fill="#F2F2F2"/>
<path d="M215.076 167.997C216.446 168.557 217.983 168.55 219.348 167.976C220.714 167.403 221.796 166.31 222.356 164.939C222.916 163.568 222.908 162.03 222.335 160.664C221.762 159.299 220.67 158.217 219.299 157.657C218.011 157.16 216.585 157.16 215.298 157.657L214.575 157.99L213.853 158.491L213.408 159.047C212.895 159.548 212.497 160.155 212.241 160.825C211.695 162.155 211.685 163.645 212.213 164.982C212.742 166.319 213.768 167.4 215.076 167.997Z" fill="#F2F2F2"/>
<path d="M213.686 158.547C213.451 158.695 213.228 158.862 213.019 159.047L213.686 158.547Z" fill="#F2F2F2"/>
<path d="M214.575 157.88L215.297 157.546L214.575 157.88Z" fill="#F2F2F2"/>
<path d="M89.6442 58.652C82.9501 62.0824 75.7098 64.3212 68.248 65.2675L68.5262 66.6572C75.5331 63.8629 82.909 62.1023 90.4224 61.4315C89.9956 60.5602 89.7319 59.6182 89.6442 58.652Z" fill="#F2F2F2"/>
<path d="M110.096 68.881C109.743 69.0802 109.468 69.3935 109.318 69.77L109.318 70.604C109.123 71.1655 109.078 71.7676 109.185 72.352C109.292 72.9364 109.548 73.4831 109.929 73.9392C110.232 74.3042 110.604 74.6062 111.023 74.8274C111.443 75.0487 111.902 75.1853 112.374 75.2292C112.846 75.273 113.322 75.2235 113.775 75.0833C114.228 74.943 114.649 74.7151 115.014 74.4121C115.379 74.1092 115.681 73.7372 115.902 73.3176C116.123 72.898 116.259 72.4389 116.303 71.9665C116.347 71.4942 116.298 71.0177 116.158 70.5646C116.017 70.1114 115.789 69.6905 115.486 69.3255C114.958 68.7054 114.227 68.2927 113.424 68.1604C112.62 68.0281 111.795 68.1848 111.096 68.6028L110.096 68.881Z" fill="#F2F2F2"/>
<path d="M108.929 69.7141C109.085 69.2198 109.423 68.803 109.874 68.547C106.906 67.0851 104.276 65.0218 102.149 62.4879L101.76 62.988C104.501 64.8224 106.923 67.0945 108.929 69.7141Z" fill="#F2F2F2"/>
<path d="M92.5897 61.5426C93.0383 62.1211 93.6071 62.5952 94.2568 62.9323C95.2008 63.4541 96.2764 63.6899 97.352 63.6109C98.4276 63.5319 99.4569 63.1419 100.315 62.4879L99.759 62.154L100.203 61.3207C100.203 61.3207 100.815 61.3207 100.87 61.3207L100.87 60.7643L101.315 61.3207L101.648 60.9312C102.118 60.0702 102.352 59.1004 102.326 58.1198C102.299 57.1393 102.014 56.1826 101.499 55.3478C100.984 54.5131 100.258 53.83 99.393 53.3671C98.5284 52.9042 97.5567 52.678 96.5766 52.7122C95.5965 52.7464 94.6427 53.0398 93.8125 53.5618C92.9822 54.0839 92.3049 54.8165 91.8492 55.6851C91.3935 56.5537 91.1758 57.5273 91.218 58.5073C91.2602 59.4873 91.561 60.4389 92.0897 61.2651L92.5897 61.5426Z" fill="#F2F2F2"/>
<path d="M92.3677 61.5427L91.8674 61.0426L92.3677 61.5427Z" fill="#F2F2F2"/>
<path d="M100.648 61.0983C100.648 61.0983 100.037 61.0983 99.9812 61.0983L99.5365 61.9323L100.092 62.2654C100.575 61.8738 100.988 61.404 101.315 60.8757L100.87 60.3199L100.648 61.0983Z" fill="#F2F2F2"/>
<path d="M289.1 136.811L289.1 136.366L288.766 136.366L289.1 135.977C289.16 135.311 289.16 134.641 289.1 133.976C288.594 131.548 287.29 129.359 285.397 127.757C283.504 126.156 281.13 125.234 278.652 125.137C277.447 125.11 276.246 125.279 275.095 125.637C278.605 131.866 282.426 137.914 286.543 143.76C288.164 141.803 289.067 139.351 289.1 136.811Z" fill="#F2F2F2"/>
<path d="M266.704 135.866C266.582 137.954 267.052 140.035 268.06 141.868C269.068 143.702 270.573 145.214 272.402 146.23C274.23 147.246 276.308 147.725 278.397 147.613C280.486 147.5 282.501 146.8 284.209 145.594C280.764 138.312 277.096 131.752 273.65 126.026C271.67 126.825 269.961 128.178 268.729 129.923C267.497 131.668 266.794 133.731 266.704 135.866Z" fill="#F2F2F2"/>
<path d="M289.1 136.366L289.1 136.032L288.766 136.421L289.1 136.366Z" fill="#F2F2F2"/>
<path d="M315.998 138.478C317.781 138.552 319.521 137.915 320.834 136.705C322.147 135.496 322.926 133.814 323 132.031C323.074 130.247 322.436 128.507 321.227 127.193C320.018 125.879 318.337 125.1 316.553 125.026C315.67 124.99 314.789 125.128 313.959 125.432C313.129 125.736 312.367 126.201 311.717 126.799C311.067 127.398 310.541 128.119 310.169 128.921C309.798 129.723 309.588 130.591 309.551 131.475C309.515 132.358 309.652 133.24 309.957 134.07C310.261 134.9 310.726 135.662 311.324 136.312C311.923 136.963 312.644 137.488 313.446 137.86C314.247 138.232 315.115 138.442 315.998 138.478Z" fill="#F2F2F2"/>
</g>
<defs>
<clipPath id="clip0_614_4100">
<rect width="183" height="333" fill="white" transform="translate(323 -9) rotate(90)"/>
</clipPath>
</defs>
</svg>
