<svg width="433" height="312" viewBox="0 0 433 312" fill="none" xmlns="http://www.w3.org/2000/svg">
<circle cx="51.8175" cy="104.11" r="18.5718" transform="rotate(17.4012 51.8175 104.11)" fill="white" stroke="#E60074" stroke-width="5.46229"/>
<g clip-path="url(#clip0_625_2452)">
<path d="M123.512 56.1724C129.286 37.7482 148.903 27.4933 167.327 33.2675L398.752 105.797C417.175 111.571 427.43 131.187 421.656 149.611L381.405 278.04C375.631 296.464 356.014 306.719 337.59 300.945L106.165 228.416C87.7417 222.642 77.4872 203.026 83.2612 184.602L123.512 56.1724Z" fill="#E60074"/>
<circle cx="178.211" cy="179.432" r="41.8783" transform="rotate(17.4012 178.211 179.432)" fill="#B8005D"/>
<circle cx="306.39" cy="219.604" r="41.8783" transform="rotate(17.4012 306.39 219.604)" fill="#FF64B2"/>
<path fill-rule="evenodd" clip-rule="evenodd" d="M283.032 184.845C254.413 204.075 229.752 196.346 217.228 164.221L201.567 214.193C230.186 194.962 254.847 202.691 267.371 234.816L283.032 184.845Z" fill="url(#paint0_linear_625_2452)"/>
<path d="M302.664 216.462C304 217.458 304.917 218.652 305.415 220.045C305.921 221.412 305.927 222.884 305.433 224.46C304.711 226.762 303.229 228.248 300.985 228.919C298.742 229.59 295.869 229.376 292.366 228.278L278.18 223.832L286.413 197.562L299.849 201.773C303.201 202.824 305.557 204.249 306.916 206.049C308.284 207.824 308.638 209.762 307.979 211.864C307.587 213.114 306.921 214.142 305.982 214.947C305.076 215.735 303.97 216.24 302.664 216.462ZM292.087 205.234L290.499 210.301L295.603 211.9C298.105 212.684 299.623 212.226 300.156 210.524C300.681 208.848 299.693 207.618 297.191 206.834L292.087 205.234ZM293.448 222.724C296.05 223.539 297.629 223.059 298.186 221.282C298.742 219.506 297.72 218.21 295.118 217.394L288.888 215.442L287.218 220.771L293.448 222.724ZM324.353 219.921C326.004 220.439 327.408 221.264 328.565 222.395C329.729 223.502 330.511 224.819 330.912 226.346C331.346 227.856 331.308 229.423 330.798 231.05C330.241 232.826 329.284 234.257 327.927 235.343C326.603 236.412 325.036 237.075 323.224 237.331C321.446 237.571 319.593 237.388 317.667 236.785C313.914 235.608 311.298 233.566 309.819 230.657C308.34 227.748 308.256 224.205 309.565 220.027C310.506 217.024 311.889 214.628 313.714 212.837C315.572 211.029 317.729 209.891 320.183 209.424C322.638 208.956 325.253 209.158 328.03 210.028C329.532 210.499 330.907 211.108 332.156 211.857C333.405 212.606 334.407 213.442 335.161 214.365L330.789 218.847C329.796 217.547 328.323 216.591 326.372 215.979C324.47 215.383 322.767 215.426 321.262 216.109C319.756 216.791 318.606 218.093 317.812 220.015C319.721 219.184 321.901 219.153 324.353 219.921ZM318.875 231.352C319.925 231.681 320.87 231.648 321.709 231.251C322.573 230.862 323.165 230.155 323.487 229.129C323.8 228.129 323.713 227.222 323.226 226.41C322.764 225.606 321.995 225.035 320.919 224.698C319.843 224.36 318.869 224.399 317.998 224.813C317.134 225.201 316.546 225.896 316.232 226.897C315.926 227.873 316 228.775 316.455 229.604C316.942 230.417 317.749 230.999 318.875 231.352Z" fill="white"/>
<path d="M180.065 178.039C181.402 179.035 182.319 180.229 182.816 181.622C183.322 182.989 183.328 184.461 182.834 186.037C182.113 188.339 180.63 189.825 178.387 190.496C176.143 191.167 173.27 190.953 169.768 189.855L155.582 185.409L163.815 159.139L177.25 163.35C180.603 164.401 182.959 165.826 184.318 167.626C185.685 169.401 186.039 171.339 185.381 173.44C184.988 174.691 184.323 175.719 183.384 176.524C182.478 177.312 181.371 177.817 180.065 178.039ZM169.489 166.811L167.901 171.878L173.005 173.477C175.507 174.261 177.024 173.803 177.557 172.101C178.083 170.425 177.094 169.195 174.592 168.411L169.489 166.811ZM170.849 184.3C173.451 185.116 175.03 184.635 175.587 182.859C176.144 181.083 175.121 179.787 172.519 178.971L166.289 177.019L164.619 182.348L170.849 184.3ZM202.565 171.284L194.332 197.554L186.901 195.225L193.335 174.697L188.456 173.168L190.256 167.426L202.565 171.284Z" fill="white"/>
<path d="M235.885 185.8L241.495 187.558L237.865 199.14L250.977 190.53L256.152 192.152L250.05 211.623L244.44 209.865L248.07 198.284L234.994 206.905L229.783 205.271L235.885 185.8Z" fill="white"/>
<path d="M202.813 78.0405L198.182 92.8188L194.804 91.7602L198.562 79.7687L193.495 78.1807L192.424 81.2299C191.696 83.305 190.993 84.9551 190.316 86.1802C189.642 87.3913 188.879 88.2494 188.025 88.7546C187.19 89.2502 186.209 89.3216 185.083 88.9687C184.618 88.8231 184.08 88.5693 183.467 88.2071L184.584 85.381C184.75 85.4946 184.945 85.5867 185.17 85.6573C185.986 85.9131 186.706 85.6132 187.33 84.7576C187.958 83.8879 188.636 82.4389 189.365 80.4104L191.455 74.4808L202.813 78.0405ZM214.427 91.7198C214.414 91.762 214.3 92.051 214.086 92.5866L205.494 89.8937C205.428 90.646 205.62 91.3166 206.069 91.9056C206.518 92.4946 207.172 92.9237 208.03 93.1927C208.621 93.378 209.169 93.4568 209.672 93.429C210.194 93.3916 210.711 93.2447 211.224 92.9882L212.381 95.4374C210.928 96.3266 209.174 96.4493 207.119 95.8053C205.838 95.4039 204.782 94.8025 203.951 94.0011C203.125 93.1856 202.583 92.2507 202.326 91.1964C202.069 90.1421 202.117 89.052 202.47 87.926C202.819 86.8141 203.392 85.8964 204.191 85.1729C205.008 84.4398 205.951 83.9702 207.021 83.7643C208.108 83.5488 209.222 83.6197 210.362 83.977C211.474 84.3254 212.405 84.8801 213.156 85.6409C213.907 86.4018 214.395 87.312 214.619 88.3715C214.862 89.4214 214.798 90.5375 214.427 91.7198ZM209.603 86.4748C208.857 86.241 208.164 86.2558 207.525 86.5193C206.886 86.7827 206.396 87.2627 206.054 87.9593L211.648 89.7127C211.761 88.9596 211.63 88.2925 211.255 87.7115C210.885 87.1164 210.334 86.7041 209.603 86.4748ZM228.963 89.9921L225.403 101.35L222.11 100.318L223.433 96.0957C222.326 96.2743 221.196 96.1827 220.042 95.821C218.507 95.3402 217.454 94.6315 216.882 93.6948C216.329 92.7485 216.281 91.5434 216.74 90.0797L217.858 86.5118L221.152 87.544L220.1 90.9007C219.884 91.5904 219.903 92.1452 220.158 92.5651C220.427 92.9894 220.899 93.3075 221.575 93.5192C222.433 93.7883 223.3 93.8589 224.174 93.7312L225.67 88.9599L228.963 89.9921ZM241.374 100.165C241.361 100.207 241.247 100.496 241.033 101.032L232.44 98.3388C232.374 99.0911 232.566 99.7617 233.015 100.351C233.464 100.94 234.118 101.369 234.977 101.638C235.568 101.823 236.115 101.902 236.618 101.874C237.14 101.837 237.658 101.69 238.171 101.433L239.328 103.883C237.874 104.772 236.12 104.894 234.065 104.25C232.785 103.849 231.729 103.248 230.898 102.446C230.071 101.631 229.53 100.696 229.273 99.6416C229.016 98.5872 229.064 97.4971 229.417 96.3711C229.765 95.2592 230.339 94.3415 231.137 93.6181C231.955 92.8849 232.898 92.4154 233.967 92.2095C235.055 91.9939 236.169 92.0648 237.309 92.4221C238.421 92.7706 239.352 93.3252 240.103 94.0861C240.853 94.8469 241.341 95.7571 241.565 96.8167C241.808 97.8666 241.744 98.9827 241.374 100.165ZM236.549 94.9199C235.803 94.6861 235.111 94.7009 234.472 94.9644C233.833 95.2278 233.342 95.7078 233 96.4044L238.595 98.1578C238.707 97.4047 238.576 96.7377 238.202 96.1566C237.832 95.5615 237.281 95.1493 236.549 94.9199ZM252.013 98.0737C253.096 98.4133 253.976 98.9363 254.651 99.6425C255.33 100.335 255.763 101.15 255.948 102.089C256.147 103.033 256.081 104.032 255.75 105.088C255.41 106.171 254.841 107.052 254.041 107.729C253.26 108.396 252.325 108.814 251.237 108.983C250.153 109.138 249.012 109.028 247.816 108.653C245.831 108.031 244.468 106.908 243.725 105.284C243 103.65 243.024 101.602 243.796 99.1386C244.51 96.8586 245.572 95.1973 246.981 94.1549C248.408 93.1029 250.215 92.6877 252.402 92.9095L258.144 93.5266L257.701 96.4946L252.632 95.9493C251.258 95.7968 250.161 95.9169 249.343 96.3095C248.538 96.7066 247.91 97.4293 247.457 98.4778C248.118 98.0973 248.837 97.8744 249.615 97.8091C250.397 97.7296 251.196 97.8179 252.013 98.0737ZM248.638 106.105C249.482 106.369 250.244 106.307 250.922 105.917C251.615 105.531 252.094 104.916 252.359 104.071C252.628 103.213 252.581 102.449 252.219 101.779C251.871 101.113 251.275 100.648 250.431 100.383C249.572 100.114 248.803 100.152 248.124 100.495C247.444 100.839 246.97 101.44 246.701 102.298C246.432 103.157 246.478 103.944 246.841 104.661C247.208 105.363 247.807 105.844 248.638 106.105ZM259.897 99.6868L263.169 100.712L261.78 105.146L266.72 106.694L268.109 102.261L271.403 103.293L267.843 114.651L264.55 113.619L265.879 109.375L260.939 107.827L259.609 112.071L256.337 111.045L259.897 99.6868ZM279.021 105.495C280.78 106.046 281.999 106.892 282.677 108.032C283.36 109.158 283.437 110.565 282.907 112.254L280.876 118.736L277.794 117.77L278.237 116.355C277.287 117.217 275.967 117.383 274.278 116.853C273.406 116.58 272.692 116.194 272.137 115.695C271.597 115.201 271.239 114.641 271.064 114.014C270.89 113.388 270.906 112.744 271.113 112.082C271.444 111.027 272.099 110.32 273.076 109.962C274.068 109.608 275.395 109.691 277.056 110.212L279.673 111.032C279.898 110.314 279.852 109.697 279.535 109.18C279.222 108.649 278.63 108.247 277.757 107.974C277.152 107.784 276.523 107.695 275.87 107.707C275.235 107.709 274.663 107.808 274.154 108.004L273.693 105.332C274.449 105.09 275.294 104.984 276.227 105.013C277.175 105.048 278.106 105.208 279.021 105.495ZM275.797 114.895C276.36 115.071 276.899 115.101 277.415 114.984C277.935 114.854 278.366 114.564 278.707 114.114L279.071 112.953L276.812 112.245C275.461 111.822 274.647 112.053 274.369 112.94C274.236 113.362 274.292 113.751 274.537 114.106C274.8 114.451 275.219 114.714 275.797 114.895ZM297.388 111.437L293.829 122.795L290.894 121.875L291.913 118.624L289.485 117.863L286.313 120.439L282.808 119.341L286.569 116.439C285.878 115.883 285.412 115.25 285.171 114.54C284.948 113.821 284.966 113.046 285.227 112.216C285.646 110.879 286.446 110.001 287.628 109.584C288.829 109.156 290.274 109.207 291.962 109.736L297.388 111.437ZM291.186 112.437C290.482 112.217 289.907 112.176 289.462 112.315C289.031 112.458 288.727 112.811 288.55 113.374C288.374 113.937 288.413 114.405 288.667 114.778C288.939 115.142 289.427 115.434 290.131 115.654L292.601 116.428L293.613 113.198L291.186 112.437ZM316.55 126.948L314.936 132.1L311.874 131.14L312.642 128.691L304.662 126.19L303.894 128.639L300.833 127.68L302.447 122.528L302.912 122.674C303.62 122.88 304.236 122.617 304.759 121.885C305.282 121.152 305.815 120.044 306.357 118.56L307.736 114.68L317.637 117.783L314.925 126.439L316.55 126.948ZM309.261 119.725C308.857 120.866 308.47 121.781 308.1 122.468C307.744 123.161 307.324 123.639 306.839 123.905L311.631 125.407L313.497 119.453L309.781 118.289L309.261 119.725ZM323.043 132.136C321.847 131.761 320.847 131.178 320.045 130.385C319.26 129.583 318.74 128.655 318.483 127.6C318.226 126.546 318.274 125.456 318.627 124.33C318.98 123.204 319.562 122.281 320.375 121.562C321.188 120.843 322.143 120.385 323.24 120.188C324.356 119.981 325.512 120.065 326.709 120.44C327.905 120.815 328.895 121.404 329.679 122.206C330.468 122.994 330.991 123.916 331.248 124.97C331.505 126.024 331.457 127.114 331.104 128.24C330.751 129.366 330.168 130.289 329.355 131.008C328.543 131.727 327.585 132.192 326.484 132.403C325.386 132.6 324.239 132.511 323.043 132.136ZM323.89 129.434C324.734 129.699 325.512 129.633 326.224 129.238C326.953 128.833 327.468 128.152 327.768 127.195C328.068 126.238 328.032 125.392 327.659 124.657C327.305 123.912 326.706 123.407 325.862 123.143C325.017 122.878 324.23 122.948 323.5 123.353C322.775 123.744 322.262 124.418 321.962 125.375C321.662 126.332 321.697 127.185 322.065 127.935C322.437 128.67 323.045 129.169 323.89 129.434ZM340.604 130.963C341.213 131.385 341.632 131.872 341.862 132.423C342.105 132.979 342.132 133.559 341.942 134.164C341.717 134.882 341.272 135.438 340.608 135.833C339.947 136.213 339.142 136.417 338.191 136.443C337.239 136.47 336.222 136.313 335.138 135.973C334.251 135.696 333.407 135.331 332.606 134.878C331.805 134.426 331.096 133.903 330.479 133.307L332.087 131.284C333.102 132.236 334.335 132.939 335.784 133.394C336.558 133.636 337.199 133.713 337.706 133.625C338.231 133.527 338.56 133.267 338.692 132.844C338.807 132.478 338.738 132.155 338.486 131.875C338.238 131.581 337.819 131.342 337.227 131.156L334.905 130.429L335.547 128.381L337.574 129.016C338.151 129.197 338.623 129.244 338.99 129.158C339.357 129.072 339.595 128.854 339.706 128.502C339.82 128.136 339.711 127.792 339.379 127.472C339.061 127.156 338.543 126.885 337.825 126.66C336.727 126.316 335.449 126.202 333.991 126.317L333.904 123.785C335.696 123.589 337.338 123.725 338.83 124.193C339.858 124.515 340.733 124.928 341.456 125.433C342.193 125.942 342.716 126.516 343.026 127.154C343.341 127.778 343.396 128.414 343.193 129.061C343.026 129.596 342.712 130.031 342.251 130.366C341.795 130.687 341.246 130.886 340.604 130.963ZM351.304 128.149C353.063 128.7 354.282 129.546 354.961 130.686C355.643 131.812 355.72 133.219 355.191 134.908L353.159 141.39L350.077 140.423L350.52 139.009C349.57 139.87 348.251 140.037 346.562 139.507C345.689 139.234 344.975 138.848 344.421 138.349C343.88 137.855 343.522 137.295 343.348 136.668C343.173 136.042 343.19 135.398 343.397 134.736C343.728 133.681 344.382 132.974 345.36 132.615C346.352 132.262 347.678 132.345 349.339 132.866L351.957 133.686C352.182 132.968 352.136 132.351 351.818 131.834C351.506 131.303 350.913 130.901 350.04 130.628C349.435 130.438 348.806 130.349 348.153 130.361C347.519 130.363 346.947 130.462 346.437 130.658L345.976 127.986C346.732 127.744 347.577 127.638 348.51 127.667C349.458 127.702 350.389 127.862 351.304 128.149ZM348.08 137.549C348.643 137.725 349.182 137.755 349.698 137.638C350.218 137.508 350.649 137.218 350.991 136.768L351.355 135.607L349.096 134.899C347.745 134.476 346.93 134.707 346.652 135.594C346.52 136.016 346.576 136.405 346.82 136.76C347.083 137.105 347.503 137.368 348.08 137.549Z" fill="white"/>
<path d="M180.925 108.987C181.933 109.7 182.608 110.528 182.949 111.469C183.308 112.417 183.312 113.451 182.96 114.573C182.432 116.256 181.355 117.379 179.728 117.942C178.124 118.493 176.119 118.391 173.713 117.637L163.968 114.583L169.923 95.5822L179.152 98.4746C181.432 99.1892 183.06 100.176 184.036 101.436C185.037 102.684 185.29 104.095 184.797 105.669C184.507 106.592 184.026 107.335 183.352 107.899C182.697 108.469 181.888 108.831 180.925 108.987ZM172.834 104.841L176.254 105.913C177.774 106.39 178.73 106.004 179.121 104.755C179.512 103.506 178.948 102.644 177.428 102.167L174.008 101.095L172.834 104.841ZM174.703 113.714C176.26 114.202 177.245 113.786 177.659 112.465C178.061 111.18 177.485 110.293 175.928 109.806L171.694 108.479L170.469 112.387L174.703 113.714ZM190.122 101.913L195.415 103.571L191.918 114.728L203.259 106.03L208.308 107.612L202.353 126.613L197.06 124.954L200.548 113.825L189.243 122.504L184.167 120.913L190.122 101.913ZM226.362 117.951L220.553 116.13L215.933 130.869L210.64 129.21L215.26 114.471L209.424 112.642L210.759 108.381L227.697 113.689L226.362 117.951ZM237.533 133.584L229.498 131.066L226.848 134.29L221.365 132.572L235.708 116.199L241.001 117.858L243.46 139.496L237.869 137.744L237.533 133.584ZM237.201 129.128L236.663 122.282L232.315 127.597L237.201 129.128ZM262.766 145.547L265.895 135.468L258.44 142.134L256.051 141.385L253.666 131.874L250.578 141.727L245.638 140.179L251.593 121.178L256.017 122.565L259.258 135.623L269.209 126.699L273.634 128.086L267.733 147.103L262.766 145.547ZM277.729 129.369L283.022 131.028L279.526 142.184L290.867 133.487L295.916 135.069L289.961 154.07L284.668 152.411L288.156 141.282L276.85 149.961L271.774 148.37L277.729 129.369ZM318.074 142.013L312.119 161.014L306.744 159.33L309.067 151.919L301.738 149.622L299.415 157.033L294.041 155.348L299.996 136.348L305.37 138.032L303.133 145.171L310.462 147.468L312.699 140.329L318.074 142.013ZM325.42 165.6C323.411 164.97 321.735 163.978 320.391 162.623C319.065 161.273 318.176 159.703 317.724 157.912C317.29 156.126 317.367 154.292 317.957 152.41C318.547 150.528 319.53 148.978 320.905 147.76C322.299 146.547 323.925 145.765 325.784 145.414C327.661 145.068 329.604 145.21 331.613 145.839C333.621 146.469 335.289 147.458 336.615 148.808C337.958 150.163 338.848 151.733 339.282 153.519C339.734 155.31 339.665 157.147 339.075 159.029C338.485 160.911 337.494 162.458 336.1 163.671C334.724 164.889 333.098 165.671 331.221 166.017C329.362 166.368 327.428 166.229 325.42 165.6ZM326.815 161.148C327.774 161.449 328.713 161.495 329.633 161.286C330.553 161.078 331.367 160.637 332.075 159.965C332.788 159.274 333.312 158.395 333.646 157.327C333.981 156.26 334.05 155.248 333.852 154.292C333.661 153.318 333.247 152.482 332.611 151.786C331.974 151.09 331.177 150.591 330.218 150.291C329.258 149.99 328.319 149.944 327.399 150.153C326.479 150.361 325.663 150.811 324.949 151.501C324.242 152.174 323.721 153.044 323.386 154.112C323.051 155.179 322.98 156.2 323.171 157.174C323.369 158.131 323.785 158.957 324.422 159.653C325.058 160.349 325.856 160.848 326.815 161.148ZM355.928 163.834C356.937 164.547 357.611 165.375 357.952 166.316C358.311 167.263 358.315 168.298 357.963 169.42C357.436 171.103 356.359 172.226 354.731 172.789C353.128 173.34 351.123 173.238 348.716 172.484L338.971 169.43L344.926 150.429L354.155 153.321C356.435 154.036 358.063 155.023 359.04 156.283C360.04 157.531 360.293 158.942 359.8 160.516C359.511 161.439 359.029 162.182 358.356 162.746C357.7 163.316 356.891 163.678 355.928 163.834ZM347.837 159.688L351.257 160.76C352.777 161.236 353.733 160.85 354.124 159.602C354.516 158.353 353.951 157.491 352.431 157.014L349.011 155.942L347.837 159.688ZM349.707 168.561C351.263 169.049 352.248 168.632 352.662 167.311C353.065 166.026 352.488 165.14 350.932 164.652L346.697 163.325L345.472 167.234L349.707 168.561Z" fill="#F2C94C"/>
</g>
<path d="M67.9757 109.174C122.466 79.3129 125.83 50.601 126.647 47.9948L108.384 184.805C91.8017 207.276 79.9273 197.067 83.0311 187.163C96.828 143.14 80.1198 121.567 67.9757 109.174Z" fill="#E60074"/>
<defs>
<linearGradient id="paint0_linear_625_2452" x1="208.06" y1="192.514" x2="273.349" y2="216.702" gradientUnits="userSpaceOnUse">
<stop stop-color="#B8005D"/>
<stop offset="1" stop-color="#FF64B2"/>
</linearGradient>
<clipPath id="clip0_625_2452">
<path d="M123.512 56.1724C129.286 37.7482 148.903 27.4933 167.327 33.2675L398.752 105.797C417.175 111.571 427.43 131.187 421.656 149.611L381.405 278.04C375.631 296.464 356.014 306.719 337.59 300.945L106.165 228.416C87.7417 222.642 77.4872 203.026 83.2612 184.602L123.512 56.1724Z" fill="white"/>
</clipPath>
</defs>
</svg>
