<svg width="320" height="404" fill="none" xmlns="http://www.w3.org/2000/svg"><path d="M293.271 77.496a552.728 552.728 0 01-96.86 97.635 541.809 541.809 0 0096.86-97.635z" fill="#F2F2F2"/><path d="M187.961 206.852c5.46-10.27 29.773-50.962 91.008-104.005-61.235 53.173-85.028 93.605-91.008 104.005zm8.321-32.762c-7.801 5.851-15.991 11.701-24.312 17.161 8.971-4.94 16.511-10.66 24.312-17.161z" fill="#F2F2F2"/><path d="M293.271 77.496a541.746 541.746 0 01-96.989 97.114c-7.8 5.98-15.863 11.701-24.183 17.291a47.202 47.202 0 0115.862 14.951c5.591-10.4 29.772-50.832 91.788-104.005 6.371-5.46 13.002-11.051 20.153-16.771a19.633 19.633 0 01-6.631-8.58zM110.473 202.172A486.895 486.895 0 01-25.91 107.007 35.879 35.879 0 01-38 127.418s56.036 13.001 141.714 84.895a51.964 51.964 0 016.759-10.141zm60.586 130.916a148.08 148.08 0 01-17.291-47.192 131.968 131.968 0 0016.64 47.453l.651-.261z" fill="#F2F2F2"/><path d="M149.997 282.516h-.779a182.013 182.013 0 0113.001 53.692v1.561l1.17-1.17a18.175 18.175 0 015.85-2.86 13 13 0 00-6.371 2.34 182.783 182.783 0 00-12.871-53.563zm3.771 3.38c0-1.17-.001-2.34-.651-3.64l.651 3.64z" fill="#F2F2F2"/><path d="M149.997 282.516a182.783 182.783 0 0113.001 53.563 13 13 0 016.371-2.34h1.3a131.95 131.95 0 01-16.641-47.453l-.781-3.64-3.25-.13zm-29.773-145.998h-.78a152.092 152.092 0 0115.601 50.053 151.612 151.612 0 00-14.821-50.053z" fill="#F2F2F2"/><path d="M138.946 185.921h.779a186.565 186.565 0 01-12.35-52.003h-.651a182.022 182.022 0 0012.222 52.003zM313.812 51.884c-1.69-5.46-13-41.472-21.581-86.324L286.77-36a785.56 785.56 0 0111.832 92.824 19.11 19.11 0 0113.001-5.2l2.209.26zM143.366 89.196a4.812 4.812 0 002.73 2.21 70.453 70.453 0 00-15.731 16.771l.781.65a70.195 70.195 0 0115.471-16.77l1.039-.78a8.054 8.054 0 01-3.899-2.34 5.05 5.05 0 01-.781-1.43v1.43a56.032 56.032 0 01-13.911 17.68v.65a55.77 55.77 0 0014.301-18.071z" fill="#F2F2F2"/><path d="M147.656 91.276h-1.949a4.166 4.166 0 01-2.081-1.82l-1.039-1.3c.181.516.444.999.779 1.43a8.06 8.06 0 004.29 1.69zm70.728 153.278a8.181 8.181 0 001.93 3.751 8.189 8.189 0 0014.102-7.109 8.18 8.18 0 00-5.372-6.133 7.802 7.802 0 00-10.79 7.671l.13 1.82zm41.583 116.49a8.198 8.198 0 009.683 6.274 8.193 8.193 0 004.482-13.414 8.187 8.187 0 00-3.504-2.35 7.806 7.806 0 00-7.524.841 7.803 7.803 0 00-3.267 6.83l.13 1.819zM121.144 230.092a8.204 8.204 0 005.469 6.046 8.184 8.184 0 007.98-1.671 8.198 8.198 0 002.324-3.522 8.196 8.196 0 00-5.112-10.343 7.806 7.806 0 00-7.525.841 7.81 7.81 0 00-3.266 6.83l.13 1.819zm41.584 116.491a8.19 8.19 0 1014.165-7.14 8.199 8.199 0 00-3.504-2.35 7.795 7.795 0 00-7.525.841 7.802 7.802 0 00-3.266 6.829l.13 1.82zm-92.401 42.273a18.55 18.55 0 0012.386 13.691 18.541 18.541 0 0018.072-3.785 18.56 18.56 0 005.261-7.976 18.55 18.55 0 00.589-9.535 18.552 18.552 0 00-4.23-8.565 18.562 18.562 0 00-7.936-5.322 17.66 17.66 0 00-22.74 8.679 17.667 17.667 0 00-1.697 8.692l.295 4.121z" fill="#F2F2F2"/><path d="M196.282 237.274a84.146 84.146 0 0021.321 2.73 5.712 5.712 0 000 3.38 84.4 84.4 0 00-21.192-4.681v.781a89.737 89.737 0 0121.063 4.55h1.04a7.913 7.913 0 010-1.82 7.14 7.14 0 010-3.12h-1.821a80.844 80.844 0 01-19.762-2.731l-.649.911z" fill="#F2F2F2"/><path d="M217.994 244.424v-1.43a7.942 7.942 0 000 1.43zm-.391-4.42a84.1 84.1 0 01-21.321-2.73 5.602 5.602 0 000 1.429 84.4 84.4 0 0121.192 4.681 5.724 5.724 0 01.129-3.38zm-93.869 36.272c0 6.24-2.86 26.001-39.003 86.324a31.987 31.987 0 0118.201 4.16c-1.56-6.37 2.6-26.001 32.113-86.064a43.659 43.659 0 01-8.71-3.12l-2.601-1.3zM258.947 353.5a301.616 301.616 0 00-79.958-82.035 299.02 299.02 0 0179.958 82.035 15.467 15.467 0 015.071-4.291 11.7 11.7 0 00-5.071 4.291z" fill="#F2F2F2"/><path d="M265.578 348.95a379.62 379.62 0 01-65.006-69.944 370.307 370.307 0 0065.006 69.944zm.13.13h-1.56a6.462 6.462 0 011.56 0zm-65.006-70.204a331.389 331.389 0 01-12.092-18.721c3.771 6.63 7.932 12.741 12.092 18.721z" fill="#F2F2F2"/><path d="M178.729 271.465a301.63 301.63 0 0179.958 82.035 11.704 11.704 0 015.331-4.031h1.56a370.238 370.238 0 01-65.006-70.073c-4.161-5.981-8.322-12.091-12.222-18.591a47.558 47.558 0 01-9.621 10.66z" fill="#F2F2F2"/><path d="M141.937 190.992a43.287 43.287 0 00-36.55 36.037 43.29 43.29 0 0023.549 45.607 40.821 40.821 0 0018.462 4.29h.779a43.165 43.165 0 0039.182-61.447 43.165 43.165 0 00-19.81-20.327 41.598 41.598 0 00-24.831-4.16h-.781zM325.643 78.015a15.728 15.728 0 002.031-6.054 15.718 15.718 0 00-3.569-11.988 15.728 15.728 0 00-22.92-1.257 15.737 15.737 0 00-3.625 5.259 15.737 15.737 0 006.553 21.998 15.728 15.728 0 0017.905-2.7 15.734 15.734 0 003.625-5.258zm-205.419 58.503a151.593 151.593 0 0115.472 50.053l3.25-.65a182.026 182.026 0 01-12.222-51.223 18.597 18.597 0 01-6.5 1.82zm23.924-47.842a4.158 4.158 0 002.079 1.82h1.951a8.059 8.059 0 007.8-1.43 8.447 8.447 0 10-10.791-13 8.063 8.063 0 00-1.69 10.27l.651 2.34zm1.948 2.73a4.812 4.812 0 01-2.73-2.21 55.77 55.77 0 01-14.171 18.071l1.17.91a70.451 70.451 0 0115.731-16.77zm-19.111 38.222a11.841 11.841 0 003.25-3.9 13 13 0 00-1.04-14.171l-.78 1.3-1.949-1.04v-1.56h-1.302l1.302-1.04-.911-.78a13.005 13.005 0 00-13.059.348 13 13 0 1013.839 22.013l.65-1.17zm0 .52l-1.17 1.17 1.17-1.17z" fill="#F2F2F2"/><path d="M125.945 110.777v1.56l1.95 1.041.78-1.301a13.005 13.005 0 00-3.251-2.86l-1.299 1.041 1.82.519z" fill="#F2F2F2"/></svg>