<svg width="10" height="10" viewBox="0 0 10 10" fill="none" xmlns="http://www.w3.org/2000/svg">
<path d="M3.23428 9.58239C3.30977 9.71159 3.40928 9.81686 3.52457 9.88949C3.63986 9.96212 3.76761 10 3.89722 10C4.02684 10 4.15459 9.96212 4.26988 9.88949C4.38517 9.81686 4.48468 9.71159 4.56017 9.58239L9.96121 0.399397C10.0587 0.23272 9.96121 0 9.79451 0H8.59171C8.33012 0 8.08136 0.154098 7.92748 0.418266L3.89851 7.27406L2.07252 4.16694C1.91864 3.90592 1.67244 3.74867 1.40829 3.74867H0.205492C0.0387937 3.74867 -0.0586608 3.98139 0.0387937 4.14807L3.23428 9.58239Z" fill="#E60074"/>
</svg>
