<svg xmlns="http://www.w3.org/2000/svg" width="223.09" height="52.36"><defs><clipPath id="a"><path d="M0 0h595.276v841.89H0V0z"/></clipPath></defs><g clip-path="url(#a)" transform="matrix(1.25 0 0 -1.25 -186.92 951.603)" fill="#00512d"><path d="M307.157 761.074H179.56a22.379 22.379 0 01-.438-1.996 58.203 58.203 0 01-.235-5.382v-5.384l4.354 4.125c1.412.343 2.59.458 3.648.458 2.59 0 4.474-.574 5.885-1.949 1.296-1.374 2.002-3.322 2.002-5.954v-9.39c0-.396.005-.77.014-1.13.956-.972 1.92-1.676 2.98-2.192 1.06-.456 2.236-.8 3.296-.8 1.178 0 2.119.344 2.825.916.706.457 1.06 1.145 1.06 2.059 0 .574-.236 1.261-.824 1.946-.59.573-1.765 1.374-3.415 2.408-2 1.373-3.53 2.633-4.354 3.778-.824 1.032-1.294 2.176-1.294 3.551 0 1.947.94 3.549 2.824 4.924 1.883 1.259 4.118 1.833 6.944 1.833 1.059 0 2 0 2.708-.115.706-.229 1.648-.459 2.588-.803v-4.581a15.961 15.961 0 01-2.472 1.72c-.824.341-1.765.456-2.824.456-1.058 0-2.001-.228-2.826-.686-.705-.459-1.058-1.146-1.058-1.831 0-.805.236-1.377.706-1.949.472-.686 1.406-1.383 2.824-2.292 2.347-1.501 4.003-2.747 4.943-3.891.826-1.148 1.296-2.404 1.296-3.665 0-2.062-.824-3.778-2.471-5.153-1.765-1.261-3.884-1.946-6.473-1.946-1.413 0-2.59 0-3.65.228-.657.079-1.491.218-2.414.45.043-.073.078-.151.126-.221h-8.002c.469.801.822 1.602.94 2.634.236 1.03.352 2.519.352 4.352v8.818c0 1.374-.47 2.405-1.176 3.091-.822.688-2 .916-3.53.916-1.06 0-2.472-.228-4.238-.916l-1.294-.573v-11.336c0-1.833.117-3.322.235-4.239.236-1.029.589-1.946.94-2.747h-8.118l.007.015c-1.062-.312-2.234-.472-3.516-.472-2.944 0-5.531.8-7.651 2.404v-2.521c0-1.259 0-2.405.235-3.434.085-.74.294-1.54.575-2.437a20.415 20.415 0 019.179-2.171h136.383c11.323 0 20.536 9.211 20.536 20.536 0 11.325-9.213 20.538-20.536 20.538m-146.372-12.762l3.884 3.78.705.345c.824.343 1.884.458 3.178.458 1.769 0 3.335-.394 4.686-1.159v2.648c0 1.603-.117 2.861-.354 3.892-.107.933-.41 1.866-.816 2.798h-1.294c-6.891 0-12.995-3.414-16.723-8.637h6.734v-4.125zm146.372-26.297h-79.978v.025c-9.183 1.164-16.285 8.997-16.285 18.496 0 9.5 7.102 17.334 16.285 18.499v.021h79.978c10.212 0 18.518-8.308 18.518-18.52s-8.306-18.521-18.518-18.521M166.08 748.427a11.45 11.45 0 01-3.648-.572c-.47-.231-1.06-.459-1.648-.8v-13.056c1.295-1.374 2.826-2.061 4.707-2.061 2.354 0 4.232.69 5.415 2.061 1.29 1.493 2 3.435 2 6.068 0 2.635-.706 4.696-1.883 6.183-1.176 1.49-2.942 2.177-4.943 2.177m-12.173 3.807a20.418 20.418 0 01-3.671-11.698c0-5 1.798-9.589 4.779-13.151l.002.657v17.408c0 1.26 0 2.405-.236 3.436-.111.979-.44 2.066-.874 3.348"/><path d="M215.292 737.534v5.862c0 .87-.035 1.603-.105 2.194a11.689 11.689 0 01-.379 1.841h3.281c1.661 0 2.903-.342 3.733-1.027.825-.685 1.24-1.714 1.24-3.086 0-1.477-.486-2.559-1.456-3.24-.909-.635-2.31-.975-4.207-1.017v-1.534c0-.876.034-1.61.105-2.2.071-.595.195-1.203.377-1.83h-3.073c.18.616.305 1.222.376 1.813.073.594.108 1.335.108 2.224m2.107 2.592c1.15.011 1.998.252 2.543.715.546.468.82 1.213.82 2.24 0 1.002-.252 1.752-.757 2.25-.503.5-1.26.748-2.267.748h-.339v-5.953zm6.692-3.802v7.644c0 .628-.03 1.148-.09 1.564a6.26 6.26 0 01-.318 1.262l1.383.276 1.382.284a6.637 6.637 0 01-.33-1.465c-.064-.54-.096-1.276-.096-2.206v-2.203l1.466 1.689c.498.136.913.204 1.244.204.877 0 1.542-.273 1.998-.822.456-.55.685-1.348.685-2.395v-3.832c0-.804.024-1.413.075-1.826.051-.412.141-.746.273-1.002h-2.686c.152.297.257.653.318 1.067.057.416.087 1.003.087 1.758v3.565c0 .562-.13.98-.39 1.257-.26.276-.66.413-1.198.413-.365 0-.845-.137-1.438-.41l-.433-.193v-4.632c0-.751.032-1.333.096-1.744.063-.412.173-.772.33-1.081h-2.765c.154.297.26.653.318 1.067.059.416.09 1.003.09 1.76m11.315-3.039c-.943 0-1.667.202-2.177.602-.508.403-.763.978-.763 1.723 0 .497.18.964.537 1.401.358.438.842.785 1.452 1.038l2.842 1.175v.88c0 .526-.163.945-.488 1.257-.324.311-.764.466-1.313.466a2.97 2.97 0 01-1.025-.18c-.332-.12-.693-.32-1.09-.596l.532 1.858c.38.161.745.278 1.1.354.354.072.714.111 1.08.111 1.043 0 1.826-.274 2.35-.82.525-.543.786-1.357.786-2.443v-3.787c0-.804.028-1.413.076-1.826.051-.41.141-.746.272-1h-2.28v.926l-1.502-1.12-.389-.019zm1.891 1.678v2.651h-2.479c-.058 0-.133-.178-.225-.535a3.685 3.685 0 01-.135-.9c0-.455.146-.798.44-1.026.295-.228.74-.34 1.327-.34.366 0 .718.05 1.052.15h.02zm3.82 1.362v4.01c0 .52-.03.989-.088 1.404-.059.415-.165.889-.318 1.423h2.338v-1.715l1.496 1.688c.444.16.87.239 1.275.239.337 0 .626-.065.863-.196l-.392-2.083-.088.063c-.36.266-.789.399-1.285.399-.366 0-.844-.134-1.436-.406l-.433-.194v-4.632c0-.751.031-1.336.094-1.747.064-.412.174-.772.332-1.081h-2.764c.153.297.26.653.318 1.067.057.417.088 1.003.088 1.76m6.352.001v4.01c0 .52-.028.989-.087 1.404-.057.415-.165.889-.317 1.423h2.338v-1.86l1.21 1.494.434.259c.414.213.888.319 1.422.319.762 0 1.347-.24 1.75-.72.302-.356.487-.836.552-1.44l1.433 1.6.394.222c.415.227.858.338 1.328.338.75 0 1.32-.234 1.712-.703.392-.467.588-1.153.588-2.051v-4.295c0-.818.024-1.434.07-1.85.048-.415.133-.74.257-.978h-2.665c.152.297.259.653.318 1.067.057.416.086 1.003.086 1.758v3.689c0 .522-.12.909-.366 1.165-.242.254-.613.38-1.113.38-.466 0-.975-.155-1.535-.47l-.464-.284v-4.48c0-.751.032-1.333.096-1.744.063-.412.173-.772.33-1.081h-2.765c.152.297.259.653.318 1.067.059.416.089 1.003.089 1.758v3.682c0 .526-.122.916-.363 1.172-.244.254-.616.38-1.12.38-.425 0-.95-.162-1.57-.488l-.426-.22v-4.526c0-.751.03-1.333.095-1.744.064-.412.172-.772.33-1.081h-2.763c.152.297.26.653.317 1.067.059.417.088 1.003.088 1.76m19.503 4.77c-.274.322-.554.556-.839.704a2.068 2.068 0 01-.958.224c-.388 0-.709-.101-.967-.303-.255-.201-.383-.453-.383-.754 0-.296.087-.563.26-.8.166-.237.486-.537.954-.897.793-.61 1.35-1.147 1.67-1.61.314-.455.47-.951.47-1.483 0-.83-.288-1.52-.867-2.066-.578-.548-1.308-.824-2.186-.824-.48 0-.893.029-1.234.085a8.71 8.71 0 00-1.26.322v2.3c.374-.451.748-.787 1.122-1.005a2.248 2.248 0 011.149-.33c.38 0 .694.11.944.335.249.223.374.503.374.84 0 .275-.101.539-.302.795-.195.248-.574.589-1.14 1.023-.713.55-1.213 1.048-1.506 1.493a2.645 2.645 0 00-.428 1.467c0 .794.318 1.453.95 1.979.633.523 1.428.785 2.386.785.35 0 .652-.03.908-.087.256-.06.552-.166.884-.32v-1.873zm4.141-7.809c-.76 0-1.312.224-1.66.675-.347.451-.52 1.171-.52 2.161v5.706h-1.374v.01l3.288 3.451h.017v-2.127h2.241v-1.334h-2.24v-4.897c0-.649.112-1.137.334-1.462.221-.32.555-.482 1-.482.273 0 .523.033.754.097.227.066.502.182.82.347l-.765-1.856a5.205 5.205 0 00-.885-.229 6.48 6.48 0 00-1.01-.06m5.69 0c-.94 0-1.665.202-2.175.602-.508.403-.763.978-.763 1.723 0 .497.18.964.536 1.401.358.438.843.785 1.453 1.038l2.843 1.175v.88c0 .526-.162.945-.49 1.257-.325.311-.76.466-1.31.466-.356 0-.697-.06-1.027-.18-.33-.12-.695-.32-1.09-.596l.534 1.858a6.04 6.04 0 001.098.354c.354.072.712.111 1.078.111 1.045 0 1.828-.274 2.352-.82.523-.543.786-1.357.786-2.443v-3.787c0-.804.026-1.413.077-1.826.05-.41.14-.746.272-1h-2.28v.926l-1.5-1.12-.394-.019zm1.894 1.678v2.651h-2.478c-.059 0-.136-.178-.228-.535a3.794 3.794 0 01-.136-.9c0-.455.148-.798.441-1.026.296-.228.74-.34 1.33-.34.365 0 .714.05 1.052.15h.02zm4.091 1.362v4.01c0 .527-.03.998-.089 1.414-.06.413-.166.885-.318 1.413h2.338v-1.681l1.466 1.689c.498.136.912.204 1.242.204.878 0 1.545-.273 2.001-.822.454-.55.684-1.348.684-2.395v-3.832c0-.804.024-1.413.075-1.826.05-.412.142-.746.271-1.002h-2.686c.155.297.26.653.32 1.067.057.416.087 1.003.087 1.758v3.565c0 .562-.13.98-.39 1.257-.263.276-.66.413-1.199.413-.366 0-.846-.137-1.437-.41l-.434-.193v-4.632c0-.751.032-1.333.094-1.744a3.62 3.62 0 01.331-1.081h-2.763c.152.297.257.653.318 1.067.058.417.09 1.003.09 1.76m12.207-3.039c-1.19 0-2.136.372-2.833 1.12-.695.745-1.046 1.756-1.046 3.031 0 1.701.482 3.115 1.446 4.243.964 1.131 2.174 1.695 3.625 1.695.392 0 .758-.053 1.095-.159v.755c0 .626-.03 1.148-.09 1.562a6.074 6.074 0 01-.317 1.263l1.35.276 1.356.284a5.977 5.977 0 01-.29-1.396c-.05-.539-.077-1.297-.077-2.276v-7.359c0-.75.032-1.335.095-1.747.064-.412.172-.772.33-1.08h-2.357v1.317l-1.148-1.298c-.445-.159-.824-.238-1.14-.23m.54 8.715c-.86 0-1.48-.292-1.858-.875-.38-.583-.567-1.535-.567-2.856 0-1.054.228-1.89.686-2.51.46-.62 1.078-.929 1.862-.929.378 0 .73.072 1.056.213l.569.304v6.097c-.45.37-1.034.556-1.748.556m22.021-8.716c-1.192 0-2.138.372-2.834 1.12-.697.745-1.046 1.756-1.046 3.031 0 1.701.482 3.115 1.446 4.243.964 1.131 2.172 1.695 3.624 1.695a3.63 3.63 0 001.094-.159v.755c0 .626-.028 1.148-.088 1.562a6.265 6.265 0 01-.317 1.263l1.349.276 1.358.284a5.639 5.639 0 01-.289-1.396c-.053-.539-.078-1.297-.078-2.276v-7.359c0-.75.03-1.335.095-1.747a3.52 3.52 0 01.329-1.08h-2.359v1.317l-1.146-1.298c-.447-.159-.825-.238-1.138-.23m.535 8.715c-.858 0-1.477-.292-1.857-.875-.378-.583-.568-1.535-.568-2.856 0-1.054.23-1.89.689-2.51.459-.62 1.079-.929 1.862-.929.378 0 .73.072 1.055.213l.568.304v6.097c-.449.37-1.033.556-1.749.556m-14.883-8.716c-.94 0-1.665.202-2.174.602-.51.403-.764.978-.764 1.723 0 .497.177.964.536 1.401.359.438.844.785 1.453 1.038l2.84 1.175v.88c0 .526-.161.945-.486 1.257-.324.311-.761.466-1.311.466-.354 0-.697-.06-1.026-.18-.331-.12-.695-.32-1.091-.596l.534 1.858c.377.161.744.278 1.097.354.354.072.714.111 1.079.111 1.044 0 1.83-.274 2.353-.82.524-.543.785-1.357.785-2.443v-3.787c0-.804.027-1.413.075-1.826.053-.41.142-.746.274-1h-2.282v.926l-1.5-1.12-.391-.019zm1.892 1.678v2.651h-2.478c-.058 0-.133-.178-.225-.535a3.76 3.76 0 01-.138-.9c0-.455.148-.798.444-1.026.294-.228.736-.34 1.326-.34.369 0 .717.05 1.054.15h.017zm3.512 1.362v4.01c0 .52-.03.989-.088 1.404-.06.415-.165.889-.317 1.423h2.338v-1.715l1.497 1.688c.442.16.868.239 1.274.239.338 0 .624-.065.862-.196l-.39-2.083-.088.063c-.362.266-.79.399-1.286.399-.367 0-.843-.134-1.437-.406l-.432-.194v-4.632c0-.751.032-1.336.094-1.747.065-.412.173-.772.332-1.081h-2.764c.152.297.258.653.317 1.067.058.417.088 1.003.088 1.76"/></g></svg>