<svg width="136" height="32" fill="none" xmlns="http://www.w3.org/2000/svg"><path d="M120.111.16H22.879c-.128.477-.241.988-.333 1.524a44.58 44.58 0 00-.18 4.111V9.91l3.319-3.152a11.532 11.532 0 012.78-.35c1.973 0 3.409.439 4.484 1.49.988 1.049 1.526 2.537 1.526 4.548v7.173c0 .303.003.588.01.864.729.742 1.463 1.28 2.271 1.674.808.348 1.704.611 2.512.611.897 0 1.614-.263 2.152-.7.538-.349.808-.874.808-1.573 0-.438-.18-.963-.628-1.486-.45-.438-1.345-1.05-2.602-1.84-1.523-1.049-2.69-2.011-3.318-2.886-.628-.788-.986-1.662-.986-2.713 0-1.487.716-2.71 2.152-3.761 1.435-.962 3.138-1.4 5.291-1.4.807 0 1.524 0 2.064.087.538.175 1.256.35 1.972.614v3.5a12.164 12.164 0 00-1.884-1.315c-.628-.26-1.345-.348-2.152-.348-.806 0-1.524.174-2.153.524-.537.35-.806.875-.806 1.399 0 .615.18 1.052.538 1.489.36.524 1.071 1.056 2.152 1.75 1.788 1.147 3.05 2.1 3.766 2.973.63.877.988 1.837.988 2.8 0 1.575-.628 2.886-1.883 3.937-1.345.963-2.96 1.486-4.933 1.486-1.076 0-1.973 0-2.78-.174a14.924 14.924 0 01-1.84-.344c.032.056.059.116.096.17h-6.098c.357-.613.626-1.225.717-2.013.179-.787.267-1.925.267-3.325v-6.736c0-1.05-.358-1.838-.896-2.362-.626-.525-1.524-.7-2.69-.7-.808 0-1.884.175-3.23.7l-.985.438v8.66c0 1.4.089 2.538.179 3.239.18.786.449 1.486.717 2.098h-6.187l.005-.011c-.809.238-1.702.36-2.679.36-2.243 0-4.215-.61-5.83-1.836v1.926c0 .961 0 1.837.179 2.623.065.565.224 1.177.438 1.862a15.524 15.524 0 006.995 1.658H120.11c8.628 0 15.649-7.036 15.649-15.688 0-8.652-7.021-15.69-15.649-15.69zM8.571 9.908l2.96-2.888.538-.264c.628-.262 1.435-.35 2.421-.35 1.348 0 2.542.301 3.571.886V5.27c0-1.225-.089-2.186-.27-2.973C17.71 1.584 17.48.87 17.17.159h-.986C10.932.16 6.28 2.767 3.44 6.757h5.132V9.91zm111.54 20.089H59.166v-.02c-6.998-.888-12.41-6.872-12.41-14.13 0-7.257 5.412-13.241 12.41-14.131V1.7h60.945c7.782 0 14.111 6.347 14.111 14.148 0 7.801-6.329 14.149-14.111 14.149zM12.607 9.82c-.806 0-1.703.088-2.78.437-.358.176-.806.35-1.255.61v9.975c.987 1.05 2.153 1.574 3.587 1.574 1.793 0 3.224-.527 4.126-1.574.983-1.14 1.524-2.624 1.524-4.636 0-2.013-.538-3.587-1.435-4.723-.896-1.139-2.242-1.663-3.767-1.663zM3.331 6.912A15.625 15.625 0 00.534 15.85c0 3.82 1.37 7.325 3.642 10.046l.001-.501v-13.3c0-.962 0-1.836-.18-2.624-.084-.748-.334-1.578-.666-2.558z" fill="#00512D"/><path d="M50.108 18.142v-4.478c0-.664-.027-1.225-.08-1.676a8.936 8.936 0 00-.289-1.407h2.5c1.266 0 2.212.261 2.845.785.628.523.944 1.31.944 2.357 0 1.129-.37 1.955-1.109 2.475-.692.486-1.76.745-3.206.777v1.172c0 .67.026 1.231.08 1.682.054.454.149.918.288 1.398h-2.342c.137-.471.232-.934.287-1.386.055-.454.082-1.02.082-1.699zm1.605-1.98c.876-.008 1.523-.193 1.938-.546.416-.358.625-.927.625-1.71 0-.767-.192-1.34-.577-1.72-.383-.382-.96-.572-1.727-.572h-.259v4.548zm5.1 2.905v-5.84c0-.48-.024-.877-.069-1.194a4.796 4.796 0 00-.242-.965l1.054-.21 1.053-.217c-.12.335-.203.708-.251 1.119-.049.412-.073.975-.073 1.685v1.683l1.117-1.29c.38-.104.695-.156.948-.156.668 0 1.175.208 1.522.628.348.42.522 1.03.522 1.83v2.927c0 .614.019 1.08.057 1.395.04.315.108.57.208.765h-2.046a2.67 2.67 0 00.242-.815c.043-.318.066-.766.066-1.343v-2.723c0-.43-.1-.75-.298-.96-.198-.211-.503-.316-.912-.316-.278 0-.644.105-1.096.312l-.33.149v3.538c0 .574.024 1.018.073 1.332.048.315.132.59.251.826h-2.107c.117-.227.198-.499.242-.815.045-.318.07-.766.07-1.345zm8.623 2.322c-.719 0-1.27-.154-1.659-.46-.387-.308-.581-.747-.581-1.316 0-.38.136-.737.409-1.07.273-.335.641-.6 1.106-.793l2.166-.898v-.672c0-.402-.124-.722-.372-.96-.247-.238-.582-.357-1-.357-.27 0-.532.047-.782.138a3.721 3.721 0 00-.831.455l.406-1.42c.289-.122.568-.212.838-.27.27-.055.544-.085.823-.085.795 0 1.392.21 1.791.627.4.415.6 1.037.6 1.866v2.893c0 .614.02 1.08.057 1.395.039.314.108.57.207.765h-1.738v-.708l-1.144.856-.296.014zm1.44-1.282v-2.025h-1.888c-.044 0-.102.136-.172.409-.07.274-.103.504-.103.687 0 .348.112.61.336.784.225.174.564.26 1.011.26.279 0 .547-.038.802-.115h.015zm2.912-1.04v-3.064a7.85 7.85 0 00-.067-1.072 8.233 8.233 0 00-.242-1.087h1.781v1.31l1.14-1.29c.339-.122.663-.182.972-.182.257 0 .477.05.658.15l-.3 1.59-.066-.047a1.602 1.602 0 00-.98-.305c-.278 0-.643.102-1.094.31l-.33.148v3.539c0 .574.024 1.02.072 1.334.049.315.133.59.253.826h-2.106c.116-.227.197-.499.242-.815.043-.318.067-.766.067-1.345zm4.841 0v-3.064c0-.397-.022-.755-.067-1.072a8.094 8.094 0 00-.242-1.087h1.782v1.42l.922-1.14.33-.199a2.33 2.33 0 011.084-.243c.581 0 1.027.182 1.334.55.23.272.37.639.42 1.1l1.093-1.222.3-.17a2.07 2.07 0 011.012-.258c.571 0 1.006.179 1.304.537.299.357.448.88.448 1.567v3.28c0 .626.019 1.096.054 1.413.036.318.101.567.195.748h-2.029a2.59 2.59 0 00.242-.815c.043-.318.066-.766.066-1.343v-2.818c0-.399-.092-.694-.28-.89-.184-.194-.467-.291-.847-.291-.356 0-.743.12-1.17.359l-.354.218v3.422c0 .574.025 1.018.073 1.332.048.315.132.59.252.826h-2.107c.116-.227.197-.499.242-.815.045-.318.068-.766.068-1.343v-2.813c0-.402-.093-.7-.277-.895-.186-.194-.469-.291-.853-.291-.324 0-.723.124-1.197.373l-.324.169v3.457c0 .574.023 1.018.072 1.332.05.315.131.59.252.826H74.32c.116-.227.198-.499.242-.815.045-.318.067-.766.067-1.345zm14.862-3.643a2.182 2.182 0 00-.64-.538 1.573 1.573 0 00-.73-.171c-.295 0-.54.077-.736.231a.707.707 0 00-.292.576c0 .226.066.43.197.611.127.181.37.41.727.686.605.466 1.03.876 1.273 1.229.24.348.359.727.359 1.134 0 .634-.22 1.16-.662 1.578-.44.418-.996.63-1.665.63-.366 0-.68-.023-.94-.066a6.617 6.617 0 01-.96-.246v-1.757c.284.345.57.601.854.768.285.167.577.251.876.251.29 0 .528-.084.719-.255a.826.826 0 00.285-.642.973.973 0 00-.23-.607c-.149-.19-.438-.45-.869-.781-.543-.421-.924-.8-1.147-1.14a2.025 2.025 0 01-.327-1.122c0-.606.243-1.11.725-1.511.482-.4 1.087-.6 1.817-.6.268 0 .497.023.692.066.196.046.421.127.674.244v1.432zm3.155 5.965c-.579 0-1-.171-1.265-.516-.264-.344-.397-.894-.397-1.65v-4.36h-1.046v-.007l2.505-2.637h.014v1.625h1.707v1.02h-1.707v3.74c0 .496.086.869.255 1.117.168.245.423.369.762.369.208 0 .398-.026.574-.075a3.54 3.54 0 00.625-.265l-.583 1.418a3.962 3.962 0 01-.674.175 4.925 4.925 0 01-.77.046zm4.337 0c-.717 0-1.27-.154-1.658-.46-.387-.308-.581-.747-.581-1.316 0-.38.136-.737.408-1.07.273-.335.642-.6 1.107-.793l2.167-.898v-.672c0-.402-.124-.722-.374-.96-.247-.238-.58-.357-.999-.357-.27 0-.53.047-.781.138-.253.091-.53.244-.831.455l.407-1.42a4.6 4.6 0 01.837-.27c.27-.055.542-.085.821-.085.796 0 1.393.21 1.792.627.399.415.6 1.037.6 1.866v2.893c0 .614.019 1.08.058 1.395.038.314.106.57.207.765h-1.738v-.708l-1.142.856-.3.014zm1.443-1.282v-2.025h-1.889c-.044 0-.103.136-.173.409-.07.274-.104.504-.104.687 0 .348.113.61.336.784.226.174.563.26 1.014.26.278 0 .544-.038.801-.115h.015zm3.117-1.04v-3.064a7.92 7.92 0 00-.068-1.08 8.282 8.282 0 00-.242-1.08h1.782v1.285l1.117-1.29c.379-.104.695-.156.946-.156.669 0 1.177.208 1.525.628.346.42.521 1.03.521 1.83v2.927c0 .614.018 1.08.057 1.395.038.315.108.57.207.765h-2.047a2.56 2.56 0 00.244-.815c.043-.318.066-.766.066-1.343v-2.723c0-.43-.099-.75-.297-.96-.2-.211-.503-.316-.914-.316-.279 0-.644.105-1.095.312l-.33.149v3.538c0 .574.024 1.018.071 1.332.049.315.134.59.252.826h-2.105c.116-.227.196-.499.242-.815.044-.318.068-.766.068-1.345zm9.303 2.322c-.907 0-1.628-.284-2.159-.856-.53-.569-.797-1.341-.797-2.315 0-1.3.367-2.38 1.102-3.242.734-.864 1.656-1.295 2.762-1.295.299 0 .577.041.834.122v-.577c0-.478-.022-.877-.068-1.193a4.612 4.612 0 00-.242-.965l1.029-.21 1.033-.218a4.57 4.57 0 00-.22 1.067c-.039.411-.059.99-.059 1.738v5.622c0 .574.024 1.02.072 1.335a2.7 2.7 0 00.252.825h-1.797v-1.006l-.875.991c-.339.122-.627.182-.867.177zm.41-6.659c-.655 0-1.127.223-1.416.669-.288.445-.432 1.173-.432 2.182 0 .805.174 1.444.523 1.918.351.473.822.709 1.419.709.288 0 .557-.055.805-.163l.433-.232v-4.658c-.343-.282-.788-.425-1.332-.425zm16.781 6.659c-.908 0-1.629-.284-2.16-.856-.531-.569-.797-1.341-.797-2.315 0-1.3.368-2.38 1.102-3.242.735-.864 1.655-1.295 2.762-1.295.298 0 .577.041.833.122v-.577c0-.478-.021-.877-.067-1.193a4.802 4.802 0 00-.241-.965l1.028-.21 1.035-.218a4.28 4.28 0 00-.221 1.067c-.04.411-.059.99-.059 1.738v5.622c0 .574.023 1.02.072 1.335a2.7 2.7 0 00.251.825h-1.798v-1.006l-.873.991c-.34.122-.629.182-.867.177zm.408-6.659c-.654 0-1.126.223-1.415.669-.288.445-.433 1.173-.433 2.182 0 .805.175 1.444.525 1.918.35.473.822.709 1.419.709.288 0 .556-.055.804-.163l.432-.232v-4.658c-.342-.282-.787-.425-1.332-.425zm-11.341 6.659c-.717 0-1.269-.154-1.657-.46-.389-.308-.582-.747-.582-1.316 0-.38.134-.737.408-1.07.274-.335.643-.6 1.107-.793l2.165-.898v-.672c0-.402-.123-.722-.371-.96-.247-.238-.58-.357-.999-.357-.27 0-.531.047-.782.138a3.713 3.713 0 00-.831.455l.407-1.42c.287-.122.567-.212.836-.27.269-.055.544-.085.822-.085.795 0 1.394.21 1.793.627.399.415.598 1.037.598 1.866v2.893c0 .614.021 1.08.057 1.395.041.314.108.57.209.765h-1.739v-.708l-1.143.856-.298.014zm1.441-1.282v-2.025h-1.888c-.044 0-.102.136-.172.409a2.88 2.88 0 00-.105.687c0 .348.113.61.339.784.224.174.56.26 1.01.26.281 0 .546-.038.803-.115h.013zm2.676-1.04v-3.064a7.85 7.85 0 00-.067-1.072 8.456 8.456 0 00-.241-1.087h1.781v1.31l1.141-1.29c.337-.122.661-.182.971-.182.257 0 .475.05.657.15l-.298 1.59-.067-.047a1.604 1.604 0 00-.98-.305c-.279 0-.642.102-1.095.31l-.329.148v3.539c0 .574.025 1.02.072 1.334.049.315.132.59.253.826h-2.106c.115-.227.196-.499.241-.815.044-.318.067-.766.067-1.345z" fill="#00512D"/></svg>