<svg width="60" height="60" viewBox="0 0 60 60" fill="none" xmlns="http://www.w3.org/2000/svg">
<g clip-path="url(#clip0_625_2657)">
<path d="M32.3662 0C34.2645 0.379648 36.1913 0.65008 38.0532 1.15975C49.9601 4.43096 58.744 15.1885 59.6541 27.5349C60.7645 42.6168 50.9924 55.8785 36.337 59.2095C19.7911 62.9696 3.20614 51.7934 0.418582 35.003C-2.38458 18.1009 9.17648 2.44431 26.076 0.22883C26.5545 0.166422 27.0251 0.0754096 27.501 0H32.3662ZM44.6242 7.8712C34.2385 0.644879 18.7977 1.87484 9.59253 12.7676C0.7514 23.2261 2.25961 37.3199 7.88933 44.6607L44.6242 7.8712ZM51.9051 15.2275L15.1338 52.03C24.6641 58.7909 39.4027 58.3696 48.9382 48.4754C58.5672 38.5109 58.1979 23.9724 51.8999 15.2275H51.9051ZM49.7183 12.2346L47.5808 10.1283C35.068 22.6636 22.5864 35.1703 10.136 47.6485L12.1903 49.8301L49.7183 12.2346Z" fill="white"/>
</g>
<defs>
<clipPath id="clip0_625_2657">
<rect width="59.74" height="59.9402" fill="white"/>
</clipPath>
</defs>
</svg>
