<svg width="50" height="64" viewBox="0 0 50 64" fill="none" xmlns="http://www.w3.org/2000/svg">
<g clip-path="url(#clip0_625_2702)">
<path d="M24.9791 2.54055e-05H47.2834C49.2672 2.54055e-05 50.1651 1.03275 49.9753 3.00709C49.4058 8.94338 48.8552 14.8816 48.2933 20.8179C47.7466 26.6143 47.1973 32.4095 46.6455 38.2034C46.1468 43.5062 45.6539 48.8078 45.1666 54.1082C44.9369 56.559 44.7091 59.0098 44.4623 61.4588C44.3332 62.7497 43.4182 63.547 42.0438 63.547C38.9418 63.5584 35.8417 63.547 32.7416 63.547H8.3757C6.42414 63.547 5.69516 62.856 5.51291 60.9253C4.88011 54.1404 4.23656 47.3556 3.58224 40.5707C2.98994 34.2813 2.41472 27.9881 1.82052 21.6987C1.23202 15.4555 0.633389 9.21295 0.0246361 2.97102C-0.165204 1.03465 0.744129 -0.00756836 2.68239 -0.00756836L24.9791 2.54055e-05ZM43.1885 25.505C41.7989 25.0703 40.4491 24.7134 39.1468 24.2293C35.1374 22.7428 31.1546 21.1918 27.1452 19.6959C23.4699 18.3291 19.6958 17.7633 15.7851 18.4487C12.5806 19.0087 9.64572 20.3148 6.74497 21.7101C6.64541 21.7864 6.5653 21.8852 6.51119 21.9983C6.45708 22.1115 6.43051 22.2359 6.43363 22.3613C6.84178 26.887 7.27462 31.4109 7.70176 35.9348C8.31178 42.3666 8.92116 48.7977 9.52991 55.2282C9.65141 56.5153 9.7862 57.7986 9.90959 59.0858H40.0941C41.1287 47.9004 42.1558 36.7359 43.1885 25.505ZM43.7087 20.9488C44.2269 15.3846 44.7262 10.0008 45.2274 4.60744H4.77253C5.1655 8.76303 5.55277 12.8598 5.94954 17.0362C6.68991 16.7154 7.36005 16.4326 8.02449 16.1383C14.4354 13.3097 20.9887 12.7705 27.6558 15.0923C30.6686 16.1402 33.5978 17.4197 36.5897 18.5246C38.9133 19.377 41.273 20.1211 43.7087 20.945V20.9488Z" fill="white"/>
<path d="M18.1752 51.9686C18.2226 53.4247 17.3399 54.4878 16.1021 54.5637C14.7846 54.6454 13.7519 53.736 13.6342 52.3711C12.9166 44.5535 12.2003 36.7353 11.4852 28.9164C11.4454 28.4703 11.3751 28.0222 11.3694 27.5742C11.3498 26.9887 11.5611 26.4189 11.9578 25.9877C12.3545 25.5566 12.9048 25.2986 13.4899 25.2696C13.7857 25.2434 14.0837 25.2764 14.3665 25.3668C14.6494 25.4572 14.9113 25.6031 15.1371 25.796C15.3628 25.9889 15.5478 26.2248 15.6813 26.4901C15.8147 26.7553 15.8939 27.0445 15.9142 27.3407C16.2002 30.3313 16.4793 33.3213 16.7514 36.3106C17.2184 41.373 17.6829 46.4354 18.1448 51.4978C18.1543 51.6896 18.1695 51.8775 18.1752 51.9686Z" fill="white"/>
</g>
<defs>
<clipPath id="clip0_625_2702">
<rect width="50" height="63.5584" fill="white"/>
</clipPath>
</defs>
</svg>
