<svg width="60" height="60" viewBox="0 0 60 60" fill="none" xmlns="http://www.w3.org/2000/svg">
<g clip-path="url(#clip0_625_2663)">
<path d="M0 49.5393V14.9833C0.0450038 14.8794 0.080109 14.7715 0.104845 14.661C0.452226 12.0259 1.69887 9.59159 3.63401 7.76964C5.56916 5.94769 8.07408 4.84985 10.7253 4.66174C11.7315 4.59445 12.7455 4.65235 13.8221 4.65235C13.8221 3.86212 13.8221 3.18454 13.8221 2.50698C13.8315 1.06577 14.7938 0.0204719 16.127 0.00325881C17.4603 -0.0139542 18.4931 1.04387 18.5056 2.50698C18.5056 3.18611 18.5056 3.86368 18.5056 4.57098H41.4803C41.4803 3.87463 41.4803 3.21584 41.4803 2.55549C41.4881 1.07986 42.4614 0.0189099 43.8119 0.0110858C45.1623 0.00326167 46.1591 1.05795 46.1591 2.52732C46.1591 3.20489 46.1591 3.88246 46.1591 4.60854C46.8727 4.60854 47.5127 4.60854 48.1542 4.60854C55.0207 4.56785 59.9483 10.0009 59.9686 16.0317C60.0041 26.8812 60.0041 37.7348 59.9686 48.5926C59.9577 53.8191 56.2099 58.4228 51.0914 59.6261C50.5453 59.7545 49.996 59.853 49.4421 59.9641H10.5453C10.4394 59.9213 10.33 59.8878 10.2183 59.864C7.83797 59.5817 5.60368 58.5685 3.82304 56.9639C2.0424 55.3592 0.802975 53.242 0.27541 50.9038C0.175261 50.4516 0.0923244 49.9947 0 49.5393ZM4.68507 23.1235V23.7667C4.68507 31.887 4.68507 40.0074 4.68507 48.1278C4.68507 52.259 7.67076 55.2681 11.8034 55.2712C23.9277 55.2806 36.0519 55.2806 48.1761 55.2712C52.3104 55.2712 55.2977 52.2605 55.2992 48.1325C55.2992 40.0111 55.2992 31.8907 55.2992 23.7714V23.1235H4.68507ZM41.4818 9.32961H18.5071C18.5071 10.8584 18.5212 12.3403 18.5071 13.8222C18.4899 15.1977 17.4618 16.2039 16.1286 16.1867C14.8251 16.1694 13.8424 15.1617 13.8299 13.8066C13.8174 12.4984 13.8299 11.1902 13.8299 9.88199C13.8299 9.69577 13.8096 9.51112 13.7986 9.33586C6.88209 8.55345 3.97152 13.273 4.78835 18.3837H55.2429C56.0472 11.8411 51.7173 8.5691 46.1669 9.37029C46.1669 10.824 46.2154 12.2887 46.1403 13.7518C46.1009 14.327 45.9098 14.8815 45.5864 15.3589C45.0371 16.1538 43.9699 16.3854 43.0592 16.0662C42.6031 15.9123 42.2067 15.6191 41.926 15.2281C41.6453 14.837 41.4943 14.3678 41.4944 13.8864C41.4678 12.3794 41.4818 10.8772 41.4818 9.32961Z" fill="white"/>
<path d="M16.2068 43.7979C16.9673 43.7979 17.7278 43.7838 18.4883 43.7979C19.1005 43.8024 19.6864 44.0471 20.1199 44.4794C20.5533 44.9117 20.7997 45.497 20.8058 46.1091C20.8151 46.7216 20.5823 47.313 20.158 47.7548C19.7338 48.1967 19.1523 48.4533 18.5399 48.4689C16.9626 48.5033 15.3837 48.5033 13.8032 48.4689C13.1918 48.4546 12.6102 48.2023 12.182 47.7657C11.7539 47.329 11.513 46.7425 11.5107 46.131C11.5149 45.5096 11.7653 44.9152 12.2071 44.4781C12.6488 44.041 13.2459 43.797 13.8674 43.7995C14.6466 43.7854 15.4275 43.7963 16.2068 43.7979Z" fill="white"/>
<path d="M43.8603 43.7978C44.6208 43.7978 45.3813 43.7838 46.1418 43.7978C46.763 43.8024 47.357 44.053 47.7938 44.4947C48.2305 44.9364 48.4744 45.5333 48.4719 46.1545C48.4642 46.7659 48.2182 47.3502 47.7862 47.7831C47.3543 48.2159 46.7705 48.4631 46.159 48.472C44.6005 48.4981 43.0409 48.4981 41.4802 48.472C40.8678 48.4638 40.2833 48.2149 39.8528 47.7792C39.4224 47.3435 39.1807 46.756 39.1799 46.1435C39.1799 45.521 39.4272 44.924 39.8674 44.4838C40.3076 44.0436 40.9046 43.7963 41.5272 43.7963C42.3002 43.7838 43.081 43.7963 43.8603 43.7978Z" fill="white"/>
<path d="M43.804 34.6609C43.0435 34.6609 42.283 34.675 41.5225 34.6609C40.9 34.6609 40.303 34.4136 39.8628 33.9734C39.4226 33.5332 39.1753 32.9362 39.1753 32.3136C39.1765 32.0057 39.2386 31.701 39.3579 31.4171C39.4772 31.1333 39.6514 30.8757 39.8705 30.6594C40.0897 30.443 40.3494 30.2721 40.6347 30.1564C40.9201 30.0407 41.2256 29.9825 41.5335 29.9852C43.0534 29.9685 44.5739 29.9685 46.0949 29.9852C46.7169 29.9772 47.3167 30.2165 47.7623 30.6505C48.208 31.0844 48.4632 31.6776 48.4719 32.2995C48.4875 33.5968 47.4422 34.6374 46.0809 34.6624C45.325 34.6734 44.5598 34.6624 43.804 34.6609Z" fill="white"/>
<path d="M16.1819 29.9789C16.9424 29.9789 17.7029 29.9664 18.4634 29.9789C19.0859 29.9789 19.683 30.2262 20.1232 30.6664C20.5633 31.1066 20.8106 31.7036 20.8106 32.3261C20.809 32.9381 20.5664 33.5248 20.1352 33.9592C19.7041 34.3936 19.1192 34.6406 18.5072 34.6467C16.9424 34.6749 15.3828 34.6749 13.8284 34.6467C13.2064 34.6389 12.613 34.3845 12.1784 33.9394C11.7439 33.4943 11.5038 32.8949 11.5109 32.2729C11.5235 31.6615 11.7742 31.0792 12.2097 30.6499C12.6452 30.2206 13.231 29.9781 13.8425 29.9742C14.6233 29.9648 15.4026 29.9789 16.1819 29.9789Z" fill="white"/>
<path d="M30.0149 29.9789C30.7754 29.9789 31.5359 29.9648 32.2949 29.9789C32.6026 29.9797 32.9072 30.0415 33.191 30.1606C33.4748 30.2797 33.7322 30.4538 33.9484 30.6729C34.1646 30.892 34.3352 31.1517 34.4505 31.437C34.5658 31.7224 34.6235 32.0278 34.6202 32.3355C34.6185 32.9479 34.3751 33.5348 33.9428 33.9686C33.5105 34.4023 32.9244 34.6478 32.3121 34.6515C30.7472 34.6765 29.1876 34.6765 27.6333 34.6515C27.021 34.6429 26.4365 34.3942 26.0057 33.959C25.5749 33.5239 25.3322 32.9369 25.3298 32.3246C25.3298 31.7021 25.5771 31.105 26.0173 30.6648C26.4575 30.2246 27.0545 29.9774 27.6771 29.9774C28.4548 29.9664 29.2341 29.9789 30.0149 29.9789Z" fill="white"/>
<path d="M29.9851 43.7963C30.7456 43.7963 31.5061 43.7853 32.2667 43.7963C32.5738 43.7942 32.8782 43.8528 33.1626 43.9688C33.447 44.0847 33.7057 44.2557 33.9238 44.4719C34.1419 44.6882 34.3151 44.9453 34.4336 45.2287C34.552 45.5121 34.6133 45.816 34.6139 46.1231C34.6162 46.4312 34.5573 46.7367 34.4408 47.0219C34.3242 47.3071 34.1522 47.5664 33.9348 47.7846C33.7174 48.0029 33.4588 48.1759 33.1741 48.2937C32.8894 48.4114 32.5841 48.4714 32.276 48.4704C30.7363 48.4933 29.1959 48.4933 27.6551 48.4704C27.0329 48.4662 26.4377 48.2152 26.0005 47.7724C25.5633 47.3296 25.3198 46.7313 25.3235 46.1091C25.3376 44.8228 26.3626 43.8182 27.6989 43.7963C28.4641 43.7853 29.2246 43.7963 29.9851 43.7963Z" fill="white"/>
</g>
<defs>
<clipPath id="clip0_625_2663">
<rect width="60" height="59.9656" fill="white"/>
</clipPath>
</defs>
</svg>
