<svg width="66" height="61" viewBox="0 0 66 61" fill="none" xmlns="http://www.w3.org/2000/svg">
<g clip-path="url(#clip0_625_2675)">
<path d="M0 29.2009C0.255157 27.8025 0.426341 26.3829 0.780007 25.0121C1.68598 21.4973 3.50114 18.4856 6.0301 15.9183C6.52873 15.4124 7.2033 15.1222 7.91065 15.1094C8.61799 15.0967 9.30243 15.3623 9.8187 15.8499C10.085 16.0889 10.3011 16.3792 10.4545 16.7037C10.6078 17.0281 10.6953 17.3802 10.7117 17.7392C10.7281 18.0983 10.6731 18.457 10.55 18.7943C10.4268 19.1316 10.2381 19.4406 9.99472 19.7033C8.46055 21.3996 7.15247 23.2246 6.40476 25.4175C4.83506 30.01 5.31631 34.4397 7.63371 38.6317C9.99472 42.9002 13.6251 45.588 18.3455 46.695C19.5399 46.9686 20.7606 47.1089 21.9855 47.1134C26.9481 47.1606 31.9124 47.133 36.8766 47.133C36.98 47.133 37.0833 47.1232 37.2981 47.1118C37.0914 46.8823 36.9477 46.7113 36.7926 46.5534C35.751 45.4936 34.6496 44.4843 33.6807 43.3577C32.2983 41.7509 33.1494 39.3513 35.2068 38.8889C35.5746 38.8035 35.9564 38.8003 36.3256 38.8797C36.6947 38.959 37.0421 39.1188 37.3433 39.348C37.5843 39.5299 37.81 39.7313 38.0184 39.9504C40.5893 42.5356 43.1576 45.1241 45.7231 47.7158C47.1233 49.1289 47.1265 50.6901 45.7328 52.0966C43.1059 54.7481 40.4763 57.3973 37.8439 60.0444C36.5213 61.3663 34.6868 61.3061 33.6113 59.9386C32.7279 58.8169 32.8167 57.3338 33.8713 56.2235C34.8257 55.2256 35.8092 54.2602 36.7781 53.2785C36.9251 53.1304 37.0639 52.9741 37.2852 52.7364C36.9622 52.7202 36.741 52.7006 36.5165 52.7006H22.7897C19.6923 52.7006 16.674 52.2611 13.7865 51.0726C9.58553 49.3779 6.01217 46.4066 3.5625 42.5714C1.54518 39.4828 0.35057 35.9227 0.0936679 32.2338C0.0734522 32.0872 0.0421362 31.9425 0 31.8007V29.2009Z" fill="white"/>
<path d="M28.6372 13.8638C29.8985 15.1304 31.0467 16.239 32.1448 17.3965C33.5159 18.8438 33.2107 20.965 31.5263 21.849C30.5412 22.3667 29.5771 22.282 28.6695 21.6488C28.4272 21.4692 28.2018 21.2676 27.9961 21.0464C25.4402 18.4775 22.8865 15.9058 20.3349 13.3315C18.8815 11.8663 18.8815 10.3246 20.3349 8.85618C22.9446 6.22213 25.5576 3.5897 28.1737 0.958902C29.4964 -0.364637 31.3293 -0.304402 32.4064 1.06146C33.2882 2.18151 33.1994 3.67761 32.148 4.77812C31.1936 5.77606 30.2101 6.73168 29.2412 7.72149C29.0942 7.86963 28.9554 8.02754 28.7309 8.26686C29.0539 8.28151 29.2751 8.30104 29.498 8.30104C34.0962 8.30104 38.6944 8.30104 43.2926 8.30104C46.3448 8.30104 49.3194 8.74059 52.1746 9.90459C56.4412 11.6465 59.8681 14.4385 62.3906 18.3098C65.186 22.5995 66.381 27.3336 65.9111 32.4487C65.4589 37.375 63.4257 41.5865 59.9811 45.0964C59.4791 45.5988 58.8025 45.8838 58.0952 45.8908C57.3879 45.8978 56.7058 45.6262 56.1941 45.1339C55.9334 44.897 55.7217 44.6106 55.5711 44.291C55.4205 43.9714 55.334 43.625 55.3166 43.2716C55.2992 42.9183 55.3512 42.5649 55.4697 42.2319C55.5881 41.8988 55.7706 41.5926 56.0068 41.3309C57.5652 39.6036 58.8878 37.7412 59.6484 35.5077C61.0017 31.5305 60.7789 27.6022 59.0945 23.8042C56.8563 18.7575 52.9885 15.5895 47.6609 14.3001C46.4458 14.0224 45.2038 13.882 43.9579 13.8817C39.0389 13.8361 34.1182 13.8638 29.1976 13.8638H28.6372Z" fill="white"/>
</g>
<defs>
<clipPath id="clip0_625_2675">
<rect width="66" height="61" fill="white"/>
</clipPath>
</defs>
</svg>
