<svg width="485" height="762" viewBox="0 0 485 762" fill="none" xmlns="http://www.w3.org/2000/svg">
<g clip-path="url(#clip0_625_2589)">
<rect width="407" height="741" transform="translate(103.078 -28.5388) rotate(7.93238)" fill="white"/>
<path d="M351.167 473.629C319.921 504.283 284.969 530.913 247.124 552.901C285.031 531.005 319.994 504.366 351.167 473.629Z" fill="#F2F2F2"/>
<path d="M235.002 581.678C241.493 572.719 269.733 537.572 334.37 495.636C269.716 537.695 242 572.664 235.002 581.678Z" fill="#F2F2F2"/>
<path d="M247.14 551.904C239.025 556.392 230.543 560.829 221.989 564.882C231.087 561.404 238.939 557.005 247.14 551.904Z" fill="#F2F2F2"/>
<path d="M351.167 473.629C319.947 504.192 284.968 530.659 247.072 552.394C238.939 557.004 230.595 561.336 222.025 565.511C227.552 569.813 231.997 575.35 235.002 581.678C241.633 572.613 269.715 537.695 335.104 495.738C341.821 491.43 348.8 487.033 356.286 482.582C353.773 480.138 351.999 477.035 351.167 473.629Z" fill="#F2F2F2"/>
<path d="M162.635 567.099C118.102 538.165 78.8771 501.783 46.6775 459.545C44.1238 466.851 39.1644 473.072 32.6112 477.188C32.6112 477.188 83.6808 496.79 154.938 575.766C157.156 572.585 159.738 569.676 162.635 567.099Z" fill="#F2F2F2"/>
<path d="M433.36 258.212C433.36 258.212 433.36 258.211 433.479 257.354C417.721 265.043 400.688 269.779 383.224 271.328C400.59 270.018 417.576 265.574 433.36 258.212Z" fill="#F2F2F2"/>
<path d="M384.026 275.435L383.924 276.17C400.43 269.965 417.776 266.278 435.379 265.235L435.481 264.5C417.883 265.578 400.543 269.264 384.026 275.435Z" fill="#F2F2F2"/>
<path d="M433.529 261.481C433.491 260.402 433.641 259.325 433.973 258.297C418.242 265.873 401.268 270.53 383.875 272.043C384.2 272.928 384.448 273.84 384.618 274.769C384.641 275.018 384.606 275.27 384.515 275.504C401.032 269.332 418.372 265.647 435.97 264.568C435.062 263.618 434.245 262.584 433.529 261.481Z" fill="#F2F2F2"/>
<path d="M202.512 698.389C196.51 683.502 193.098 667.697 192.421 651.659C192.535 667.75 195.741 683.669 201.865 698.549L202.512 698.389Z" fill="#F2F2F2"/>
<path d="M189.314 647.98L188.58 647.878C192.962 664.942 194.714 682.575 193.776 700.168L193.571 701.639L194.827 700.69C196.657 699.699 198.65 699.046 200.712 698.763C198.525 698.653 196.349 699.125 194.405 700.132C195.351 682.59 193.635 665.007 189.314 647.98Z" fill="#F2F2F2"/>
<path d="M192.422 651.659C192.575 650.557 192.728 649.455 192.287 648.145L192.422 651.659Z" fill="#F2F2F2"/>
<path d="M189.313 647.98C193.678 665.006 195.436 682.595 194.527 700.149C196.471 699.142 198.648 698.67 200.834 698.78L202.058 698.951C195.935 684.071 192.729 668.152 192.615 652.061L192.358 648.529L189.313 647.98Z" fill="#F2F2F2"/>
<path d="M180.438 506.526L179.704 506.423C185.238 522.23 187.986 538.879 187.826 555.627C188.221 538.955 185.72 522.342 180.438 506.526Z" fill="#F2F2F2"/>
<path d="M191.586 555.526L192.32 555.628C188.297 539.075 186.679 522.029 187.514 505.014L186.901 504.929C185.966 521.933 187.545 538.982 191.586 555.526Z" fill="#F2F2F2"/>
<path d="M345.669 199.545L347.152 198.752C349.528 197.587 351.469 195.689 352.686 193.338C353.904 190.988 354.334 188.309 353.916 185.695C353.498 183.08 352.253 180.67 350.362 178.817C348.472 176.964 346.036 175.766 343.415 175.401C340.793 175.036 338.124 175.522 335.799 176.788C333.474 178.053 331.618 180.032 330.501 182.432C329.384 184.832 329.065 187.527 329.594 190.121C330.123 192.715 331.47 195.07 333.438 196.841C335.433 198.522 337.954 199.448 340.562 199.457C341.745 199.499 342.93 199.413 344.094 199.2L345.669 199.545Z" fill="#F2F2F2"/>
<path d="M347.764 198.838L345.668 199.545L344.689 199.408C343.532 199.674 342.341 199.76 341.158 199.665L339.566 199.443L337.851 199.205L338.432 200.409C344.069 217.438 346.108 235.452 344.418 253.31L345.152 253.412C346.827 235.554 344.79 217.543 339.167 200.512C341.738 201.114 344.438 200.782 346.787 199.575C344.574 217.221 345.071 235.102 348.261 252.597L348.997 252.7C345.813 235.332 345.34 217.576 347.594 200.063L347.764 198.838Z" fill="#F2F2F2"/>
<path d="M341.106 200.033C342.289 200.128 343.48 200.042 344.637 199.776C343.473 199.989 342.289 200.075 341.106 200.033Z" fill="#F2F2F2"/>
<path d="M346.347 199.14L348.444 198.433L346.347 199.14Z" fill="#F2F2F2"/>
<path d="M346.752 199.821C344.404 201.027 341.703 201.359 339.133 200.756C344.756 217.788 346.793 235.799 345.118 253.657L348.227 252.842C345.037 235.346 344.54 217.467 346.752 199.821Z" fill="#F2F2F2"/>
<path d="M373.876 452.195C373.001 446.829 367.076 411.418 364.882 368.036L359.944 365.849C361.365 395.512 361.017 425.232 358.902 454.853C362.652 452.192 367.272 451.051 371.83 451.661L373.876 452.195Z" fill="#F2F2F2"/>
<path d="M358.137 308.037C357.313 307.991 356.494 307.877 355.689 307.696C356.139 311.629 358.049 328.377 359.337 352.28L364.133 353.697C363.504 338.502 363.101 322.588 363.537 306.917C362.45 307.297 361.325 307.558 360.182 307.698L358.223 307.425L358.137 308.037Z" fill="#F2F2F2"/>
<path d="M452.833 410.507L446.913 407.309C427.393 426.573 405.884 443.708 382.745 458.426C384.463 460.239 385.74 462.425 386.473 464.813C406.464 444.253 428.727 426.034 452.833 410.507Z" fill="#F2F2F2"/>
<path d="M208.446 464.979C208.872 466.051 209.686 466.923 210.727 467.42C204.341 471.036 198.592 475.676 193.709 481.156L194.36 481.87C199.163 476.396 204.828 471.745 211.132 468.101L212.213 467.502C210.854 466.939 209.686 465.996 208.848 464.786C208.589 464.335 208.403 463.846 208.3 463.336L208.113 464.684C204.027 470.62 198.781 475.665 192.69 479.515L192.605 480.128C198.882 476.236 204.277 471.077 208.446 464.979Z" fill="#F2F2F2"/>
<path d="M212.213 467.502L210.378 467.246C209.595 466.799 208.987 466.098 208.657 465.259L207.849 463.898C207.952 464.407 208.136 464.896 208.395 465.347C209.431 466.422 210.758 467.171 212.213 467.502Z" fill="#F2F2F2"/>
<path d="M258.706 621.189C258.809 622.546 259.266 623.852 260.031 624.977C260.795 626.102 261.84 627.008 263.063 627.603C264.286 628.198 265.645 628.463 267.002 628.37C268.359 628.278 269.667 627.832 270.798 627.076C271.929 626.32 272.844 625.281 273.449 624.062C274.054 622.844 274.328 621.488 274.247 620.13C274.165 618.772 273.73 617.459 272.984 616.322C272.237 615.184 271.205 614.262 269.992 613.648C268.907 613.006 267.678 612.652 266.419 612.618C265.16 612.584 263.912 612.871 262.795 613.453C261.677 614.034 260.727 614.89 260.031 615.941C259.336 616.991 258.92 618.202 258.822 619.458L258.706 621.189Z" fill="#F2F2F2"/>
<path d="M238.846 611.43C245.164 614.057 251.791 615.862 258.568 616.801C258.103 617.793 257.948 618.903 258.124 619.985C252.012 616.765 245.51 614.348 238.779 612.794C238.779 612.794 238.779 612.795 238.677 613.53C245.35 615.098 251.811 617.466 257.918 620.581L258.897 620.717C258.91 620.138 258.991 619.563 259.136 619.002C259.054 618.004 259.194 617 259.545 616.063C259.545 616.063 259.545 616.063 257.831 615.824C251.556 614.862 245.425 613.127 239.577 610.658L238.846 611.43Z" fill="#F2F2F2"/>
<path d="M258.356 621.016L258.544 619.669C258.441 620.111 258.378 620.562 258.356 621.016Z" fill="#F2F2F2"/>
<path d="M258.568 616.801C251.79 615.862 245.163 614.057 238.845 611.43C238.726 611.869 238.662 612.322 238.658 612.777C245.389 614.331 251.891 616.749 258.003 619.968C257.868 618.88 258.064 617.775 258.568 616.801Z" fill="#F2F2F2"/>
<path d="M137.295 723.888L133.472 720.858C133.364 725.213 137.295 723.888 137.295 723.888Z" fill="#F2F2F2"/>
<path d="M165.398 638.654C164.578 644.533 159.29 662.775 117.331 714.863C123.367 715.268 129.146 717.465 133.928 721.172C133.295 714.965 139.79 697.017 175.47 644.303C172.735 643.222 170.123 641.854 167.677 640.221L165.398 638.654Z" fill="#F2F2F2"/>
<path d="M282.609 729.153C266.9 696.037 244.992 666.241 218.07 641.374C245.038 666.199 266.953 696.006 282.609 729.153C284.123 727.654 285.945 726.502 287.948 725.776C285.879 726.362 284.025 727.535 282.609 729.153Z" fill="#F2F2F2"/>
<path d="M289.451 725.736C269.041 703.218 251.554 678.211 237.408 651.31C251.471 678.262 268.964 703.279 289.451 725.736Z" fill="#F2F2F2"/>
<path d="M289.556 725.876L288.087 725.671C288.583 725.68 289.077 725.749 289.556 725.876Z" fill="#F2F2F2"/>
<path d="M237.547 651.205C234.414 645.024 231.436 638.616 228.616 631.98C231.297 638.722 234.414 645.024 237.547 651.205Z" fill="#F2F2F2"/>
<path d="M217.825 641.339C244.747 666.206 266.655 696.003 282.363 729.118C283.873 727.568 285.802 726.492 287.913 726.021L289.383 726.226C268.893 703.729 251.405 678.671 237.356 651.677C234.223 645.497 231.106 639.194 228.286 632.558C225.263 635.998 221.736 638.959 217.825 641.339Z" fill="#F2F2F2"/>
<path d="M404.294 143.411C400.005 142.648 395.97 140.842 392.544 138.153C394.381 143.778 397.789 168.6 360.604 251.82C364.614 252.515 368.439 254.025 371.843 256.257C372.867 248.908 375.934 209.88 412.529 143.435C410.048 143.842 407.519 143.869 405.029 143.514L404.294 143.411Z" fill="#F2F2F2"/>
<path d="M411.638 87.1236L412.372 87.2259C411.047 73.9756 411.774 60.5998 414.527 47.5709L413.793 47.4686C411.075 60.5021 410.348 73.8725 411.638 87.1236Z" fill="#F2F2F2"/>
<path d="M408.864 47.9059L408.128 47.8034C410.301 60.7798 410.27 74.0296 408.036 86.9958L408.77 87.0981C410.953 74.1275 410.986 60.8864 408.864 47.9059Z" fill="#F2F2F2"/>
<path d="M413.759 47.7139C412.142 47.9818 410.497 48.0463 408.864 47.9059C410.986 60.8865 410.953 74.1275 408.77 87.0981L411.587 87.4907C410.291 74.1983 411.023 60.7863 413.759 47.7139Z" fill="#F2F2F2"/>
<path d="M193.737 560.695C184.955 560.743 176.419 563.598 169.375 568.843C162.33 574.089 157.147 581.449 154.582 589.85C152.017 598.251 152.205 607.252 155.118 615.539C158.031 623.825 163.517 630.962 170.774 635.908C175.798 639.353 181.562 641.567 187.599 642.372L188.333 642.474C197.497 643.769 206.828 641.928 214.815 637.251C222.801 632.573 228.974 625.334 232.33 616.707C235.685 608.08 236.028 598.572 233.302 589.726C230.576 580.88 224.942 573.216 217.313 567.976C210.623 563.281 202.645 560.773 194.472 560.798L193.737 560.695Z" fill="#F2F2F2"/>
<path d="M381.589 478.367C382.854 476.758 383.775 474.908 384.297 472.929C384.818 470.95 384.93 468.886 384.622 466.863C384.315 464.84 383.595 462.901 382.509 461.167C381.422 459.433 379.992 457.941 378.306 456.782C376.62 455.623 374.714 454.822 372.706 454.429C370.699 454.036 368.631 454.059 366.632 454.497C364.634 454.935 362.746 455.778 361.086 456.974C359.427 458.171 358.03 459.696 356.982 461.454C355.717 463.062 354.796 464.912 354.274 466.891C353.752 468.87 353.642 470.935 353.95 472.958C354.257 474.981 354.976 476.919 356.062 478.653C357.148 480.387 358.58 481.879 360.266 483.038C361.952 484.197 363.858 484.998 365.866 485.391C367.874 485.784 369.94 485.76 371.938 485.322C373.937 484.885 375.824 484.041 377.484 482.845C379.144 481.648 380.541 480.124 381.589 478.367Z" fill="#F2F2F2"/>
<path d="M350.294 258.623L348.488 257.248C348.028 257.038 347.518 256.967 347.018 257.043C342.476 258.911 338.57 262.052 335.771 266.089C331.731 271.321 329.936 277.944 330.778 284.501C331.62 291.058 335.031 297.011 340.262 301.051C345.492 305.091 352.114 306.887 358.669 306.045C365.224 305.202 371.176 301.789 375.215 296.557L368.196 294.081C369.217 293.257 370.06 292.235 370.672 291.075C371.284 289.915 371.653 288.642 371.757 287.335L378.573 291.281C380.503 286.984 381.166 282.224 380.484 277.563C380.147 273.976 379.03 270.506 377.212 267.395C375.395 264.285 372.919 261.608 369.959 259.555C366.999 257.501 363.627 256.12 360.078 255.506C356.528 254.892 352.887 255.062 349.409 256.002L350.294 258.623Z" fill="#F2F2F2"/>
<path d="M368.196 294.081L375.284 296.068L377.06 294.068L378.573 291.281L371.757 287.335C371.653 288.643 371.284 289.915 370.672 291.075C370.06 292.235 369.217 293.258 368.196 294.081Z" fill="#F2F2F2"/>
<path d="M459.817 263.645C461.472 260.796 461.928 257.407 461.084 254.222C460.24 251.037 458.165 248.317 455.317 246.662C452.469 245.006 449.079 244.551 445.895 245.395C442.711 246.239 439.993 248.315 438.338 251.164C436.848 253.849 436.41 256.992 437.109 259.982L437.621 261.677L438.503 263.423L439.59 264.573C440.537 265.859 441.751 266.922 443.15 267.691C445.911 269.303 449.19 269.783 452.298 269.029C455.405 268.274 458.101 266.344 459.817 263.645Z" fill="#F2F2F2"/>
<path d="M438.573 263.807C438.829 264.371 439.128 264.914 439.47 265.43L438.573 263.807Z" fill="#F2F2F2"/>
<path d="M437.377 261.643L436.864 259.948L437.377 261.643Z" fill="#F2F2F2"/>
<path d="M180.438 506.526C185.939 522.332 188.647 538.976 188.44 555.712L191.586 555.526C187.583 539.225 185.97 522.429 186.799 505.664C184.749 506.337 182.593 506.629 180.438 506.526Z" fill="#F2F2F2"/>
<path d="M209.251 464.592C209.581 465.431 210.187 466.133 210.97 466.58L212.807 466.836C213.984 467.436 215.297 467.721 216.617 467.664C217.937 467.608 219.22 467.211 220.341 466.512C221.238 465.957 222.018 465.23 222.634 464.373C223.25 463.517 223.692 462.547 223.934 461.52C224.175 460.492 224.212 459.428 224.043 458.387C223.873 457.345 223.5 456.347 222.945 455.45C222.39 454.553 221.663 453.774 220.806 453.158C219.95 452.541 218.981 452.099 217.954 451.858C216.927 451.616 215.862 451.579 214.821 451.749C213.78 451.919 212.782 452.293 211.885 452.848C210.357 453.822 209.224 455.306 208.685 457.036C208.147 458.767 208.239 460.633 208.945 462.302L209.251 464.592Z" fill="#F2F2F2"/>
<path d="M210.727 467.42C209.686 466.924 208.872 466.051 208.446 464.979C204.315 471.07 198.962 476.235 192.727 480.145L193.71 481.156C198.592 475.676 204.341 471.036 210.727 467.42Z" fill="#F2F2F2"/>
<path d="M187.71 500.922C189.122 500.11 190.341 499.002 191.283 497.674C192.722 495.754 193.572 493.455 193.728 491.061C193.885 488.666 193.342 486.278 192.164 484.187L191.258 485.309L189.559 484.074C189.559 484.074 189.747 482.726 189.764 482.604L188.538 482.433L189.901 481.624L189.145 480.769C187.393 479.47 185.328 478.657 183.16 478.414C180.992 478.17 178.797 478.505 176.8 479.384C174.804 480.263 173.076 481.655 171.79 483.418C170.505 485.182 169.709 487.254 169.483 489.424C169.257 491.595 169.611 493.787 170.506 495.777C171.401 497.767 172.806 499.485 174.58 500.756C176.353 502.027 178.431 502.805 180.603 503.013C182.774 503.221 184.963 502.85 186.945 501.938L187.71 500.922Z" fill="#F2F2F2"/>
<path d="M187.641 501.411L186.386 502.361L187.641 501.411Z" fill="#F2F2F2"/>
<path d="M189.205 483.025C189.205 483.025 189.017 484.373 189 484.495L190.701 485.731L191.605 484.608C190.891 483.425 189.983 482.37 188.92 481.487L187.559 482.297L189.205 483.025Z" fill="#F2F2F2"/>
<path d="M413.854 90.9281L412.875 90.7916L412.773 91.5272L412.017 90.6721C410.569 90.3352 409.094 90.1297 407.609 90.0579C402.106 90.4288 396.883 92.6296 392.774 96.3105C388.665 99.9913 385.905 104.941 384.931 110.372C384.501 113.019 384.504 115.718 384.941 118.364C399.739 112.539 414.235 105.975 428.375 98.6952C424.564 94.5227 419.44 91.7814 413.854 90.9281Z" fill="#F2F2F2"/>
<path d="M404.894 139.998C409.458 140.907 414.185 140.509 418.533 138.85C422.881 137.192 426.674 134.339 429.473 130.621C432.273 126.903 433.967 122.47 434.361 117.832C434.754 113.194 433.832 108.539 431.699 104.402C414.6 109.761 399.024 115.832 385.354 121.668C386.506 126.278 388.961 130.459 392.427 133.71C395.892 136.961 400.221 139.144 404.894 139.998Z" fill="#F2F2F2"/>
<path d="M412.875 90.7916L412.14 90.6891L412.894 91.5441L412.875 90.7916Z" fill="#F2F2F2"/>
<path d="M425.787 32.1591C426.497 28.2512 425.627 24.2214 423.367 20.9561C421.106 17.6907 417.642 15.4573 413.735 14.7473C409.828 14.0373 405.799 14.9087 402.534 17.1701C399.269 19.4314 397.036 22.8978 396.326 26.8058C395.974 28.7408 396.008 30.7255 396.423 32.6477C396.839 34.57 397.627 36.392 398.747 38.0088C399.866 39.6257 401.293 41.006 402.945 42.0713C404.598 43.1365 406.446 43.8655 408.38 44.2171C410.315 44.5686 412.299 44.5359 414.221 44.1202C416.143 43.7044 417.964 42.914 419.581 41.7943C421.197 40.6746 422.577 39.2473 423.642 37.5941C424.707 35.9409 425.436 34.0942 425.787 32.1591Z" fill="#F2F2F2"/>
</g>
<defs>
<clipPath id="clip0_625_2589">
<rect width="407" height="741" fill="white" transform="translate(103.078 -28.5388) rotate(7.93238)"/>
</clipPath>
</defs>
</svg>
