<svg width="432" height="312" viewBox="0 0 432 312" fill="none" xmlns="http://www.w3.org/2000/svg">
<circle cx="50.9405" cy="103.841" r="18.5718" transform="rotate(17.4012 50.9405 103.841)" fill="white" stroke="#E60074" stroke-width="5.46229"/>
<g clip-path="url(#clip0_625_2685)">
<path d="M122.635 55.9032C128.409 37.4789 148.026 27.224 166.45 32.9983L397.875 105.528C416.298 111.302 426.553 130.918 420.779 149.341L380.528 277.771C374.754 296.195 355.137 306.45 336.713 300.676L105.288 228.146C86.8647 222.372 76.6103 202.756 82.3843 184.333L122.635 55.9032Z" fill="#E60074"/>
<circle cx="177.334" cy="179.163" r="41.8783" transform="rotate(17.4012 177.334 179.163)" fill="#B8005D"/>
<circle cx="305.513" cy="219.335" r="41.8783" transform="rotate(17.4012 305.513 219.335)" fill="#FF64B2"/>
<path fill-rule="evenodd" clip-rule="evenodd" d="M282.156 184.575C253.536 203.806 228.875 196.077 216.351 163.952L200.69 213.923C229.309 194.693 253.97 202.422 266.494 234.547L282.156 184.575Z" fill="url(#paint0_linear_625_2685)"/>
<path d="M301.787 216.193C303.123 217.189 304.04 218.383 304.538 219.775C305.044 221.143 305.05 222.615 304.556 224.191C303.834 226.493 302.352 227.979 300.108 228.649C297.865 229.32 294.992 229.107 291.489 228.009L277.303 223.563L285.536 197.293L298.972 201.504C302.324 202.554 304.68 203.98 306.039 205.779C307.407 207.554 307.761 209.493 307.102 211.594C306.71 212.845 306.045 213.873 305.105 214.678C304.199 215.465 303.093 215.97 301.787 216.193ZM291.21 204.965L289.622 210.031L294.726 211.631C297.228 212.415 298.746 211.956 299.279 210.255C299.804 208.579 298.816 207.349 296.314 206.564L291.21 204.965ZM292.571 222.454C295.173 223.27 296.752 222.789 297.309 221.013C297.865 219.236 296.843 217.941 294.241 217.125L288.011 215.173L286.341 220.502L292.571 222.454ZM323.476 219.652C325.127 220.169 326.531 220.994 327.688 222.126C328.852 223.233 329.634 224.55 330.035 226.076C330.469 227.586 330.431 229.154 329.921 230.78C329.364 232.557 328.407 233.988 327.051 235.074C325.726 236.142 324.159 236.805 322.347 237.062C320.569 237.301 318.716 237.119 316.79 236.515C313.037 235.339 310.421 233.297 308.942 230.388C307.463 227.479 307.379 223.935 308.688 219.757C309.629 216.755 311.012 214.358 312.837 212.567C314.695 210.759 316.852 209.621 319.306 209.154C321.761 208.687 324.376 208.889 327.153 209.759C328.655 210.229 330.03 210.839 331.279 211.588C332.528 212.336 333.53 213.172 334.285 214.096L329.912 218.578C328.919 217.277 327.446 216.321 325.495 215.71C323.593 215.114 321.89 215.157 320.385 215.839C318.879 216.522 317.729 217.824 316.935 219.745C318.844 218.915 321.024 218.884 323.476 219.652ZM317.998 231.083C319.049 231.412 319.993 231.378 320.832 230.982C321.696 230.593 322.288 229.886 322.61 228.86C322.923 227.859 322.837 226.953 322.349 226.14C321.887 225.336 321.118 224.765 320.042 224.428C318.966 224.091 317.992 224.129 317.121 224.543C316.257 224.932 315.669 225.627 315.355 226.627C315.049 227.603 315.123 228.506 315.578 229.335C316.065 230.147 316.872 230.73 317.998 231.083Z" fill="white"/>
<path d="M179.188 177.77C180.525 178.766 181.442 179.96 181.94 181.352C182.445 182.72 182.451 184.192 181.957 185.768C181.236 188.07 179.753 189.556 177.51 190.227C175.266 190.897 172.393 190.684 168.891 189.586L154.705 185.14L162.938 158.87L176.373 163.081C179.726 164.131 182.082 165.557 183.441 167.357C184.808 169.131 185.162 171.07 184.504 173.171C184.112 174.422 183.446 175.45 182.507 176.255C181.601 177.042 180.494 177.547 179.188 177.77ZM168.612 166.542L167.024 171.608L172.128 173.208C174.63 173.992 176.147 173.533 176.68 171.832C177.206 170.156 176.217 168.926 173.715 168.142L168.612 166.542ZM169.972 184.031C172.574 184.847 174.153 184.366 174.71 182.59C175.267 180.814 174.244 179.518 171.642 178.702L165.412 176.75L163.742 182.079L169.972 184.031ZM201.688 171.015L193.455 197.285L186.024 194.956L192.458 174.428L187.579 172.899L189.379 167.157L201.688 171.015Z" fill="white"/>
<path d="M235.008 185.531L240.618 187.289L236.988 198.87L250.1 190.261L255.275 191.883L249.173 211.354L243.563 209.596L247.193 198.014L234.117 206.635L228.906 205.002L235.008 185.531Z" fill="white"/>
<path d="M201.936 77.7713L197.305 92.5496L193.927 91.4909L197.685 79.4994L192.618 77.9114L191.547 80.9607C190.819 83.0357 190.116 84.6858 189.439 85.9109C188.766 87.122 188.002 87.9801 187.148 88.4854C186.313 88.9809 185.332 89.0523 184.206 88.6994C183.742 88.5538 183.203 88.3 182.59 87.9378L183.707 85.1117C183.873 85.2253 184.068 85.3174 184.293 85.388C185.109 85.6438 185.829 85.3439 186.453 84.4883C187.081 83.6186 187.759 82.1696 188.488 80.1412L190.578 74.2116L201.936 77.7713ZM213.551 91.4505C213.537 91.4927 213.424 91.7817 213.209 92.3174L204.617 89.6244C204.551 90.3767 204.743 91.0473 205.192 91.6363C205.641 92.2253 206.295 92.6544 207.153 92.9235C207.745 93.1087 208.292 93.1875 208.795 93.1597C209.317 93.1223 209.834 92.9754 210.348 92.7189L211.504 95.1681C210.051 96.0574 208.297 96.18 206.242 95.536C204.961 95.1346 203.905 94.5332 203.074 93.7318C202.248 92.9163 201.706 91.9814 201.449 90.9271C201.192 89.8728 201.24 88.7827 201.593 87.6567C201.942 86.5448 202.515 85.6271 203.314 84.9036C204.131 84.1705 205.074 83.701 206.144 83.4951C207.231 83.2795 208.345 83.3504 209.485 83.7077C210.597 84.0561 211.528 84.6108 212.279 85.3716C213.03 86.1325 213.518 87.0427 213.742 88.1023C213.985 89.1522 213.921 90.2682 213.551 91.4505ZM208.726 86.2055C207.98 85.9717 207.287 85.9865 206.648 86.25C206.009 86.5134 205.519 86.9934 205.177 87.69L210.771 89.4434C210.884 88.6903 210.753 88.0232 210.378 87.4422C210.008 86.8471 209.457 86.4349 208.726 86.2055ZM228.086 89.7228L224.527 101.081L221.233 100.049L222.556 95.8264C221.449 96.005 220.319 95.9134 219.165 95.5517C217.631 95.0709 216.577 94.3622 216.005 93.4255C215.452 92.4792 215.404 91.2742 215.863 89.8104L216.981 86.2425L220.275 87.2747L219.223 90.6315C219.007 91.3211 219.026 91.8759 219.281 92.2958C219.55 92.7201 220.022 93.0382 220.698 93.2499C221.556 93.519 222.423 93.5896 223.297 93.4619L224.793 88.6906L228.086 89.7228ZM240.497 99.8956C240.484 99.9379 240.37 100.227 240.156 100.762L231.563 98.0696C231.497 98.8218 231.689 99.4924 232.138 100.081C232.587 100.67 233.241 101.1 234.1 101.369C234.691 101.554 235.238 101.633 235.742 101.605C236.263 101.567 236.781 101.421 237.294 101.164L238.451 103.613C236.997 104.502 235.243 104.625 233.188 103.981C231.908 103.58 230.852 102.978 230.021 102.177C229.194 101.361 228.653 100.427 228.396 99.3723C228.139 98.3179 228.187 97.2278 228.54 96.1018C228.888 94.9899 229.462 94.0723 230.26 93.3488C231.078 92.6156 232.021 92.1461 233.09 91.9402C234.178 91.7246 235.292 91.7955 236.432 92.1528C237.544 92.5013 238.475 93.0559 239.226 93.8168C239.977 94.5776 240.464 95.4878 240.688 96.5474C240.931 97.5973 240.868 98.7134 240.497 99.8956ZM235.672 94.6506C234.926 94.4168 234.234 94.4317 233.595 94.6951C232.956 94.9585 232.465 95.4386 232.123 96.1351L237.718 97.8885C237.83 97.1354 237.699 96.4684 237.325 95.8873C236.955 95.2922 236.404 94.88 235.672 94.6506ZM251.136 97.8044C252.219 98.1441 253.099 98.667 253.774 99.3732C254.454 100.065 254.886 100.881 255.071 101.82C255.27 102.763 255.204 103.763 254.873 104.818C254.533 105.902 253.964 106.782 253.164 107.459C252.383 108.127 251.448 108.545 250.36 108.714C249.276 108.868 248.135 108.758 246.939 108.383C244.955 107.761 243.591 106.638 242.848 105.014C242.123 103.381 242.147 101.332 242.919 98.8693C243.633 96.5893 244.695 94.928 246.104 93.8856C247.531 92.8336 249.338 92.4185 251.525 92.6402L257.267 93.2574L256.824 96.2253L251.755 95.68C250.381 95.5275 249.284 95.6476 248.466 96.0402C247.661 96.4373 247.033 97.16 246.58 98.2085C247.241 97.828 247.96 97.6051 248.738 97.5398C249.52 97.4604 250.319 97.5486 251.136 97.8044ZM247.761 105.835C248.605 106.1 249.367 106.037 250.046 105.647C250.738 105.262 251.217 104.646 251.482 103.802C251.751 102.943 251.704 102.179 251.342 101.509C250.994 100.844 250.398 100.379 249.554 100.114C248.695 99.8451 247.926 99.8823 247.247 100.226C246.567 100.569 246.093 101.17 245.824 102.029C245.555 102.887 245.602 103.675 245.964 104.391C246.332 105.094 246.93 105.575 247.761 105.835ZM259.02 99.4175L262.292 100.443L260.903 104.877L265.843 106.425L267.232 101.991L270.526 103.023L266.966 114.382L263.673 113.349L265.002 109.106L260.062 107.558L258.732 111.801L255.46 110.776L259.02 99.4175ZM278.144 105.226C279.903 105.777 281.122 106.623 281.8 107.763C282.483 108.889 282.56 110.296 282.03 111.985L279.999 118.466L276.917 117.5L277.36 116.086C276.41 116.947 275.09 117.113 273.402 116.584C272.529 116.311 271.815 115.925 271.26 115.426C270.72 114.932 270.362 114.372 270.187 113.745C270.013 113.118 270.029 112.474 270.237 111.813C270.567 110.757 271.222 110.05 272.2 109.692C273.191 109.338 274.518 109.422 276.179 109.942L278.796 110.763C279.021 110.045 278.975 109.428 278.658 108.911C278.345 108.38 277.753 107.978 276.88 107.704C276.275 107.515 275.646 107.426 274.993 107.438C274.358 107.44 273.786 107.539 273.277 107.734L272.816 105.063C273.572 104.821 274.417 104.714 275.35 104.744C276.298 104.778 277.229 104.939 278.144 105.226ZM274.92 114.625C275.483 114.802 276.022 114.832 276.538 114.715C277.058 114.584 277.489 114.294 277.83 113.845L278.194 112.684L275.935 111.976C274.584 111.553 273.77 111.784 273.492 112.671C273.36 113.093 273.415 113.482 273.66 113.836C273.923 114.182 274.343 114.445 274.92 114.625ZM296.511 111.167L292.952 122.526L290.017 121.606L291.036 118.355L288.608 117.594L285.436 120.17L281.931 119.072L285.692 116.17C285.001 115.613 284.535 114.98 284.294 114.271C284.071 113.552 284.089 112.777 284.35 111.947C284.769 110.61 285.569 109.732 286.751 109.314C287.952 108.887 289.397 108.938 291.086 109.467L296.511 111.167ZM290.309 112.168C289.605 111.948 289.03 111.907 288.585 112.045C288.154 112.188 287.85 112.541 287.673 113.104C287.497 113.667 287.536 114.135 287.79 114.509C288.062 114.872 288.55 115.164 289.254 115.385L291.724 116.159L292.736 112.929L290.309 112.168ZM315.673 126.679L314.059 131.83L310.998 130.871L311.765 128.422L303.785 125.921L303.017 128.37L299.956 127.41L301.57 122.259L302.035 122.405C302.743 122.611 303.359 122.348 303.882 121.616C304.405 120.883 304.938 119.775 305.48 118.291L306.859 114.41L316.76 117.514L314.048 126.169L315.673 126.679ZM308.384 119.456C307.98 120.597 307.593 121.511 307.223 122.199C306.867 122.891 306.447 123.37 305.962 123.635L310.754 125.137L312.62 119.184L308.904 118.019L308.384 119.456ZM322.166 131.867C320.97 131.492 319.97 130.908 319.168 130.116C318.383 129.314 317.863 128.385 317.606 127.331C317.349 126.277 317.397 125.187 317.75 124.061C318.103 122.935 318.685 122.012 319.498 121.293C320.311 120.574 321.266 120.116 322.363 119.919C323.479 119.712 324.635 119.796 325.832 120.171C327.028 120.546 328.018 121.135 328.802 121.937C329.591 122.725 330.114 123.646 330.371 124.701C330.628 125.755 330.58 126.845 330.227 127.971C329.874 129.097 329.291 130.019 328.478 130.739C327.666 131.458 326.708 131.923 325.607 132.134C324.509 132.331 323.362 132.242 322.166 131.867ZM323.013 129.165C323.857 129.429 324.635 129.364 325.347 128.969C326.076 128.564 326.591 127.883 326.891 126.926C327.191 125.969 327.155 125.122 326.782 124.387C326.428 123.643 325.829 123.138 324.985 122.873C324.14 122.609 323.353 122.679 322.623 123.084C321.898 123.475 321.385 124.149 321.085 125.106C320.785 126.063 320.82 126.916 321.188 127.665C321.56 128.4 322.169 128.9 323.013 129.165ZM339.727 130.693C340.336 131.116 340.755 131.603 340.985 132.154C341.228 132.709 341.255 133.29 341.065 133.895C340.84 134.613 340.395 135.169 339.731 135.563C339.07 135.944 338.265 136.147 337.314 136.174C336.362 136.2 335.345 136.044 334.261 135.704C333.374 135.426 332.531 135.061 331.729 134.609C330.928 134.157 330.219 133.633 329.602 133.038L331.21 131.015C332.225 131.967 333.458 132.67 334.907 133.124C335.681 133.367 336.322 133.444 336.829 133.356C337.354 133.257 337.683 132.997 337.815 132.575C337.93 132.209 337.861 131.886 337.609 131.606C337.361 131.312 336.942 131.072 336.35 130.887L334.028 130.159L334.67 128.111L336.697 128.747C337.274 128.928 337.746 128.975 338.113 128.889C338.48 128.803 338.718 128.584 338.829 128.232C338.943 127.866 338.835 127.523 338.502 127.203C338.184 126.886 337.666 126.616 336.948 126.391C335.85 126.047 334.572 125.932 333.114 126.047L333.027 123.516C334.819 123.32 336.461 123.456 337.953 123.924C338.981 124.246 339.856 124.659 340.579 125.164C341.316 125.673 341.839 126.247 342.149 126.885C342.464 127.509 342.519 128.145 342.317 128.792C342.149 129.327 341.835 129.762 341.374 130.097C340.918 130.418 340.369 130.616 339.727 130.693ZM350.427 127.879C352.186 128.431 353.405 129.277 354.084 130.417C354.766 131.542 354.843 132.95 354.314 134.639L352.282 141.12L349.2 140.154L349.643 138.74C348.693 139.601 347.374 139.767 345.685 139.238C344.812 138.964 344.099 138.579 343.544 138.08C343.003 137.586 342.645 137.026 342.471 136.399C342.296 135.772 342.313 135.128 342.52 134.467C342.851 133.411 343.505 132.704 344.483 132.346C345.475 131.992 346.801 132.076 348.462 132.596L351.08 133.417C351.305 132.699 351.259 132.082 350.941 131.565C350.629 131.034 350.036 130.632 349.163 130.358C348.558 130.169 347.929 130.08 347.276 130.092C346.642 130.094 346.07 130.193 345.56 130.388L345.099 127.717C345.855 127.474 346.7 127.368 347.633 127.398C348.581 127.432 349.512 127.593 350.427 127.879ZM347.203 137.279C347.766 137.456 348.305 137.486 348.821 137.369C349.341 137.238 349.772 136.948 350.114 136.499L350.478 135.338L348.219 134.63C346.868 134.206 346.053 134.438 345.775 135.325C345.643 135.747 345.699 136.136 345.943 136.49C346.206 136.835 346.626 137.098 347.203 137.279Z" fill="white"/>
<path d="M180.048 108.718C181.056 109.431 181.731 110.259 182.072 111.2C182.431 112.147 182.435 113.182 182.083 114.304C181.556 115.987 180.478 117.11 178.851 117.673C177.247 118.224 175.242 118.122 172.836 117.368L163.091 114.314L169.046 95.3129L178.275 98.2053C180.555 98.9199 182.183 99.9071 183.159 101.167C184.16 102.415 184.413 103.825 183.92 105.4C183.63 106.323 183.149 107.066 182.475 107.63C181.82 108.2 181.011 108.562 180.048 108.718ZM171.957 104.572L175.377 105.644C176.897 106.12 177.853 105.734 178.244 104.486C178.635 103.237 178.071 102.374 176.551 101.898L173.131 100.826L171.957 104.572ZM173.826 113.445C175.383 113.933 176.368 113.516 176.782 112.195C177.184 110.91 176.608 110.024 175.051 109.536L170.817 108.209L169.592 112.118L173.826 113.445ZM189.245 101.643L194.538 103.302L191.041 114.458L202.382 105.761L207.431 107.343L201.476 126.344L196.183 124.685L199.671 113.556L188.366 122.235L183.29 120.644L189.245 101.643ZM225.485 117.681L219.676 115.861L215.057 130.6L209.763 128.941L214.383 114.202L208.547 112.373L209.882 108.111L226.82 113.42L225.485 117.681ZM236.656 133.315L228.621 130.797L225.972 134.021L220.488 132.302L234.831 115.93L240.124 117.589L242.584 139.227L236.992 137.474L236.656 133.315ZM236.324 128.859L235.786 122.013L231.438 127.327L236.324 128.859ZM261.889 145.277L265.018 135.198L257.563 141.865L255.174 141.116L252.789 131.604L249.701 141.458L244.761 139.909L250.716 120.909L255.14 122.295L258.381 135.354L268.332 126.43L272.757 127.816L266.856 146.834L261.889 145.277ZM276.852 129.1L282.145 130.759L278.649 141.915L289.99 133.217L295.039 134.8L289.084 153.8L283.791 152.141L287.279 141.012L275.973 149.691L270.898 148.101L276.852 129.1ZM317.197 141.744L311.242 160.745L305.867 159.06L308.19 151.65L300.861 149.353L298.538 156.763L293.164 155.079L299.119 136.078L304.493 137.763L302.256 144.902L309.585 147.198L311.822 140.06L317.197 141.744ZM324.543 165.331C322.534 164.701 320.858 163.709 319.514 162.353C318.188 161.004 317.299 159.433 316.847 157.642C316.413 155.857 316.49 154.023 317.08 152.141C317.67 150.259 318.653 148.709 320.028 147.49C321.422 146.278 323.048 145.496 324.907 145.144C326.784 144.798 328.727 144.94 330.736 145.57C332.744 146.199 334.412 147.189 335.738 148.539C337.082 149.894 337.971 151.464 338.405 153.25C338.857 155.041 338.788 156.877 338.198 158.759C337.608 160.641 336.617 162.189 335.223 163.401C333.848 164.62 332.221 165.402 330.344 165.748C328.485 166.099 326.551 165.96 324.543 165.331ZM325.938 160.879C326.897 161.18 327.836 161.226 328.756 161.017C329.676 160.809 330.49 160.368 331.198 159.695C331.911 159.005 332.435 158.126 332.769 157.058C333.104 155.99 333.173 154.979 332.976 154.022C332.784 153.048 332.37 152.213 331.734 151.517C331.097 150.82 330.3 150.322 329.341 150.021C328.382 149.721 327.442 149.675 326.522 149.883C325.602 150.092 324.786 150.541 324.072 151.232C323.365 151.905 322.844 152.775 322.509 153.842C322.174 154.91 322.103 155.931 322.294 156.905C322.492 157.861 322.908 158.687 323.545 159.384C324.181 160.08 324.979 160.578 325.938 160.879ZM355.051 163.564C356.06 164.278 356.734 165.105 357.075 166.047C357.434 166.994 357.438 168.029 357.086 169.151C356.559 170.833 355.482 171.957 353.854 172.52C352.251 173.07 350.246 172.969 347.839 172.214L338.094 169.16L344.049 150.16L353.278 153.052C355.558 153.767 357.186 154.754 358.163 156.014C359.163 157.261 359.416 158.672 358.923 160.247C358.634 161.17 358.152 161.913 357.479 162.477C356.823 163.047 356.014 163.409 355.051 163.564ZM346.96 159.419L350.38 160.491C351.901 160.967 352.856 160.581 353.248 159.332C353.639 158.084 353.074 157.221 351.554 156.745L348.134 155.673L346.96 159.419ZM348.83 168.292C350.386 168.78 351.371 168.363 351.785 167.042C352.188 165.757 351.611 164.871 350.055 164.383L345.82 163.056L344.595 166.965L348.83 168.292Z" fill="#F2C94C"/>
</g>
<path d="M67.0987 108.905C121.589 79.0435 124.953 50.3316 125.77 47.7255L107.507 184.536C90.9247 207.006 79.0503 196.797 82.1541 186.894C95.9511 142.871 79.2429 121.297 67.0987 108.905Z" fill="#E60074"/>
<defs>
<linearGradient id="paint0_linear_625_2685" x1="207.184" y1="192.245" x2="272.472" y2="216.433" gradientUnits="userSpaceOnUse">
<stop stop-color="#B8005D"/>
<stop offset="1" stop-color="#FF64B2"/>
</linearGradient>
<clipPath id="clip0_625_2685">
<path d="M122.635 55.9032C128.409 37.4789 148.026 27.224 166.45 32.9983L397.875 105.528C416.298 111.302 426.553 130.918 420.779 149.341L380.528 277.771C374.754 296.195 355.137 306.45 336.713 300.676L105.288 228.146C86.8647 222.372 76.6103 202.756 82.3843 184.333L122.635 55.9032Z" fill="white"/>
</clipPath>
</defs>
</svg>
