<svg width="156" height="156" viewBox="0 0 156 156" fill="none" xmlns="http://www.w3.org/2000/svg">
<rect x="1.5" y="1.5" width="153" height="153" rx="76.5" fill="#00AFAA"/>
<path d="M70.6549 122.252C70.6253 122.549 70.6254 122.787 70.6254 122.995C70.507 123.858 70.4181 124.751 70.2998 125.613C50.6772 124.066 29.0125 106.752 28.0358 79.8593C26.9999 51.8953 48.635 32.2609 70.2998 30.357C70.4477 31.428 70.5661 32.5287 70.7141 33.7186C56.8333 35.7118 45.9418 42.4053 38.365 54.2454C33.3632 62.0397 31.1434 70.6966 31.5578 79.9486C32.0609 90.8367 35.9973 100.356 43.3964 108.359C50.7364 116.302 59.9114 120.824 70.6549 122.252Z" fill="white"/>
<path d="M81.3394 125.762C81.1914 124.542 81.073 123.501 80.925 122.311C95.1906 120.258 106.26 113.238 113.807 100.862C117.714 94.4661 119.726 87.4453 120.052 79.7998C118.957 79.7998 117.921 79.8296 116.915 79.7998C115.109 79.7701 114.34 78.4314 115.257 76.8547C116.915 74.0583 118.572 71.2619 120.259 68.4654C121.147 67.0077 122.745 67.0375 123.633 68.4952C125.29 71.2619 126.948 74.0285 128.576 76.7952C129.552 78.4314 128.783 79.7701 126.889 79.7998C125.853 79.8296 124.817 79.7998 123.722 79.7998C122.804 94.6148 116.767 106.812 105.165 116.034C98.2095 121.508 90.2776 124.661 81.3394 125.762ZM124.077 76.1704C123.307 74.8912 122.656 73.7905 121.887 72.5411C121.117 73.85 120.466 74.9507 119.726 76.1704C121.265 76.1704 122.538 76.1704 124.077 76.1704Z" fill="white"/>
<path d="M116.944 45.767C117.832 45.7967 118.513 46.2429 118.661 47.0759C119.253 50.4376 121.206 52.3712 124.521 52.9662C125.349 53.115 125.941 53.8289 125.764 54.6917C125.616 55.3164 124.994 55.8221 124.58 56.3576C124.55 56.4171 124.432 56.4171 124.373 56.4171C121.147 56.9526 119.312 58.8565 118.72 62.0992C118.572 62.9916 117.921 63.5271 117.003 63.5569C116.056 63.5569 115.523 63.0214 115.227 62.1587C115.198 62.0992 115.198 62.0099 115.168 61.9504C114.606 58.8565 112.771 57.0716 109.722 56.4469C109.16 56.3279 108.568 55.7924 108.243 55.2866C107.799 54.5429 108.213 53.5612 109.042 53.1447C109.308 52.996 109.574 52.9067 109.87 52.8472C112.8 52.282 114.547 50.5268 115.109 47.5817C115.346 46.5404 115.849 45.8562 116.944 45.767ZM117.003 52.8175C116.382 53.3827 115.612 54.0669 115.05 54.5727C115.76 55.2569 116.47 55.9411 117.003 56.4766C117.595 55.9411 118.335 55.2569 118.868 54.7512C118.246 54.0967 117.595 53.4125 117.003 52.8175Z" fill="white"/>
<path d="M42.6269 90.688C41.9758 90.0037 41.1471 89.5575 41.0287 88.9625C40.3776 85.6009 38.4538 83.697 35.1094 83.0722C34.2807 82.9235 33.6887 82.1798 33.8663 81.3468C34.0143 80.7221 34.5767 79.8296 35.0798 79.7403C38.4538 79.0561 40.3776 77.0927 41.0583 73.731C41.1471 73.2253 42.0942 72.5708 42.6565 72.5708C43.2189 72.5708 43.8996 73.1956 44.314 73.731C44.6691 74.207 44.7283 74.8913 44.9059 75.516C45.4386 77.4199 46.6521 78.6396 48.5759 79.1751C49.1382 79.3239 49.7005 79.5023 50.2629 79.7106C51.062 80.0081 51.6835 80.6031 51.5059 81.436C51.3579 82.0608 50.766 82.5962 50.2925 83.102C50.0557 83.34 49.6117 83.34 49.2566 83.4292C46.8297 83.9944 45.3202 85.4521 44.7283 87.8916C44.6099 88.3675 44.5507 88.8733 44.2844 89.26C43.8996 89.736 43.3372 90.093 42.6269 90.688ZM40.8511 81.4063C41.4135 82.031 42.0942 82.745 42.6269 83.34C43.3076 82.6557 43.9884 81.9418 44.4915 81.4063C43.9588 80.8411 43.278 80.0973 42.7749 79.5618C42.1534 80.1866 41.4431 80.8411 40.8511 81.4063Z" fill="white"/>
<path d="M80.925 33.7186C81.073 32.5287 81.1914 31.428 81.3394 30.2083C92.7045 31.666 102.294 36.4853 110.403 44.7258C109.93 45.172 109.486 45.5587 109.071 45.9455C108.657 46.3322 108.272 46.7189 107.799 47.1652C100.37 39.5792 91.4319 35.0871 80.925 33.7186Z" fill="white"/>
<path d="M77.4917 33.4211C76.3078 33.4211 75.2719 33.4211 74.1177 33.4211C74.1177 32.2609 74.1177 31.19 74.1177 30C75.2128 30 76.3078 30 77.4917 30C77.4917 31.1305 77.4917 32.2609 77.4917 33.4211Z" fill="white"/>
<path d="M74.0881 126C74.0881 124.81 74.0881 123.709 74.0881 122.579C75.2424 122.579 76.2783 122.579 77.4622 122.579C77.4622 123.68 77.4622 124.81 77.4622 126C76.3967 126 75.272 126 74.0881 126Z" fill="white"/>
<path d="M65.6532 58.0831C67.9913 58.7078 69.8263 60.4927 69.8263 63.6461C69.8263 68.5547 66.0379 70.7859 61.0361 70.7859C59.3787 70.7859 57.2477 70.7561 55.6791 70.6966C54.9984 70.6669 54.436 70.0719 54.436 69.4174V48.2064C54.436 47.4924 54.9984 46.9272 55.6791 46.8677C57.2477 46.8379 59.4675 46.7784 61.2729 46.7784C66.9258 46.7784 69.0568 49.3666 69.0568 52.6687C69.0568 55.3462 67.6953 57.0716 65.6532 58.0831ZM61.3913 56.7741C63.315 56.7741 64.9133 55.7924 64.9133 53.6207C64.9133 51.687 63.4334 50.6756 61.1841 50.6756C60.237 50.6756 59.3195 50.7053 58.5796 50.7648V56.7741H61.3913ZM58.5796 66.7103C59.1419 66.7698 60.1482 66.8888 61.3321 66.8888C64.1438 66.8888 65.6532 65.6988 65.6532 63.4676C65.6532 61.4745 64.1437 60.4332 61.5392 60.4332H58.6092V66.7103H58.5796Z" fill="white"/>
<path d="M75.6866 53.829C75.4498 54.0075 75.1834 54.067 74.9467 54.067C74.5619 54.067 74.2067 53.9182 73.9404 53.6207L73.0821 52.6093C72.9045 52.401 72.8157 52.1333 72.8157 51.8655C72.8157 51.4788 72.9933 51.1516 73.2892 50.9136L77.6399 47.5817C78.1727 47.1652 78.7646 46.8082 79.5637 46.8082H80.422C81.1028 46.8082 81.5171 47.3139 81.5171 47.9982V69.4174C81.5171 70.1017 80.9548 70.6669 80.274 70.6669H78.883C78.2023 70.6669 77.6399 70.1017 77.6399 69.4174V52.3713L75.6866 53.829Z" fill="white"/>
<path d="M75.716 91.2532C78.7941 92.0564 81.1914 94.4363 81.1914 98.5715C81.1914 104.997 76.2191 107.942 69.6191 107.942C67.4289 107.942 64.6468 107.883 62.6047 107.794C61.7168 107.734 60.9473 106.99 60.9473 106.098V78.2231C60.9473 77.2712 61.7168 76.5275 62.6047 76.468C64.6468 76.4085 67.5769 76.3192 69.9447 76.3192C77.3734 76.3192 80.1851 79.7106 80.1851 84.054C80.1555 87.6536 78.3797 89.9443 75.716 91.2532ZM70.1222 89.5575C72.6675 89.5575 74.7393 88.2486 74.7393 85.3927C74.7393 82.8342 72.7859 81.4955 69.8558 81.4955C68.6128 81.4955 67.3993 81.555 66.4226 81.6443V89.5575H70.1222ZM66.4226 102.588C67.1922 102.677 68.4648 102.826 70.0335 102.826C73.733 102.826 75.716 101.249 75.716 98.3037C75.716 95.6561 73.7034 94.3174 70.2998 94.3174H66.4226V102.588Z" fill="white"/>
<path d="M98.5349 88.4271C103.3 88.4271 107.236 92.2647 107.236 97.9765C107.236 104.551 102.175 108.27 97.1735 108.27C90.2479 108.27 86.0452 103.004 86.0452 96.6973C86.0452 86.0174 93.3259 78.6396 100.133 76.1407C100.4 76.0515 100.725 75.992 100.932 75.992C101.643 75.992 102.175 76.3192 102.412 76.8844L102.915 78.1934C103.004 78.4314 103.063 78.6396 103.063 78.8181C103.063 79.5321 102.619 80.1271 101.909 80.3948C97.4991 82.1798 93.5627 85.9281 92.1421 91.3425C93.4147 89.5575 95.4273 88.4271 98.5349 88.4271ZM97.2327 103.123C100.074 103.123 101.82 100.832 101.82 98.3335C101.82 95.4776 100.074 93.1869 96.7887 93.1869C93.977 93.1869 92.2901 95.0313 91.491 96.727C91.491 100.327 93.5035 103.123 97.2327 103.123Z" fill="white"/>
<rect x="1.5" y="1.5" width="153" height="153" rx="76.5" stroke="white" stroke-width="3"/>
</svg>
