<svg width="156" height="156" viewBox="0 0 156 156" fill="none" xmlns="http://www.w3.org/2000/svg">
<rect x="1.5" y="1.5" width="153" height="153" rx="76.5" fill="#00AFAA"/>
<path d="M23.3049 43.3825C22.1606 43.3825 21.2363 44.3068 21.2362 45.4512C21.2362 46.5956 22.1605 47.5198 23.3049 47.5199L26.0043 47.5199L26.0043 50.2192C26.0043 51.3636 26.9286 52.2879 28.073 52.2879C28.6598 52.2879 29.1587 52.0532 29.5401 51.6717C29.9216 51.2903 30.1416 50.7768 30.1563 50.2046L30.1563 47.5052L32.8264 47.5345C33.4133 47.5345 33.9121 47.2997 34.2936 46.9183C34.675 46.5368 34.8951 46.0233 34.9098 45.4511C34.9098 44.3068 33.9855 43.3825 32.8411 43.3825L30.1417 43.3825L30.1417 40.6831C30.1417 39.5387 29.2174 38.6144 28.073 38.6144C26.9286 38.6143 26.0044 39.5387 26.0043 40.6831L26.0043 43.3825L23.3049 43.3825Z" fill="white"/>
<path d="M30.6221 115.639C29.4777 115.639 28.5534 116.563 28.5534 117.707C28.5533 118.852 29.4776 119.776 30.6221 119.776H33.3214L33.3214 122.475C33.3214 123.62 34.2457 124.544 35.3901 124.544C35.977 124.544 36.4758 124.309 36.8573 123.928C37.2387 123.546 37.4588 123.033 37.4734 122.461L37.4734 119.761L40.1436 119.791C40.7304 119.791 41.2293 119.556 41.6107 119.174C41.9922 118.793 42.2122 118.279 42.2269 117.707C42.2269 116.563 41.3026 115.639 40.1582 115.639L37.4588 115.639L37.4588 112.939C37.4588 111.795 36.5346 110.871 35.3901 110.87C34.2457 110.87 33.3215 111.795 33.3215 112.939L33.3215 115.639L30.6221 115.639Z" fill="white"/>
<path d="M131.3 83.7564C130.129 83.7564 129.183 84.7021 129.183 85.8729C129.183 87.0438 130.129 87.9894 131.3 87.9894L134.061 87.9894L134.061 90.7512C134.061 91.922 135.007 92.8677 136.178 92.8677C136.778 92.8677 137.289 92.6276 137.679 92.2373C138.069 91.847 138.294 91.3216 138.309 90.7362L138.309 87.9744L141.041 88.0044C141.642 88.0044 142.152 87.7642 142.542 87.3739C142.933 86.9837 143.158 86.4583 143.173 85.8729C143.173 84.7021 142.227 83.7565 141.056 83.7564L138.294 83.7564V80.9946C138.294 79.8238 137.349 78.8782 136.178 78.8781C135.007 78.8781 134.061 79.8237 134.061 80.9946L134.061 83.7564L131.3 83.7564Z" fill="white"/>
<path d="M117.58 34.3662C116.409 34.3662 115.463 35.3118 115.463 36.4827C115.463 37.6536 116.409 38.5991 117.58 38.5992L120.342 38.5992L120.342 41.361C120.342 42.5318 121.287 43.4774 122.458 43.4775C123.059 43.4775 123.569 43.2373 123.959 42.8471C124.349 42.4568 124.575 41.9314 124.59 41.346L124.59 38.5842L127.322 38.6142C127.922 38.6142 128.432 38.374 128.823 37.9837C129.213 37.5935 129.438 37.0681 129.453 36.4827C129.453 35.3119 128.507 34.3662 127.336 34.3662L124.575 34.3662L124.575 31.6044C124.575 30.4336 123.629 29.4879 122.458 29.4879C121.287 29.4878 120.342 30.4335 120.342 31.6044L120.342 34.3662L117.58 34.3662Z" fill="white"/>
<rect x="1.5" y="1.5" width="153" height="153" rx="76.5" stroke="white" stroke-width="3"/>
</svg>
