<svg width="156" height="156" viewBox="0 0 156 156" fill="none" xmlns="http://www.w3.org/2000/svg">
<rect x="1.5" y="1.5" width="153" height="153" rx="76.5" fill="#00AFAA"/>
<path d="M78.0001 40.1714C58.1102 40.1714 41.936 56.527 41.936 76.6398C41.936 96.7526 58.1102 113.108 78.0001 113.108C97.8899 113.108 114.064 96.7526 114.064 76.6398C114.064 56.527 97.8899 40.1714 78.0001 40.1714ZM78.0001 44.9285C95.3475 44.9285 109.36 59.0982 109.36 76.6401C109.36 94.182 95.3475 108.352 78.0001 108.352C60.6526 108.352 46.64 94.182 46.64 76.6401C46.64 59.0982 60.6526 44.9285 78.0001 44.9285ZM64.6722 61.5771C61.6415 61.5771 59.1843 64.0618 59.1843 67.1265C59.1843 70.1912 61.6415 72.6759 64.6722 72.6759C67.7029 72.6759 70.1601 70.1912 70.1601 67.1265C70.1601 64.0618 67.7029 61.5771 64.6722 61.5771ZM91.3282 61.5771C88.2975 61.5771 85.8404 64.0618 85.8404 67.1265C85.8404 70.1912 88.2975 72.6759 91.3282 72.6759C94.3589 72.6759 96.8161 70.1912 96.8161 67.1265C96.8161 64.0618 94.3589 61.5771 91.3282 61.5771ZM60.5072 83.7752C59.7514 83.8195 59.0618 84.2514 58.645 85.0139C58.248 85.781 58.3016 86.757 58.7922 87.4665C62.9965 93.8261 70.0398 98.0456 78.0002 98.0456C85.9606 98.0456 93.004 93.8261 97.2082 87.4665C97.8945 86.4291 97.5976 84.8657 96.5711 84.1717C95.5446 83.4777 93.9745 83.778 93.2882 84.816C89.8927 89.9523 84.326 93.2892 78.0002 93.2892C71.6744 93.2892 66.1079 89.953 62.7122 84.816C62.0756 84.0606 61.2629 83.731 60.5072 83.7752V83.7752Z" fill="white"/>
<rect x="1.5" y="1.5" width="153" height="153" rx="76.5" stroke="white" stroke-width="3"/>
</svg>
