<svg width="156" height="157" viewBox="0 0 156 157" fill="none" xmlns="http://www.w3.org/2000/svg">
<rect x="1.5" y="1.76978" width="153" height="153" rx="76.5" fill="#00AFAA"/>
<path d="M116.529 112.189H46.8243V42.4849C46.8243 41.0326 45.6468 39.8551 44.1937 39.8551C42.7414 39.8551 41.564 41.0326 41.564 42.4849V114.82C41.564 115.518 41.8405 116.186 42.3337 116.68C42.8278 117.174 43.4962 117.45 44.1937 117.45H116.529C117.981 117.45 119.159 116.273 119.159 114.82C119.159 113.367 117.981 112.19 116.529 112.19L116.529 112.189Z" fill="white"/>
<path d="M57.4906 104.154C58.1758 104.148 58.8319 103.874 59.3189 103.391L100.983 61.754V71.999C100.983 72.6965 101.261 73.3658 101.754 73.859C102.247 74.3522 102.916 74.6287 103.614 74.6287C104.311 74.6287 104.981 74.3522 105.474 73.859C105.967 73.3658 106.245 72.6965 106.245 71.999L106.349 55.3486C106.363 55.1865 106.363 55.0236 106.349 54.8624V54.7832C106.323 54.6352 106.283 54.4899 106.231 54.349L106.139 54.1913C106.095 54.0865 106.042 53.9853 105.981 53.8893C105.791 53.5934 105.54 53.3424 105.245 53.1522L104.982 53.0077L104.784 52.9152C104.68 52.8659 104.569 52.8307 104.456 52.8104H104.298C104.127 52.7972 103.956 52.7972 103.785 52.8104L86.938 52.8369C85.4848 52.8369 84.3074 54.0144 84.3074 55.4675C84.3074 56.9198 85.4848 58.0972 86.938 58.0972H97.1699L55.6227 99.6962C54.8742 100.45 54.6513 101.581 55.06 102.562C55.4686 103.543 56.4277 104.182 57.4906 104.182L57.4906 104.154Z" fill="white"/>
<rect x="1.5" y="1.76978" width="153" height="153" rx="76.5" stroke="white" stroke-width="3"/>
</svg>
