<svg width="533" height="395" viewBox="0 0 533 395" fill="none" xmlns="http://www.w3.org/2000/svg">
<path d="M444.89 203.543C399.279 197.428 354.606 185.643 311.91 168.464C354.569 185.753 399.256 197.542 444.89 203.543Z" fill="#3EC8C4"/>
<path d="M280.221 176.988C291.844 176.587 339.235 177.311 415.788 203.823C339.122 177.376 292.217 176.972 280.221 176.988Z" fill="#3EC8C4"/>
<path d="M312.747 167.834C303.78 164.004 294.618 159.836 285.728 155.361C294.493 160.658 303.217 164.328 312.747 167.834Z" fill="#3EC8C4"/>
<path d="M444.89 203.544C399.371 197.39 354.816 185.478 312.297 168.093C303.217 164.328 294.232 160.207 285.23 155.797C285.238 163.156 283.523 170.414 280.221 176.989C292.022 176.634 339.122 177.376 416.178 204.498C424.092 207.285 432.25 210.233 440.779 213.565C441.18 209.904 442.605 206.431 444.89 203.544Z" fill="#3EC8C4"/>
<path d="M245.511 107.594C240.696 52.0059 245.487 -3.98819 259.675 -57.9392C251.968 -55.3407 243.605 -55.4368 235.957 -58.2125C235.957 -58.2125 252.732 -3.22926 233.35 106.807C237.421 106.593 241.502 106.856 245.511 107.594Z" fill="#3EC8C4"/>
<path d="M162.479 225.383C170.937 210.8 181.83 197.771 194.686 186.859C181.422 197.339 170.301 210.27 161.928 224.95L162.479 225.383Z" fill="#3EC8C4"/>
<path d="M195.725 181.909L195.335 181.234C184.025 195.88 170.544 208.713 155.355 219.29L154.004 220.069L155.602 220.497C157.607 221.375 159.437 222.606 161.005 224.132C159.682 222.249 157.884 220.749 155.792 219.787C170.943 209.251 184.407 196.48 195.725 181.909Z" fill="#3EC8C4"/>
<path d="M194.686 186.859C195.699 186.275 196.711 185.69 197.511 184.479L194.686 186.859Z" fill="#3EC8C4"/>
<path d="M195.725 181.909C184.436 196.515 170.994 209.324 155.857 219.9C157.949 220.862 159.748 222.361 161.07 224.245L161.72 225.37C170.093 210.69 181.215 197.759 194.478 187.279L197.239 184.786L195.725 181.909Z" fill="#3EC8C4"/>
<path d="M307.227 83.2561L306.837 82.5817C297.315 97.3711 285.293 110.394 271.309 121.071C285.381 110.638 297.534 97.8429 307.227 83.2561Z" fill="#3EC8C4"/>
<path d="M273.823 124.122L274.213 124.796C285.332 110.779 298.414 98.4359 313.056 88.1467L312.73 87.5836C298.032 97.7831 284.922 110.096 273.823 124.122Z" fill="#3EC8C4"/>
<path d="M477.339 208.533C481.22 204.345 506.739 176.579 541.277 146.762L539.896 141.257C516.23 161.579 491.372 180.473 465.453 197.837C470.084 199.228 474.017 202.321 476.458 206.492L477.339 208.533Z" fill="#3EC8C4"/>
<path d="M359.773 79.6587C359.16 80.7035 358.964 81.9413 359.225 83.1247C352.099 80.1647 344.536 78.3943 336.837 77.8837L336.665 78.8838C344.308 79.3321 351.826 81.0261 358.923 83.8996L360.118 84.4098C359.706 82.9192 359.732 81.3427 360.193 79.8671C360.399 79.3614 360.685 78.8918 361.041 78.4775L359.803 79.1913C352.241 79.6357 344.667 78.5436 337.537 75.98L336.975 76.3045C344.259 78.9962 352.024 80.1385 359.773 79.6587Z" fill="#3EC8C4"/>
<path d="M360.118 84.4096L359.143 82.723C359.007 81.7853 359.196 80.8291 359.678 80.0137L360.283 78.4652C359.927 78.8795 359.641 79.3477 359.435 79.8534C359.214 81.406 359.451 82.9892 360.118 84.4096Z" fill="#3EC8C4"/>
<path d="M262.8 222.138C261.743 223.099 260.956 224.321 260.518 225.681C260.079 227.041 260.005 228.491 260.302 229.889C260.6 231.287 261.259 232.584 262.213 233.649C263.167 234.714 264.383 235.51 265.741 235.96C267.098 236.41 268.551 236.497 269.952 236.212C271.353 235.927 272.655 235.28 273.728 234.336C274.8 233.391 275.607 232.184 276.067 230.831C276.527 229.478 276.624 228.028 276.349 226.625C276.179 225.313 275.678 224.065 274.892 222.999C274.106 221.933 273.061 221.085 271.857 220.534C270.652 219.982 269.328 219.747 268.008 219.849C266.688 219.951 265.415 220.387 264.31 221.117L262.8 222.138Z" fill="#3EC8C4"/>
<path d="M182.912 317.963C181.854 318.924 181.068 320.146 180.629 321.506C180.191 322.866 180.116 324.316 180.414 325.714C180.711 327.112 181.37 328.409 182.324 329.474C183.279 330.539 184.494 331.336 185.852 331.785C187.21 332.235 188.663 332.323 190.064 332.038C191.465 331.753 192.766 331.105 193.839 330.161C194.912 329.217 195.719 328.009 196.179 326.656C196.639 325.304 196.736 323.853 196.461 322.451C196.291 321.138 195.79 319.89 195.004 318.824C194.218 317.759 193.173 316.91 191.969 316.359C190.764 315.808 189.44 315.572 188.12 315.674C186.799 315.776 185.527 316.213 184.422 316.942L182.912 317.963Z" fill="#3EC8C4"/>
<path d="M145.762 225.028C144.705 225.989 143.918 227.211 143.48 228.571C143.042 229.931 142.967 231.381 143.264 232.779C143.562 234.177 144.221 235.474 145.175 236.539C146.129 237.604 147.345 238.401 148.703 238.85C150.061 239.3 151.513 239.388 152.914 239.103C154.316 238.818 155.617 238.17 156.69 237.226C157.763 236.282 158.569 235.074 159.029 233.721C159.489 232.369 159.586 230.918 159.311 229.516C159.141 228.203 158.64 226.955 157.854 225.889C157.068 224.824 156.024 223.975 154.819 223.424C153.615 222.873 152.29 222.637 150.97 222.739C149.65 222.841 148.377 223.278 147.273 224.007L145.762 225.028Z" fill="#3EC8C4"/>
<path d="M258.047 199.377C259.955 206.309 262.744 212.967 266.348 219.191C265.225 219.446 264.204 220.034 263.422 220.878C262.138 213.734 259.937 206.784 256.873 200.202C256.873 200.202 256.872 200.202 256.197 200.592C259.212 207.135 261.428 214.019 262.795 221.091L263.315 221.991C263.803 221.629 264.332 221.324 264.891 221.082C265.665 220.37 266.587 219.839 267.592 219.525C267.592 219.525 267.592 219.524 266.681 217.949C263.421 212.128 260.894 205.925 259.159 199.484L258.047 199.377Z" fill="#3EC8C4"/>
<path d="M262.717 221.736L263.956 221.021C263.522 221.222 263.108 221.461 262.717 221.736Z" fill="#3EC8C4"/>
<path d="M266.348 219.191C262.745 212.967 259.955 206.309 258.047 199.377C257.605 199.561 257.189 199.801 256.809 200.091C259.873 206.673 262.074 213.623 263.358 220.767C264.173 219.952 265.215 219.402 266.348 219.191Z" fill="#3EC8C4"/>
<path d="M187.99 156.065C182.588 159.181 164.049 166.571 93.7444 165.408C97.3123 170.673 99.2286 176.881 99.248 183.237C103.983 178.706 123.059 172.506 189.821 168.061C188.948 165.096 188.394 162.047 188.165 158.966L187.99 156.065Z" fill="#3EC8C4"/>
<path d="M188.773 311.63C206.062 277.236 216.592 239.846 219.795 201.481C216.656 239.857 206.122 277.26 188.773 311.63C190.994 311.918 193.127 312.684 195.023 313.876C193.2 312.54 191.029 311.76 188.773 311.63Z" fill="#3EC8C4"/>
<path d="M196.028 315.097C201.495 283.645 210.914 253.011 224.063 223.923C210.818 252.975 201.395 283.621 196.028 315.097Z" fill="#3EC8C4"/>
<path d="M224.241 223.971C227.337 217.385 230.723 210.781 234.4 204.161C230.546 210.734 227.337 217.385 224.241 223.971Z" fill="#3EC8C4"/>
<path d="M219.665 201.256C216.462 239.621 205.932 277.011 188.642 311.405C190.903 311.656 193.042 312.56 194.798 314.006L195.579 315.356C200.976 283.853 210.437 253.185 223.726 224.118C226.822 217.532 230.03 210.88 233.707 204.26C228.901 203.974 224.167 202.961 219.665 201.256Z" fill="#3EC8C4"/>
<path d="M270.929 129.241C265.212 121.993 257.326 116.76 248.423 114.306C239.521 111.852 230.068 112.306 221.447 115.602C212.825 118.898 205.486 124.864 200.502 132.626C195.518 140.389 193.149 149.542 193.743 158.75C194.135 165.137 196.028 171.344 199.265 176.868L199.654 177.543C204.507 185.974 212.066 192.521 221.107 196.122C230.148 199.723 240.14 200.167 249.46 197.381C258.78 194.595 266.882 188.742 272.451 180.774C278.021 172.805 280.73 163.188 280.14 153.483C279.705 144.907 276.625 136.676 271.32 129.917L270.929 129.241Z" fill="#3EC8C4"/>
<path d="M460.634 231.817C462.785 231.828 464.915 231.397 466.892 230.553C468.87 229.708 470.653 228.468 472.131 226.907C473.609 225.347 474.75 223.499 475.485 221.479C476.219 219.46 476.532 217.311 476.402 215.166C476.272 213.02 475.704 210.923 474.731 209.005C473.759 207.088 472.403 205.389 470.747 204.015C469.092 202.641 467.173 201.62 465.108 201.017C463.043 200.413 460.876 200.239 458.741 200.505C456.59 200.495 454.461 200.925 452.484 201.77C450.506 202.614 448.724 203.856 447.246 205.417C445.768 206.977 444.626 208.824 443.891 210.843C443.157 212.863 442.845 215.013 442.975 217.158C443.104 219.304 443.673 221.4 444.646 223.318C445.618 225.236 446.974 226.934 448.629 228.308C450.284 229.682 452.204 230.702 454.269 231.306C456.334 231.909 458.5 232.084 460.634 231.817Z" fill="#3EC8C4"/>
<path d="M78.2407 194.226C80.3918 194.237 82.5211 193.806 84.4985 192.961C86.4759 192.117 88.2594 190.877 89.7372 189.316C91.215 187.755 92.3563 185.908 93.0909 183.888C93.8255 181.869 94.1378 179.72 94.0081 177.574C93.8785 175.429 93.3103 173.332 92.3378 171.414C91.3652 169.496 90.0088 167.797 88.3537 166.423C86.6985 165.049 84.7791 164.029 82.7142 163.425C80.6492 162.822 78.482 162.648 76.3477 162.914C74.1966 162.903 72.0674 163.334 70.09 164.179C68.1126 165.023 66.3299 166.265 64.852 167.825C63.3742 169.386 62.2322 171.232 61.4975 173.252C60.7629 175.271 60.4514 177.421 60.5811 179.567C60.7107 181.713 61.2796 183.809 62.2521 185.727C63.2248 187.645 64.5803 189.342 66.2355 190.716C67.8906 192.09 69.81 193.111 71.875 193.714C73.9399 194.318 76.1064 194.492 78.2407 194.226Z" fill="#3EC8C4"/>
<path d="M307.227 83.2561C297.683 98.0171 285.639 111.004 271.634 121.634L273.824 124.122C284.745 110.283 297.623 98.1054 312.055 87.9729C310.172 86.708 308.535 85.1094 307.227 83.2561Z" fill="#3EC8C4"/>
<path d="M360.615 80.0754C360.132 80.8908 359.943 81.8456 360.079 82.7833L361.054 84.4713C361.318 85.8345 361.93 87.1064 362.831 88.1641C363.732 89.2218 364.89 90.0293 366.194 90.5078C367.235 90.8929 368.341 91.0697 369.45 91.0277C370.558 90.9857 371.647 90.726 372.655 90.2634C373.663 89.8007 374.569 89.1445 375.322 88.3316C376.076 87.5188 376.662 86.5655 377.047 85.5262C377.431 84.4869 377.607 83.3817 377.564 82.2742C377.521 81.1666 377.26 80.0778 376.796 79.0706C376.333 78.0635 375.675 77.157 374.861 76.4035C374.047 75.65 373.092 75.0646 372.052 74.6796C370.256 74.0415 368.294 74.0594 366.511 74.7303C364.729 75.4012 363.242 76.6815 362.315 78.3441L360.615 80.0754Z" fill="#3EC8C4"/>
<path d="M359.225 83.1244C358.964 81.941 359.16 80.7032 359.773 79.6585C352.054 80.165 344.312 79.0614 337.04 76.4168L336.837 77.8834C344.536 78.394 352.099 80.1644 359.225 83.1244Z" fill="#3EC8C4"/>
<path d="M316.575 85.6672C318.16 86.3141 319.867 86.6095 321.577 86.533C324.099 86.4867 326.553 85.7076 328.639 84.2916C330.725 82.8756 332.354 80.8842 333.325 78.5587L331.81 78.5319L331.735 76.3263C331.735 76.3263 332.973 75.6124 333.085 75.5475L332.434 74.4213L333.986 75.0282L334.205 73.8504C334.149 71.559 333.488 69.3233 332.288 67.3692C331.088 65.4151 329.391 63.8116 327.371 62.7238C325.352 61.6359 323.081 61.1019 320.788 61.1747C318.495 61.2476 316.263 61.9247 314.318 63.1385C312.373 64.3524 310.785 66.06 309.714 68.0862C308.643 70.1125 308.129 72.3863 308.222 74.6766C308.315 76.9668 309.013 79.1916 310.245 81.1259C311.477 83.0601 313.2 84.6347 315.237 85.6894L316.575 85.6672Z" fill="#3EC8C4"/>
<path d="M316.125 85.9272L314.526 85.4992L316.125 85.9272Z" fill="#3EC8C4"/>
<path d="M332.374 75.3565C332.374 75.3565 331.136 76.0704 331.024 76.1353L331.099 78.3426L332.615 78.3677C333.133 77.0117 333.42 75.5784 333.465 74.1272L331.914 73.5217L332.374 75.3565Z" fill="#3EC8C4"/>
</svg>
