<svg width="928" height="634" viewBox="0 0 928 634" fill="none" xmlns="http://www.w3.org/2000/svg">
<g opacity="0.2" clip-path="url(#clip0_747_2381)">
<path d="M540.694 169.806C585.941 191.386 628.316 218.532 666.832 250.613C628.391 218.429 586.003 191.275 540.694 169.806Z" fill="#F2F2F2"/>
<path d="M702.551 252.355C690.363 248.89 641.463 232.309 570.965 179.236C641.601 232.279 690.106 248.366 702.551 252.355Z" fill="#F2F2F2"/>
<path d="M665.753 250.988C673.768 257.956 681.872 265.339 689.59 272.951C682.277 264.528 674.46 257.807 665.753 250.988Z" fill="#F2F2F2"/>
<path d="M540.694 169.806C585.834 191.393 628.043 218.633 666.307 250.869C674.46 257.807 682.396 265.084 690.253 272.665C692.711 265.029 696.923 258.073 702.551 252.355C690.195 248.781 641.601 232.28 570.787 178.406C563.515 172.872 556.044 167.089 548.316 160.784C546.673 164.447 544.031 167.574 540.694 169.806Z" fill="#F2F2F2"/>
<path d="M715.282 335.935C701.64 395.207 677.901 451.692 645.103 502.919C653.966 502.797 662.606 505.69 669.607 511.125C669.607 511.125 670.642 448.485 727.628 340.813C723.336 339.676 719.192 338.04 715.282 335.935Z" fill="#F2F2F2"/>
<path d="M276.665 165.966C276.665 165.966 276.665 165.966 275.696 166.174C290.155 180.108 301.939 196.573 310.462 214.753C302.234 196.585 290.784 180.055 276.665 165.966Z" fill="#F2F2F2"/>
<path d="M314.566 212.278L315.397 212.099C302.24 196.778 291.463 179.564 283.428 161.036L282.598 161.215C290.668 179.724 301.441 196.932 314.566 212.278Z" fill="#F2F2F2"/>
<path d="M280.116 164.5C278.97 164.965 277.752 165.227 276.516 165.273C290.844 179.222 302.519 195.655 310.976 213.773C311.801 213.075 312.685 212.45 313.617 211.904C313.876 211.78 314.161 211.719 314.448 211.725C301.323 196.38 290.549 179.171 282.479 160.662C281.813 162.012 281.022 163.297 280.116 164.5Z" fill="#F2F2F2"/>
<path d="M840.871 241.482C827.211 253.784 811.548 263.661 794.559 270.686C811.826 264.245 827.694 254.546 841.297 242.115L840.871 241.482Z" fill="#F2F2F2"/>
<path d="M791.822 275.475L792 276.304C808.637 264.889 826.919 256.08 846.215 250.181L847.878 249.824L846.364 248.846C844.579 247.266 843.095 245.378 841.98 243.271C842.72 245.667 844.083 247.823 845.929 249.52C826.686 255.389 808.443 264.14 791.822 275.475Z" fill="#F2F2F2"/>
<path d="M794.559 270.686C793.313 270.954 792.067 271.222 790.831 272.212L794.559 270.686Z" fill="#F2F2F2"/>
<path d="M791.822 275.475C808.425 264.094 826.658 255.296 845.899 249.381C844.053 247.685 842.69 245.528 841.951 243.133L841.653 241.749C828.05 254.18 812.182 263.879 794.915 270.32L791.216 271.984L791.822 275.475Z" fill="#F2F2F2"/>
<path d="M643.124 340.567L643.302 341.397C658.135 329.236 674.967 319.742 693.047 313.338C674.957 319.46 658.065 328.673 643.124 340.567Z" fill="#F2F2F2"/>
<path d="M691.463 309.333L691.285 308.503C675.056 319.331 657.352 327.765 638.719 333.547L638.868 334.24C657.529 328.569 675.251 320.176 691.463 309.333Z" fill="#F2F2F2"/>
<path d="M247.982 283.344L246.547 282.059C244.359 279.96 241.556 278.618 238.549 278.231C235.542 277.844 232.491 278.433 229.843 279.909C227.194 281.386 225.09 283.672 223.839 286.433C222.588 289.194 222.256 292.285 222.892 295.249C223.528 298.213 225.1 300.893 227.374 302.898C229.648 304.902 232.506 306.122 235.527 306.382C238.548 306.641 241.572 305.926 244.155 304.338C246.738 302.751 248.743 300.376 249.876 297.564C250.9 294.758 250.906 291.681 249.893 288.872C249.473 287.583 248.915 286.343 248.229 285.173L247.982 283.344Z" fill="#F2F2F2"/>
<path d="M246.398 281.367L247.982 283.345L248.22 284.452C248.96 285.592 249.521 286.839 249.883 288.15L250.269 289.95L250.685 291.888L251.754 290.79C267.86 278.039 286.44 268.772 306.316 263.578L306.137 262.748C286.267 267.958 267.69 277.222 251.575 289.959C251.214 286.957 249.796 284.182 247.576 282.129C267.429 277.58 286.47 270.025 304.04 259.723L303.861 258.892C286.427 269.136 267.509 276.617 247.783 281.07L246.398 281.367Z" fill="#F2F2F2"/>
<path d="M250.299 288.061C249.936 286.75 249.375 285.503 248.635 284.362C249.321 285.531 249.879 286.772 250.299 288.061Z" fill="#F2F2F2"/>
<path d="M247.28 282.772L245.696 280.795L247.28 282.772Z" fill="#F2F2F2"/>
<path d="M247.853 282.069C250.073 284.122 251.49 286.898 251.852 289.9C267.967 277.163 286.544 267.898 306.415 262.689L304.316 259.664C286.747 269.966 267.706 277.521 247.853 282.069Z" fill="#F2F2F2"/>
<path d="M508.718 153.792C503.288 156.84 467.518 177.119 421.707 196.513L421.294 202.685C452.648 189.509 484.759 178.213 517.457 168.858C513.121 165.868 510.08 161.346 508.946 156.203L508.718 153.792Z" fill="#F2F2F2"/>
<path d="M359.806 227.329C360.081 228.234 360.28 229.159 360.4 230.097C364.455 228.068 381.723 219.437 406.933 208.666L406.575 202.95C390.474 209.593 373.512 216.276 356.481 221.96C357.316 222.98 358.039 224.087 358.638 225.262L359.114 227.478L359.806 227.329Z" fill="#F2F2F2"/>
<path d="M432.864 85.2153L431.749 92.8406C460.138 106.276 487.018 122.689 511.938 141.804C513.214 139.243 515.064 137.011 517.346 135.284C487.377 121.85 459.035 105.053 432.864 85.2153Z" fill="#F2F2F2"/>
<path d="M532.293 172.31L524.637 171.43C512.081 200.219 496.504 227.592 478.164 253.088C480.764 254.284 483.051 256.065 484.847 258.293C497.353 227.925 513.27 199.079 532.293 172.31Z" fill="#F2F2F2"/>
<path d="M587.429 326.748C588.415 325.869 589.034 324.651 589.159 323.336C595.557 328.787 602.806 333.149 610.619 336.251L611.132 335.271C603.357 332.253 596.129 327.984 589.732 322.633L588.664 321.704C588.592 323.388 588.036 325.015 587.063 326.392C586.68 326.848 586.226 327.239 585.719 327.55L587.242 327.223C595.232 329.288 602.72 332.951 609.254 337.991L609.946 337.843C603.295 332.617 595.625 328.839 587.429 326.748Z" fill="#F2F2F2"/>
<path d="M588.664 321.704L589.11 323.78C588.936 324.798 588.42 325.727 587.647 326.411L586.5 327.816C587.008 327.505 587.462 327.115 587.845 326.659C588.595 325.122 588.88 323.401 588.664 321.704Z" fill="#F2F2F2"/>
<path d="M735.751 211.339C737.17 210.695 738.396 209.691 739.306 208.426C740.216 207.162 740.78 205.683 740.94 204.133C741.1 202.584 740.852 201.018 740.219 199.594C739.587 198.171 738.593 196.939 737.336 196.018C736.079 195.098 734.601 194.522 733.053 194.35C731.504 194.178 729.938 194.415 728.509 195.036C727.08 195.657 725.838 196.64 724.908 197.89C723.978 199.139 723.391 200.612 723.206 202.158C722.942 203.577 723.043 205.039 723.501 206.407C723.959 207.775 724.758 209.004 725.822 209.978C726.886 210.952 728.18 211.639 729.584 211.974C730.987 212.309 732.453 212.281 733.843 211.894L735.751 211.339Z" fill="#F2F2F2"/>
<path d="M733.05 236.538C733.395 228.709 732.735 220.871 731.084 213.211C732.334 213.322 733.589 213.052 734.684 212.438C733.62 220.278 733.573 228.222 734.544 236.074C734.544 236.074 734.545 236.074 735.375 235.895C734.443 228.1 734.452 220.219 735.406 212.426L735.168 211.319C734.54 211.532 733.889 211.672 733.229 211.736C732.188 212.215 731.053 212.459 729.906 212.449C729.906 212.449 729.906 212.449 730.322 214.388C731.751 221.516 732.292 228.794 731.932 236.055L733.05 236.538Z" fill="#F2F2F2"/>
<path d="M735.702 211.784L734.179 212.111C734.696 212.048 735.205 211.939 735.702 211.784Z" fill="#F2F2F2"/>
<path d="M731.084 213.211C732.735 220.871 733.395 228.709 733.051 236.538C733.57 236.494 734.082 236.384 734.574 236.211C733.602 228.359 733.65 220.415 734.714 212.575C733.596 213.148 732.33 213.37 731.084 213.211Z" fill="#F2F2F2"/>
<path d="M893.912 301.633L892.154 306.935C896.881 305.341 893.912 301.633 893.912 301.633Z" fill="#F2F2F2"/>
<path d="M791.179 304.866C797.826 303.439 819.528 301.965 892.042 326.655C890.107 320.001 890.201 312.922 892.312 306.322C885.883 309.44 864.023 309.5 793.301 291.811C793.212 295.179 792.766 298.526 791.97 301.799L791.179 304.866Z" fill="#F2F2F2"/>
<path d="M842.517 143.231C813.058 173.134 789.604 208.404 773.422 247.131C789.541 208.37 813.003 173.089 842.517 143.231C840.31 142.19 838.355 140.683 836.788 138.813C838.23 140.808 840.22 142.342 842.517 143.231Z" fill="#F2F2F2"/>
<path d="M836.155 137.211C819.943 168.012 799.906 196.643 776.519 222.425C799.993 196.713 820.038 168.07 836.155 137.211Z" fill="#F2F2F2"/>
<path d="M836.264 137.043L836.62 138.704C836.435 138.166 836.315 137.609 836.264 137.043Z" fill="#F2F2F2"/>
<path d="M776.351 222.317C770.932 228.114 765.207 233.834 759.176 239.474C765.376 233.943 770.932 228.114 776.351 222.317Z" fill="#F2F2F2"/>
<path d="M773.482 247.408C789.664 208.681 813.118 173.411 842.576 143.508C840.316 142.493 838.401 140.84 837.065 138.753L836.708 137.092C820.551 167.969 800.459 196.622 776.934 222.336C771.516 228.134 765.959 233.962 759.927 239.602C764.814 241.504 769.385 244.135 773.482 247.408Z" fill="#F2F2F2"/>
<path d="M164.571 242.314C165.434 247.227 165.075 252.278 163.528 257.02C168.858 252.834 194.225 239.421 298.357 246.75C297.53 242.162 297.653 237.454 298.717 232.915C290.409 234.699 247.217 246.725 161.363 233.445C162.776 235.954 163.798 238.665 164.393 241.483L164.571 242.314Z" fill="#F2F2F2"/>
<path d="M101.131 256.515L100.953 255.685C87.2175 262.313 72.542 266.783 57.4441 268.938L57.6222 269.767C72.7114 267.574 87.3811 263.105 101.131 256.515Z" fill="#F2F2F2"/>
<path d="M60.0283 274.898L60.2068 275.73C73.3143 268.297 87.581 263.128 102.408 260.44L102.23 259.611C87.4181 262.354 73.1602 267.519 60.0283 274.898Z" fill="#F2F2F2"/>
<path d="M57.8995 269.707C58.8228 271.342 59.538 273.086 60.0282 274.898C73.1602 267.519 87.4181 262.354 102.23 259.611L101.546 256.425C87.7544 263.039 73.0377 267.518 57.8995 269.707Z" fill="#F2F2F2"/>
<path d="M692.269 305.829L692.33 306.11L692.43 306.381C696.226 316.61 703.195 325.356 712.317 331.343C721.439 337.331 732.238 340.245 743.135 339.66C754.032 339.075 764.457 335.021 772.886 328.092C781.315 321.163 787.308 311.722 789.989 301.148C791.877 293.788 792.006 286.088 790.369 278.669L790.195 277.858C790.195 277.857 790.195 277.856 790.194 277.854C787.801 266.607 781.676 256.499 772.814 249.17C763.951 241.84 752.87 237.718 741.37 237.477C729.869 237.235 718.624 240.886 709.46 247.837C700.3 254.783 693.756 264.619 690.887 275.749C688.279 285.489 688.72 295.791 692.149 305.268L692.269 305.829Z" fill="#F2F2F2" stroke="#00AFAA" stroke-width="8"/>
<path d="M533.845 135.218C531.618 134.488 529.266 134.224 526.932 134.439C524.599 134.655 522.334 135.346 520.278 136.471C518.222 137.596 516.419 139.132 514.981 140.981C513.542 142.831 512.498 144.956 511.913 147.225C511.328 149.494 511.214 151.859 511.58 154.173C511.946 156.487 512.782 158.703 514.038 160.681C515.294 162.659 516.942 164.359 518.881 165.675C520.82 166.991 523.009 167.895 525.312 168.332C527.539 169.061 529.891 169.326 532.225 169.11C534.559 168.894 536.823 168.202 538.879 167.077C540.935 165.951 542.738 164.417 544.177 162.568C545.616 160.718 546.659 158.592 547.244 156.323C547.829 154.054 547.942 151.689 547.576 149.375C547.211 147.06 546.374 144.847 545.118 142.868C543.862 140.89 542.214 139.191 540.275 137.875C538.336 136.559 536.148 135.655 533.845 135.218Z" fill="#F2F2F2"/>
<path d="M309.724 255.17L308.954 257.653C308.909 258.23 309.033 258.807 309.311 259.314C313.104 263.468 318.017 266.437 323.459 267.863C330.674 270.154 338.505 269.485 345.228 266.005C351.951 262.524 357.017 256.517 359.309 249.304C361.602 242.09 360.934 234.26 357.454 227.539C353.973 220.818 347.965 215.755 340.75 213.464L340.842 221.988C339.555 221.212 338.124 220.707 336.636 220.504C335.147 220.301 333.633 220.404 332.186 220.805L333.755 211.923C328.374 211.534 322.993 212.689 318.246 215.253C314.519 217.024 311.225 219.588 308.592 222.766C305.959 225.943 304.052 229.657 303.005 233.648C301.958 237.638 301.796 241.808 302.529 245.868C303.263 249.928 304.875 253.779 307.252 257.151L309.724 255.17Z" fill="#F2F2F2"/>
<path d="M440.039 295.742L439.269 298.225C439.224 298.802 439.348 299.379 439.626 299.886C443.419 304.04 448.332 307.009 453.774 308.435C460.989 310.726 468.819 310.057 475.543 306.577C482.266 303.096 487.331 297.089 489.624 289.875C491.917 282.662 491.249 274.832 487.768 268.111C484.288 261.389 478.279 256.327 471.064 254.035L471.156 262.559C469.87 261.784 468.439 261.279 466.95 261.076C465.462 260.873 463.948 260.976 462.501 261.377L464.07 252.495C458.689 252.106 453.308 253.261 448.561 255.825C444.834 257.596 441.539 260.16 438.907 263.337C436.274 266.515 434.367 270.229 433.32 274.219C432.273 278.21 432.11 282.38 432.844 286.44C433.578 290.5 435.189 294.351 437.567 297.723L440.039 295.742Z" fill="#F2F2F2"/>
<path d="M340.842 221.988L340.196 213.582L337.347 212.456L333.756 211.923L332.186 220.805C333.634 220.404 335.148 220.301 336.636 220.504C338.124 220.707 339.556 221.212 340.842 221.988Z" fill="#F2F2F2"/>
<path d="M471.157 262.559L470.511 254.154L467.662 253.028L464.07 252.495L462.501 261.377C463.949 260.976 465.463 260.873 466.951 261.076C468.439 261.279 469.87 261.784 471.157 262.559Z" fill="#F2F2F2"/>
<path d="M272.122 135.369C268.407 134.707 264.582 135.548 261.487 137.706C258.391 139.864 256.28 143.165 255.617 146.879C254.955 150.593 255.796 154.418 257.955 157.512C260.113 160.607 263.413 162.716 267.128 163.378C270.602 163.926 274.155 163.163 277.097 161.237L278.719 160.021L280.252 158.387L281.063 156.765C282.074 155.242 282.741 153.518 283.019 151.712C283.669 148.107 282.898 144.391 280.866 141.344C278.835 138.297 275.7 136.155 272.122 135.369Z" fill="#F2F2F2"/>
<path d="M280.638 158.16C281.144 157.664 281.611 157.128 282.032 156.558L280.638 158.16Z" fill="#F2F2F2"/>
<path d="M278.779 160.297L277.157 161.515L278.779 160.297Z" fill="#F2F2F2"/>
<path d="M643.124 340.567C657.969 328.443 674.813 318.994 692.899 312.645L691.463 309.333C675.498 320.041 658.061 328.371 639.699 334.062C641.228 336.003 642.389 338.208 643.124 340.567Z" fill="#F2F2F2"/>
<path d="M586.696 326.035C587.47 325.35 587.986 324.423 588.16 323.405L587.714 321.328C587.897 319.826 587.689 318.302 587.11 316.904C586.53 315.506 585.6 314.281 584.407 313.349C583.457 312.602 582.369 312.049 581.206 311.722C580.042 311.396 578.826 311.301 577.626 311.445C576.426 311.588 575.266 311.966 574.212 312.558C573.158 313.149 572.231 313.942 571.484 314.892C570.736 315.842 570.184 316.929 569.857 318.093C569.53 319.256 569.436 320.472 569.579 321.672C569.722 322.872 570.1 324.032 570.692 325.085C571.284 326.139 572.077 327.065 573.027 327.812C574.675 329.074 576.716 329.711 578.79 329.61C580.863 329.509 582.834 328.678 584.353 327.263L586.696 326.035Z" fill="#F2F2F2"/>
<path d="M589.159 323.336C589.034 324.651 588.415 325.869 587.429 326.748C595.604 328.801 603.262 332.532 609.917 337.704L610.619 336.251C602.806 333.149 595.557 328.787 589.159 323.336Z" fill="#F2F2F2"/>
<path d="M634.24 334.944C632.812 333.744 631.142 332.867 629.343 332.375C626.712 331.581 623.905 331.569 621.268 332.341C618.63 333.113 616.274 334.635 614.486 336.723L616.049 337.257L615.388 339.57C615.388 339.57 613.865 339.897 613.726 339.927L614.024 341.313L612.618 340.165L611.996 341.313C611.285 343.709 611.222 346.249 611.811 348.677C612.401 351.105 613.623 353.335 615.352 355.138C617.082 356.941 619.258 358.254 621.66 358.944C624.062 359.634 626.604 359.677 629.027 359.068C631.451 358.458 633.671 357.217 635.46 355.473C637.25 353.729 638.546 351.542 639.217 349.135C639.888 346.728 639.91 344.187 639.281 341.769C638.651 339.351 637.393 337.142 635.634 335.368L634.24 334.944Z" fill="#F2F2F2"/>
<path d="M634.793 334.825L636.307 335.803L634.793 334.825Z" fill="#F2F2F2"/>
<path d="M614.399 340.362C614.399 340.362 615.922 340.035 616.06 340.005L616.723 337.691L615.159 337.158C614.167 338.392 613.389 339.783 612.856 341.273L614.262 342.419L614.399 340.362Z" fill="#F2F2F2"/>
<path d="M104.354 252.636L104.591 253.743L105.423 253.565L104.8 254.713C105.006 256.403 105.364 258.071 105.87 259.697C108.43 265.472 112.848 270.226 118.422 273.202C123.995 276.177 130.404 277.203 136.629 276.118C139.645 275.541 142.549 274.478 145.224 272.969C133.147 259.336 120.392 246.318 107.008 233.964C104.015 239.702 103.079 246.292 104.354 252.636Z" fill="#F2F2F2"/>
<path d="M160.664 243.008C159.849 237.741 157.565 232.812 154.073 228.785C150.581 224.759 146.023 221.799 140.924 220.247C135.824 218.695 130.39 218.613 125.246 220.011C120.102 221.408 115.456 224.229 111.843 228.148C124.322 244.44 136.969 258.813 148.616 271.228C153.124 268.179 156.657 263.895 158.794 258.89C160.931 253.886 161.579 248.372 160.664 243.008Z" fill="#F2F2F2"/>
<path d="M104.591 253.744L104.77 254.575L105.394 253.428L104.591 253.744Z" fill="#F2F2F2"/>
<path d="M36.4418 262.874C31.9587 263.645 27.965 266.163 25.3396 269.878C22.7142 273.592 21.6718 278.196 22.4421 282.678C23.2124 287.16 25.7318 291.153 29.4466 293.777C33.1613 296.401 37.7676 297.443 42.2507 296.672C44.4706 296.291 46.5927 295.475 48.4976 294.274C50.4025 293.072 52.053 291.508 53.353 289.669C54.6529 287.83 55.5777 285.753 56.0748 283.557C56.5719 281.36 56.6307 279.086 56.2493 276.867C55.8679 274.648 55.0536 272.526 53.8517 270.622C52.6499 268.717 51.0841 267.068 49.2448 265.768C47.4054 264.469 45.3282 263.545 43.1314 263.049C40.9346 262.552 38.6617 262.493 36.4418 262.874Z" fill="#F2F2F2"/>
<path d="M859.3 228.134C856.592 227.651 853.803 228.264 851.547 229.837C849.291 231.411 847.752 233.816 847.269 236.524C846.786 239.231 847.399 242.02 848.973 244.275C850.546 246.531 852.951 248.068 855.659 248.551C858.192 248.951 860.782 248.395 862.927 246.99L864.109 246.104L865.226 244.913L865.817 243.731C866.554 242.62 867.041 241.364 867.243 240.047C867.718 237.419 867.155 234.711 865.674 232.489C864.193 230.268 861.908 228.707 859.3 228.134Z" fill="#F2F2F2"/>
<path d="M849.138 120.012C846.43 119.529 843.641 120.142 841.385 121.715C839.129 123.288 837.59 125.694 837.107 128.402C836.624 131.109 837.237 133.898 838.81 136.153C840.384 138.409 842.789 139.946 845.497 140.429C848.03 140.829 850.62 140.273 852.765 138.868L853.947 137.982L855.064 136.791L855.655 135.608C856.392 134.498 856.879 133.242 857.081 131.925C857.555 129.297 856.993 126.589 855.512 124.367C854.031 122.146 851.746 120.585 849.138 120.012Z" fill="#F2F2F2"/>
</g>
<defs>
<clipPath id="clip0_747_2381">
<rect width="466.12" height="848.636" fill="white" transform="translate(97.8557 633.892) rotate(-102.119)"/>
</clipPath>
</defs>
</svg>
