<svg width="320" height="404" viewBox="0 0 320 404" fill="none" xmlns="http://www.w3.org/2000/svg">
<path d="M293.271 77.4956C265.176 113.946 232.636 146.745 196.411 175.131C232.714 146.832 265.263 114.023 293.271 77.4956Z" fill="#F2F2F2"/>
<path d="M187.961 206.852C193.421 196.582 217.734 155.89 278.969 102.847C217.734 156.02 193.941 196.452 187.961 206.852Z" fill="#F2F2F2"/>
<path d="M196.282 174.09C188.481 179.941 180.291 185.791 171.97 191.251C180.941 186.311 188.481 180.591 196.282 174.09Z" fill="#F2F2F2"/>
<path d="M293.271 77.4956C265.189 113.848 232.599 146.481 196.282 174.61C188.482 180.59 180.419 186.311 172.099 191.901C178.48 195.579 183.913 200.699 187.961 206.852C193.552 196.452 217.733 156.02 279.749 102.847C286.12 97.3868 292.751 91.796 299.902 86.0757C296.93 83.8948 294.632 80.9215 293.271 77.4956Z" fill="#F2F2F2"/>
<path d="M110.473 202.172C59.8906 178.506 13.757 146.315 -25.9098 107.007C-27.5093 114.985 -31.7719 122.182 -38 127.418C-38 127.418 18.0356 140.419 103.714 212.313C105.562 208.679 107.83 205.275 110.473 202.172Z" fill="#F2F2F2"/>
<path d="M171.059 333.088C162.648 318.458 156.801 302.497 153.768 285.896C156.222 302.634 161.871 318.744 170.408 333.349L171.059 333.088Z" fill="#F2F2F2"/>
<path d="M149.997 282.516H149.218C156.258 299.648 160.643 317.754 162.219 336.208V337.769L163.389 336.599C165.151 335.301 167.132 334.333 169.239 333.739C166.945 333.941 164.747 334.749 162.868 336.079C161.308 317.677 156.969 299.618 149.997 282.516Z" fill="#F2F2F2"/>
<path d="M153.768 285.896C153.768 284.726 153.767 283.556 153.117 282.256L153.768 285.896Z" fill="#F2F2F2"/>
<path d="M149.997 282.516C157.013 299.611 161.397 317.67 162.998 336.079C164.877 334.749 167.075 333.941 169.369 333.739H170.669C162.131 319.134 156.482 303.024 154.028 286.286L153.247 282.646L149.997 282.516Z" fill="#F2F2F2"/>
<path d="M120.224 136.518H119.444C127.503 152.174 132.781 169.11 135.045 186.571C133.036 169.156 128.021 152.22 120.224 136.518Z" fill="#F2F2F2"/>
<path d="M138.946 185.921H139.725C133.134 169.269 128.974 151.755 127.375 133.918H126.724C128.218 151.759 132.337 169.282 138.946 185.921Z" fill="#F2F2F2"/>
<path d="M313.812 51.8839C312.122 46.4236 300.812 10.4123 292.231 -34.44L286.77 -36C292.555 -5.32095 296.506 25.675 298.602 56.8242C302.121 53.5085 306.767 51.6507 311.603 51.6244L313.812 51.8839Z" fill="#F2F2F2"/>
<path d="M143.366 89.1957C143.965 90.2502 144.94 91.0402 146.096 91.4064C139.969 96.0977 134.655 101.763 130.365 108.177L131.146 108.827C135.354 102.43 140.58 96.7655 146.617 92.0563L147.656 91.2763C146.158 90.8868 144.805 90.0745 143.757 88.9362C143.421 88.5047 143.157 88.022 142.976 87.5063V88.9362C139.582 95.7097 134.85 101.724 129.065 106.617V107.267C135.039 102.304 139.909 96.1492 143.366 89.1957Z" fill="#F2F2F2"/>
<path d="M147.656 91.2763H145.707C144.827 90.9244 144.092 90.282 143.626 89.456L142.587 88.1562C142.768 88.6719 143.031 89.1546 143.366 89.5861C144.601 90.5553 146.092 91.1427 147.656 91.2763Z" fill="#F2F2F2"/>
<path d="M218.384 244.554C218.688 245.951 219.354 247.245 220.314 248.305C221.273 249.366 222.492 250.157 223.853 250.599C225.213 251.042 226.666 251.12 228.066 250.827C229.466 250.534 230.764 249.879 231.832 248.928C232.901 247.977 233.703 246.762 234.156 245.406C234.609 244.049 234.698 242.598 234.416 241.196C234.134 239.793 233.491 238.49 232.548 237.414C231.606 236.338 230.397 235.528 229.044 235.063C227.822 234.553 226.49 234.362 225.173 234.51C223.857 234.657 222.599 235.137 221.52 235.904C220.44 236.672 219.574 237.701 219.003 238.896C218.431 240.091 218.173 241.412 218.254 242.734L218.384 244.554Z" fill="#F2F2F2"/>
<path d="M259.967 361.044C260.272 362.442 260.938 363.735 261.897 364.796C262.857 365.856 264.076 366.647 265.437 367.09C266.797 367.532 268.25 367.611 269.65 367.318C271.05 367.024 272.348 366.37 273.416 365.419C274.485 364.468 275.286 363.253 275.74 361.896C276.193 360.54 276.282 359.088 276 357.686C275.718 356.284 275.075 354.98 274.132 353.904C273.19 352.828 271.981 352.018 270.628 351.554C269.405 351.044 268.073 350.853 266.757 351C265.441 351.147 264.183 351.628 263.104 352.395C262.024 353.162 261.158 354.192 260.586 355.386C260.015 356.581 259.757 357.903 259.837 359.225L259.967 361.044Z" fill="#F2F2F2"/>
<path d="M121.144 230.092C121.449 231.49 122.115 232.783 123.074 233.844C124.034 234.905 125.253 235.696 126.613 236.138C127.974 236.58 129.427 236.659 130.827 236.366C132.227 236.073 133.525 235.418 134.593 234.467C135.662 233.516 136.463 232.301 136.917 230.945C137.37 229.588 137.459 228.136 137.177 226.734C136.895 225.332 136.251 224.028 135.309 222.952C134.366 221.877 133.158 221.066 131.805 220.602C130.582 220.092 129.25 219.901 127.934 220.048C126.618 220.195 125.36 220.676 124.28 221.443C123.201 222.211 122.335 223.24 121.763 224.435C121.192 225.63 120.934 226.951 121.014 228.273L121.144 230.092Z" fill="#F2F2F2"/>
<path d="M162.728 346.583C163.033 347.98 163.698 349.274 164.658 350.334C165.618 351.395 166.837 352.186 168.197 352.628C169.557 353.071 171.011 353.149 172.411 352.856C173.811 352.563 175.109 351.908 176.177 350.957C177.245 350.006 178.047 348.792 178.5 347.435C178.954 346.078 179.043 344.627 178.761 343.225C178.479 341.822 177.835 340.519 176.893 339.443C175.95 338.367 174.741 337.557 173.389 337.093C172.166 336.582 170.834 336.392 169.518 336.539C168.201 336.686 166.944 337.166 165.864 337.934C164.785 338.701 163.919 339.73 163.347 340.925C162.776 342.12 162.518 343.441 162.598 344.763L162.728 346.583Z" fill="#F2F2F2"/>
<path d="M70.3271 388.856C71.0165 392.021 72.5244 394.95 74.6976 397.352C76.8708 399.754 79.6321 401.545 82.7125 402.547C85.7929 403.549 89.0845 403.727 92.2549 403.063C95.4254 402.399 98.3644 400.916 100.784 398.762C103.203 396.609 105.019 393.858 106.046 390.786C107.072 387.713 107.274 384.426 106.635 381.251C105.996 378.075 104.539 375.123 102.405 372.686C100.27 370.25 97.5329 368.415 94.4689 367.364C91.7007 366.208 88.6839 365.776 85.7028 366.109C82.7217 366.442 79.874 367.53 77.4291 369.268C74.9842 371.006 73.0232 373.337 71.7288 376.043C70.4344 378.749 69.8509 381.741 70.0324 384.735L70.3271 388.856Z" fill="#F2F2F2"/>
<path d="M196.282 237.274C203.244 239.092 210.408 240.009 217.603 240.004C217.262 241.105 217.262 242.283 217.603 243.384C210.77 240.918 203.647 239.345 196.411 238.703C196.411 238.703 196.411 238.704 196.411 239.484C203.589 240.149 210.662 241.677 217.474 244.034H218.514C218.444 243.429 218.444 242.819 218.514 242.214C218.284 241.186 218.284 240.121 218.514 239.094C218.514 239.094 218.514 239.094 216.693 239.094C210.019 239.003 203.381 238.086 196.931 236.363L196.282 237.274Z" fill="#F2F2F2"/>
<path d="M217.994 244.424V242.994C217.951 243.47 217.951 243.948 217.994 244.424Z" fill="#F2F2F2"/>
<path d="M217.603 240.004C210.408 240.01 203.244 239.092 196.282 237.274C196.221 237.748 196.221 238.229 196.282 238.703C203.518 239.345 210.641 240.918 217.474 243.384C217.176 242.27 217.22 241.092 217.603 240.004Z" fill="#F2F2F2"/>
<path d="M123.734 276.276C123.734 282.516 120.874 302.277 84.7305 362.6C91.0765 362.146 97.4141 363.594 102.932 366.76C101.372 360.39 105.532 340.759 135.045 280.696C132.039 279.967 129.12 278.922 126.335 277.576L123.734 276.276Z" fill="#F2F2F2"/>
<path d="M258.947 353.5C237.78 321.298 210.638 293.452 178.989 271.465C210.68 293.402 237.831 321.258 258.947 353.5C260.307 351.719 262.037 350.255 264.018 349.209C261.949 350.119 260.187 351.61 258.947 353.5Z" fill="#F2F2F2"/>
<path d="M265.578 348.95C241.052 328.464 219.21 304.964 200.572 279.006C219.131 305.028 240.981 328.538 265.578 348.95Z" fill="#F2F2F2"/>
<path d="M265.708 349.08H264.148C264.666 349.017 265.19 349.017 265.708 349.08Z" fill="#F2F2F2"/>
<path d="M200.702 278.876C196.542 272.896 192.511 266.655 188.61 260.155C192.381 266.785 196.542 272.896 200.702 278.876Z" fill="#F2F2F2"/>
<path d="M178.729 271.465C210.377 293.452 237.52 321.298 258.687 353.5C260.034 351.667 261.887 350.266 264.018 349.469H265.578C240.972 329.018 219.122 305.464 200.572 279.396C196.411 273.415 192.25 267.305 188.35 260.805C185.701 264.825 182.457 268.419 178.729 271.465Z" fill="#F2F2F2"/>
<path d="M141.937 190.992C132.797 192.315 124.321 196.526 117.745 203.01C111.17 209.493 106.839 217.91 105.387 227.029C103.935 236.149 105.437 245.493 109.673 253.699C113.91 261.904 120.659 268.54 128.936 272.636C134.668 275.495 140.993 276.964 147.398 276.926H148.177C157.909 276.944 167.361 273.674 175 267.645C182.639 261.616 188.018 253.182 190.261 243.713C192.505 234.244 191.481 224.294 187.359 215.479C183.236 206.664 176.255 199.501 167.549 195.152C159.9 191.234 151.226 189.78 142.718 190.992H141.937Z" fill="#F2F2F2"/>
<path d="M325.643 78.0151C326.727 76.157 327.418 74.0967 327.674 71.9607C327.931 69.8247 327.747 67.6587 327.133 65.5969C326.519 63.535 325.488 61.6211 324.105 59.9734C322.722 58.3256 321.016 56.9791 319.092 56.017C317.167 55.0549 315.066 54.497 312.918 54.3792C310.77 54.2614 308.619 54.5855 306.601 55.3314C304.583 56.0773 302.74 57.2291 301.185 58.7157C299.63 60.2023 298.396 61.9927 297.56 63.975C296.476 65.8331 295.785 67.8933 295.528 70.0294C295.272 72.1654 295.457 74.3314 296.071 76.3932C296.685 78.455 297.715 80.3689 299.098 82.0167C300.481 83.6645 302.189 85.011 304.113 85.9731C306.037 86.9352 308.138 87.4923 310.287 87.6101C312.435 87.7279 314.583 87.4038 316.601 86.6579C318.619 85.912 320.463 84.7602 322.018 83.2736C323.573 81.787 324.807 79.9974 325.643 78.0151Z" fill="#F2F2F2"/>
<path d="M120.224 136.518C128.247 152.178 133.483 169.116 135.696 186.571L138.946 185.921C132.411 169.529 128.293 152.274 126.724 134.698C124.687 135.696 122.483 136.313 120.224 136.518Z" fill="#F2F2F2"/>
<path d="M144.148 88.6757C144.614 89.5017 145.346 90.144 146.227 90.4959H148.178C149.491 90.9501 150.899 91.0568 152.266 90.8062C153.633 90.5556 154.911 89.9566 155.978 89.0661C156.832 88.3576 157.538 87.4875 158.055 86.5062C158.573 85.525 158.892 84.4512 158.995 83.3465C159.098 82.2419 158.982 81.1284 158.654 80.0686C158.326 79.0088 157.793 78.0236 157.084 77.17C156.376 76.3163 155.505 75.6109 154.524 75.0934C153.543 74.5759 152.469 74.2565 151.364 74.1539C150.26 74.0513 149.145 74.1672 148.085 74.4951C147.026 74.823 146.041 75.3569 145.187 76.0654C143.737 77.3014 142.772 79.0105 142.462 80.8907C142.153 82.7708 142.52 84.7002 143.497 86.3356L144.148 88.6757Z" fill="#F2F2F2"/>
<path d="M146.096 91.4064C144.94 91.0401 143.965 90.2502 143.366 89.1957C139.947 96.1371 135.122 102.291 129.195 107.267L130.365 108.177C134.655 101.763 139.969 96.0976 146.096 91.4064Z" fill="#F2F2F2"/>
<path d="M126.985 129.628C128.337 128.579 129.446 127.248 130.235 125.728C131.455 123.52 132.007 121.004 131.822 118.488C131.637 115.971 130.725 113.564 129.195 111.557L128.415 112.857L126.466 111.817C126.466 111.817 126.466 110.387 126.466 110.257H125.164L126.466 109.217L125.555 108.437C123.541 107.338 121.273 106.791 118.979 106.853C116.686 106.914 114.449 107.58 112.496 108.785C110.544 109.99 108.946 111.691 107.864 113.713C106.781 115.736 106.252 118.009 106.332 120.302C106.412 122.594 107.098 124.825 108.319 126.768C109.54 128.71 111.254 130.294 113.285 131.36C115.317 132.427 117.594 132.936 119.886 132.837C122.178 132.738 124.403 132.035 126.335 130.798L126.985 129.628Z" fill="#F2F2F2"/>
<path d="M126.985 130.148L125.815 131.318L126.985 130.148Z" fill="#F2F2F2"/>
<path d="M125.945 110.777C125.945 110.777 125.945 112.207 125.945 112.337L127.895 113.378L128.675 112.077C127.759 110.949 126.66 109.982 125.424 109.217L124.125 110.258L125.945 110.777Z" fill="#F2F2F2"/>
</svg>
