<svg width="60" height="60" fill="none" xmlns="http://www.w3.org/2000/svg"><g clip-path="url(#clip0_625_2657)"><path d="M32.366 0c1.898.38 3.825.65 5.687 1.16C49.96 4.43 58.744 15.188 59.654 27.535c1.11 15.082-8.662 28.344-23.317 31.674C19.791 62.97 3.207 51.793.419 35.004-2.385 18.101 9.176 2.444 26.076.229c.479-.063.95-.154 1.425-.229h4.865zm12.258 7.871C34.238.645 18.798 1.875 9.593 12.768.75 23.226 2.26 37.32 7.889 44.66L44.624 7.87zm7.281 7.356L15.134 52.03c9.53 6.76 24.269 6.34 33.804-3.555 9.63-9.964 9.26-24.503 2.962-33.248h.005zm-2.187-2.992l-2.137-2.107a244380.243 244380.243 0 00-37.445 37.52l2.054 2.182 37.528-37.595z" fill="#fff"/></g><defs><clipPath id="clip0_625_2657"><path fill="#fff" d="M0 0h59.74v59.94H0z"/></clipPath></defs></svg>