<svg width="50" height="64" fill="none" xmlns="http://www.w3.org/2000/svg"><g clip-path="url(#clip0_625_2702)" fill="#fff"><path d="M24.98 0h22.303c1.984 0 2.882 1.033 2.692 3.007-.57 5.936-1.12 11.875-1.682 17.81a16008.18 16008.18 0 01-1.648 17.386c-.498 5.303-.991 10.605-1.478 15.905-.23 2.451-.458 4.902-.705 7.35-.129 1.292-1.044 2.089-2.418 2.089-3.102.011-6.202 0-9.302 0H8.376c-1.952 0-2.68-.691-2.863-2.622a6504.24 6504.24 0 00-1.93-20.354C2.99 34.28 2.414 27.988 1.82 21.699A5817.27 5817.27 0 00.025 2.97c-.19-1.936.72-2.979 2.657-2.979L24.98 0zm18.208 25.505c-1.39-.435-2.739-.792-4.041-1.276-4.01-1.486-7.992-3.037-12.002-4.533-3.675-1.367-7.45-1.933-11.36-1.247-3.204.56-6.14 1.866-9.04 3.261a.796.796 0 00-.311.651c.408 4.526.84 9.05 1.268 13.574.61 6.432 1.22 12.863 1.828 19.293.121 1.287.256 2.57.38 3.858h30.184c1.035-11.186 2.062-22.35 3.094-33.581zm.52-4.556c.519-5.564 1.018-10.948 1.52-16.342H4.772c.393 4.156.78 8.253 1.177 12.43.74-.322 1.41-.604 2.074-.899 6.411-2.828 12.965-3.368 19.632-1.046 3.013 1.048 5.942 2.328 8.934 3.433 2.323.852 4.683 1.596 7.119 2.42v.004z"/><path d="M18.175 51.969c.048 1.456-.835 2.519-2.073 2.595-1.317.081-2.35-.828-2.468-2.193-.717-7.818-1.434-15.636-2.149-23.455-.04-.446-.11-.894-.116-1.342a2.233 2.233 0 012.12-2.304 2.232 2.232 0 012.425 2.07c.286 2.991.565 5.981.837 8.97.467 5.063.932 10.125 1.394 15.188.01.192.024.38.03.47z"/></g><defs><clipPath id="clip0_625_2702"><path fill="#fff" d="M0 0h50v63.558H0z"/></clipPath></defs></svg>