<svg width="60" height="60" fill="none" xmlns="http://www.w3.org/2000/svg"><g clip-path="url(#clip0_625_2663)" fill="#fff"><path d="M0 49.54V14.982a1.8 1.8 0 00.105-.322 11.536 11.536 0 0110.62-10c1.007-.067 2.02-.009 3.097-.009V2.507c.01-1.441.972-2.487 2.305-2.504 1.333-.017 2.366 1.04 2.379 2.504v2.064H41.48V2.555c.008-1.475.981-2.536 2.332-2.544 1.35-.008 2.347 1.047 2.347 2.516V4.61h1.995C55.021 4.568 59.948 10 59.97 16.032c.035 10.85.035 21.703 0 32.56-.011 5.227-3.76 9.83-8.878 11.034-.546.129-1.095.227-1.649.338H10.545a1.966 1.966 0 00-.327-.1 11.593 11.593 0 01-9.943-8.96c-.1-.452-.183-.91-.275-1.365zm4.685-26.416v25.003c0 4.132 2.986 7.141 7.118 7.144 12.125.01 24.249.01 36.373 0 4.134 0 7.122-3.01 7.123-7.139V23.125H4.685zM41.482 9.33H18.507c0 1.528.014 3.01 0 4.492-.017 1.376-1.045 2.382-2.378 2.365-1.304-.018-2.287-1.025-2.3-2.38-.012-1.309 0-2.617 0-3.925 0-.186-.02-.37-.03-.546-6.917-.783-9.827 3.937-9.01 9.048h50.454c.804-6.543-3.526-9.815-9.076-9.014 0 1.454.048 2.919-.027 4.382-.04.575-.23 1.13-.554 1.607-.549.795-1.616 1.026-2.527.707a2.3 2.3 0 01-1.565-2.18c-.026-1.507-.012-3.009-.012-4.556z"/><path d="M16.207 43.798c.76 0 1.52-.014 2.281 0a2.335 2.335 0 012.318 2.311 2.325 2.325 0 01-2.266 2.36c-1.577.034-3.156.034-4.737 0a2.348 2.348 0 01-2.292-2.338 2.347 2.347 0 012.356-2.331c.78-.015 1.56-.004 2.34-.002zm27.653 0c.76 0 1.521-.014 2.282 0a2.348 2.348 0 012.33 2.356 2.347 2.347 0 01-2.313 2.318 139.8 139.8 0 01-4.679 0 2.332 2.332 0 01-1.613-3.988 2.347 2.347 0 011.66-.688c.773-.012 1.554 0 2.333.002zm-.056-9.138c-.76 0-1.521.015-2.282 0a2.347 2.347 0 01-2.347-2.346 2.338 2.338 0 012.358-2.329c1.52-.017 3.04-.017 4.562 0a2.347 2.347 0 012.377 2.315c.015 1.297-1.03 2.337-2.391 2.362-.756.011-1.521 0-2.277-.001zm-27.622-4.681c.76 0 1.52-.013 2.281 0a2.347 2.347 0 012.348 2.347 2.327 2.327 0 01-2.304 2.32 129.39 129.39 0 01-4.679 0 2.347 2.347 0 01-2.317-2.373 2.347 2.347 0 012.332-2.299c.78-.01 1.56.005 2.339.005zm13.833 0c.76 0 1.52-.014 2.28 0a2.332 2.332 0 012.325 2.357 2.323 2.323 0 01-2.308 2.316 145.95 145.95 0 01-4.679 0 2.336 2.336 0 01-2.303-2.327 2.347 2.347 0 012.347-2.348c.778-.01 1.557.002 2.338.002zm-.03 13.817c.76 0 1.521-.01 2.282 0a2.33 2.33 0 012.347 2.327 2.33 2.33 0 01-2.338 2.347c-1.54.023-3.08.023-4.62 0a2.347 2.347 0 01-2.332-2.36c.014-1.287 1.039-2.292 2.375-2.314.765-.01 1.526 0 2.286 0z"/></g><defs><clipPath id="clip0_625_2663"><path fill="#fff" d="M0 0h60v59.966H0z"/></clipPath></defs></svg>