<svg width="66" height="61" fill="none" xmlns="http://www.w3.org/2000/svg"><g clip-path="url(#clip0_625_2675)" fill="#fff"><path d="M0 29.2c.255-1.398.426-2.817.78-4.188.906-3.515 2.721-6.526 5.25-9.094a2.708 2.708 0 013.789-.068 2.694 2.694 0 01.893 1.89 2.716 2.716 0 01-.717 1.963c-1.534 1.697-2.843 3.522-3.59 5.715-1.57 4.592-1.089 9.022 1.229 13.214 2.36 4.268 5.991 6.956 10.712 8.063 1.194.274 2.415.414 3.64.418 4.962.048 9.926.02 14.89.02.104 0 .207-.01.422-.021-.207-.23-.35-.4-.505-.559-1.042-1.06-2.143-2.069-3.112-3.195-1.383-1.607-.532-4.007 1.526-4.47a2.563 2.563 0 012.136.46c.241.182.467.383.675.602a4742.1 4742.1 0 017.705 7.766c1.4 1.413 1.404 2.974.01 4.38a5373.237 5373.237 0 01-7.89 7.948c-1.322 1.322-3.156 1.262-4.232-.105-.883-1.122-.794-2.605.26-3.715.955-.998 1.938-1.964 2.907-2.945.147-.149.286-.305.507-.543-.323-.016-.544-.035-.768-.035H22.79c-3.098 0-6.116-.44-9.003-1.628A21.828 21.828 0 013.562 42.57 21.658 21.658 0 01.095 32.234 2.92 2.92 0 000 31.8v-2.6zm28.637-15.336c1.261 1.266 2.41 2.375 3.508 3.532 1.37 1.448 1.066 3.569-.619 4.453-.985.518-1.949.433-2.857-.2a4.922 4.922 0 01-.673-.603c-2.556-2.569-5.11-5.14-7.661-7.714-1.454-1.466-1.454-3.007 0-4.476 2.61-2.634 5.223-5.266 7.839-7.897 1.322-1.324 3.155-1.263 4.232.102.882 1.12.793 2.617-.258 3.717-.954.998-1.938 1.954-2.907 2.943-.147.149-.286.307-.51.546.323.015.544.034.767.034h13.795c3.052 0 6.026.44 8.882 1.604 4.266 1.742 7.693 4.534 10.216 8.405 2.795 4.29 3.99 9.024 3.52 14.139-.452 4.926-2.485 9.138-5.93 12.647a2.703 2.703 0 01-3.787.037 2.685 2.685 0 01-.877-1.861 2.705 2.705 0 01.69-1.941c1.558-1.727 2.88-3.59 3.641-5.823 1.354-3.978 1.13-7.906-.554-11.704-2.238-5.046-6.105-8.214-11.433-9.504a16.638 16.638 0 00-3.703-.418c-4.92-.046-9.84-.018-14.76-.018h-.56z"/></g><defs><clipPath id="clip0_625_2675"><path fill="#fff" d="M0 0h66v61H0z"/></clipPath></defs></svg>