<svg width="485" height="762" fill="none" xmlns="http://www.w3.org/2000/svg"><g clip-path="url(#clip0_625_2589)"><path fill="#fff" d="M103.078-28.539L506.184 27.63 403.922 761.54.817 705.37z"/><path d="M351.167 473.629a525.614 525.614 0 01-104.043 79.272 515.243 515.243 0 00104.043-79.272z" fill="#F2F2F2"/><path d="M235.002 581.678c6.491-8.959 34.731-44.106 99.368-86.042-64.654 42.059-92.37 77.028-99.368 86.042zm12.138-29.774c-8.115 4.488-16.597 8.925-25.151 12.978 9.098-3.478 16.95-7.877 25.151-12.978z" fill="#F2F2F2"/><path d="M351.167 473.629a515.253 515.253 0 01-104.095 78.765c-8.133 4.61-16.477 8.942-25.047 13.117a44.89 44.89 0 0112.977 16.167c6.631-9.065 34.713-43.983 100.102-85.94 6.717-4.308 13.696-8.705 21.182-13.156a18.668 18.668 0 01-5.119-8.953zm-188.532 93.47A463.014 463.014 0 0146.678 459.545a34.133 34.133 0 01-14.067 17.643s51.07 19.602 122.327 98.578a49.454 49.454 0 017.697-8.667zM433.36 258.212l.119-.858a143.514 143.514 0 01-50.255 13.974 144.285 144.285 0 0050.136-13.116z" fill="#F2F2F2"/><path d="M384.026 275.435l-.102.735a175.776 175.776 0 0151.455-10.935l.102-.735a178.14 178.14 0 00-51.455 10.935z" fill="#F2F2F2"/><path d="M433.529 261.481a9.294 9.294 0 01.444-3.184 144.273 144.273 0 01-50.098 13.746c.325.885.573 1.797.743 2.726.023.249-.012.501-.103.735a178.142 178.142 0 0151.455-10.936 21.075 21.075 0 01-2.441-3.087zM202.512 698.389a140.86 140.86 0 01-10.091-46.73 125.541 125.541 0 009.444 46.89l.647-.16z" fill="#F2F2F2"/><path d="M189.314 647.98l-.734-.102a173.164 173.164 0 015.196 52.29l-.205 1.471 1.256-.949a17.296 17.296 0 015.885-1.927 12.36 12.36 0 00-6.307 1.369 173.938 173.938 0 00-5.091-52.152zm3.108 3.679c.153-1.102.306-2.204-.135-3.514l.135 3.514z" fill="#F2F2F2"/><path d="M189.313 647.98a173.862 173.862 0 015.214 52.169 12.362 12.362 0 016.307-1.369l1.224.171a125.56 125.56 0 01-9.443-46.89l-.257-3.532-3.045-.549zm-8.875-141.454l-.734-.103a144.726 144.726 0 018.122 49.204 144.223 144.223 0 00-7.388-49.101z" fill="#F2F2F2"/><path d="M191.586 555.526l.734.102a177.48 177.48 0 01-4.806-50.614l-.613-.085a173.167 173.167 0 004.685 50.597zm154.083-355.981l1.483-.793a12.359 12.359 0 006.764-13.057 12.358 12.358 0 00-10.501-10.294 12.36 12.36 0 00-12.914 7.031 12.367 12.367 0 002.937 14.409 11.114 11.114 0 007.124 2.616 16.396 16.396 0 003.532-.257l1.575.345z" fill="#F2F2F2"/><path d="M347.764 198.838l-2.096.707-.979-.137a11.611 11.611 0 01-3.531.257l-1.592-.222-1.715-.238.581 1.204a129.51 129.51 0 015.986 52.901l.734.102a130.006 130.006 0 00-5.985-52.9c2.571.602 5.271.27 7.62-.937a174.522 174.522 0 001.474 53.022l.736.103a170.913 170.913 0 01-1.403-52.637l.17-1.225z" fill="#F2F2F2"/><path d="M341.106 200.033c1.183.095 2.374.009 3.531-.257a16.387 16.387 0 01-3.531.257zm5.241-.893l2.097-.707-2.097.707zm.405.681a11.118 11.118 0 01-7.619.935 130.013 130.013 0 015.985 52.901l3.109-.815a174.549 174.549 0 01-1.475-53.021zm27.124 252.374c-.875-5.366-6.8-40.777-8.994-84.159l-4.938-2.187a747.48 747.48 0 01-1.042 89.004 18.175 18.175 0 0112.928-3.192l2.046.534zm-15.739-144.158a14.962 14.962 0 01-2.448-.341c.45 3.933 2.36 20.681 3.648 44.584l4.796 1.417c-.629-15.195-1.032-31.109-.596-46.78-1.087.38-2.212.641-3.355.781l-1.959-.273-.086.612zm94.696 102.47l-5.92-3.198a387.192 387.192 0 01-64.168 51.117 16.198 16.198 0 013.728 6.387 378.221 378.221 0 0166.36-54.306zm-244.387 54.472a4.577 4.577 0 002.281 2.441 67.031 67.031 0 00-17.018 13.736l.651.714a66.761 66.761 0 0116.772-13.769l1.081-.599a7.66 7.66 0 01-3.365-2.716 4.833 4.833 0 01-.548-1.45l-.187 1.348a53.287 53.287 0 01-15.423 14.831l-.085.613a53.057 53.057 0 0015.841-15.149z" fill="#F2F2F2"/><path d="M212.213 467.502l-1.835-.256a3.957 3.957 0 01-1.721-1.987l-.808-1.361c.103.509.287.998.546 1.449a7.664 7.664 0 003.818 2.155zm46.493 153.687a7.784 7.784 0 001.325 3.788 7.78 7.78 0 006.971 3.393 7.796 7.796 0 007.245-8.24 7.786 7.786 0 00-4.255-6.482 7.407 7.407 0 00-7.197-.195 7.417 7.417 0 00-3.973 6.005l-.116 1.731z" fill="#F2F2F2"/><path d="M238.846 611.43a79.942 79.942 0 0019.722 5.371 5.444 5.444 0 00-.444 3.184 80.22 80.22 0 00-19.345-7.191l-.102.736a85.283 85.283 0 0119.241 7.051l.979.136a7.527 7.527 0 01.239-1.715 6.794 6.794 0 01.409-2.939l-1.714-.239a76.884 76.884 0 01-18.254-5.166l-.731.772z" fill="#F2F2F2"/><path d="M258.356 621.016l.188-1.347a7.546 7.546 0 00-.188 1.347zm.212-4.215a79.938 79.938 0 01-19.723-5.371 5.331 5.331 0 00-.187 1.347 80.261 80.261 0 0119.345 7.191 5.436 5.436 0 01.565-3.167zM137.295 723.888l-3.823-3.03c-.108 4.355 3.823 3.03 3.823 3.03z" fill="#F2F2F2"/><path d="M165.398 638.654c-.82 5.879-6.108 24.121-48.067 76.209a30.415 30.415 0 0116.597 6.309c-.633-6.207 5.862-24.155 41.542-76.869a41.52 41.52 0 01-7.793-4.082l-2.279-1.567zm117.211 90.499a286.856 286.856 0 00-64.539-87.779 284.39 284.39 0 0164.539 87.779 14.715 14.715 0 015.339-3.377 11.122 11.122 0 00-5.339 3.377z" fill="#F2F2F2"/><path d="M289.451 725.736a361.038 361.038 0 01-52.043-74.426 352.117 352.117 0 0052.043 74.426zm.105.14l-1.469-.205c.496.009.99.078 1.469.205zm-52.009-74.671a315.029 315.029 0 01-8.931-19.225c2.681 6.742 5.798 13.044 8.931 19.225z" fill="#F2F2F2"/><path d="M217.825 641.339a286.848 286.848 0 0164.538 87.779 11.133 11.133 0 015.55-3.097l1.47.205a352.154 352.154 0 01-52.027-74.549c-3.133-6.18-6.25-12.483-9.07-19.119a45.226 45.226 0 01-10.461 8.781zm186.469-497.928a26.568 26.568 0 01-11.75-5.258c1.837 5.625 5.245 30.447-31.94 113.667a29.767 29.767 0 0111.239 4.437c1.024-7.349 4.091-46.377 40.686-112.822a24.75 24.75 0 01-7.5.079l-.735-.103zm7.344-56.287l.734.102a129.493 129.493 0 012.155-39.655l-.734-.102a131.728 131.728 0 00-2.155 39.655z" fill="#F2F2F2"/><path d="M408.864 47.906l-.736-.103a117.009 117.009 0 01-.092 39.193l.734.102a119.741 119.741 0 00.094-39.192z" fill="#F2F2F2"/><path d="M413.759 47.714a19.653 19.653 0 01-4.895.192 119.741 119.741 0 01-.094 39.192l2.817.393a131.755 131.755 0 012.172-39.777zM193.737 560.695a41.168 41.168 0 00-24.362 8.148 41.185 41.185 0 001.399 67.065 38.826 38.826 0 0016.825 6.464l.734.102a41.04 41.04 0 0026.482-5.223 41.064 41.064 0 0018.487-47.525 41.051 41.051 0 00-15.989-21.75 39.549 39.549 0 00-22.841-7.178l-.735-.103zm187.852-82.328a14.976 14.976 0 00.92-17.2 14.967 14.967 0 00-9.803-6.738 14.956 14.956 0 00-15.724 7.025 14.964 14.964 0 00-.92 17.199 14.957 14.957 0 0021.422 4.192 14.984 14.984 0 004.105-4.478zm-31.295-219.744l-1.806-1.375c-.46-.21-.97-.281-1.47-.205a25.478 25.478 0 00-11.247 9.046 24.93 24.93 0 004.491 34.962 24.918 24.918 0 0034.953-4.494l-7.019-2.476a9.65 9.65 0 003.561-6.746l6.816 3.946a24.741 24.741 0 001.911-13.718 24.74 24.74 0 00-10.525-18.008 24.723 24.723 0 00-20.55-3.553l.885 2.621z" fill="#F2F2F2"/><path d="M368.196 294.081l7.088 1.987 1.776-2 1.513-2.787-6.816-3.946a9.653 9.653 0 01-3.561 6.746zm91.621-30.436a12.423 12.423 0 00-13.922-18.25 12.422 12.422 0 00-7.557 5.769 12.37 12.37 0 00-1.229 8.818l.512 1.695.882 1.746 1.087 1.15a11 11 0 003.56 3.118 12.363 12.363 0 0016.667-4.046zm-21.244.162c.256.564.555 1.107.897 1.623l-.897-1.623zm-1.196-2.164l-.513-1.695.513 1.695zM180.438 506.526a144.215 144.215 0 018.002 49.186l3.146-.186a173.21 173.21 0 01-4.787-49.862c-2.05.673-4.206.965-6.361.862zm28.813-41.934c.33.839.936 1.541 1.719 1.988l1.837.256a7.662 7.662 0 007.534-.324 8.023 8.023 0 003.593-4.992 8.043 8.043 0 00-3.128-8.362 8.024 8.024 0 00-8.921-.31 7.672 7.672 0 00-2.94 9.454l.306 2.29zm1.476 2.828a4.573 4.573 0 01-2.281-2.441 53.046 53.046 0 01-15.719 15.166l.983 1.011a67.01 67.01 0 0117.017-13.736zm-23.017 33.502a11.266 11.266 0 003.573-3.248 12.371 12.371 0 00.881-13.487l-.906 1.122-1.699-1.235.205-1.47-1.226-.171 1.363-.809-.756-.855a12.362 12.362 0 00-17.355 2.649 12.368 12.368 0 008.813 19.595c2.171.208 4.36-.163 6.342-1.075l.765-1.016zm-.069.489l-1.255.95 1.255-.95z" fill="#F2F2F2"/><path d="M189.205 483.025l-.205 1.47 1.701 1.236.904-1.123a12.363 12.363 0 00-2.685-3.121l-1.361.81 1.646.728zM413.854 90.928l-.979-.136-.102.735-.756-.855a24.717 24.717 0 00-4.408-.614 24.727 24.727 0 00-22.678 20.314 24.72 24.72 0 00.01 7.992 474.902 474.902 0 0043.434-19.669 24.722 24.722 0 00-14.521-7.767zm-8.96 49.07a24.72 24.72 0 0024.579-9.377 24.74 24.74 0 002.226-26.219c-17.099 5.359-32.675 11.43-46.345 17.266a24.73 24.73 0 0019.54 18.33z" fill="#F2F2F2"/><path d="M412.875 90.792l-.735-.103.754.855-.019-.752zm12.912-58.632a14.971 14.971 0 10-29.364.489 14.974 14.974 0 0011.957 11.568 14.97 14.97 0 0017.407-12.058z" fill="#F2F2F2"/></g><defs><clipPath id="clip0_625_2589"><path fill="#fff" transform="rotate(7.932 257.346 729.076)" d="M0 0h407v741H0z"/></clipPath></defs></svg>