<svg width="432" height="312" fill="none" xmlns="http://www.w3.org/2000/svg"><circle cx="50.941" cy="103.841" r="18.572" transform="rotate(17.401 50.94 103.841)" fill="#fff" stroke="#E60074" stroke-width="5.462"/><g clip-path="url(#clip0_625_2685)"><path d="M122.635 55.903c5.774-18.424 25.391-28.679 43.815-22.905l231.425 72.53c18.423 5.774 28.678 25.39 22.904 43.813l-40.251 128.43c-5.774 18.424-25.391 28.679-43.815 22.905l-231.425-72.53c-18.423-5.774-28.678-25.39-22.904-43.813l40.251-128.43z" fill="#E60074"/><circle cx="177.334" cy="179.163" r="41.878" transform="rotate(17.401 177.334 179.163)" fill="#B8005D"/><circle cx="305.513" cy="219.335" r="41.878" transform="rotate(17.401 305.513 219.335)" fill="#FF64B2"/><path fill-rule="evenodd" clip-rule="evenodd" d="M282.156 184.575c-28.62 19.231-53.281 11.502-65.805-20.623l-15.661 49.971c28.619-19.23 53.28-11.501 65.804 20.624l15.662-49.972z" fill="url(#paint0_linear_625_2685)"/><path d="M301.787 216.193c1.336.996 2.253 2.19 2.751 3.582.506 1.368.512 2.84.018 4.416-.722 2.302-2.204 3.788-4.448 4.458-2.243.671-5.116.458-8.619-.64l-14.186-4.446 8.233-26.27 13.436 4.211c3.352 1.05 5.708 2.476 7.067 4.275 1.368 1.775 1.722 3.714 1.063 5.815-.392 1.251-1.057 2.279-1.997 3.084-.906.787-2.012 1.292-3.318 1.515zm-10.577-11.228l-1.588 5.066 5.104 1.6c2.502.784 4.02.325 4.553-1.376.525-1.676-.463-2.906-2.965-3.691l-5.104-1.599zm1.361 17.489c2.602.816 4.181.335 4.738-1.441.556-1.777-.466-3.072-3.068-3.888l-6.23-1.952-1.67 5.329 6.23 1.952zm30.905-2.802c1.651.517 3.055 1.342 4.212 2.474a8.252 8.252 0 012.347 3.95c.434 1.51.396 3.078-.114 4.704-.557 1.777-1.514 3.208-2.87 4.294-1.325 1.068-2.892 1.731-4.704 1.988-1.778.239-3.631.057-5.557-.547-3.753-1.176-6.369-3.218-7.848-6.127s-1.563-6.453-.254-10.631c.941-3.002 2.324-5.399 4.149-7.19 1.858-1.808 4.015-2.946 6.469-3.413 2.455-.467 5.07-.265 7.847.605 1.502.47 2.877 1.08 4.126 1.829 1.249.748 2.251 1.584 3.006 2.508l-4.373 4.482c-.993-1.301-2.466-2.257-4.417-2.868-1.902-.596-3.605-.553-5.11.129-1.506.683-2.656 1.985-3.45 3.906 1.909-.83 4.089-.861 6.541-.093zm-5.478 11.431c1.051.329 1.995.295 2.834-.101.864-.389 1.456-1.096 1.778-2.122.313-1.001.227-1.907-.261-2.72-.462-.804-1.231-1.375-2.307-1.712-1.076-.337-2.05-.299-2.921.115-.864.389-1.452 1.084-1.766 2.084-.306.976-.232 1.879.223 2.708.487.812 1.294 1.395 2.42 1.748zm-138.81-53.313c1.337.996 2.254 2.19 2.752 3.582.505 1.368.511 2.84.017 4.416-.721 2.302-2.204 3.788-4.447 4.459-2.244.67-5.117.457-8.619-.641l-14.186-4.446 8.233-26.27 13.435 4.211c3.353 1.05 5.709 2.476 7.068 4.276 1.367 1.774 1.721 3.713 1.063 5.814-.392 1.251-1.058 2.279-1.997 3.084-.906.787-2.013 1.292-3.319 1.515zm-10.576-11.228l-1.588 5.066 5.104 1.6c2.502.784 4.019.325 4.552-1.376.526-1.676-.463-2.906-2.965-3.69l-5.103-1.6zm1.36 17.489c2.602.816 4.181.335 4.738-1.441.557-1.776-.466-3.072-3.068-3.888l-6.23-1.952-1.67 5.329 6.23 1.952zm31.716-13.016l-8.233 26.27-7.431-2.329 6.434-20.528-4.879-1.529 1.8-5.742 12.309 3.858zm33.32 14.516l5.61 1.758-3.63 11.581 13.112-8.609 5.175 1.622-6.102 19.471-5.61-1.758 3.63-11.582-13.076 8.621-5.211-1.633 6.102-19.471zm-33.072-107.76l-4.631 14.779-3.378-1.06 3.758-11.99-5.067-1.589-1.071 3.05c-.728 2.075-1.431 3.725-2.108 4.95-.673 1.211-1.437 2.07-2.291 2.574-.835.496-1.816.567-2.942.214-.464-.145-1.003-.399-1.616-.761l1.117-2.826c.166.113.361.205.586.276.816.256 1.536-.044 2.16-.9.628-.87 1.306-2.318 2.035-4.347l2.09-5.93 11.358 3.56zm11.615 13.68c-.014.042-.127.33-.342.866l-8.592-2.693a2.804 2.804 0 00.575 2.012c.449.59 1.103 1.018 1.961 1.288.592.185 1.139.263 1.642.236a4.117 4.117 0 001.553-.441l1.156 2.45c-1.453.888-3.207 1.011-5.262.367-1.281-.401-2.337-1.003-3.168-1.804-.826-.816-1.368-1.75-1.625-2.805-.257-1.054-.209-2.144.144-3.27.349-1.112.922-2.03 1.721-2.753a5.806 5.806 0 012.83-1.409c1.087-.216 2.201-.145 3.341.213 1.112.348 2.043.903 2.794 1.664a5.396 5.396 0 011.463 2.73c.243 1.05.179 2.166-.191 3.349zm-4.825-5.245c-.746-.234-1.439-.22-2.078.044-.639.263-1.129.743-1.471 1.44l5.594 1.753c.113-.753-.018-1.42-.393-2-.37-.596-.921-1.008-1.652-1.237zm19.36 3.517l-3.559 11.358-3.294-1.032 1.323-4.223c-1.107.179-2.237.087-3.391-.274-1.534-.481-2.588-1.19-3.16-2.127-.553-.946-.601-2.15-.142-3.615l1.118-3.567 3.294 1.032-1.052 3.356c-.216.69-.197 1.245.058 1.665.269.424.741.742 1.417.954.858.269 1.725.34 2.599.212l1.496-4.771 3.293 1.032zm12.411 10.173c-.013.042-.127.331-.341.866l-8.593-2.692a2.802 2.802 0 00.575 2.011c.449.589 1.103 1.019 1.962 1.288.591.185 1.138.264 1.642.236a4.114 4.114 0 001.552-.441l1.157 2.449c-1.454.889-3.208 1.012-5.263.368-1.28-.401-2.336-1.003-3.167-1.804-.827-.816-1.368-1.75-1.625-2.805-.257-1.054-.209-2.144.144-3.27.348-1.112.922-2.03 1.72-2.753a5.814 5.814 0 012.83-1.409c1.088-.215 2.202-.144 3.342.213 1.112.348 2.043.903 2.794 1.664a5.394 5.394 0 011.462 2.73c.243 1.05.18 2.166-.191 3.349zm-4.825-5.245c-.746-.234-1.438-.22-2.077.044s-1.13.744-1.472 1.44l5.595 1.753c.112-.753-.019-1.42-.393-2-.37-.596-.921-1.008-1.653-1.237zm15.464 3.153c1.083.34 1.963.863 2.638 1.57a4.725 4.725 0 011.297 2.446c.199.943.133 1.943-.198 2.998-.34 1.084-.909 1.964-1.709 2.641-.781.668-1.716 1.086-2.804 1.255-1.084.154-2.225.044-3.421-.331-1.984-.622-3.348-1.745-4.091-3.369-.725-1.633-.701-3.682.071-6.145.714-2.28 1.776-3.941 3.185-4.983 1.427-1.052 3.234-1.468 5.421-1.246l5.742.617-.443 2.968-5.069-.545c-1.374-.153-2.471-.032-3.289.36-.805.397-1.433 1.12-1.886 2.168a5.13 5.13 0 012.158-.668 5.95 5.95 0 012.398.264zm-3.375 8.031c.844.265 1.606.202 2.285-.188.692-.385 1.171-1.001 1.436-1.845.269-.859.222-1.623-.14-2.293-.348-.665-.944-1.13-1.788-1.395-.859-.269-1.628-.232-2.307.112-.68.343-1.154.944-1.423 1.803-.269.858-.222 1.646.14 2.362.368.703.966 1.184 1.797 1.444zm11.259-6.417l3.272 1.025-1.389 4.434 4.94 1.548 1.389-4.434 3.294 1.032-3.56 11.359-3.293-1.033 1.329-4.243-4.94-1.548-1.33 4.243-3.272-1.025 3.56-11.358zm19.124 5.808c1.759.551 2.978 1.397 3.656 2.537.683 1.126.76 2.533.23 4.222l-2.031 6.481-3.082-.966.443-1.414c-.95.861-2.27 1.027-3.958.498-.873-.273-1.587-.659-2.142-1.158-.54-.494-.898-1.054-1.073-1.681a3.338 3.338 0 01.05-1.932c.33-1.056.985-1.763 1.963-2.121.991-.354 2.318-.27 3.979.25l2.617.821c.225-.718.179-1.335-.138-1.852-.313-.531-.905-.933-1.778-1.207a5.922 5.922 0 00-1.887-.266 4.809 4.809 0 00-1.716.296l-.461-2.671c.756-.242 1.601-.349 2.534-.319.948.034 1.879.195 2.794.482zm-3.224 9.399c.563.177 1.102.207 1.618.09.52-.131.951-.421 1.292-.87l.364-1.161-2.259-.708c-1.351-.423-2.165-.192-2.443.695-.132.422-.077.811.168 1.165.263.346.683.609 1.26.789zm21.591-3.458l-3.559 11.359-2.935-.92 1.019-3.251-2.428-.761-3.172 2.576-3.505-1.098 3.761-2.902c-.691-.557-1.157-1.19-1.398-1.899-.223-.719-.205-1.494.056-2.324.419-1.337 1.219-2.215 2.401-2.633 1.201-.427 2.646-.376 4.335.153l5.425 1.7zm-6.202 1.001c-.704-.22-1.279-.261-1.724-.123-.431.143-.735.496-.912 1.059-.176.563-.137 1.031.117 1.405.272.363.76.655 1.464.876l2.47.774 1.012-3.23-2.427-.761zm25.364 14.511l-1.614 5.151-3.061-.959.767-2.449-7.98-2.501-.768 2.449-3.061-.96 1.614-5.151.465.146c.708.206 1.324-.057 1.847-.789.523-.733 1.056-1.841 1.598-3.325l1.379-3.881 9.901 3.104-2.712 8.655 1.625.51zm-7.289-7.223c-.404 1.141-.791 2.055-1.161 2.743-.356.692-.776 1.171-1.261 1.436l4.792 1.502 1.866-5.953-3.716-1.165-.52 1.437zm13.782 12.411c-1.196-.375-2.196-.959-2.998-1.751a5.93 5.93 0 01-1.562-2.785c-.257-1.054-.209-2.144.144-3.27s.935-2.049 1.748-2.768a5.782 5.782 0 012.865-1.374c1.116-.207 2.272-.123 3.469.252 1.196.375 2.186.964 2.97 1.766a5.775 5.775 0 011.569 2.764c.257 1.054.209 2.144-.144 3.27s-.936 2.048-1.749 2.768a5.932 5.932 0 01-2.871 1.395c-1.098.197-2.245.108-3.441-.267zm.847-2.702c.844.264 1.622.199 2.334-.196.729-.405 1.244-1.086 1.544-2.043.3-.957.264-1.804-.109-2.539-.354-.744-.953-1.249-1.797-1.514-.845-.264-1.632-.194-2.362.211-.725.391-1.238 1.065-1.538 2.022-.3.957-.265 1.81.103 2.559.372.735.981 1.235 1.825 1.5zm16.714 1.528c.609.423 1.028.91 1.258 1.461.243.555.27 1.136.08 1.741a2.891 2.891 0 01-1.334 1.668c-.661.381-1.466.584-2.417.611-.952.026-1.969-.13-3.053-.47a13.15 13.15 0 01-2.532-1.095 10.428 10.428 0 01-2.127-1.571l1.608-2.023c1.015.952 2.248 1.655 3.697 2.109.774.243 1.415.32 1.922.232.525-.099.854-.359.986-.781.115-.366.046-.689-.206-.969-.248-.294-.667-.534-1.259-.719l-2.322-.728.642-2.048 2.027.636c.577.181 1.049.228 1.416.142.367-.086.605-.305.716-.657.114-.366.006-.709-.327-1.029-.318-.317-.836-.587-1.554-.812-1.098-.344-2.376-.459-3.834-.344l-.087-2.531c1.792-.196 3.434-.06 4.926.408 1.028.322 1.903.735 2.626 1.24.737.509 1.26 1.083 1.57 1.721.315.624.37 1.26.168 1.907-.168.535-.482.97-.943 1.305-.456.321-1.005.519-1.647.596zm10.7-2.814c1.759.552 2.978 1.398 3.657 2.538.682 1.125.759 2.533.23 4.222l-2.032 6.481-3.082-.966.443-1.414c-.95.861-2.269 1.027-3.958.498-.873-.274-1.586-.659-2.141-1.158-.541-.494-.899-1.054-1.073-1.681a3.338 3.338 0 01.049-1.932c.331-1.056.985-1.763 1.963-2.121.992-.354 2.318-.27 3.979.25l2.618.821c.225-.718.179-1.335-.139-1.852-.312-.531-.905-.933-1.778-1.207a5.922 5.922 0 00-1.887-.266 4.817 4.817 0 00-1.716.296l-.461-2.671c.756-.243 1.601-.349 2.534-.319.948.034 1.879.195 2.794.481zm-3.224 9.4c.563.177 1.102.207 1.618.09.52-.131.951-.421 1.293-.87l.364-1.161-2.259-.708c-1.351-.424-2.166-.192-2.444.695a1.28 1.28 0 00.168 1.165c.263.345.683.608 1.26.789z" fill="#fff"/><path d="M180.048 108.718c1.008.713 1.683 1.541 2.024 2.482.359.947.363 1.982.011 3.104-.527 1.683-1.605 2.806-3.232 3.369-1.604.551-3.609.449-6.015-.305l-9.745-3.054 5.955-19.001 9.229 2.892c2.28.715 3.908 1.702 4.884 2.962 1.001 1.248 1.254 2.658.761 4.233-.29.923-.771 1.666-1.445 2.23-.655.57-1.464.932-2.427 1.088zm-8.091-4.146l3.42 1.072c1.52.476 2.476.09 2.867-1.158.391-1.249-.173-2.112-1.693-2.588l-3.42-1.072-1.174 3.746zm1.869 8.873c1.557.488 2.542.071 2.956-1.25.402-1.285-.174-2.171-1.731-2.659l-4.234-1.327-1.225 3.909 4.234 1.327zm15.419-11.802l5.293 1.659-3.497 11.156 11.341-8.697 5.049 1.582-5.955 19.001-5.293-1.659 3.488-11.129-11.305 8.679-5.076-1.591 5.955-19.001zm36.24 16.038l-5.809-1.82-4.619 14.739-5.294-1.659 4.62-14.739-5.836-1.829 1.335-4.262 16.938 5.309-1.335 4.261zm11.171 15.634l-8.035-2.518-2.649 3.224-5.484-1.719 14.343-16.372 5.293 1.659 2.46 21.638-5.592-1.753-.336-4.159zm-.332-4.456l-.538-6.846-4.348 5.314 4.886 1.532zm25.565 16.418l3.129-10.079-7.455 6.667-2.389-.749-2.385-9.512-3.088 9.854-4.94-1.549 5.955-19 4.424 1.386 3.241 13.059 9.951-8.924 4.425 1.386-5.901 19.018-4.967-1.557zm14.963-16.177l5.293 1.659-3.496 11.156 11.341-8.698 5.049 1.583-5.955 19-5.293-1.659 3.488-11.129-11.306 8.679-5.075-1.59 5.954-19.001zm40.345 12.644l-5.955 19.001-5.375-1.685 2.323-7.41-7.329-2.297-2.323 7.41-5.374-1.684 5.955-19.001 5.374 1.685-2.237 7.139 7.329 2.296 2.237-7.138 5.375 1.684zm7.346 23.587c-2.009-.63-3.685-1.622-5.029-2.978-1.326-1.349-2.215-2.92-2.667-4.711-.434-1.785-.357-3.619.233-5.501.59-1.882 1.573-3.432 2.948-4.651 1.394-1.212 3.02-1.994 4.879-2.346 1.877-.346 3.82-.204 5.829.426 2.008.629 3.676 1.619 5.002 2.969 1.344 1.355 2.233 2.925 2.667 4.711.452 1.791.383 3.627-.207 5.509-.59 1.882-1.581 3.43-2.975 4.642-1.375 1.219-3.002 2.001-4.879 2.347-1.859.351-3.793.212-5.801-.417zm1.395-4.452c.959.301 1.898.347 2.818.138a5.137 5.137 0 002.442-1.322c.713-.69 1.237-1.569 1.571-2.637.335-1.068.404-2.079.207-3.036-.192-.974-.606-1.809-1.242-2.505-.637-.697-1.434-1.195-2.393-1.496-.959-.3-1.899-.346-2.819-.138-.92.209-1.736.658-2.45 1.349-.707.673-1.228 1.543-1.563 2.61-.335 1.068-.406 2.089-.215 3.063a5.148 5.148 0 001.251 2.479c.636.696 1.434 1.194 2.393 1.495zm29.113 2.685c1.009.714 1.683 1.541 2.024 2.483.359.947.363 1.982.011 3.104-.527 1.682-1.604 2.806-3.232 3.369-1.603.55-3.608.449-6.015-.306l-9.745-3.054 5.955-19 9.229 2.892c2.28.715 3.908 1.702 4.885 2.962 1 1.247 1.253 2.658.76 4.233-.289.923-.771 1.666-1.444 2.23-.656.57-1.465.932-2.428 1.087zm-8.091-4.145l3.42 1.072c1.521.476 2.476.09 2.868-1.159.391-1.248-.174-2.111-1.694-2.587l-3.42-1.072-1.174 3.746zm1.87 8.873c1.556.488 2.541.071 2.955-1.25.403-1.285-.174-2.171-1.73-2.659l-4.235-1.327-1.225 3.909 4.235 1.327z" fill="#F2C94C"/></g><path d="M67.099 108.905c54.49-29.862 57.854-58.573 58.671-61.18l-18.263 136.811c-16.582 22.47-28.457 12.261-25.353 2.358 13.797-44.023-2.911-65.597-15.055-77.989z" fill="#E60074"/><defs><linearGradient id="paint0_linear_625_2685" x1="207.184" y1="192.245" x2="272.472" y2="216.433" gradientUnits="userSpaceOnUse"><stop stop-color="#B8005D"/><stop offset="1" stop-color="#FF64B2"/></linearGradient><clipPath id="clip0_625_2685"><path d="M122.635 55.903c5.774-18.424 25.391-28.679 43.815-22.905l231.425 72.53c18.423 5.774 28.678 25.39 22.904 43.813l-40.251 128.43c-5.774 18.424-25.391 28.679-43.815 22.905l-231.425-72.53c-18.423-5.774-28.678-25.39-22.904-43.813l40.251-128.43z" fill="#fff"/></clipPath></defs></svg>