<svg width="744" height="1117" fill="none" xmlns="http://www.w3.org/2000/svg"><g clip-path="url(#clip0_625_3070)" fill="#F2F2F2"><path d="M501.01 713.312a731.127 731.127 0 01-149.422 103.804A716.665 716.665 0 00501.01 713.312z"/><path d="M332.985 856.365c9.567-12.054 50.957-59.169 143.339-113.497-92.413 54.497-133.064 101.398-143.339 113.497zm18.685-40.633c-11.551 5.741-23.609 11.388-35.743 16.497 12.855-4.276 24.036-9.91 35.743-16.497z"/><path d="M501.011 713.312a716.67 716.67 0 01-149.465 103.096c-11.582 5.91-23.442 11.42-35.607 16.697a62.442 62.442 0 0117.046 23.26c9.768-12.192 50.925-59 144.353-113.31 9.597-5.576 19.565-11.26 30.239-16.988a25.955 25.955 0 01-6.566-12.755zM233.313 831.685A643.998 643.998 0 0178.745 675.143 47.472 47.472 0 0158.12 698.8s69.77 30.359 163.967 144.459a68.773 68.773 0 0111.226-11.574zm395.072-412.701l.219-1.184a199.643 199.643 0 01-70.69 16.349 200.658 200.658 0 0070.471-15.165z"/><path d="M558.778 439.905l-.187 1.015a244.512 244.512 0 0172.17-12.053l.188-1.014a247.76 247.76 0 00-72.171 12.052z"/><path d="M628.421 423.538a12.88 12.88 0 01.811-4.398 200.677 200.677 0 01-70.458 16.042c.398 1.25.688 2.533.866 3.833.018.348-.046.696-.187 1.015a247.79 247.79 0 0172.171-12.053 29.16 29.16 0 01-3.203-4.439zM280.707 1016.56a195.89 195.89 0 01-11.167-65.549 174.634 174.634 0 0010.258 65.739l.909-.19z"/><path d="M265.445 945.709l-1.013-.187a240.855 240.855 0 014.027 72.978l-.374 2.03 1.802-1.24a24.241 24.241 0 018.296-2.32c-3.032-.28-6.085.24-8.848 1.52a241.922 241.922 0 00-3.89-72.781zm4.094 5.302c.281-1.522.561-3.044.027-4.892l-.027 4.892z"/><path d="M265.445 945.709a241.891 241.891 0 014.059 72.811 17.159 17.159 0 018.848-1.51l1.691.31a174.655 174.655 0 01-10.259-65.739l-.142-4.924-4.197-.948zm-3.694-197.111l-1.014-.187a201.308 201.308 0 018.283 68.871 200.624 200.624 0 00-7.269-68.684z"/><path d="M274.25 817.371l1.014.187a246.901 246.901 0 01-3.587-70.627l-.846-.157a240.895 240.895 0 003.419 70.597zm235.861-485.268l2.109-1.01a17.2 17.2 0 005.679-27.507 17.188 17.188 0 00-20.113-3.709 17.2 17.2 0 00-4.507 27.722 15.474 15.474 0 009.741 4.071c1.641.13 3.292.083 4.923-.142l2.168.575z"/><path d="M513.066 331.249l-2.957.854-1.352-.249a16.161 16.161 0 01-4.923.141l-2.198-.405-2.368-.437.733 1.71a180.144 180.144 0 015.087 73.877l1.014.187a180.82 180.82 0 00-5.086-73.877c3.536.994 7.309.697 10.646-.836a242.794 242.794 0 00-1.19 73.77l1.016.188a237.783 237.783 0 011.265-73.231l.313-1.692z"/><path d="M503.741 332.503c1.638.205 3.299.157 4.923-.141a22.897 22.897 0 01-4.923.141zm7.337-.921l2.957-.854-2.957.854zm.522.971a15.478 15.478 0 01-10.646.835 180.822 180.822 0 015.085 73.878l4.371-.944a242.755 242.755 0 011.19-73.769zm22.276 352.362c-.888-7.51-6.958-57.08-7.357-117.499l-6.729-3.34a1039.76 1039.76 0 01-6.885 123.618 25.275 25.275 0 0118.16-3.647l2.811.868zm-13.065-201.287a20.547 20.547 0 01-3.382-.624c.386 5.494 2.016 28.884 2.346 62.178l6.578 2.263c.054-21.155.466-43.293 2.029-65.044a22.302 22.302 0 01-4.709.88l-2.706-.499-.156.846zm125.333 148.178l-8.033-4.805a538.503 538.503 0 01-92.291 67.114 22.526 22.526 0 014.791 9.104 526.127 526.127 0 0195.533-71.413zM303.21 692.575a6.365 6.365 0 003.021 3.532 93.195 93.195 0 00-24.487 18.047l.859 1.033a92.887 92.887 0 0124.149-18.11l1.539-.765a10.658 10.658 0 01-4.511-3.981 6.728 6.728 0 01-.672-2.047l-.343 1.86a74.152 74.152 0 01-22.338 19.669l-.156.845a73.774 73.774 0 0022.939-20.083z"/><path d="M308.291 696.312l-2.535-.468a5.507 5.507 0 01-2.27-2.868l-1.04-1.94c.112.714.338 1.405.67 2.047a10.654 10.654 0 005.175 3.229zm55.22 216.407a10.834 10.834 0 0011.089 10.485 10.833 10.833 0 0010.571-11.009 10.83 10.83 0 00-5.516-9.267 10.316 10.316 0 00-15.877 7.392l-.267 2.399z"/><path d="M336.509 897.944a111.177 111.177 0 0027.078 8.667 7.571 7.571 0 00-.811 4.399 111.613 111.613 0 00-26.443-11.175l-.188 1.016a118.716 118.716 0 0126.308 10.973l1.352.25c.054-.804.201-1.599.437-2.369a9.45 9.45 0 01.748-4.059l-2.368-.437a106.972 106.972 0 01-25.051-8.294l-1.062 1.029z"/><path d="M363.035 912.456l.343-1.86c-.17.608-.285 1.231-.343 1.86zm.552-5.845a111.17 111.17 0 01-27.079-8.667 7.452 7.452 0 00-.343 1.861 111.534 111.534 0 0126.443 11.174 7.568 7.568 0 01.979-4.368zM188.522 1048.02l-5.127-4.45c-.416 6.05 5.127 4.45 5.127 4.45z"/><path d="M232.781 931.289c-1.498 8.119-9.96 33.146-71.45 102.961 8.363.94 16.26 4.34 22.678 9.78-.501-8.66 9.621-33.2 62.424-104.276a57.742 57.742 0 01-10.581-6.149l-3.071-2.316zm157.351 132.921a398.99 398.99 0 00-84.322-125.925 395.58 395.58 0 0184.322 125.925 20.536 20.536 0 017.626-4.37c-2.91.69-5.559 2.21-7.626 4.37z"/><path d="M399.849 1059.88a502.281 502.281 0 01-67.775-106.606 489.91 489.91 0 0067.775 106.606zm.138.2l-2.029-.38c.689.05 1.37.17 2.029.38zm-67.712-106.944a437.183 437.183 0 01-11.236-27.26c3.313 9.532 7.259 18.48 11.236 27.26z"/><path d="M305.471 938.222a399.072 399.072 0 0184.322 125.918 15.447 15.447 0 017.902-3.96l2.029.37a489.771 489.771 0 01-67.743-106.769c-3.977-8.78-7.924-17.728-11.437-27.122a62.941 62.941 0 01-15.073 11.563zM595.006 257.68a36.96 36.96 0 01-16.007-8.026c2.21 7.929 5.429 42.632-51.327 156.004a41.447 41.447 0 0115.348 6.853c1.871-10.15 8.516-64.197 63.429-154.296-3.474.415-6.99.298-10.428-.348l-1.015-.187zm13.644-77.77l1.013.187a180.162 180.162 0 015.417-54.974l-1.014-.187a183.237 183.237 0 00-5.416 54.974z"/><path d="M607.19 125.242l-1.016-.187a162.767 162.767 0 01-2.522 54.457l1.013.187a166.55 166.55 0 002.525-54.457z"/><path d="M614.004 125.275a27.355 27.355 0 01-6.814-.033 166.523 166.523 0 01-2.525 54.457l3.892.718a183.247 183.247 0 015.447-55.142z"/><path d="M277.649 820.752l-.284-.052-.288-.011a61.278 61.278 0 00-60.116 40.785 61.295 61.295 0 00-.881 38.224 61.277 61.277 0 0021.941 31.304 57.994 57.994 0 0024.671 10.745l.995.183.004.001a61.076 61.076 0 0039.714-6.037 61.115 61.115 0 008.259-102.833 59.016 59.016 0 00-33.273-12.172l-.742-.137z" stroke="#fff" stroke-width="8"/><path d="M542.995 721.754a20.816 20.816 0 00-3.243-30.195 20.819 20.819 0 00-7.638-3.612 20.807 20.807 0 00-22.28 8.802 20.811 20.811 0 00-4.916 15.801 20.808 20.808 0 008.161 14.394 20.8 20.8 0 0023.939.783 20.803 20.803 0 005.977-5.973zm-30.066-307.272l-2.425-2.021a3.62 3.62 0 00-2.03-.374 35.434 35.434 0 00-16.182 11.883 34.677 34.677 0 004.105 48.858 34.656 34.656 0 0048.847-4.11l-9.603-3.87a13.408 13.408 0 005.36-9.156l9.231 5.9a34.41 34.41 0 003.494-18.946 34.412 34.412 0 00-13.526-25.668 34.395 34.395 0 00-28.34-6.191l1.069 3.695z"/><path d="M535.641 464.849l9.727 3.193 2.591-2.67 2.273-3.78-9.231-5.9a13.406 13.406 0 01-5.36 9.157zm129.177-36.698a17.283 17.283 0 00-5.216-23.876 17.271 17.271 0 00-23.869 5.219 17.204 17.204 0 00-2.246 12.179l.608 2.387 1.118 2.48 1.441 1.665a15.303 15.303 0 004.756 4.55 17.197 17.197 0 0023.408-4.604zm-29.53-1.073c.321.8.704 1.572 1.147 2.311l-1.147-2.311zm-1.53-3.08l-.611-2.387.611 2.387zm-372.007 324.6a200.602 200.602 0 018.115 68.84l4.384-.067a240.891 240.891 0 01-3.606-69.582 24.579 24.579 0 01-8.893.809zm42.601-56.512a5.496 5.496 0 002.268 2.867l2.537.468a10.659 10.659 0 0010.489.011 11.186 11.186 0 005.297-6.718 11.174 11.174 0 00-16.213-12.787 10.663 10.663 0 00-4.663 12.958l.285 3.201zm1.879 4.021a6.364 6.364 0 01-3.02-3.532 73.792 73.792 0 01-22.77 20.114l1.303 1.465a93.228 93.228 0 0124.487-18.047zm-34.032 45.148a15.64 15.64 0 005.164-4.295 17.212 17.212 0 002.048-18.688l-1.327 1.504-2.286-1.82.374-2.03-1.692-.312 1.942-1.042-.998-1.233a17.199 17.199 0 00-17.069-2.68 17.203 17.203 0 00-9.749 22.396 17.2 17.2 0 0013.589 10.672c3.005.422 6.069.04 8.879-1.106l1.125-1.366zm-.125.677l-1.802 1.242 1.802-1.242z"/><path d="M275.37 716.477l-.374 2.03 2.287 1.822 1.326-1.506a17.213 17.213 0 00-3.542-4.5l-1.94 1.042 2.243 1.112zm336.127-531.145l-1.352-.25-.187 1.016-.998-1.234a34.404 34.404 0 00-6.088-1.123 34.392 34.392 0 00-32.754 26.844 34.41 34.41 0 00-.475 11.107 660.872 660.872 0 0061.559-24.68 34.39 34.39 0 00-19.705-11.68zm-15.449 67.642a34.397 34.397 0 0042.302-29.003 34.408 34.408 0 00-2.879-18.825c-24.089 6.402-46.104 13.887-65.457 21.162a34.399 34.399 0 0026.034 26.666z"/><path d="M610.145 185.082l-1.016-.187.995 1.234.021-1.047zm21.525-80.688a20.835 20.835 0 00-2.68-15.716 20.824 20.824 0 00-37.934 6.477 20.844 20.844 0 008.266 21.618 20.845 20.845 0 0015.544 3.536 20.82 20.82 0 0013.49-8.493 20.845 20.845 0 003.314-7.422zM287.087 1043.46a12.61 12.61 0 001.703-9.49 12.578 12.578 0 00-5.505-7.92 12.621 12.621 0 00-9.488-1.7 12.56 12.56 0 00-7.912 5.51 12.522 12.522 0 00-1.637 8.87l.443 1.74.815 1.81 1.051 1.21a11.077 11.077 0 003.467 3.32c2.725 1.76 6.025 2.39 9.207 1.76a12.534 12.534 0 007.856-5.11zm126 39a12.61 12.61 0 001.703-9.49 12.578 12.578 0 00-5.505-7.92 12.621 12.621 0 00-9.488-1.7 12.56 12.56 0 00-7.912 5.51 12.522 12.522 0 00-1.637 8.87l.443 1.74.815 1.81 1.051 1.21a11.077 11.077 0 003.467 3.32c2.725 1.76 6.025 2.39 9.207 1.76a12.534 12.534 0 007.856-5.11z"/></g><defs><clipPath id="clip0_625_3070"><path fill="#fff" transform="rotate(10.449 91.631 1022.324)" d="M0 0h566.122v1030.7H0z"/></clipPath></defs></svg>