<svg width="744" height="1144" fill="none" xmlns="http://www.w3.org/2000/svg"><path d="M67.415 684.097a17.282 17.282 0 00-5.216-23.875 17.272 17.272 0 00-23.869 5.219 17.204 17.204 0 00-2.246 12.179l.608 2.386 1.118 2.48 1.441 1.665a15.303 15.303 0 004.756 4.55 17.197 17.197 0 0023.408-4.604zm111 382.003a17.288 17.288 0 00-5.216-23.88 17.28 17.28 0 00-13.015-2.33c-4.477.97-8.38 3.69-10.854 7.55a17.208 17.208 0 00-2.246 12.18l.608 2.39 1.118 2.48 1.441 1.66a15.19 15.19 0 004.756 4.55 17.184 17.184 0 0012.631 2.42 17.229 17.229 0 0010.777-7.02zm232.249 23.97a200.574 200.574 0 0155.402 41.65l2.979-3.22a240.602 240.602 0 01-52.826-45.43 24.745 24.745 0 01-5.555 7z" fill="#F2F2F2"/><g clip-path="url(#clip0_747_2591)" fill="#F2F2F2"><path d="M501.01 712.977a731.127 731.127 0 01-149.422 103.804A716.665 716.665 0 00501.01 712.977z"/><path d="M332.985 856.029c9.567-12.054 50.957-59.169 143.339-113.496-92.413 54.496-133.064 101.398-143.339 113.496zm18.685-40.632c-11.551 5.74-23.609 11.388-35.743 16.496 12.855-4.276 24.036-9.91 35.743-16.496z"/><path d="M501.011 712.977a716.747 716.747 0 01-149.465 103.096c-11.582 5.91-23.442 11.419-35.607 16.697a62.439 62.439 0 0117.046 23.259c9.768-12.192 50.925-59 144.353-113.309 9.597-5.577 19.565-11.261 30.239-16.988a25.963 25.963 0 01-6.566-12.755zM233.313 831.35A644.016 644.016 0 0178.745 674.808a47.477 47.477 0 01-20.625 23.657s69.77 30.359 163.967 144.458a68.805 68.805 0 0111.226-11.573zm395.072-412.701l.219-1.185a199.643 199.643 0 01-70.69 16.349 200.657 200.657 0 0070.471-15.164z"/><path d="M558.778 439.57l-.187 1.015a244.48 244.48 0 0172.17-12.053l.188-1.015a247.728 247.728 0 00-72.171 12.053z"/><path d="M628.421 423.202a12.87 12.87 0 01.811-4.397 200.653 200.653 0 01-70.458 16.041c.398 1.251.688 2.533.866 3.834.018.348-.046.695-.187 1.014a247.79 247.79 0 0172.171-12.053 29.11 29.11 0 01-3.203-4.439zM280.707 1016.23a195.945 195.945 0 01-11.167-65.554 174.599 174.599 0 0010.258 65.734l.909-.18z"/><path d="M265.445 945.373l-1.013-.186a240.878 240.878 0 014.027 72.983l-.374 2.03 1.802-1.24a24.02 24.02 0 018.296-2.32c-3.032-.29-6.085.24-8.848 1.52a241.951 241.951 0 00-3.89-72.787zm4.094 5.303c.281-1.523.561-3.045.027-4.893l-.027 4.893z"/><path d="M265.445 945.374a241.915 241.915 0 014.059 72.816 17.165 17.165 0 018.848-1.52l1.691.31a174.616 174.616 0 01-10.259-65.734l-.142-4.924-4.197-.948zm-3.694-197.111l-1.014-.187a201.305 201.305 0 018.283 68.87 200.616 200.616 0 00-7.269-68.683z"/><path d="M274.25 817.035l1.014.187a246.9 246.9 0 01-3.587-70.627l-.846-.156a240.889 240.889 0 003.419 70.596zm235.861-485.267l2.109-1.011a17.199 17.199 0 0010.197-17.732 17.192 17.192 0 00-13.964-14.946 17.202 17.202 0 00-15.174 29.185 15.468 15.468 0 009.741 4.07c1.641.13 3.292.083 4.923-.141l2.168.575z"/><path d="M513.066 330.913l-2.957.854-1.352-.249a16.193 16.193 0 01-4.923.142l-2.198-.406-2.368-.437.733 1.71a180.146 180.146 0 015.087 73.877l1.014.187a180.814 180.814 0 00-5.086-73.876c3.536.993 7.309.697 10.646-.836a242.793 242.793 0 00-1.19 73.77l1.016.187a237.783 237.783 0 011.265-73.231l.313-1.692z"/><path d="M503.741 332.168c1.638.204 3.299.156 4.923-.142a22.897 22.897 0 01-4.923.142zm7.337-.921l2.957-.855-2.957.855zm.522.97a15.472 15.472 0 01-10.646.835 180.825 180.825 0 015.085 73.878l4.371-.944a242.755 242.755 0 011.19-73.769zm22.276 352.362c-.888-7.51-6.958-57.08-7.357-117.499l-6.729-3.34a1039.747 1039.747 0 01-6.885 123.618 25.28 25.28 0 0118.16-3.646l2.811.867zm-13.065-201.287a20.65 20.65 0 01-3.382-.623c.386 5.493 2.016 28.883 2.346 62.178l6.578 2.262c.054-21.154.466-43.293 2.029-65.043a22.365 22.365 0 01-4.709.88l-2.706-.499-.156.845zm125.333 148.179l-8.033-4.805a538.551 538.551 0 01-92.291 67.113 22.526 22.526 0 014.791 9.104 526.121 526.121 0 0195.533-71.412zM303.21 692.24a6.367 6.367 0 003.021 3.531 93.176 93.176 0 00-24.487 18.048l.859 1.033a92.865 92.865 0 0124.149-18.11l1.539-.766a10.662 10.662 0 01-4.511-3.98 6.733 6.733 0 01-.672-2.048l-.343 1.86a74.125 74.125 0 01-22.338 19.669l-.156.846a73.787 73.787 0 0022.939-20.083z"/><path d="M308.291 695.976l-2.535-.468a5.508 5.508 0 01-2.27-2.867l-1.04-1.941a6.72 6.72 0 00.67 2.048 10.66 10.66 0 005.175 3.228zm55.22 216.407c.06 1.891.616 3.734 1.61 5.344a10.826 10.826 0 0014.834 3.574 10.834 10.834 0 005.216-9.441 10.827 10.827 0 00-5.516-9.268 10.314 10.314 0 00-13.982 2.578 10.329 10.329 0 00-1.895 4.814l-.267 2.399z"/><path d="M336.509 897.608a111.222 111.222 0 0027.078 8.668 7.57 7.57 0 00-.811 4.398 111.569 111.569 0 00-26.443-11.174l-.188 1.016a118.62 118.62 0 0126.308 10.973l1.352.249c.054-.803.201-1.598.437-2.368a9.457 9.457 0 01.748-4.06l-2.368-.437a106.923 106.923 0 01-25.051-8.293l-1.062 1.028z"/><path d="M363.035 912.121l.343-1.861c-.17.609-.285 1.231-.343 1.861zm.552-5.845a111.216 111.216 0 01-27.079-8.668 7.46 7.46 0 00-.343 1.861 111.575 111.575 0 0126.443 11.174 7.563 7.563 0 01.979-4.367zM188.522 1047.68l-5.127-4.44c-.416 6.04 5.127 4.44 5.127 4.44z"/><path d="M232.781 930.953c-1.498 8.12-9.96 33.146-71.45 102.967 8.363.93 16.26 4.34 22.678 9.78-.501-8.66 9.621-33.21 62.424-104.282a57.742 57.742 0 01-10.581-6.149l-3.071-2.316zm157.351 132.917a398.973 398.973 0 00-84.322-125.921 395.575 395.575 0 0184.322 125.921 20.536 20.536 0 017.626-4.37c-2.91.69-5.559 2.21-7.626 4.37z"/><path d="M399.849 1059.54a502.23 502.23 0 01-67.775-106.602 489.884 489.884 0 0067.775 106.602zm.138.2l-2.029-.37c.689.04 1.37.17 2.029.37zM332.275 952.8a436.932 436.932 0 01-11.236-27.26c3.313 9.532 7.259 18.481 11.236 27.26z"/><path d="M305.471 937.887a398.981 398.981 0 0184.322 125.923 15.54 15.54 0 017.902-3.97l2.029.38a490.048 490.048 0 01-67.743-106.775c-3.977-8.779-7.924-17.728-11.437-27.122a62.971 62.971 0 01-15.073 11.564zm289.535-680.543a36.969 36.969 0 01-16.007-8.025c2.21 7.929 5.429 42.631-51.327 156.003a41.447 41.447 0 0115.348 6.853c1.871-10.149 8.516-64.197 63.429-154.295-3.474.414-6.99.297-10.428-.349l-1.015-.187zm13.644-77.77l1.013.187a180.162 180.162 0 015.417-54.974l-1.014-.187a183.24 183.24 0 00-5.416 54.974z"/><path d="M607.19 124.907l-1.016-.188a162.765 162.765 0 01-2.522 54.457l1.013.187a166.544 166.544 0 002.525-54.456z"/><path d="M614.004 124.939a27.307 27.307 0 01-6.814-.032 166.523 166.523 0 01-2.525 54.457l3.892.717c-.99-18.55.847-37.143 5.447-55.142z"/><path d="M277.649 820.417l-.284-.052-.288-.011a61.25 61.25 0 00-36.751 10.521 61.285 61.285 0 00-24.246 68.488 61.275 61.275 0 0021.941 31.303 57.981 57.981 0 0024.671 10.745l.995.184.004.001a61.083 61.083 0 0039.714-6.038 61.11 61.11 0 0030.597-69.458 61.097 61.097 0 00-22.338-33.374 59.009 59.009 0 00-33.273-12.172l-.742-.137z" stroke="#fff" stroke-width="8"/><path d="M542.995 721.419a20.824 20.824 0 002.329-23.845 20.814 20.814 0 00-21.655-10.239 20.809 20.809 0 00-13.835 9.078 20.824 20.824 0 00-2.329 23.844 20.812 20.812 0 0021.655 10.238 20.812 20.812 0 0013.835-9.076zm-30.066-307.272l-2.425-2.021a3.612 3.612 0 00-2.03-.375 35.44 35.44 0 00-16.182 11.883 34.677 34.677 0 00-8.062 25.281 34.655 34.655 0 0061.014 19.468l-9.603-3.87a13.412 13.412 0 005.36-9.157l9.231 5.9a34.41 34.41 0 003.494-18.946 34.407 34.407 0 00-27.01-31.897 34.386 34.386 0 00-14.856.038l1.069 3.696z"/><path d="M535.641 464.513l9.727 3.194 2.591-2.671 2.273-3.779-9.231-5.9a13.407 13.407 0 01-5.36 9.156zm129.177-36.698a17.281 17.281 0 00-18.231-26.211 17.28 17.28 0 00-10.854 7.555 17.202 17.202 0 00-2.246 12.179l.608 2.386 1.118 2.48 1.441 1.665a15.303 15.303 0 004.756 4.55 17.197 17.197 0 0023.408-4.604zm-29.53-1.073c.321.8.704 1.572 1.147 2.311l-1.147-2.311zm-1.53-3.08l-.611-2.386.611 2.386zM261.751 748.263a200.596 200.596 0 018.115 68.839l4.384-.067a240.886 240.886 0 01-3.606-69.581 24.6 24.6 0 01-8.893.809zm42.601-56.512a5.5 5.5 0 002.268 2.867l2.537.468a10.658 10.658 0 0010.489.01 11.171 11.171 0 005.64-11.065 11.176 11.176 0 00-8.062-9.445 11.174 11.174 0 00-8.494 1.006 10.668 10.668 0 00-4.663 12.958l.285 3.201zm1.879 4.02a6.362 6.362 0 01-3.02-3.531 73.792 73.792 0 01-22.77 20.114l1.303 1.465a93.209 93.209 0 0124.487-18.048zm-34.032 45.148a15.64 15.64 0 005.164-4.295 17.212 17.212 0 002.048-18.688l-1.327 1.504-2.286-1.82.374-2.03-1.692-.312 1.942-1.041-.998-1.234a17.19 17.19 0 00-17.069-2.679 17.202 17.202 0 003.84 33.068c3.005.421 6.069.039 8.879-1.107l1.125-1.366zm-.125.677l-1.802 1.242 1.802-1.242z"/><path d="M275.37 716.142l-.374 2.03 2.287 1.821 1.326-1.505a17.201 17.201 0 00-3.542-4.501l-1.94 1.042 2.243 1.113zm336.127-531.146l-1.352-.249-.187 1.016-.998-1.235a34.401 34.401 0 00-6.088-1.122 34.39 34.39 0 00-32.754 26.843 34.412 34.412 0 00-.475 11.107 660.59 660.59 0 0061.559-24.679 34.39 34.39 0 00-19.705-11.681zm-15.449 67.642a34.378 34.378 0 0019.024-.762 34.404 34.404 0 0023.278-28.241 34.41 34.41 0 00-2.879-18.825c-24.089 6.402-46.104 13.887-65.457 21.163a34.39 34.39 0 0026.034 26.665z"/><path d="M610.145 184.747l-1.016-.187.995 1.234.021-1.047zm21.525-80.688a20.835 20.835 0 00-2.68-15.716 20.824 20.824 0 00-37.934 6.477 20.845 20.845 0 008.266 21.618 20.826 20.826 0 0015.544 3.535 20.819 20.819 0 0013.49-8.493 20.84 20.84 0 003.314-7.421zM287.087 1043.12a12.603 12.603 0 001.703-9.49 12.584 12.584 0 00-5.505-7.91 12.58 12.58 0 00-9.488-1.71c-3.263.72-6.108 2.7-7.912 5.51a12.549 12.549 0 00-1.637 8.88l.443 1.74.815 1.8 1.051 1.22a11.305 11.305 0 003.467 3.32 12.587 12.587 0 009.207 1.76 12.548 12.548 0 007.856-5.12zm126 39a12.603 12.603 0 001.703-9.49 12.584 12.584 0 00-5.505-7.91 12.58 12.58 0 00-9.488-1.71c-3.263.72-6.108 2.7-7.912 5.51a12.549 12.549 0 00-1.637 8.88l.443 1.74.815 1.8 1.051 1.22a11.305 11.305 0 003.467 3.32 12.587 12.587 0 009.207 1.76 12.548 12.548 0 007.856-5.12z"/></g><defs><clipPath id="clip0_747_2591"><path fill="#fff" transform="rotate(10.449 93.466 1022.156)" d="M0 0h566.122v1030.7H0z"/></clipPath></defs></svg>