<svg width="320" height="174" fill="none" xmlns="http://www.w3.org/2000/svg"><g clip-path="url(#clip0_614_4100)"><path fill="#fff" d="M323-9v183H-10V-9z"/><path d="M114.875 132.642a236.305 236.305 0 01-41.736-41.415 231.622 231.622 0 0041.736 41.415z" fill="#F2F2F2"/><path d="M59.579 87.614c4.39 2.335 21.785 12.73 44.459 38.913-22.73-26.183-40.013-36.356-44.46-38.913zm14.005 3.558c-2.501-3.335-5.002-6.837-7.336-10.395 2.111 3.836 4.557 7.06 7.335 10.395z" fill="#F2F2F2"/><path d="M114.875 132.642a231.621 231.621 0 01-41.514-41.47 202.831 202.831 0 01-7.391-10.34 20.18 20.18 0 01-6.391 6.783c4.446 2.39 21.73 12.729 44.459 39.245 2.334 2.724 4.724 5.56 7.169 8.617a8.399 8.399 0 013.668-2.835zM61.58 54.483A208.186 208.186 0 01102.258-3.83 15.337 15.337 0 0193.534-9s-5.557 23.96-36.29 60.593a22.18 22.18 0 014.335 2.89zm154.273 101.395h.389a64.553 64.553 0 01-9.336-21.513 64.893 64.893 0 008.947 21.513z" fill="#F2F2F2"/><path d="M205.127 134.977h-.333a79.07 79.07 0 018.058 22.235h.334a80.14 80.14 0 00-8.059-22.235z" fill="#F2F2F2"/><path d="M214.408 156.156a4.174 4.174 0 011.445 0 64.876 64.876 0 01-9.225-21.458c-.374.2-.765.368-1.167.501a.725.725 0 01-.334 0 80.14 80.14 0 018.059 22.235 9.466 9.466 0 011.222-1.278zM5.616 80.388a63.288 63.288 0 0120.174-7.394A56.397 56.397 0 005.505 80.11l.111.279z" fill="#F2F2F2"/><path d="M27.234 71.382v-.333a77.786 77.786 0 01-22.951 5.559h-.668l.5.5a7.78 7.78 0 011.223 2.501 5.56 5.56 0 00-1-2.724 78.12 78.12 0 0022.896-5.503zm-1.444 1.612c.5 0 1 0 1.556-.278l-1.556.278z" fill="#F2F2F2"/><path d="M27.234 71.382a78.121 78.121 0 01-22.896 5.559 5.56 5.56 0 011 2.724v.556a56.397 56.397 0 0120.285-7.115l1.556-.334.055-1.39zm62.41-12.73v-.333a65.01 65.01 0 01-21.396 6.67 64.788 64.788 0 0021.396-6.337z" fill="#F2F2F2"/><path d="M68.526 66.657v.333a79.735 79.735 0 0122.23-5.28v-.279a77.787 77.787 0 00-22.23 5.226zm168.001 46.529l.445.611a5.56 5.56 0 006.231 2.202 5.553 5.553 0 003.93-5.315c0-1.19-.382-2.349-1.089-3.306a5.565 5.565 0 00-6.319-1.936 5.56 5.56 0 00-2.753 2.129 5.002 5.002 0 00-.723 3.335c.055.53.167 1.052.334 1.557l-.056.723z" fill="#F2F2F2"/><path d="M236.971 114.075l-.444-.89v-.444a5.23 5.23 0 01-.334-1.557v-1.501l-.5.333a58.185 58.185 0 01-23.175 5.949v.333a58.397 58.397 0 0023.175-5.948 5.004 5.004 0 00.889 3.335 78.415 78.415 0 00-23.508 3.947v.334a76.794 76.794 0 0123.341-3.891h.556z" fill="#F2F2F2"/><path d="M236.026 111.184a5.23 5.23 0 00.334 1.557 7.388 7.388 0 01-.334-1.557zm.723 2.279l.444.89-.444-.89zm-.278.223a5.012 5.012 0 01-.889-3.336 58.396 58.396 0 01-23.174 5.948l.555 1.334a78.388 78.388 0 0123.508-3.946zm-110.648 27.739c2.334-.723 17.728-5.559 36.901-9.228l.667-2.335a335.563 335.563 0 01-39.68 5.059 8.168 8.168 0 012.223 5.559l-.111.945zm63.188-15.954a6.66 6.66 0 010-1.112c-1.723.445-9.059 2.334-19.618 4.391l-.333 2.224c6.724-1.223 13.782-2.39 20.784-3.168a7.281 7.281 0 01-.555-1.446v-.889h-.278zM149.275 174l1.056-2.835a174.07 174.07 0 01-26.731-25.404 7.271 7.271 0 01-2.612 2.056A170.001 170.001 0 01149.275 174zM109.874 68.547a2.053 2.053 0 00-.945 1.167 30.15 30.15 0 00-7.169-6.726l-.278.334a30.016 30.016 0 017.169 6.615l.333.444a3.453 3.453 0 011-1.667c.185-.144.391-.257.612-.334h-.612a23.963 23.963 0 01-7.558-5.948h-.277a23.836 23.836 0 007.725 6.115z" fill="#F2F2F2"/><path d="M108.984 70.381v-.833c.151-.377.425-.69.778-.89l.556-.444a2.15 2.15 0 00-.611.333 3.44 3.44 0 00-.723 1.834zm-65.522 30.241a3.502 3.502 0 104.057 4.558 3.337 3.337 0 00-3.279-4.614l-.778.056z" fill="#F2F2F2"/><path d="M46.574 91.172a35.968 35.968 0 00-1.167 9.116 2.454 2.454 0 00-1.445 0 36.083 36.083 0 002.001-9.06h-.334a38.365 38.365 0 01-1.945 9.005v.445c.259-.03.52-.03.779 0a3.059 3.059 0 011.333 0V99.9a34.587 34.587 0 011.167-8.45l-.389-.278z" fill="#F2F2F2"/><path d="M43.518 100.455h.611a3.466 3.466 0 00-.61 0zm1.889-.167a35.95 35.95 0 011.168-9.116 2.386 2.386 0 00-.611 0 36.08 36.08 0 01-2.002 9.061c.477-.127.98-.109 1.445.055zM29.902 60.153c-2.667 0-11.115-1.223-36.901-16.677a13.679 13.679 0 01-1.778 7.783c2.723-.667 11.114 1.111 36.79 13.73a18.672 18.672 0 011.333-3.724l.556-1.112zm-33.011 57.813a128.942 128.942 0 0035.067-34.188 127.84 127.84 0 01-35.067 34.188 6.611 6.611 0 011.834 2.168 5 5 0 00-1.834-2.168z" fill="#F2F2F2"/><path d="M-1.164 120.801a162.293 162.293 0 0129.899-27.794A158.296 158.296 0 00-1.164 120.8zM28.79 93.062a141.394 141.394 0 018.004-5.17c-2.835 1.612-5.447 3.391-8.003 5.17z" fill="#F2F2F2"/><path d="M31.959 83.667A128.958 128.958 0 01-3.11 117.855a5.003 5.003 0 011.723 2.279v.667a158.312 158.312 0 0129.955-27.795c2.556-1.778 5.168-3.558 7.947-5.225a20.341 20.341 0 01-4.557-4.114zm233.188 52.143a11.963 11.963 0 011.612-5.559c-2.389 1.167-13.226 4.225-52.573-7.17a13.398 13.398 0 01-1.278 5.28c3.334 0 20.896-1.056 52.74 11.118a11.123 11.123 0 01-.501-3.335v-.334zm25.509-.222v.333a58.184 58.184 0 0117.783-1.501v-.333a59.144 59.144 0 00-17.783 1.501z" fill="#F2F2F2"/><path d="M307.939 131.919v-.334a52.562 52.562 0 01-17.45 2.391v.333a53.803 53.803 0 0017.45-2.39z" fill="#F2F2F2"/><path d="M308.328 134.087a8.871 8.871 0 01-.389-2.168 53.776 53.776 0 01-17.45 2.39v1.279a59.186 59.186 0 0117.839-1.501zM66.359 67.936a18.513 18.513 0 00-15.405-15.628 18.502 18.502 0 00-19.496 10.069 17.461 17.461 0 00-1.834 7.894v.333a18.458 18.458 0 0014.198 17.994 18.447 18.447 0 0020.758-9.711 17.791 17.791 0 001.78-10.617v-.334zm48.294 78.547a6.722 6.722 0 009.403-2.801 6.728 6.728 0 00-1.153-7.657 6.724 6.724 0 00-2.248-1.549 6.728 6.728 0 00-7.713.657 6.731 6.731 0 00-1.984 7.484 6.736 6.736 0 003.695 3.866zm95.865-27.572l.5-.889c.065-.218.065-.45 0-.667a11.452 11.452 0 00-4.723-4.448 11.2 11.2 0 00-16.364 12.677 11.203 11.203 0 005.249 6.779l.667-3.279a4.327 4.327 0 003.223 1.167l-1.334 3.28c2.033.593 4.192.593 6.225 0a11.09 11.09 0 004.322-2.088 11.107 11.107 0 004.23-8.368 11.127 11.127 0 00-.883-4.72l-1.112.556z" fill="#F2F2F2"/><path d="M195.846 129.084l-.444 3.279 1 .668 1.334.5 1.334-3.28a4.324 4.324 0 01-3.224-1.167zm19.23 38.913a5.582 5.582 0 007.259-7.333 5.582 5.582 0 00-3.036-3.007 5.555 5.555 0 00-4.001 0l-.723.333-.722.501-.445.556a4.96 4.96 0 00-1.167 1.778 5.565 5.565 0 002.835 7.172zm-1.39-9.45a5.133 5.133 0 00-.667.5l.667-.5zm.889-.667l.722-.334-.722.334zM89.644 58.652a64.79 64.79 0 01-21.396 6.615l.278 1.39a77.785 77.785 0 0121.896-5.225 7.953 7.953 0 01-.778-2.78zm20.452 10.229c-.353.2-.628.513-.778.889v.834a3.44 3.44 0 00.611 3.335 3.617 3.617 0 002.445 1.29 3.61 3.61 0 003.784-4.664 3.625 3.625 0 00-.672-1.24 3.444 3.444 0 00-4.39-.722l-1 .278zm-1.167.833c.156-.494.494-.911.945-1.167a23.836 23.836 0 01-7.725-6.06l-.389.501a30.151 30.151 0 017.169 6.726zM92.59 61.543a5.056 5.056 0 001.667 1.39 5.557 5.557 0 006.058-.445l-.556-.334.444-.833h.667v-.557l.445.557.333-.39a5.56 5.56 0 00-5.071-8.219 5.558 5.558 0 00-4.487 8.553l.5.278zm-.222 0l-.5-.5.5.5z" fill="#F2F2F2"/><path d="M100.648 61.098h-.667l-.444.834.555.333a5.546 5.546 0 001.223-1.39l-.445-.555-.222.778zM289.1 136.811v-.445h-.334l.334-.389c.06-.666.06-1.336 0-2.001a11.118 11.118 0 00-10.448-8.839 11.135 11.135 0 00-3.557.5 213.538 213.538 0 0011.448 18.123 11.12 11.12 0 002.557-6.949zm-22.396-.945a11.112 11.112 0 005.698 10.364 11.115 11.115 0 0011.807-.636c-3.445-7.282-7.113-13.842-10.559-19.568a11.117 11.117 0 00-6.946 9.84z" fill="#F2F2F2"/><path d="M289.1 136.366v-.334l-.334.389.334-.055zm26.898 2.112a6.734 6.734 0 00.555-13.452 6.742 6.742 0 00-4.836 1.773 6.745 6.745 0 00-2.166 4.676 6.728 6.728 0 003.895 6.385 6.71 6.71 0 002.552.618z" fill="#F2F2F2"/></g><defs><clipPath id="clip0_614_4100"><path fill="#fff" transform="rotate(90 166 157)" d="M0 0h183v333H0z"/></clipPath></defs></svg>