<svg width="433" height="312" fill="none" xmlns="http://www.w3.org/2000/svg"><circle cx="51.818" cy="104.11" r="18.572" transform="rotate(17.401 51.818 104.11)" fill="#fff" stroke="#E60074" stroke-width="5.462"/><g clip-path="url(#clip0_625_2452)"><path d="M123.512 56.172c5.774-18.424 25.391-28.679 43.815-22.904l231.425 72.529c18.423 5.774 28.678 25.39 22.904 43.814L381.405 278.04c-5.774 18.424-25.391 28.679-43.815 22.905l-231.425-72.529c-18.423-5.774-28.678-25.39-22.904-43.814l40.251-128.43z" fill="#E60074"/><circle cx="178.211" cy="179.432" r="41.878" transform="rotate(17.401 178.211 179.432)" fill="#B8005D"/><circle cx="306.39" cy="219.604" r="41.878" transform="rotate(17.401 306.39 219.604)" fill="#FF64B2"/><path fill-rule="evenodd" clip-rule="evenodd" d="M283.032 184.845c-28.619 19.23-53.28 11.501-65.804-20.624l-15.661 49.972c28.619-19.231 53.28-11.502 65.804 20.623l15.661-49.971z" fill="url(#paint0_linear_625_2452)"/><path d="M302.664 216.462c1.336.996 2.253 2.19 2.751 3.583.506 1.367.512 2.839.018 4.415-.722 2.302-2.204 3.788-4.448 4.459-2.243.671-5.116.457-8.619-.641l-14.186-4.446 8.233-26.27 13.436 4.211c3.352 1.051 5.708 2.476 7.067 4.276 1.368 1.775 1.722 3.713 1.063 5.815-.392 1.25-1.058 2.278-1.997 3.083-.906.788-2.012 1.293-3.318 1.515zm-10.577-11.228l-1.588 5.067 5.104 1.599c2.502.784 4.02.326 4.553-1.376.525-1.676-.463-2.906-2.965-3.69l-5.104-1.6zm1.361 17.49c2.602.815 4.181.335 4.738-1.442.556-1.776-.466-3.072-3.068-3.888l-6.23-1.952-1.67 5.329 6.23 1.953zm30.905-2.803c1.651.518 3.055 1.343 4.212 2.474a8.25 8.25 0 012.347 3.951c.434 1.51.396 3.077-.114 4.704-.557 1.776-1.514 3.207-2.871 4.293-1.324 1.069-2.891 1.732-4.703 1.988-1.778.24-3.631.057-5.557-.546-3.753-1.177-6.369-3.219-7.848-6.128-1.479-2.909-1.563-6.452-.254-10.63.941-3.003 2.324-5.399 4.149-7.19 1.858-1.808 4.015-2.946 6.469-3.413 2.455-.468 5.07-.266 7.847.604a19.095 19.095 0 014.126 1.829c1.249.749 2.251 1.585 3.005 2.508l-4.372 4.482c-.993-1.3-2.466-2.256-4.417-2.868-1.902-.596-3.605-.553-5.11.13-1.506.682-2.656 1.984-3.45 3.906 1.909-.831 4.089-.862 6.541-.094zm-5.478 11.431c1.05.329 1.995.296 2.834-.101.864-.389 1.456-1.096 1.778-2.122.313-1 .226-1.907-.261-2.719-.462-.804-1.231-1.375-2.307-1.712-1.076-.338-2.05-.299-2.921.115-.864.388-1.452 1.083-1.766 2.084-.306.976-.232 1.878.223 2.707.487.813 1.294 1.395 2.42 1.748zm-138.81-53.313c1.337.996 2.254 2.19 2.751 3.583.506 1.367.512 2.839.018 4.415-.721 2.302-2.204 3.788-4.447 4.459-2.244.671-5.117.457-8.619-.641l-14.186-4.446 8.233-26.27 13.435 4.211c3.353 1.051 5.709 2.476 7.068 4.276 1.367 1.775 1.721 3.713 1.063 5.814-.393 1.251-1.058 2.279-1.997 3.084-.906.788-2.013 1.293-3.319 1.515zm-10.576-11.228l-1.588 5.067 5.104 1.599c2.502.784 4.019.326 4.552-1.376.526-1.676-.463-2.906-2.965-3.69l-5.103-1.6zm1.36 17.489c2.602.816 4.181.335 4.738-1.441.557-1.776-.466-3.072-3.068-3.888l-6.23-1.952-1.67 5.329 6.23 1.952zm31.716-13.016l-8.233 26.27-7.431-2.329 6.434-20.528-4.879-1.529 1.8-5.742 12.309 3.858zm33.32 14.516l5.61 1.758-3.63 11.582 13.112-8.61 5.175 1.622-6.102 19.471-5.61-1.758 3.63-11.581-13.076 8.621-5.211-1.634 6.102-19.471zM202.813 78.04l-4.631 14.779-3.378-1.059 3.758-11.991-5.067-1.588-1.071 3.049c-.728 2.075-1.431 3.725-2.108 4.95-.674 1.211-1.437 2.07-2.291 2.575-.835.495-1.816.567-2.942.214-.465-.146-1.003-.4-1.616-.762l1.117-2.826c.166.114.361.206.586.276.816.256 1.536-.044 2.16-.9.628-.87 1.306-2.318 2.035-4.347l2.09-5.93 11.358 3.56zm11.614 13.68c-.013.042-.127.331-.341.867l-8.592-2.693a2.804 2.804 0 00.575 2.012c.449.589 1.103 1.018 1.961 1.287.591.185 1.139.264 1.642.236a4.107 4.107 0 001.552-.44l1.157 2.448c-1.453.89-3.207 1.012-5.262.368-1.281-.401-2.337-1.003-3.168-1.804-.826-.815-1.368-1.75-1.625-2.805-.257-1.054-.209-2.144.144-3.27.349-1.112.922-2.03 1.721-2.753a5.807 5.807 0 012.83-1.409c1.087-.215 2.201-.144 3.341.213 1.112.348 2.043.903 2.794 1.664a5.396 5.396 0 011.463 2.73c.243 1.05.179 2.166-.192 3.349zm-4.824-5.245c-.746-.234-1.439-.22-2.078.044-.639.264-1.129.744-1.471 1.44l5.594 1.754c.113-.753-.018-1.42-.393-2.001-.37-.596-.921-1.008-1.652-1.237zm19.36 3.517l-3.56 11.358-3.293-1.032 1.323-4.222c-1.107.178-2.237.087-3.391-.275-1.535-.48-2.588-1.19-3.16-2.126-.553-.946-.601-2.152-.142-3.615l1.118-3.568 3.294 1.032-1.052 3.357c-.216.69-.197 1.244.058 1.664.269.424.741.743 1.417.954a5.77 5.77 0 002.599.212l1.496-4.771 3.293 1.032zm12.411 10.173c-.013.042-.127.331-.341.867l-8.593-2.693a2.805 2.805 0 00.575 2.012c.449.589 1.103 1.018 1.962 1.287.591.185 1.138.264 1.641.236a4.096 4.096 0 001.553-.441l1.157 2.45c-1.454.889-3.208 1.011-5.263.367-1.28-.401-2.336-1.002-3.167-1.804-.827-.815-1.368-1.75-1.625-2.804-.257-1.055-.209-2.145.144-3.27.348-1.113.922-2.03 1.72-2.754a5.814 5.814 0 012.83-1.408c1.088-.216 2.202-.145 3.342.212 1.112.349 2.043.903 2.794 1.664a5.401 5.401 0 011.462 2.73c.243 1.05.179 2.167-.191 3.349zm-4.825-5.245c-.746-.234-1.438-.22-2.077.044s-1.13.744-1.472 1.44l5.595 1.754c.112-.753-.019-1.42-.393-2.001-.37-.596-.921-1.008-1.653-1.237zm15.464 3.154c1.083.34 1.963.862 2.638 1.569a4.734 4.734 0 011.297 2.446c.199.944.133 1.943-.198 2.999-.34 1.083-.909 1.964-1.709 2.641-.781.667-1.716 1.085-2.804 1.254-1.084.155-2.225.045-3.421-.33-1.985-.622-3.348-1.745-4.091-3.369-.725-1.634-.701-3.682.071-6.145.714-2.28 1.776-3.942 3.185-4.984 1.427-1.052 3.234-1.467 5.421-1.246l5.742.618-.443 2.968-5.069-.546c-1.374-.152-2.471-.032-3.289.36-.805.398-1.433 1.12-1.886 2.169a5.13 5.13 0 012.158-.669 5.948 5.948 0 012.398.265zm-3.375 8.031c.844.264 1.606.202 2.284-.188.693-.386 1.172-1.001 1.437-1.846.269-.858.222-1.622-.14-2.292-.348-.666-.944-1.131-1.788-1.396-.859-.269-1.628-.231-2.307.112-.68.344-1.154.945-1.423 1.803-.269.859-.223 1.646.14 2.363.367.702.966 1.183 1.797 1.444zm11.259-6.418l3.272 1.025-1.389 4.434 4.94 1.548 1.389-4.433 3.294 1.032-3.56 11.358-3.293-1.032 1.329-4.244-4.94-1.548-1.33 4.244-3.272-1.026 3.56-11.358zm19.124 5.808c1.759.551 2.978 1.397 3.656 2.537.683 1.126.76 2.533.23 4.222l-2.031 6.482-3.082-.966.443-1.415c-.95.862-2.27 1.028-3.959.498-.872-.273-1.586-.659-2.141-1.158-.54-.494-.898-1.054-1.073-1.681a3.347 3.347 0 01.049-1.932c.331-1.055.986-1.762 1.963-2.12.992-.354 2.319-.271 3.98.25l2.617.82c.225-.718.179-1.335-.138-1.852-.313-.531-.905-.933-1.778-1.206a5.895 5.895 0 00-1.887-.267 4.787 4.787 0 00-1.716.297l-.461-2.672c.756-.242 1.601-.348 2.534-.319a10.6 10.6 0 012.794.482zm-3.224 9.4c.563.176 1.102.206 1.618.089.52-.13.951-.42 1.292-.87l.364-1.161-2.259-.708c-1.351-.423-2.165-.192-2.443.695-.133.422-.077.811.168 1.166.263.345.682.608 1.26.789zm21.591-3.458l-3.559 11.358-2.935-.92 1.019-3.251-2.428-.761-3.172 2.576-3.505-1.098 3.761-2.902c-.691-.556-1.157-1.189-1.398-1.899-.223-.719-.205-1.494.056-2.324.419-1.337 1.219-2.215 2.401-2.632 1.201-.428 2.646-.377 4.334.152l5.426 1.701zm-6.202 1c-.704-.22-1.279-.261-1.724-.122-.431.143-.735.496-.912 1.059-.176.563-.137 1.031.117 1.404.272.364.76.656 1.464.876l2.47.774 1.012-3.23-2.427-.761zm25.364 14.511l-1.614 5.152-3.062-.96.768-2.449-7.98-2.501-.768 2.449-3.061-.959 1.614-5.152.465.146c.708.206 1.324-.057 1.847-.789.523-.733 1.056-1.841 1.598-3.325l1.379-3.88 9.901 3.103-2.712 8.656 1.625.509zm-7.289-7.223c-.404 1.141-.791 2.056-1.161 2.743-.356.693-.776 1.171-1.261 1.437l4.792 1.502 1.866-5.954-3.716-1.164-.52 1.436zm13.782 12.411c-1.196-.375-2.196-.958-2.998-1.751a5.926 5.926 0 01-1.562-2.785c-.257-1.054-.209-2.144.144-3.27s.935-2.049 1.748-2.768a5.782 5.782 0 012.865-1.374c1.116-.207 2.272-.123 3.469.252 1.196.375 2.186.964 2.97 1.766a5.78 5.78 0 011.569 2.764c.257 1.054.209 2.144-.144 3.27s-.936 2.049-1.749 2.768a5.932 5.932 0 01-2.871 1.395c-1.098.197-2.245.108-3.441-.267zm.847-2.702c.844.265 1.622.199 2.334-.196.729-.405 1.244-1.086 1.544-2.043.3-.957.264-1.803-.109-2.538-.354-.745-.953-1.25-1.797-1.514-.845-.265-1.632-.195-2.362.21-.725.391-1.238 1.065-1.538 2.022-.3.957-.265 1.81.103 2.56.372.735.98 1.234 1.825 1.499zm16.714 1.529c.609.422 1.028.909 1.258 1.46a2.41 2.41 0 01.08 1.741c-.225.718-.67 1.274-1.334 1.669-.661.38-1.466.584-2.417.61-.952.027-1.969-.13-3.053-.47a13 13 0 01-2.532-1.095 10.391 10.391 0 01-2.127-1.571l1.608-2.023c1.015.952 2.248 1.655 3.697 2.11.774.242 1.415.319 1.922.231.525-.098.854-.358.986-.781.115-.366.046-.689-.206-.969-.248-.294-.667-.533-1.259-.719l-2.322-.727.642-2.048 2.027.635c.577.181 1.049.228 1.416.142.367-.086.605-.304.716-.656.114-.366.005-.71-.327-1.03-.318-.316-.836-.587-1.554-.812-1.098-.344-2.376-.458-3.834-.343l-.087-2.532c1.792-.196 3.434-.06 4.926.408 1.028.322 1.903.735 2.626 1.24.737.509 1.26 1.083 1.57 1.721.315.624.37 1.26.167 1.907-.167.535-.481.97-.942 1.305-.456.321-1.005.52-1.647.597zm10.7-2.814c1.759.551 2.978 1.397 3.657 2.537.682 1.126.759 2.533.23 4.222l-2.032 6.482-3.082-.967.443-1.414c-.95.861-2.269 1.028-3.958.498-.873-.273-1.587-.659-2.141-1.158-.541-.494-.899-1.054-1.073-1.681-.175-.626-.158-1.27.049-1.932.331-1.055.985-1.762 1.963-2.121.992-.353 2.318-.27 3.979.251l2.618.82c.225-.718.179-1.335-.139-1.852-.312-.531-.905-.933-1.778-1.206a5.895 5.895 0 00-1.887-.267 4.795 4.795 0 00-1.716.297l-.461-2.672c.756-.242 1.601-.348 2.534-.319a10.6 10.6 0 012.794.482zm-3.224 9.4c.563.176 1.102.206 1.618.089.52-.13.951-.42 1.293-.87l.364-1.161-2.259-.708c-1.351-.423-2.166-.192-2.444.695-.132.422-.076.811.168 1.166.263.345.683.608 1.26.789z" fill="#fff"/><path d="M180.925 108.987c1.008.713 1.683 1.541 2.024 2.482.359.948.363 1.982.011 3.104-.528 1.683-1.605 2.806-3.232 3.369-1.604.551-3.609.449-6.015-.305l-9.745-3.054 5.955-19 9.229 2.892c2.28.714 3.908 1.701 4.884 2.961 1.001 1.248 1.254 2.659.761 4.233-.29.923-.771 1.666-1.445 2.23-.655.57-1.464.932-2.427 1.088zm-8.091-4.146l3.42 1.072c1.52.477 2.476.091 2.867-1.158.391-1.249-.173-2.111-1.693-2.588l-3.42-1.072-1.174 3.746zm1.869 8.873c1.557.488 2.542.072 2.956-1.249.402-1.285-.174-2.172-1.731-2.659l-4.234-1.327-1.225 3.908 4.234 1.327zm15.419-11.801l5.293 1.658-3.497 11.157 11.341-8.698 5.049 1.582-5.955 19.001-5.293-1.659 3.488-11.129-11.305 8.679-5.076-1.591 5.955-19zm36.24 16.038l-5.809-1.821-4.62 14.739-5.293-1.659 4.62-14.739-5.836-1.829 1.335-4.261 16.938 5.308-1.335 4.262zm11.171 15.633l-8.035-2.518-2.65 3.224-5.483-1.718 14.343-16.373 5.293 1.659 2.459 21.638-5.591-1.752-.336-4.16zm-.332-4.456l-.538-6.846-4.348 5.315 4.886 1.531zm25.565 16.419l3.129-10.079-7.455 6.666-2.389-.749-2.385-9.511-3.088 9.853-4.94-1.548 5.955-19.001 4.424 1.387 3.241 13.058 9.951-8.924 4.425 1.387-5.901 19.017-4.967-1.556zm14.963-16.178l5.293 1.659-3.496 11.156 11.341-8.697 5.049 1.582-5.955 19.001-5.293-1.659 3.488-11.129-11.306 8.679-5.076-1.591 5.955-19.001zm40.345 12.644l-5.955 19.001-5.375-1.684 2.323-7.411-7.329-2.297-2.323 7.411-5.374-1.685 5.955-19 5.374 1.684-2.237 7.139 7.329 2.297 2.237-7.139 5.375 1.684zm7.346 23.587c-2.009-.63-3.685-1.622-5.029-2.977-1.326-1.35-2.215-2.92-2.667-4.711-.434-1.786-.357-3.62.233-5.502.59-1.882 1.573-3.432 2.948-4.65 1.394-1.213 3.02-1.995 4.879-2.346 1.877-.346 3.82-.204 5.829.425 2.008.63 3.676 1.619 5.002 2.969 1.343 1.355 2.233 2.925 2.667 4.711.452 1.791.383 3.628-.207 5.51-.59 1.882-1.581 3.429-2.975 4.642-1.376 1.218-3.002 2-4.879 2.346-1.859.351-3.793.212-5.801-.417zm1.395-4.452c.959.301 1.898.347 2.818.138a5.143 5.143 0 002.442-1.321c.713-.691 1.237-1.57 1.571-2.638.335-1.067.404-2.079.206-3.035-.191-.974-.605-1.81-1.241-2.506-.637-.696-1.434-1.195-2.393-1.495-.96-.301-1.899-.347-2.819-.138-.92.208-1.736.658-2.45 1.348-.707.673-1.228 1.543-1.563 2.611-.335 1.067-.406 2.088-.215 3.062a5.14 5.14 0 001.251 2.479c.636.696 1.434 1.195 2.393 1.495zm29.113 2.686c1.009.713 1.683 1.541 2.024 2.482.359.947.363 1.982.011 3.104-.527 1.683-1.604 2.806-3.232 3.369-1.603.551-3.608.449-6.015-.305l-9.745-3.054 5.955-19.001 9.229 2.892c2.28.715 3.908 1.702 4.885 2.962 1 1.248 1.253 2.659.76 4.233-.289.923-.771 1.666-1.444 2.23-.656.57-1.465.932-2.428 1.088zm-8.091-4.146l3.42 1.072c1.52.476 2.476.09 2.867-1.158.392-1.249-.173-2.111-1.693-2.588l-3.42-1.072-1.174 3.746zm1.87 8.873c1.556.488 2.541.071 2.955-1.25.403-1.285-.174-2.171-1.73-2.659l-4.235-1.327-1.225 3.909 4.235 1.327z" fill="#F2C94C"/></g><path d="M67.976 109.174c54.49-29.861 57.854-58.573 58.671-61.18l-18.263 136.811c-16.582 22.471-28.457 12.262-25.353 2.358 13.797-44.023-2.911-65.596-15.055-77.989z" fill="#E60074"/><defs><linearGradient id="paint0_linear_625_2452" x1="208.06" y1="192.514" x2="273.349" y2="216.702" gradientUnits="userSpaceOnUse"><stop stop-color="#B8005D"/><stop offset="1" stop-color="#FF64B2"/></linearGradient><clipPath id="clip0_625_2452"><path d="M123.512 56.172c5.774-18.424 25.391-28.679 43.815-22.904l231.425 72.529c18.423 5.774 28.678 25.39 22.904 43.814L381.405 278.04c-5.774 18.424-25.391 28.679-43.815 22.905l-231.425-72.529c-18.423-5.774-28.678-25.39-22.904-43.814l40.251-128.43z" fill="#fff"/></clipPath></defs></svg>