<svg width="156" height="156" fill="none" xmlns="http://www.w3.org/2000/svg"><rect x="1.5" y="1.5" width="153" height="153" rx="76.5" fill="#00AFAA"/><path d="M70.655 122.252c-.03.297-.03.535-.03.743-.118.863-.207 1.756-.325 2.618-19.623-1.547-41.287-18.861-42.264-45.754C27 51.895 48.635 32.261 70.3 30.357c.148 1.071.266 2.172.414 3.362-13.88 1.993-24.772 8.686-32.349 20.526-5.002 7.795-7.222 16.452-6.807 25.704.503 10.888 4.44 20.407 11.838 28.41 7.34 7.943 16.515 12.465 27.259 13.893zm10.685 3.51c-.149-1.22-.267-2.261-.415-3.451 14.266-2.053 25.335-9.073 32.882-21.449 3.907-6.396 5.919-13.417 6.245-21.062-1.095 0-2.131.03-3.137 0-1.806-.03-2.575-1.369-1.658-2.945 1.658-2.797 3.315-5.593 5.002-8.39.888-1.457 2.486-1.428 3.374.03 1.657 2.767 3.315 5.533 4.943 8.3.976 1.636.207 2.975-1.687 3.005-1.036.03-2.072 0-3.167 0-.918 14.815-6.955 27.012-18.557 36.234-6.956 5.474-14.887 8.627-23.826 9.728zm42.737-49.592c-.77-1.279-1.421-2.38-2.19-3.629-.77 1.309-1.421 2.41-2.161 3.63h4.351zm-7.133-30.403c.888.03 1.569.476 1.717 1.309.592 3.362 2.545 5.295 5.86 5.89.828.149 1.42.863 1.243 1.726-.148.624-.77 1.13-1.184 1.666-.03.06-.148.06-.207.06-3.226.535-5.061 2.438-5.653 5.681-.148.893-.799 1.428-1.717 1.458-.947 0-1.48-.536-1.776-1.398-.029-.06-.029-.15-.059-.209-.562-3.094-2.397-4.878-5.446-5.503-.562-.12-1.154-.655-1.479-1.16-.444-.744-.03-1.726.799-2.142a2.76 2.76 0 01.828-.298c2.93-.565 4.677-2.32 5.239-5.265.237-1.042.74-1.726 1.835-1.815zm.059 7.05c-.621.566-1.391 1.25-1.953 1.756.71.684 1.42 1.368 1.953 1.904a118.24 118.24 0 001.865-1.726 122.014 122.014 0 00-1.865-1.933z" fill="#fff"/><path d="M42.627 90.688c-.651-.684-1.48-1.13-1.598-1.725-.651-3.362-2.575-5.266-5.92-5.89-.828-.15-1.42-.893-1.243-1.726.148-.625.71-1.517 1.214-1.607 3.374-.684 5.298-2.647 5.978-6.009.09-.506 1.036-1.16 1.599-1.16.562 0 1.243.625 1.657 1.16.355.476.414 1.16.592 1.785.533 1.904 1.746 3.124 3.67 3.66a18.06 18.06 0 011.687.535c.799.297 1.42.892 1.243 1.725-.148.625-.74 1.16-1.214 1.666-.236.238-.68.238-1.035.327-2.427.565-3.937 2.023-4.529 4.463-.118.476-.177.981-.444 1.368-.384.476-.947.833-1.657 1.428zm-1.776-9.282c.563.625 1.243 1.339 1.776 1.934a97.538 97.538 0 001.864-1.934c-.532-.565-1.213-1.309-1.716-1.844-.622.625-1.332 1.28-1.924 1.844zm40.074-47.687c.148-1.19.266-2.291.414-3.51 11.365 1.457 20.955 6.276 29.064 14.517-.473.446-.917.833-1.332 1.22-.414.386-.799.773-1.272 1.22-7.429-7.587-16.367-12.079-26.874-13.447zm-3.433-.298h-3.374V30h3.374v3.421zM74.088 126v-3.421h3.374V126h-3.374zm-8.435-67.917c2.338.625 4.173 2.41 4.173 5.563 0 4.909-3.788 7.14-8.79 7.14-1.657 0-3.788-.03-5.357-.09-.68-.03-1.243-.624-1.243-1.279v-21.21c0-.715.562-1.28 1.243-1.34 1.569-.03 3.788-.089 5.594-.089 5.653 0 7.784 2.589 7.784 5.89 0 2.678-1.362 4.404-3.404 5.415zm-4.262-1.309c1.924 0 3.522-.982 3.522-3.153 0-1.934-1.48-2.945-3.729-2.945-.947 0-1.864.03-2.604.089v6.01h2.811zM58.58 66.71c.562.06 1.568.179 2.752.179 2.812 0 4.321-1.19 4.321-3.421 0-1.994-1.51-3.035-4.114-3.035h-2.93v6.277h-.03zm17.107-12.881a1.214 1.214 0 01-.74.238c-.385 0-.74-.149-1.007-.446l-.858-1.012a1.146 1.146 0 01-.266-.744 1.2 1.2 0 01.473-.951l4.35-3.332c.534-.417 1.126-.774 1.925-.774h.858c.68 0 1.095.506 1.095 1.19v21.42c0 .684-.562 1.249-1.243 1.249h-1.391c-.68 0-1.243-.565-1.243-1.25V52.371l-1.953 1.458zm.029 37.424c3.078.803 5.475 3.183 5.475 7.319 0 6.425-4.972 9.37-11.572 9.37-2.19 0-4.972-.059-7.014-.148-.888-.06-1.658-.804-1.658-1.696V78.223c0-.952.77-1.695 1.658-1.755 2.042-.06 4.972-.149 7.34-.149 7.428 0 10.24 3.392 10.24 7.735-.03 3.6-1.805 5.89-4.469 7.2zm-5.594-1.695c2.546 0 4.617-1.31 4.617-4.165 0-2.559-1.953-3.897-4.883-3.897-1.243 0-2.457.059-3.433.148v7.913h3.7zm-3.7 13.03c.77.089 2.043.238 3.612.238 3.699 0 5.682-1.577 5.682-4.522 0-2.648-2.013-3.987-5.416-3.987h-3.877v8.271zm32.113-14.161c4.765 0 8.701 3.838 8.701 9.55 0 6.574-5.061 10.293-10.063 10.293-6.925 0-11.128-5.266-11.128-11.573 0-10.68 7.28-18.057 14.088-20.556a2.87 2.87 0 01.799-.149c.711 0 1.243.327 1.48.892l.503 1.31c.089.237.148.446.148.624 0 .714-.444 1.31-1.154 1.577-4.41 1.785-8.346 5.533-9.767 10.948 1.273-1.785 3.285-2.916 6.393-2.916zm-1.302 14.696c2.841 0 4.587-2.291 4.587-4.79 0-2.855-1.746-5.146-5.031-5.146-2.812 0-4.499 1.844-5.298 3.54 0 3.6 2.013 6.396 5.742 6.396z" fill="#fff"/><rect x="1.5" y="1.5" width="153" height="153" rx="76.5" stroke="#fff" stroke-width="3"/></svg>