<svg width="156" height="156" fill="none" xmlns="http://www.w3.org/2000/svg"><rect x="1.5" y="1.5" width="153" height="153" rx="76.5" fill="#00AFAA"/><path d="M23.305 43.383a2.066 2.066 0 00-2.069 2.068c0 1.145.924 2.069 2.069 2.069h2.7v2.7a2.066 2.066 0 003.535 1.452 2.12 2.12 0 00.616-1.467v-2.7l2.67.03c.587 0 1.086-.235 1.468-.617.381-.381.601-.895.616-1.467a2.066 2.066 0 00-2.069-2.069h-2.7v-2.699a2.066 2.066 0 00-2.068-2.069 2.066 2.066 0 00-2.069 2.07v2.699h-2.7zm7.317 72.256a2.066 2.066 0 00-2.069 2.068c0 1.145.925 2.069 2.07 2.069h2.698v2.699a2.066 2.066 0 003.536 1.453 2.12 2.12 0 00.616-1.467v-2.7l2.67.03c.587 0 1.086-.235 1.468-.617.381-.381.601-.895.616-1.467a2.066 2.066 0 00-2.069-2.068h-2.7v-2.7a2.067 2.067 0 00-2.068-2.069 2.067 2.067 0 00-2.069 2.069v2.7h-2.699zM131.3 83.756a2.114 2.114 0 00-2.117 2.117c0 1.17.946 2.116 2.117 2.116h2.761v2.762a2.114 2.114 0 003.618 1.486c.39-.39.615-.915.63-1.5v-2.763l2.732.03c.601 0 1.111-.24 1.501-.63.391-.39.616-.916.631-1.501 0-1.17-.946-2.117-2.117-2.117h-2.762v-2.761a2.114 2.114 0 00-2.116-2.117 2.114 2.114 0 00-2.117 2.117v2.761H131.3zm-13.72-49.39a2.114 2.114 0 00-2.117 2.117c0 1.17.946 2.116 2.117 2.116h2.762v2.762a2.114 2.114 0 003.617 1.486c.39-.39.616-.916.631-1.501v-2.762l2.732.03c.6 0 1.11-.24 1.501-.63.39-.39.615-.916.63-1.501a2.115 2.115 0 00-2.117-2.117h-2.761v-2.762c0-1.17-.946-2.116-2.117-2.116a2.113 2.113 0 00-2.116 2.116v2.762h-2.762z" fill="#fff"/><rect x="1.5" y="1.5" width="153" height="153" rx="76.5" stroke="#fff" stroke-width="3"/></svg>