<svg width="156" height="156" fill="none" xmlns="http://www.w3.org/2000/svg"><rect x="1.5" y="1.5" width="153" height="153" rx="76.5" fill="#00AFAA"/><path d="M78 40.171c-19.89 0-36.064 16.356-36.064 36.469S58.11 113.108 78 113.108s36.064-16.355 36.064-36.468c0-20.113-16.174-36.47-36.064-36.47zm0 4.758c17.347 0 31.36 14.17 31.36 31.711 0 17.542-14.013 31.712-31.36 31.712S46.64 94.182 46.64 76.64 60.653 44.928 78 44.928zM64.672 61.576c-3.03 0-5.488 2.485-5.488 5.55 0 3.064 2.458 5.549 5.488 5.549 3.03 0 5.488-2.485 5.488-5.55 0-3.064-2.457-5.549-5.488-5.549zm26.656 0c-3.03 0-5.488 2.485-5.488 5.55 0 3.064 2.457 5.549 5.488 5.549 3.03 0 5.488-2.485 5.488-5.55 0-3.064-2.457-5.549-5.488-5.549zm-30.82 22.198c-.757.044-1.446.476-1.863 1.239a2.43 2.43 0 00.147 2.453c4.204 6.36 11.248 10.58 19.208 10.58 7.96 0 15.004-4.22 19.208-10.58.686-1.037.39-2.6-.637-3.294-1.026-.694-2.596-.394-3.283.644-3.395 5.136-8.962 8.473-15.288 8.473-6.326 0-11.892-3.336-15.288-8.473-.636-.755-1.45-1.085-2.205-1.04z" fill="#fff"/><rect x="1.5" y="1.5" width="153" height="153" rx="76.5" stroke="#fff" stroke-width="3"/></svg>