<svg width="156" height="157" fill="none" xmlns="http://www.w3.org/2000/svg"><rect x="1.5" y="1.77" width="153" height="153" rx="76.5" fill="#00AFAA"/><path d="M116.529 112.189H46.824V42.485a2.63 2.63 0 00-5.26 0v72.335a2.63 2.63 0 002.63 2.63h72.335a2.63 2.63 0 000-5.26v-.001z" fill="#fff"/><path d="M57.49 104.154a2.63 2.63 0 001.829-.763l41.664-41.637v10.245a2.632 2.632 0 004.491 1.86 2.632 2.632 0 00.771-1.86l.104-16.65a2.82 2.82 0 000-.487v-.079a2.509 2.509 0 00-.118-.434l-.092-.158a2.026 2.026 0 00-.158-.302 2.455 2.455 0 00-.736-.737l-.263-.144-.198-.093a1.307 1.307 0 00-.328-.105h-.158a3.328 3.328 0 00-.513 0l-16.847.027a2.63 2.63 0 100 5.26H97.17l-41.547 41.6a2.632 2.632 0 001.868 4.485v-.028z" fill="#fff"/><rect x="1.5" y="1.77" width="153" height="153" rx="76.5" stroke="#fff" stroke-width="3"/></svg>