<svg width="533" height="395" fill="none" xmlns="http://www.w3.org/2000/svg"><path d="M444.89 203.543a553.184 553.184 0 01-132.98-35.079 542.28 542.28 0 00132.98 35.079z" fill="#3EC8C4"/><path d="M280.221 176.988c11.623-.401 59.014.323 135.567 26.835-76.666-26.447-123.571-26.851-135.567-26.835zm32.526-9.154c-8.967-3.83-18.129-7.998-27.019-12.473 8.765 5.297 17.489 8.967 27.019 12.473z" fill="#3EC8C4"/><path d="M444.89 203.544a542.339 542.339 0 01-132.593-35.451c-9.08-3.765-18.065-7.886-27.067-12.296a47.105 47.105 0 01-5.009 21.192c11.801-.355 58.901.387 135.957 27.509 7.914 2.787 16.072 5.735 24.601 9.067a19.582 19.582 0 014.111-10.021zm-199.379-95.95a485.956 485.956 0 0114.164-165.533 35.902 35.902 0 01-23.718-.273s16.775 54.983-2.607 165.019a52.068 52.068 0 0112.161.787zm-83.032 117.789a147.784 147.784 0 0132.207-38.524 131.712 131.712 0 00-32.758 38.091l.551.433zm33.246-43.474l-.39-.675a181.703 181.703 0 01-39.98 38.056l-1.351.779 1.598.428a18.232 18.232 0 015.403 3.635 13.02 13.02 0 00-5.213-4.345 182.487 182.487 0 0039.933-37.878zm-1.039 4.95c1.013-.584 2.025-1.169 2.825-2.38l-2.825 2.38z" fill="#3EC8C4"/><path d="M195.725 181.909a182.472 182.472 0 01-39.868 37.991 13.005 13.005 0 015.213 4.345l.65 1.125a131.728 131.728 0 0132.758-38.091l2.761-2.493-1.514-2.877zm111.502-98.653l-.39-.674a151.854 151.854 0 01-35.528 38.489 151.353 151.353 0 0035.918-37.815z" fill="#3EC8C4"/><path d="M273.823 124.122l.39.674a186.305 186.305 0 0138.843-36.65l-.326-.562a181.756 181.756 0 00-38.907 36.538zm203.516 84.411c3.881-4.188 29.4-31.954 63.938-61.771l-1.381-5.505a784.483 784.483 0 01-74.443 56.58 19.126 19.126 0 0111.005 8.655l.881 2.041zM359.773 79.659a4.804 4.804 0 00-.548 3.466 70.529 70.529 0 00-22.388-5.241l-.172 1a70.27 70.27 0 0122.258 5.016l1.195.51a8.044 8.044 0 01.075-4.543 5.07 5.07 0 01.848-1.39l-1.238.714a56.083 56.083 0 01-22.266-3.211l-.562.325a55.82 55.82 0 0022.798 3.354z" fill="#3EC8C4"/><path d="M360.118 84.41l-.975-1.687a4.153 4.153 0 01.535-2.71l.605-1.548a5.055 5.055 0 00-.848 1.388 8.049 8.049 0 00.683 4.557zM262.8 222.138a8.177 8.177 0 00-.587 11.511 8.196 8.196 0 0011.515.687 8.178 8.178 0 002.621-7.711 7.798 7.798 0 00-4.492-6.091 7.797 7.797 0 00-7.547.583l-1.51 1.021zm-79.888 95.825a8.179 8.179 0 002.94 13.822 8.186 8.186 0 0010.327-5.129 8.175 8.175 0 00.282-4.205 7.798 7.798 0 00-4.492-6.092 7.808 7.808 0 00-7.547.583l-1.51 1.021zm-37.15-92.935a8.177 8.177 0 00-.587 11.511 8.187 8.187 0 003.528 2.311 8.185 8.185 0 0010.326-5.129 8.175 8.175 0 00.282-4.205 7.798 7.798 0 00-4.492-6.092 7.806 7.806 0 00-7.546.583l-1.511 1.021z" fill="#3EC8C4"/><path d="M258.047 199.377a84.048 84.048 0 008.301 19.814 5.715 5.715 0 00-2.926 1.687 84.35 84.35 0 00-6.549-20.676l-.676.39a89.635 89.635 0 016.598 20.499l.52.9a7.94 7.94 0 011.576-.909 7.127 7.127 0 012.701-1.557l-.911-1.576a80.804 80.804 0 01-7.522-18.465l-1.112-.107z" fill="#3EC8C4"/><path d="M262.717 221.736l1.239-.715c-.434.201-.848.44-1.239.715zm3.631-2.545a84.09 84.09 0 01-8.301-19.814 5.567 5.567 0 00-1.238.714 84.35 84.35 0 016.549 20.676 5.707 5.707 0 012.99-1.576zm-78.358-63.126c-5.402 3.116-23.941 10.506-94.246 9.343a31.957 31.957 0 015.504 17.829c4.735-4.531 23.811-10.731 90.573-15.176a43.657 43.657 0 01-1.656-9.095l-.175-2.901zm.783 155.565a301.005 301.005 0 0031.022-110.149 298.426 298.426 0 01-31.022 110.149 15.485 15.485 0 016.25 2.246 11.714 11.714 0 00-6.25-2.246z" fill="#3EC8C4"/><path d="M196.028 315.097a378.848 378.848 0 0128.035-91.174 369.503 369.503 0 00-28.035 91.174zm28.213-91.126a329.521 329.521 0 0110.159-19.81c-3.854 6.573-7.063 13.224-10.159 19.81z" fill="#3EC8C4"/><path d="M219.665 201.256a300.987 300.987 0 01-31.023 110.149c2.261.251 4.4 1.155 6.156 2.601l.781 1.35a369.478 369.478 0 0128.147-91.238c3.096-6.586 6.304-13.238 9.981-19.858a47.636 47.636 0 01-14.042-3.004zm51.264-72.015a43.328 43.328 0 00-49.482-13.639 43.238 43.238 0 00-20.945 17.024 43.203 43.203 0 00-6.759 26.124 40.78 40.78 0 005.522 18.118l.389.675a43.196 43.196 0 0049.806 19.838 43.113 43.113 0 0022.991-16.607 43.071 43.071 0 007.689-27.291 41.577 41.577 0 00-8.82-23.566l-.391-.676zm189.705 102.576a15.735 15.735 0 0011.497-4.91 15.693 15.693 0 004.271-11.741 15.718 15.718 0 00-5.655-11.151 15.746 15.746 0 00-12.006-3.51 15.732 15.732 0 00-11.495 4.912 15.697 15.697 0 00-3.355 5.426 15.711 15.711 0 00.755 12.475 15.726 15.726 0 009.623 7.988c2.065.603 4.231.778 6.365.511zM78.24 194.226a15.72 15.72 0 006.259-1.265 15.7 15.7 0 007.839-21.547 15.74 15.74 0 00-15.99-8.5 15.719 15.719 0 00-14.85 10.338 15.701 15.701 0 00.754 12.475 15.73 15.73 0 009.623 7.987 15.74 15.74 0 006.366.512zm228.987-110.97a151.346 151.346 0 01-35.593 38.378l2.19 2.488a181.704 181.704 0 0138.231-36.15 18.613 18.613 0 01-4.828-4.716zm53.388-3.181a4.144 4.144 0 00-.536 2.708l.975 1.688a8.07 8.07 0 005.14 6.037 8.46 8.46 0 006.461-.245 8.426 8.426 0 004.392-4.737 8.44 8.44 0 00-2.186-9.123 8.457 8.457 0 00-2.809-1.723 8.052 8.052 0 00-9.737 3.665l-1.7 1.73zm-1.39 3.049a4.804 4.804 0 01.548-3.465 55.823 55.823 0 01-22.733-3.242l-.203 1.466a70.529 70.529 0 0122.388 5.241zm-42.65 2.543c1.585.647 3.292.942 5.002.866a13 13 0 007.062-2.241 12.97 12.97 0 004.686-5.733l-1.515-.027-.075-2.206 1.35-.778-.651-1.127 1.552.607.219-1.178a12.99 12.99 0 00-6.834-11.126 13.007 13.007 0 00-13.053.415 12.984 12.984 0 00-6.096 11.538c.093 2.29.791 4.515 2.023 6.449a13.013 13.013 0 004.992 4.563l1.338-.022zm-.45.26l-1.599-.428 1.599.428z" fill="#3EC8C4"/><path d="M332.374 75.356s-1.238.714-1.35.78l.075 2.207 1.516.025c.518-1.356.805-2.79.85-4.24l-1.551-.606.46 1.834z" fill="#3EC8C4"/></svg>