<svg width="928" height="634" fill="none" xmlns="http://www.w3.org/2000/svg"><g opacity=".2" clip-path="url(#clip0_747_2381)" fill="#F2F2F2"><path d="M540.694 169.806a602.046 602.046 0 01126.138 80.807 590.12 590.12 0 00-126.138-80.807z"/><path d="M702.551 252.355c-12.188-3.465-61.088-20.046-131.586-73.119 70.636 53.043 119.141 69.13 131.586 73.119zm-36.798-1.367c8.015 6.968 16.119 14.351 23.837 21.963-7.313-8.423-15.13-15.144-23.837-21.963z"/><path d="M540.694 169.806a590.098 590.098 0 01125.613 81.063c8.153 6.938 16.089 14.215 23.946 21.796a51.412 51.412 0 0112.298-20.31c-12.356-3.574-60.95-20.075-131.764-73.949-7.272-5.534-14.743-11.317-22.471-17.622a21.384 21.384 0 01-7.622 9.022zm174.588 166.129a530.265 530.265 0 01-70.179 166.984 39.08 39.08 0 0124.504 8.206s1.035-62.64 58.021-170.312a56.64 56.64 0 01-12.346-4.878zM276.665 165.966l-.969.208a164.357 164.357 0 0134.766 48.579 165.207 165.207 0 00-33.797-48.787z"/><path d="M314.566 212.278l.831-.179a201.33 201.33 0 01-31.969-51.063l-.83.179a204 204 0 0031.968 51.063z"/><path d="M280.116 164.5a10.625 10.625 0 01-3.6.773 165.213 165.213 0 0134.46 48.5 18.807 18.807 0 012.641-1.869c.259-.124.544-.185.831-.179a203.987 203.987 0 01-31.969-51.063 24.112 24.112 0 01-2.363 3.838zm560.755 76.982a161.32 161.32 0 01-46.312 29.204 143.766 143.766 0 0046.738-28.571l-.426-.633z"/><path d="M791.822 275.475l.178.829a198.296 198.296 0 0154.215-26.123l1.663-.357-1.514-.978a19.83 19.83 0 01-4.384-5.575 14.167 14.167 0 003.949 6.249 199.147 199.147 0 00-54.107 25.955zm2.737-4.789c-1.246.268-2.492.536-3.728 1.526l3.728-1.526z"/><path d="M791.822 275.475a199.142 199.142 0 0154.077-26.094 14.153 14.153 0 01-3.948-6.248l-.298-1.384a143.766 143.766 0 01-46.738 28.571l-3.699 1.664.606 3.491zm-148.698 65.092l.178.83a165.742 165.742 0 0149.745-28.059 165.17 165.17 0 00-49.923 27.229z"/><path d="M691.463 309.333l-.178-.83a203.24 203.24 0 01-52.566 25.044l.149.693a198.34 198.34 0 0052.595-24.907zm-443.481-25.989l-1.435-1.285a14.165 14.165 0 00-23.655 13.19 14.158 14.158 0 0012.635 11.133 14.162 14.162 0 0014.349-8.818 12.745 12.745 0 00.017-8.692 18.873 18.873 0 00-1.664-3.699l-.247-1.829z"/><path d="M246.398 281.367l1.584 1.978.238 1.107a13.287 13.287 0 011.663 3.698l.386 1.8.416 1.938 1.069-1.098a148.314 148.314 0 0154.562-27.212l-.179-.83a148.89 148.89 0 00-54.562 27.211 12.736 12.736 0 00-3.999-7.83 199.898 199.898 0 0056.464-22.406l-.179-.831a195.803 195.803 0 01-56.078 22.178l-1.385.297z"/><path d="M250.299 288.061a13.338 13.338 0 00-1.664-3.699 18.847 18.847 0 011.664 3.699zm-3.019-5.289l-1.584-1.977 1.584 1.977zm.573-.703a12.744 12.744 0 013.999 7.831 148.872 148.872 0 0154.563-27.211l-2.099-3.025a199.848 199.848 0 01-56.463 22.405zm260.865-128.277c-5.43 3.048-41.2 23.327-87.011 42.721l-.413 6.172a855.933 855.933 0 0196.163-33.827 20.816 20.816 0 01-8.511-12.655l-.228-2.411zm-148.912 73.537c.275.905.474 1.83.594 2.768 4.055-2.029 21.323-10.66 46.533-21.431l-.358-5.716c-16.101 6.643-33.063 13.326-50.094 19.01a18.418 18.418 0 012.157 3.302l.476 2.216.692-.149zm73.058-142.114l-1.115 7.626a443.392 443.392 0 0180.189 48.963 18.55 18.55 0 015.408-6.52 433.172 433.172 0 01-84.482-50.069zm99.429 87.095l-7.656-.88a443.363 443.363 0 01-46.473 81.658 18.528 18.528 0 016.683 5.205 433.209 433.209 0 0147.446-85.983zm55.136 154.438a5.236 5.236 0 001.73-3.412 76.768 76.768 0 0021.46 12.915l.513-.98a76.495 76.495 0 01-21.4-12.638l-1.068-.929a8.772 8.772 0 01-1.601 4.688 5.535 5.535 0 01-1.344 1.158l1.523-.327a61.052 61.052 0 0122.012 10.768l.692-.148a60.752 60.752 0 00-22.517-11.095z"/><path d="M588.664 321.704l.446 2.076a4.533 4.533 0 01-1.463 2.631l-1.147 1.405a5.517 5.517 0 001.345-1.157 8.77 8.77 0 00.819-4.955zm147.087-110.365a8.92 8.92 0 10-10.843-13.449 8.925 8.925 0 00-1.702 4.268 8.49 8.49 0 006.378 9.816 8.511 8.511 0 004.259-.08l1.908-.555z"/><path d="M733.05 236.538a91.568 91.568 0 00-1.966-23.327 6.235 6.235 0 003.6-.773 91.892 91.892 0 00-.14 23.636l.831-.179a97.702 97.702 0 01.031-23.469l-.238-1.107a8.632 8.632 0 01-1.939.417 7.789 7.789 0 01-3.323.713l.416 1.939a88.049 88.049 0 011.61 21.667l1.118.483z"/><path d="M735.702 211.784l-1.523.327a8.609 8.609 0 001.523-.327zm-4.618 1.427a91.614 91.614 0 011.967 23.327 6.162 6.162 0 001.523-.327 91.847 91.847 0 01.14-23.636 6.232 6.232 0 01-3.63.636zm162.828 88.422l-1.758 5.302c4.727-1.594 1.758-5.302 1.758-5.302z"/><path d="M791.179 304.866c6.647-1.427 28.349-2.901 100.863 21.789a34.823 34.823 0 01.27-20.333c-6.429 3.118-28.289 3.178-99.011-14.511a47.577 47.577 0 01-1.331 9.988l-.791 3.067zm51.338-161.635a328.534 328.534 0 00-69.095 103.9 325.686 325.686 0 0169.095-103.9 16.855 16.855 0 01-5.729-4.418 12.742 12.742 0 005.729 4.418z"/><path d="M836.155 137.211a413.46 413.46 0 01-59.636 85.214 403.296 403.296 0 0059.636-85.214zm.109-.168l.356 1.661a7.052 7.052 0 01-.356-1.661zm-59.913 85.274a361.452 361.452 0 01-17.175 17.157c6.2-5.531 11.756-11.36 17.175-17.157z"/><path d="M773.482 247.408a328.548 328.548 0 0169.094-103.9 12.744 12.744 0 01-5.511-4.755l-.357-1.661a403.288 403.288 0 01-59.774 85.244c-5.418 5.798-10.975 11.626-17.007 17.266a51.84 51.84 0 0113.555 7.806zm-608.911-5.094a30.44 30.44 0 01-1.043 14.706c5.33-4.186 30.697-17.599 134.829-10.27a34.106 34.106 0 01.36-13.835c-8.308 1.784-51.5 13.81-137.354.53a28.293 28.293 0 013.03 8.038l.178.831zm-63.44 14.201l-.178-.83a148.347 148.347 0 01-43.509 13.253l.178.829a150.878 150.878 0 0043.509-13.252z"/><path d="M60.028 274.898l.179.832a134.012 134.012 0 0142.201-15.29l-.178-.829a137.115 137.115 0 00-42.202 15.287z"/><path d="M57.9 269.707a22.514 22.514 0 012.128 5.191 137.117 137.117 0 0142.202-15.287l-.684-3.186a150.868 150.868 0 01-43.647 13.282z"/><path d="M692.269 305.829l.061.281.1.271a51.162 51.162 0 0080.456 21.711 51.156 51.156 0 0017.103-26.944 48.451 48.451 0 00.38-22.479l-.174-.811-.001-.004a50.994 50.994 0 00-17.38-28.684 51.026 51.026 0 00-81.927 26.579 49.288 49.288 0 001.262 29.519l.12.561z" stroke="#00AFAA" stroke-width="8"/><path d="M533.845 135.218a17.141 17.141 0 00-21.932 12.007 17.12 17.12 0 002.125 13.456 17.138 17.138 0 0011.274 7.651 17.14 17.14 0 0013.567-1.255 17.152 17.152 0 005.298-4.509 17.14 17.14 0 003.399-13.193 17.115 17.115 0 00-7.301-11.5 17.138 17.138 0 00-6.43-2.657zM309.724 255.17l-.77 2.483a2.973 2.973 0 00.357 1.661 29.172 29.172 0 0014.148 8.549 28.558 28.558 0 0021.769-1.858 28.537 28.537 0 00-4.478-52.541l.092 8.524a11.034 11.034 0 00-8.656-1.183l1.569-8.882a28.336 28.336 0 00-15.509 3.33 28.322 28.322 0 00-15.241 18.395 28.319 28.319 0 004.247 23.503l2.472-1.981zm130.315 40.572l-.77 2.483a2.973 2.973 0 00.357 1.661 29.172 29.172 0 0014.148 8.549 28.558 28.558 0 0021.769-1.858 28.546 28.546 0 0014.081-16.702 28.536 28.536 0 00-18.56-35.84l.092 8.524a11.037 11.037 0 00-8.655-1.182l1.569-8.882a28.336 28.336 0 00-15.509 3.33 28.322 28.322 0 00-10.994 41.898l2.472-1.981z"/><path d="M340.842 221.988l-.646-8.406-2.849-1.126-3.591-.533-1.57 8.882a11.028 11.028 0 018.656 1.183zm130.315 40.571l-.646-8.405-2.849-1.126-3.592-.533-1.569 8.882a11.049 11.049 0 018.656 1.182zm-199.035-127.19a14.23 14.23 0 00-16.505 11.51 14.222 14.222 0 0011.511 16.499 14.17 14.17 0 009.969-2.141l1.622-1.216 1.533-1.634.811-1.622a12.602 12.602 0 001.956-5.053 14.158 14.158 0 00-10.897-16.343zm8.516 22.791a13.36 13.36 0 001.394-1.602l-1.394 1.602zm-1.859 2.137l-1.622 1.218 1.622-1.218zm364.345 180.27a165.192 165.192 0 0149.775-27.922l-1.436-3.312a198.34 198.34 0 01-51.764 24.729 20.245 20.245 0 013.425 6.505zm-56.428-14.532a4.53 4.53 0 001.464-2.63l-.446-2.077a8.785 8.785 0 00-3.307-7.979 9.206 9.206 0 00-14.828 8.323 9.181 9.181 0 003.448 6.14 8.775 8.775 0 005.763 1.798 8.789 8.789 0 005.563-2.347l2.343-1.228zm2.463-2.699a5.236 5.236 0 01-1.73 3.412 60.766 60.766 0 0122.488 10.956l.702-1.453a76.768 76.768 0 01-21.46-12.915zm45.081 11.608a12.903 12.903 0 00-4.897-2.569 14.173 14.173 0 00-14.857 4.348l1.563.534-.661 2.313-1.662.357.298 1.386-1.406-1.148-.622 1.148a14.153 14.153 0 009.664 17.631c2.402.69 4.944.733 7.367.124a14.172 14.172 0 0010.19-9.933 14.157 14.157 0 00-3.583-13.767l-1.394-.424zm.553-.119l1.514.978-1.514-.978z"/><path d="M614.399 340.362l1.661-.357.663-2.314-1.564-.533a14.202 14.202 0 00-2.303 4.115l1.406 1.146.137-2.057zm-510.045-87.726l.237 1.107.832-.178-.623 1.148c.206 1.69.564 3.358 1.07 4.984a28.32 28.32 0 0030.759 16.421 28.33 28.33 0 008.595-3.149 543.876 543.876 0 00-38.216-39.005 28.312 28.312 0 00-2.654 18.672zm56.31-9.628a28.318 28.318 0 00-35.418-22.997 28.33 28.33 0 00-13.403 8.137c12.479 16.292 25.126 30.665 36.773 43.08a28.32 28.32 0 0012.048-28.22z"/><path d="M104.591 253.744l.179.831.624-1.147-.803.316zm-68.149 9.13a17.153 17.153 0 00-14 19.804 17.144 17.144 0 007.005 11.099 17.155 17.155 0 0026.628-10.22 17.153 17.153 0 00-6.83-17.789 17.16 17.16 0 00-12.803-2.894zm822.858-34.74a10.372 10.372 0 00-12.031 8.39 10.368 10.368 0 008.39 12.027c2.533.4 5.123-.156 7.268-1.561l1.182-.886 1.117-1.191.591-1.182a9.181 9.181 0 001.426-3.684 10.317 10.317 0 00-7.943-11.913zm-10.162-108.122a10.372 10.372 0 00-10.328 16.141 10.373 10.373 0 006.687 4.276c2.533.4 5.123-.156 7.268-1.561l1.182-.886 1.117-1.191.591-1.183a9.171 9.171 0 001.426-3.683 10.322 10.322 0 00-7.943-11.913z"/></g><defs><clipPath id="clip0_747_2381"><path fill="#fff" transform="rotate(-102.119 305.041 277.41)" d="M0 0h466.12v848.636H0z"/></clipPath></defs></svg>