<svg width="136" height="32" viewBox="0 0 136 32" fill="none" xmlns="http://www.w3.org/2000/svg">
<path d="M120.111 0.159082H22.8795C22.7515 0.636545 22.638 1.14838 22.5458 1.68391C22.4559 2.64571 22.3667 4.04525 22.3667 5.79544V9.90851L25.6845 6.75725C26.7605 6.49522 27.6582 6.40736 28.4644 6.40736C30.4381 6.40736 31.8737 6.84587 32.9489 7.89629C33.9365 8.94594 34.4745 10.4341 34.4745 12.4448V19.6182C34.4745 19.9207 34.4783 20.2064 34.4852 20.4815C35.2137 21.224 35.9483 21.7618 36.756 22.156C37.5637 22.5044 38.4599 22.7672 39.2676 22.7672C40.1653 22.7672 40.8824 22.5044 41.4203 22.0674C41.9583 21.7183 42.2281 21.1927 42.2281 20.4945C42.2281 20.0559 42.0483 19.5311 41.6002 19.0078C41.1506 18.5701 40.2552 17.9582 38.9979 17.1682C37.4746 16.1194 36.3079 15.1568 35.68 14.2821C35.0521 13.4937 34.694 12.6197 34.694 11.5693C34.694 10.0819 35.4103 8.85809 36.8459 7.80767C38.2808 6.84587 39.9839 6.40736 42.1374 6.40736C42.9444 6.40736 43.6615 6.40736 44.201 6.49521C44.739 6.67016 45.4568 6.84587 46.1731 7.10866V10.6083C45.5444 10.0819 44.918 9.64418 44.2894 9.2943C43.6615 9.03379 42.9444 8.94594 42.1374 8.94594C41.3312 8.94594 40.6126 9.12012 39.9839 9.47001C39.4467 9.82065 39.1777 10.3455 39.1777 10.8688C39.1777 11.4838 39.3576 11.9207 39.7157 12.3577C40.0754 12.8818 40.7871 13.4142 41.8677 14.1087C43.6561 15.2553 44.918 16.2072 45.6343 17.0812C46.2638 17.9582 46.6219 18.9177 46.6219 19.881C46.6219 21.4563 45.994 22.7672 44.739 23.8176C43.394 24.7809 41.7793 25.3042 39.8064 25.3042C38.7296 25.3042 37.8327 25.3042 37.0258 25.1301C36.5243 25.0697 35.8888 24.9635 35.1855 24.7863C35.2182 24.842 35.2449 24.9016 35.2815 24.9551H29.1838C29.5412 24.3432 29.8101 23.7313 29.9008 22.9429C30.0799 22.156 30.1683 21.0185 30.1683 19.6182V12.8818C30.1683 11.8321 29.8101 11.0445 29.2722 10.5204C28.6458 9.99483 27.7481 9.82065 26.5822 9.82065C25.7745 9.82065 24.6985 9.99483 23.3528 10.5204L22.3667 10.9582V19.6182C22.3667 21.0185 22.4559 22.156 22.5458 22.8566C22.7256 23.6427 22.9946 24.3432 23.2628 24.9551H17.076C17.0775 24.9513 17.0798 24.9482 17.0813 24.9436C16.272 25.182 15.3789 25.3042 14.402 25.3042C12.1586 25.3042 10.1873 24.6931 8.57177 23.4677V25.3936C8.57177 26.3554 8.57177 27.2309 8.75085 28.017C8.81562 28.5823 8.97488 29.1935 9.18901 29.8787C11.296 30.9383 13.6712 31.5372 16.1836 31.5372H120.111C128.739 31.5372 135.76 24.5006 135.76 15.8489C135.76 7.19728 128.739 0.159082 120.111 0.159082ZM8.57177 9.90851L11.5315 7.02081L12.0687 6.75725C12.6966 6.49522 13.5044 6.40736 14.4904 6.40736C15.8384 6.40736 17.0318 6.70836 18.0613 7.29277V5.26985C18.0613 4.04525 17.9721 3.08422 17.7915 2.29659C17.71 1.58383 17.4791 0.871075 17.1697 0.159082H16.1836C10.9325 0.159082 6.28112 2.76718 3.44029 6.75725H8.57177V9.90851ZM120.111 29.9979H59.1656V29.9788C52.1679 29.0896 46.756 23.1056 46.756 15.8489C46.756 8.59147 52.1679 2.60675 59.1656 1.71676V1.70072H120.111C127.893 1.70072 134.222 8.04755 134.222 15.8489C134.222 23.6503 127.893 29.9979 120.111 29.9979ZM12.6074 9.82065C11.8012 9.82065 10.9036 9.90851 9.82758 10.2576C9.46943 10.4341 9.0206 10.6083 8.57177 10.8688V20.8428C9.55859 21.8925 10.7253 22.4173 12.1586 22.4173C13.9524 22.4173 15.3835 21.8902 16.285 20.8428C17.268 19.7022 17.809 18.2187 17.809 16.2072C17.809 14.1942 17.271 12.6197 16.3741 11.4838C15.478 10.3455 14.1323 9.82065 12.6074 9.82065ZM3.33133 6.91233C1.57029 9.45014 0.533936 12.5296 0.533936 15.8489C0.533936 19.6686 1.90405 23.1744 4.17564 25.8955C4.17564 25.7305 4.17717 25.5632 4.17717 25.3936V12.0949C4.17717 11.1323 4.17717 10.2576 3.99733 9.47001C3.91275 8.72211 3.66281 7.8917 3.33133 6.91233Z" fill="#00512D"/>
<path d="M50.1078 18.142V13.6638C50.1078 12.9999 50.0812 12.4392 50.0278 11.9877C49.973 11.5339 49.8785 11.0649 49.739 10.5813H50.9186H52.2392C53.5049 10.5813 54.4514 10.8425 55.0839 11.3658C55.7125 11.8891 56.028 12.6752 56.028 13.7234C56.028 14.8517 55.6584 15.6783 54.9193 16.1985C54.2266 16.6836 53.1582 16.9434 51.7134 16.9755V18.1474C51.7134 18.8166 51.7393 19.3781 51.7934 19.8288C51.8475 20.2826 51.942 20.7471 52.0807 21.2268H50.9141H49.739C49.8762 20.7555 49.9714 20.2925 50.0255 19.841C50.0812 19.3872 50.1078 18.8212 50.1078 18.142ZM51.7134 16.1619C52.589 16.1535 53.2359 15.9694 53.6512 15.6157C54.0673 15.2581 54.2761 14.689 54.2761 13.9052C54.2761 13.139 54.0841 12.566 53.6993 12.1863C53.316 11.8043 52.7391 11.6141 51.9717 11.6141H51.7134V16.1619Z" fill="#00512D"/>
<path d="M56.8131 19.0669V13.2273C56.8131 12.7475 56.7895 12.3503 56.7445 12.0325C56.7003 11.7162 56.6195 11.3931 56.5022 11.0684L57.5561 10.8575L58.6092 10.6406C58.4896 10.976 58.4057 11.3488 58.3577 11.7598C58.309 12.1723 58.2846 12.7346 58.2846 13.445V15.128L59.4017 13.8377C59.7812 13.7338 60.0974 13.6818 60.3497 13.6818C61.018 13.6818 61.5247 13.8904 61.8722 14.3098C62.2197 14.7292 62.3942 15.3396 62.3942 16.1394V19.0669C62.3942 19.6811 62.4125 20.1463 62.4513 20.4618C62.4902 20.7766 62.5588 21.0317 62.6594 21.2273H61.636H60.6126C60.7284 21.0004 60.8084 20.7284 60.8549 20.4122C60.8983 20.0944 60.9212 19.6459 60.9212 19.0692V16.3457C60.9212 15.9164 60.8214 15.5963 60.6232 15.3854C60.4251 15.1746 60.1203 15.0699 59.7111 15.0699C59.4329 15.0699 59.0672 15.1746 58.6153 15.3824L58.2846 15.5306V19.0692C58.2846 19.6429 58.309 20.0875 58.3577 20.4015C58.4057 20.7162 58.4896 20.9912 58.6092 21.2273H57.5561H56.5022C56.6195 21.0004 56.7003 20.7284 56.7445 20.4122C56.7895 20.0944 56.8131 19.6459 56.8131 19.0669Z" fill="#00512D"/>
<path d="M65.4359 21.3889C64.7173 21.3889 64.1656 21.2346 63.777 20.929C63.3899 20.6212 63.1956 20.1819 63.1956 19.6128C63.1956 19.2331 63.332 18.8763 63.6048 18.5425C63.8776 18.2079 64.2464 17.9428 64.7112 17.7495L66.8769 16.8519V16.1804C66.8769 15.7778 66.7527 15.4577 66.505 15.2193C66.2581 14.9817 65.9228 14.8633 65.5045 14.8633C65.2355 14.8633 64.9734 14.9099 64.7234 15.0008C64.4704 15.0925 64.1953 15.2453 63.892 15.4561L64.2982 14.0367C64.587 13.9137 64.8659 13.8244 65.1364 13.7663C65.4062 13.7113 65.6805 13.6815 65.9594 13.6815C66.7542 13.6815 67.3509 13.8908 67.7502 14.3079C68.1502 14.7228 68.3491 15.3446 68.3491 16.1742V19.0673C68.3491 19.6815 68.3705 20.1467 68.407 20.4623C68.4459 20.7762 68.5145 21.0322 68.6143 21.227H67.7456H66.8769V20.5188L65.7323 21.3752L65.4359 21.3889ZM66.8769 20.107V18.0818H64.9878C64.9436 18.0818 64.8865 18.2178 64.8164 18.4905C64.7455 18.7648 64.7135 18.9947 64.7135 19.1781C64.7135 19.5257 64.8248 19.7877 65.0488 19.9619C65.2736 20.1361 65.6127 20.2224 66.06 20.2224C66.3389 20.2224 66.6071 20.1842 66.8617 20.107H66.8769Z" fill="#00512D"/>
<path d="M69.7881 19.0669V16.0035C69.7881 15.6062 69.7645 15.2479 69.7211 14.9309C69.6761 14.6138 69.5953 14.2517 69.4788 13.8438H70.3673H71.2604V15.154L72.4004 13.8644C72.7387 13.7422 73.0626 13.6818 73.3719 13.6818C73.6287 13.6818 73.849 13.7315 74.0296 13.8316L73.7309 15.4229L73.6638 15.3747C73.3887 15.1715 73.0626 15.0699 72.6846 15.0699C72.4057 15.0699 72.0414 15.1723 71.5903 15.3801L71.2604 15.5283V19.0669C71.2604 19.6406 71.284 20.0875 71.332 20.4015C71.3808 20.7162 71.4646 20.9912 71.585 21.2273H70.5319H69.4788C69.5953 21.0004 69.6761 20.7284 69.7211 20.4122C69.7645 20.0936 69.7881 19.6459 69.7881 19.0669Z" fill="#00512D"/>
<path d="M74.6289 19.0669V16.0035C74.6289 15.6062 74.6068 15.2479 74.5619 14.9309C74.5184 14.6138 74.4361 14.2517 74.3203 13.8438H75.2073H76.1019V15.264L77.024 14.1234L77.3547 13.9255C77.6702 13.7628 78.0314 13.6818 78.4383 13.6818C79.019 13.6818 79.4647 13.8644 79.7718 14.2311C80.002 14.5038 80.1429 14.8705 80.1925 15.332L81.2845 14.1096L81.5847 13.9401C81.9009 13.7666 82.2385 13.6818 82.5967 13.6818C83.1682 13.6818 83.6025 13.8606 83.9013 14.2189C84.2 14.5757 84.3493 15.0997 84.3493 15.7857V19.0669C84.3493 19.6918 84.3676 20.1624 84.4027 20.4794C84.4392 20.7972 84.504 21.0455 84.5985 21.2273H83.5842H82.5677C82.6835 21.0004 82.7651 20.7284 82.81 20.4122C82.8535 20.0944 82.8756 19.6459 82.8756 19.0692V16.251C82.8756 15.8522 82.7841 15.5566 82.5967 15.361C82.4123 15.1669 82.1295 15.0699 81.7485 15.0699C81.3934 15.0699 81.0056 15.1891 80.5788 15.429L80.2252 15.6467V19.0692C80.2252 19.6429 80.2496 20.0875 80.2984 20.4015C80.3464 20.7162 80.4302 20.9912 80.5499 21.2273H79.496H78.4429C78.5587 21.0004 78.6402 20.7284 78.6852 20.4122C78.7302 20.0944 78.753 19.6459 78.753 19.0692V16.2563C78.753 15.8545 78.66 15.5566 78.4764 15.361C78.2905 15.1669 78.007 15.0699 77.6229 15.0699C77.2991 15.0699 76.8998 15.1944 76.4265 15.4435L76.1019 15.6116V19.0692C76.1019 19.6429 76.1255 20.0875 76.1743 20.4015C76.2231 20.7162 76.3054 20.9912 76.4265 21.2273H75.3734H74.3203C74.4361 21.0004 74.5184 20.7284 74.5619 20.4122C74.6068 20.0936 74.6289 19.6459 74.6289 19.0669Z" fill="#00512D"/>
<path d="M89.4911 15.4237C89.2823 15.1777 89.0689 14.9989 88.8517 14.8858C88.6315 14.7728 88.3892 14.7147 88.1217 14.7147C87.8261 14.7147 87.5814 14.7919 87.3848 14.9462C87.1905 15.0997 87.093 15.2923 87.093 15.5222C87.093 15.7483 87.1593 15.9523 87.2904 16.1334C87.4168 16.3144 87.6607 16.5436 88.0173 16.8186C88.6216 17.2846 89.0461 17.6949 89.2899 18.0478C89.5292 18.3962 89.6488 18.7751 89.6488 19.1815C89.6488 19.8156 89.4286 20.3427 88.9874 20.7598C88.5469 21.1784 87.9907 21.3893 87.3216 21.3893C86.9558 21.3893 86.6411 21.3671 86.3813 21.3243C86.1206 21.2823 85.8014 21.2014 85.4219 21.0784V19.3213C85.7061 19.6658 85.9911 19.9225 86.2761 20.0891C86.5611 20.2564 86.853 20.3404 87.1517 20.3404C87.4412 20.3404 87.6805 20.2564 87.871 20.0852C88.0608 19.9149 88.156 19.701 88.156 19.4428C88.156 19.2334 88.079 19.0318 87.9259 18.8362C87.7773 18.6467 87.4885 18.3862 87.0572 18.0547C86.5139 17.6337 86.1328 17.2541 85.9096 16.9141C85.6932 16.5787 85.5834 16.2052 85.5834 15.7934C85.5834 15.1868 85.8257 14.6834 86.3081 14.2816C86.7897 13.882 87.3955 13.6819 88.1255 13.6819C88.393 13.6819 88.6224 13.7048 88.8174 13.7483C89.0125 13.7942 89.2381 13.8751 89.4911 13.992V15.4237Z" fill="#00512D"/>
<path d="M92.6462 21.3889C92.0671 21.3889 91.6465 21.2178 91.3813 20.8733C91.1168 20.5287 90.9842 19.9787 90.9842 19.2224V14.8633H89.938V14.8557L92.4435 12.2193H92.4565V13.8442H94.1642V14.8633H92.4565V18.6043C92.4565 19.1001 92.5426 19.4729 92.7118 19.7212C92.8802 19.9657 93.1347 20.0895 93.4738 20.0895C93.6818 20.0895 93.8723 20.0642 94.0484 20.0153C94.2213 19.9649 94.4309 19.8763 94.6732 19.7503L94.0903 21.1681C93.8335 21.256 93.6079 21.314 93.4159 21.3431C93.2238 21.3752 92.967 21.3889 92.6462 21.3889Z" fill="#00512D"/>
<path d="M96.9825 21.3889C96.2662 21.3889 95.7137 21.2346 95.3251 20.929C94.938 20.6212 94.7437 20.1819 94.7437 19.6128C94.7437 19.2331 94.8801 18.8763 95.1521 18.5425C95.4249 18.2079 95.7945 17.9428 96.2593 17.7495L98.4257 16.8519V16.1804C98.4257 15.7778 98.3023 15.4577 98.0524 15.2193C97.8047 14.9817 97.4725 14.8633 97.0533 14.8633C96.7828 14.8633 96.523 14.9099 96.2715 15.0008C96.0193 15.0925 95.7419 15.2453 95.4409 15.4561L95.8478 14.0367C96.1359 13.9137 96.4148 13.8244 96.6845 13.7663C96.9543 13.7113 97.2271 13.6815 97.506 13.6815C98.3023 13.6815 98.899 13.8908 99.2983 14.3079C99.6968 14.7228 99.8972 15.3446 99.8972 16.1742V19.0673C99.8972 19.6815 99.917 20.1467 99.9559 20.4623C99.994 20.7762 100.062 21.0322 100.163 21.227H99.2945H98.4257V20.5188L97.2827 21.3752L96.9825 21.3889ZM98.4257 20.107V18.0818H96.5375C96.4925 18.0818 96.4338 18.2178 96.3637 18.4905C96.2944 18.7648 96.2601 18.9947 96.2601 19.1781C96.2601 19.5257 96.3729 19.7877 96.5961 19.9619C96.8217 20.1361 97.1593 20.2224 97.6096 20.2224C97.8878 20.2224 98.1537 20.1842 98.4113 20.107H98.4257Z" fill="#00512D"/>
<path d="M101.543 19.0669V16.0035C101.543 15.6009 101.519 15.241 101.475 14.9232C101.429 14.6077 101.349 14.2472 101.233 13.8438H102.12H103.015V15.128L104.132 13.8377C104.511 13.7338 104.827 13.6818 105.078 13.6818C105.747 13.6818 106.255 13.8904 106.603 14.3098C106.949 14.7292 107.124 15.3396 107.124 16.1394V19.0669C107.124 19.6811 107.142 20.1463 107.181 20.4618C107.219 20.7766 107.289 21.0317 107.388 21.2273H106.364H105.341C105.459 21.0004 105.539 20.7284 105.585 20.4122C105.628 20.0944 105.651 19.6459 105.651 19.0692V16.3457C105.651 15.9164 105.552 15.5963 105.354 15.3854C105.154 15.1746 104.851 15.0699 104.44 15.0699C104.161 15.0699 103.796 15.1746 103.345 15.3824L103.015 15.5306V19.0692C103.015 19.6429 103.039 20.0875 103.086 20.4015C103.135 20.7162 103.22 20.9912 103.338 21.2273H102.285H101.233C101.349 21.0004 101.429 20.7284 101.475 20.4122C101.519 20.0936 101.543 19.6459 101.543 19.0669Z" fill="#00512D"/>
<path d="M110.846 21.389C109.939 21.389 109.218 21.1048 108.687 20.5333C108.157 19.9642 107.89 19.1919 107.89 18.2178C107.89 16.9184 108.257 15.8382 108.992 14.9764C109.726 14.1124 110.648 13.6815 111.754 13.6815C112.053 13.6815 112.331 13.722 112.588 13.803V13.2262C112.588 12.748 112.566 12.3492 112.52 12.033C112.478 11.7159 112.396 11.3935 112.278 11.0681L113.307 10.8573L114.34 10.6403C114.234 10.9398 114.161 11.2942 114.12 11.7068C114.081 12.1185 114.061 12.6976 114.061 13.4455V19.0673C114.061 19.6411 114.085 20.0872 114.133 20.4019C114.182 20.7167 114.264 20.9917 114.385 21.227H113.486H112.588V20.2209L111.713 21.2125C111.374 21.334 111.086 21.3943 110.846 21.389ZM111.256 14.7304C110.601 14.7304 110.129 14.9535 109.84 15.3989C109.552 15.8443 109.408 16.5715 109.408 17.5807C109.408 18.3859 109.582 19.0253 109.931 19.499C110.282 19.9718 110.753 20.2079 111.35 20.2079C111.638 20.2079 111.907 20.1529 112.155 20.0452L112.588 19.8129V15.1552C112.245 14.8725 111.8 14.7304 111.256 14.7304Z" fill="#00512D"/>
<path d="M128.037 21.389C127.129 21.389 126.408 21.1048 125.877 20.5333C125.346 19.9642 125.08 19.1919 125.08 18.2178C125.08 16.9184 125.448 15.8382 126.182 14.9764C126.917 14.1124 127.837 13.6815 128.944 13.6815C129.242 13.6815 129.521 13.722 129.777 13.803V13.2262C129.777 12.748 129.756 12.3492 129.71 12.033C129.666 11.7159 129.586 11.3935 129.469 11.0681L130.497 10.8573L131.532 10.6403C131.423 10.9398 131.349 11.2942 131.311 11.7068C131.271 12.1185 131.252 12.6976 131.252 13.4455V19.0673C131.252 19.6411 131.275 20.0872 131.324 20.4019C131.372 20.7167 131.455 20.9917 131.575 21.227H130.677H129.777V20.2209L128.904 21.2125C128.564 21.334 128.275 21.3943 128.037 21.389ZM128.445 14.7304C127.791 14.7304 127.319 14.9535 127.03 15.3989C126.742 15.8443 126.597 16.5715 126.597 17.5807C126.597 18.3859 126.772 19.0253 127.122 19.499C127.472 19.9718 127.944 20.2079 128.541 20.2079C128.829 20.2079 129.097 20.1529 129.345 20.0452L129.777 19.8129V15.1552C129.435 14.8725 128.99 14.7304 128.445 14.7304Z" fill="#00512D"/>
<path d="M117.104 21.3889C116.387 21.3889 115.835 21.2346 115.447 20.929C115.058 20.6212 114.865 20.1819 114.865 19.6128C114.865 19.2331 114.999 18.8763 115.273 18.5425C115.547 18.2079 115.916 17.9428 116.38 17.7495L118.545 16.8519V16.1804C118.545 15.7778 118.422 15.4577 118.174 15.2193C117.927 14.9817 117.594 14.8633 117.175 14.8633C116.905 14.8633 116.644 14.9099 116.393 15.0008C116.141 15.0925 115.864 15.2453 115.562 15.4561L115.969 14.0367C116.256 13.9137 116.536 13.8244 116.805 13.7663C117.074 13.7113 117.349 13.6815 117.627 13.6815C118.422 13.6815 119.021 13.8908 119.42 14.3079C119.819 14.7228 120.018 15.3446 120.018 16.1742V19.0673C120.018 19.6815 120.039 20.1467 120.075 20.4623C120.116 20.7762 120.183 21.0322 120.284 21.227H119.415H118.545V20.5188L117.402 21.3752L117.104 21.3889ZM118.545 20.107V18.0818H116.657C116.613 18.0818 116.555 18.2178 116.485 18.4905C116.415 18.7648 116.38 18.9947 116.38 19.1781C116.38 19.5257 116.493 19.7877 116.719 19.9619C116.943 20.1361 117.279 20.2224 117.729 20.2224C118.01 20.2224 118.275 20.1842 118.532 20.107H118.545Z" fill="#00512D"/>
<path d="M121.221 19.0669V16.0035C121.221 15.6062 121.198 15.2479 121.154 14.9309C121.109 14.6138 121.028 14.2517 120.913 13.8438H121.8H122.694V15.154L123.835 13.8644C124.172 13.7422 124.496 13.6818 124.806 13.6818C125.063 13.6818 125.281 13.7315 125.463 13.8316L125.165 15.4229L125.098 15.3747C124.823 15.1715 124.496 15.0699 124.118 15.0699C123.839 15.0699 123.476 15.1723 123.023 15.3801L122.694 15.5283V19.0669C122.694 19.6406 122.719 20.0875 122.766 20.4015C122.815 20.7162 122.898 20.9912 123.019 21.2273H121.964H120.913C121.028 21.0004 121.109 20.7284 121.154 20.4122C121.198 20.0936 121.221 19.6459 121.221 19.0669Z" fill="#00512D"/>
</svg>
